#N canvas 445 116 767 637 10;
#X obj 8 17 cnv 15 680 40 empty empty Generative_series 20 12 0 14
-233017 -66577 0;
#X obj 303 21 cnv 15 380 40 empty empty harmony_abs_selection 20 20
0 24 -128992 -262144 0;
#X obj 28 527 rr_OUTdac~;
#X obj 30 75 tgl 15 0 empty empty empty 17 7 0 10 -262144 -1 -1 0 1
;
#X obj 140 496 rev1~;
#X floatatom 178 496 5 0 0 0 - - -;
#X obj 157 529 bng 15 250 50 0 empty empty empty 17 7 0 10 -262144
-1 -1;
#X obj 157 549 s sync;
#X obj 140 473 hip~ 500;
#X floatatom 123 75 5 0 0 0 - - -;
#X obj 30 203 nbx 3 15 -1e+37 1e+37 0 0 empty empty empty 0 -8 0 12
-1 -4034 -1 -4 256;
#X obj 30 298 nbx 3 15 -1e+37 1e+37 0 0 empty empty empty 0 -8 0 12
-1 -4034 -1 72 256;
#X msg 220 346 next \$1;
#X obj 29 456 rr_mix~ 0.35;
#X obj 220 75 tgl 15 0 empty empty empty 17 7 0 10 -262144 -1 -1 0
1;
#X floatatom 343 75 5 0 0 0 - - -;
#X obj 220 120 bng 15 250 50 0 empty empty empty 17 7 0 10 -1 -4034
-1;
#X floatatom 56 230 5 0 0 0 - - -;
#X floatatom 82 250 5 0 0 0 - - -;
#X floatatom 108 229 5 0 0 0 - - -;
#X floatatom 137 251 5 0 0 0 - - -;
#X obj 440 298 nbx 3 15 -1e+37 1e+37 0 0 empty empty empty 0 -8 0 12
-1 -4034 -1 58 256;
#X msg 30 346 next \$1;
#X obj 307 120 s dur;
#X obj 303 481 cnv 15 380 40 empty empty extras 20 20 0 20 -191407
-262144 0;
#X obj 30 180 rr_armonia;
#X floatatom 98 180 5 0 0 0 - - -;
#X obj 30 97 rr_pulsa+ 2 1 11;
#X obj 123 120 s dur;
#X obj 281 120 * 4;
#X obj 98 120 * 3;
#X obj 30 273 rr_mappa+ 7 12 0 0;
#X floatatom 231 157 5 0 0 0 - - -;
#X obj 220 180 rr_morf, f 12;
#X floatatom 301 180 5 0 0 0 - - -;
#X obj 266 157 expr random(-6 \, 6);
#X obj 220 219 nbx 3 15 -1e+37 1e+37 0 0 empty empty empty 0 -8 0 12
-1 -4034 -1 3 256;
#X obj 343 120 sel 1;
#X obj 220 97 rr_atempo 60 4 4 4 65;
#X obj 134 180 rr_triadi 12, f 13;
#X obj 30 145 rr_count 7 1;
#X obj 440 250 + 25;
#X obj 440 273 rr_allchords 4 2;
#X msg 533 250 0 2 3 5 7 8 10;
#X floatatom 344 273 5 0 0 0 - - -;
#X obj 220 298 nbx 3 15 -1e+37 1e+37 0 0 empty empty empty 0 -8 0 12
-1 -4034 -1 61 256;
#X obj 134 203 nbx 3 15 -1e+37 1e+37 0 0 empty empty empty 0 -8 0 12
-1 -4034 -1 9 256;
#X obj 30 369 clone 10 rr_pad~ 50 5 50 150 3000 3, f 18;
#X obj 220 273 rr_quantizza 1.5 48;
#X obj 220 369 clone 10 rr_fm~ 1.01 2 0.15 0.9 25 2500 3, f 21;
#X obj 439 330 t f b, f 7;
#X obj 439 415 *~, f 24;
#X msg 439 368 next \$1;
#X msg 580 368 all \$1;
#X msg 509 368 all \$1;
#X obj 580 346 f 0;
#X obj 439 391 clone 10 rr_wtab4+~ 10 3;
#X obj 303 531 rr_circula 4 7 12;
#X obj 303 556 rr_lolo~ 0.5 0 1 0;
#X obj 439 439 *~ 0.25;
#X msg 509 338 1;
#X obj 63 433 rr_tremo~ 5 0.1;
#X connect 3 0 27 0;
#X connect 4 0 2 0;
#X connect 4 0 2 1;
#X connect 5 0 4 1;
#X connect 6 0 7 0;
#X connect 8 0 4 0;
#X connect 9 0 27 1;
#X connect 12 0 49 0;
#X connect 13 0 2 0;
#X connect 13 0 8 0;
#X connect 14 0 38 0;
#X connect 15 0 38 1;
#X connect 17 0 31 1;
#X connect 18 0 31 2;
#X connect 19 0 31 3;
#X connect 20 0 31 4;
#X connect 22 0 47 0;
#X connect 25 0 10 0;
#X connect 26 0 25 1;
#X connect 27 0 40 0;
#X connect 27 1 30 0;
#X connect 29 0 23 0;
#X connect 30 0 28 0;
#X connect 31 0 11 0;
#X connect 32 0 33 1;
#X connect 33 0 36 0;
#X connect 33 1 36 0;
#X connect 33 2 36 0;
#X connect 33 3 36 0;
#X connect 34 0 33 3;
#X connect 35 0 33 2;
#X connect 37 0 35 0;
#X connect 38 0 16 0;
#X connect 38 1 29 0;
#X connect 38 2 37 0;
#X connect 39 0 46 0;
#X connect 40 0 39 0;
#X connect 41 0 42 0;
#X connect 42 0 21 0;
#X connect 43 0 42 1;
#X connect 44 0 48 1;
#X connect 48 0 45 0;
#X connect 50 0 52 0;
#X connect 50 1 55 0;
#X connect 51 0 59 0;
#X connect 52 0 56 0;
#X connect 53 0 56 4;
#X connect 54 0 56 2;
#X connect 55 0 53 0;
#X connect 56 0 51 0;
#X connect 56 1 51 1;
#X connect 60 0 54 0;
#X connect 61 0 13 1;
