#N canvas 597 125 704 637 10;
#X obj 8 17 cnv 15 680 40 empty empty Generative_series 20 12 0 14
-233017 -66577 0;
#X obj 303 21 cnv 15 380 40 empty empty ABS:rr_1overF 20 20 0 24 -128992
-262144 0;
#X obj 30 528 rr_record~;
#X msg 193 502 rec01.wav;
#X text 309 550 You can record your performance. Put the name. It show
passing seconds while recording. Bang to reset.;
#X obj 30 106 tgl 15 0 empty empty empty 17 7 0 10 -262144 -1 -1 0
1;
#X obj 142 393 rev1~;
#X floatatom 180 393 5 0 0 0 - - -;
#X msg 30 305 next \$1;
#X floatatom 135 112 5 0 0 0 - - -;
#X floatatom 204 370 5 0 0 0 - - -;
#X text 309 460 1st toggle turn ON/OFF your Dsp. 2nd toggle visualize
the wave sound. Stereo spatialization and volume sliders.;
#X obj 30 353 *~ 0.25;
#X obj 29 418 rr_XOUTdac~;
#X obj 142 370 hip~ 1000;
#X obj 30 330 clone 12 rr_tone~ 2500 3;
#X obj 30 170 rr_1overF;
#X obj 30 127 rr_pulsa 1 2;
#X obj 30 279 rr_mappa+ 7 12 0 0;
#X obj 108 210 sel 1;
#X obj 108 233 rr_circula 4 4 10;
#X floatatom 157 155 5 0 0 0 - - -;
#X text 308 189 1overF needs a bang in 1st inlet and a value as seed
in 2nd inlet. It returns 1/f distribution. Inversion in 2nd outlet
so you can use to modulate durations.;
#X connect 3 0 2 2;
#X connect 5 0 17 0;
#X connect 6 0 13 1;
#X connect 7 0 6 1;
#X connect 8 0 15 0;
#X connect 9 0 17 1;
#X connect 10 0 14 1;
#X connect 12 0 13 0;
#X connect 12 0 14 0;
#X connect 12 0 13 1;
#X connect 13 0 2 0;
#X connect 13 1 2 1;
#X connect 14 0 6 0;
#X connect 15 0 12 0;
#X connect 16 0 18 0;
#X connect 16 1 9 0;
#X connect 16 1 19 0;
#X connect 17 0 16 0;
#X connect 18 0 8 0;
#X connect 19 0 20 0;
#X connect 19 0 21 0;
#X connect 20 0 18 3;
#X connect 21 0 16 1;
