#N canvas 539 116 736 637 10;
#X obj 8 17 cnv 15 680 40 empty empty Generative_series 20 12 0 14
-233017 -66577 0;
#X obj 303 21 cnv 15 380 40 empty empty ABS:rr_synthstring 20 20 0
24 -128992 -262144 0;
#X obj 29 442 rr_OUTdac~;
#X obj 30 552 rr_record~;
#X msg 193 526 rec01.wav;
#X text 309 470 1st toggle turn ON/OFF your Dsp. 2nd toggle visualize
the wave sound. Slide is for volume.;
#X text 309 550 You can record your performance. Put the name. It show
passing seconds while recording. Bang to reset.;
#X obj 30 113 rr_density;
#X text 308 94 HOW TO: Use density to define how much times in seconds
you choose bang occures.;
#X obj 30 180 rr_play;
#X text 309 420 Echo~ repeats sound (e1 \, e2 \, ...) every ms you
put as parameter and fade out. You can put multiples in sequence. You
can put 3rd attribute from 0-1 for feedback.;
#X obj 102 180 rr_circle;
#X obj 30 255 + 0;
#X text 308 210 In circle: [div] how many bangs in to have a bang out
(a counter) \; [int] defines interval to next number out \; [oct] in
how many octaves can displaces \; [off] offset number (may be root
of sequence] \; [set] reset. Es: have circle of fifth with 7 in int.
2nd inlet is for [div] and 3rd for [int].;
#X text 308 154 Choose how many elements in your sequence [num] then
[set].You can click [set] again for a new sequence. You can bang in
2nd inlet to [set]. 3rd inlet (2-6) how many repetitions of sequence
to bang out in 2nd outlet.;
#X obj 141 420 *~ 0.25;
#X obj 30 279 rr_synthstring~ 0 100 10 100 100 1000;
#X obj 62 323 rr_synthstring~ 0 10 5 50 200 2000;
#X obj 72 369 rr_synthstring~ 0 5 8 200 50 500;
#X text 309 315 With synthstring you can simulate as strings as you
want \; 1st argument fundamental \; 2nd rnd range for detune (1-100)
\; 3rd rnd range for FM (1-10) \; 4th rnd range for timbre (1-100)
\; 5th attack in ms \; 6th release in ms.;
#X obj 30 398 rr_echo~ e1 250 0.5;
#X obj 63 301 - 12;
#X obj 73 348 + 12;
#X connect 2 0 3 0;
#X connect 2 1 3 1;
#X connect 4 0 3 2;
#X connect 7 0 9 0;
#X connect 9 0 12 0;
#X connect 9 1 11 0;
#X connect 11 0 12 1;
#X connect 12 0 16 0;
#X connect 12 0 21 0;
#X connect 12 0 22 0;
#X connect 15 0 2 1;
#X connect 16 0 20 0;
#X connect 17 0 20 0;
#X connect 18 0 20 0;
#X connect 20 0 2 0;
#X connect 20 0 2 1;
#X connect 20 1 15 0;
#X connect 21 0 17 0;
#X connect 22 0 18 0;
