#N canvas 532 116 737 632 10;
#X obj 8 17 cnv 15 680 40 empty empty Generative_series 20 12 0 14
-233017 -66577 0;
#X obj 303 21 cnv 15 380 40 empty empty ABS:rr_vowa~ 20 20 0 24 -128992
-262144 0;
#X obj 29 442 rr_OUTdac~;
#X obj 30 552 rr_record~;
#X msg 193 526 rec01.wav;
#X text 309 485 1st toggle turn ON/OFF your Dsp. 2nd toggle visualize
the wave sound. Slide is for volume.;
#X text 309 550 You can record your performance. Put the name. It show
passing seconds while recording. Bang to reset.;
#X text 308 134 Choose how many elements in your sequence [num] then
[set].You can click [set] again for a new sequence. You can bang in
2nd inlet to [set]. 3rd inlet (2-6) how many repetitions of sequence
to bang out in 2nd outlet.;
#X obj 30 125 rr_play;
#X obj 30 81 tgl 15 0 empty empty empty 17 7 0 10 -262144 -1 -1 0 1
;
#X text 308 94 HOW TO: Use pulsa to define how much times in seconds
you choose bang occures.;
#X obj 115 393 rev1~;
#X floatatom 177 393 5 0 0 0 - - -;
#X floatatom 177 370 5 0 0 0 - - -;
#X floatatom 68 386 5 0 1 0 - - -;
#X obj 30 353 *~ 0.25;
#X obj 115 370 hip~ 1000;
#X floatatom 159 260 5 0 0 0 - - -;
#X obj 30 307 *~;
#X msg 30 235 \$1 100;
#X obj 30 258 line;
#X obj 30 190 t f b, f 8;
#X obj 30 101 rr_pulsa 2 1;
#X obj 30 212 + 35;
#X obj 30 330 rr_tremo~ 1.5 0.35;
#X obj 30 283 rr_vowa~ 4 24 1500 100;
#X obj 75 306 rr_adsr~ 1 0.85 100 100 150 50 2;
#X text 308 304 Vowa needs 4 arguments and a value in 2nd inlet: 1st
is amplitude \; 2nd is index of timbre \; 3rd is low pass filter \;
(< 3000) 4th is high pass filter \; (> 200) In second put a value (0-8)
to select the vocal to pronouce.;
#X obj 29 408 rr_mix~ 0.5;
#X connect 2 0 3 0;
#X connect 2 1 3 1;
#X connect 4 0 3 2;
#X connect 8 0 21 0;
#X connect 9 0 22 0;
#X connect 11 0 28 1;
#X connect 12 0 11 1;
#X connect 13 0 16 1;
#X connect 14 0 28 2;
#X connect 15 0 16 0;
#X connect 15 0 28 0;
#X connect 16 0 11 0;
#X connect 17 0 25 1;
#X connect 18 0 24 0;
#X connect 19 0 20 0;
#X connect 20 0 25 0;
#X connect 21 0 23 0;
#X connect 21 1 26 0;
#X connect 22 0 8 0;
#X connect 23 0 19 0;
#X connect 24 0 15 0;
#X connect 25 0 18 0;
#X connect 26 0 18 1;
#X connect 28 0 2 0;
#X connect 28 0 2 1;
