#N canvas 597 125 704 637 10;
#X obj 8 17 cnv 15 680 40 empty empty Generative_series 20 12 0 14
-233017 -66577 0;
#X obj 303 21 cnv 15 380 40 empty empty ABS:rr_modifica 20 20 0 24
-128992 -262144 0;
#X obj 30 518 rr_record~;
#X msg 193 492 rec01.wav;
#X text 309 550 You can record your performance. Put the name. It show
passing seconds while recording. Bang to reset.;
#X obj 30 86 tgl 15 0 empty empty empty 17 7 0 10 -262144 -1 -1 0 1
;
#X obj 142 383 rev1~;
#X floatatom 180 383 5 0 0 0 - - -;
#X msg 30 295 next \$1;
#X floatatom 114 159 5 0 0 0 - - -;
#X floatatom 204 360 5 0 0 0 - - -;
#X text 309 460 1st toggle turn ON/OFF your Dsp. 2nd toggle visualize
the wave sound. Stereo spatialization and volume sliders.;
#X obj 30 343 *~ 0.25;
#X obj 29 408 rr_XOUTdac~;
#X obj 142 360 hip~ 1000;
#X obj 30 320 clone 12 rr_tone~ 2500 3;
#X obj 30 183 rr_motivo, f 10;
#X obj 30 268 rr_mappa+ 7 12 0 0;
#X text 308 178 Motivo needs a bang in 1st inlet and a value as seed
in 2nd inlet. It returns a simple motif for every seed.;
#X obj 87 159 f 0;
#X obj 126 133 bng 15 250 50 0 empty empty empty 17 7 0 10 -262144
-1 -1;
#X obj 30 117 rr_pulsa 7 2;
#X floatatom 119 224 5 0 0 0 - - -;
#X obj 170 207 / 10;
#X obj 30 225 rr_modifica 1;
#X text 308 228 Modifica needs a sequence/motif in 1st inlet \, an
argument as seed and a value from 0 to 1 in 3rd inlet as grade of variance/modification.
;
#X obj 170 146 rr_circula 4 1 10;
#X connect 3 0 2 2;
#X connect 5 0 21 0;
#X connect 6 0 13 1;
#X connect 7 0 6 1;
#X connect 8 0 15 0;
#X connect 9 0 19 1;
#X connect 10 0 14 1;
#X connect 12 0 13 0;
#X connect 12 0 14 0;
#X connect 12 0 13 1;
#X connect 13 0 2 0;
#X connect 13 1 2 1;
#X connect 14 0 6 0;
#X connect 15 0 12 0;
#X connect 16 0 24 0;
#X connect 17 0 8 0;
#X connect 19 0 16 1;
#X connect 20 0 19 0;
#X connect 20 0 24 1;
#X connect 20 0 26 0;
#X connect 21 0 16 0;
#X connect 21 1 20 0;
#X connect 22 0 24 2;
#X connect 23 0 22 0;
#X connect 24 0 17 0;
#X connect 26 0 23 0;
