#N canvas 539 116 736 637 10;
#X obj 8 17 cnv 15 680 40 empty empty Generative_series 20 12 0 14
-233017 -66577 0;
#X obj 303 21 cnv 15 380 40 empty empty ABS:rr_fundom 20 20 0 24 -128992
-262144 0;
#X obj 29 442 rr_OUTdac~;
#X obj 30 552 rr_record~;
#X msg 193 526 rec01.wav;
#X text 309 460 1st toggle turn ON/OFF your Dsp. 2nd toggle visualize
the wave sound. Slide is for volume.;
#X text 309 550 You can record your performance. Put the name. It show
passing seconds while recording. Bang to reset.;
#X obj 30 113 rr_density;
#X text 308 94 HOW TO: Use density to define how much times in seconds
you choose bang occures.;
#X text 309 410 Echo~ repeats sound (e1 \, e2 \, ...) every ms you
put as parameter and fade out. You can put multiples in sequence. You
can put 3rd attribute from 0-1 for feedback.;
#X msg 30 343 next \$1;
#X obj 142 413 *~ 0.25;
#X text 309 300 With plucked you can simulated plucked string sound
\; 1st 0 o number when use clone \; 2nd resonance (< 0.99) \; 3rd cutoff
freq for low in tone (< 6000) \; 4th cutoff freq for high in tone (<
5000) \; 5th cutoff freq for low in noise (< 6000) \; 6th cutoff freq
for high in noise (< 5000) \; 7th type of curve (1-8).;
#X obj 30 201 f 0;
#X obj 56 201 + 1;
#X obj 30 247 sel 0 1, f 9;
#X obj 30 282 rr_fundom;
#X obj 30 391 rr_echo~ e1 45 0.15;
#X obj 123 266 rr_cycle1 0 32 5 1 50;
#X obj 30 178 t b b, f 16;
#X text 308 130 Cycle1 (as circle) needs five arguments: 1st for clone
\; 2nd is for how many bangs in to have a bang out (a counter) \; 3rd
is for interval to repeat on every cycle \; 4rt in how many octaves
\; 5th is root tone to begin.;
#X text 308 235 In fundom: send a bang to 1st inlet to have a fundamental
in outlet or a bang in 2nd inlet to have a dominant. 3rd inlet is for
root tone.;
#X obj 82 201 % 8;
#X obj 30 224 < 4;
#X obj 30 312 rr_active 1;
#X obj 30 366 clone rr_plucked~ 6 0.99 3000 5 1500 300 1;
#X connect 2 0 3 0;
#X connect 2 1 3 1;
#X connect 4 0 3 2;
#X connect 7 0 19 0;
#X connect 10 0 25 0;
#X connect 11 0 2 1;
#X connect 11 0 2 0;
#X connect 13 0 14 0;
#X connect 13 0 23 0;
#X connect 14 0 22 0;
#X connect 15 0 16 0;
#X connect 15 1 16 1;
#X connect 16 0 24 0;
#X connect 17 0 2 0;
#X connect 17 0 2 1;
#X connect 17 1 11 0;
#X connect 18 0 16 2;
#X connect 19 0 13 0;
#X connect 19 1 18 0;
#X connect 22 0 13 1;
#X connect 23 0 15 0;
#X connect 24 0 10 0;
#X connect 25 0 17 0;
