#N canvas 20 116 713 637 10;
#X obj 8 17 cnv 15 680 40 empty empty Generative_series 20 12 0 14
-233017 -66577 0;
#X obj 303 21 cnv 15 380 40 empty empty ABS:rr_biritmia 20 20 0 24
-128992 -262144 0;
#X obj 29 442 rr_OUTdac~;
#X obj 30 552 rr_record~;
#X msg 193 526 rec01.wav;
#X text 309 460 1st toggle turn ON/OFF your Dsp. 2nd toggle visualize
the wave sound. Slide is for volume.;
#X text 309 550 You can record your performance. Put the name. It show
passing seconds while recording. Bang to reset.;
#X obj 142 412 rev1~;
#X floatatom 181 412 5 0 0 0 - - -;
#X floatatom 199 388 5 0 0 0 - - -;
#X obj 31 76 tgl 15 0 empty empty empty 17 7 0 10 -262144 -1 -1 0 1
;
#X obj 158 442 bng 15 250 50 0 empty empty empty 17 7 0 10 -262144
-1 -1;
#X obj 158 462 s sync;
#X obj 30 373 *~ 0.25;
#X floatatom 155 101 5 0 0 0 - - -;
#X obj 31 101 rr_biritmia 6 0 3 2;
#X obj 31 156 t b f;
#X obj 30 345 *~, f 5;
#X obj 105 156 t b f;
#X obj 105 345 *~, f 5;
#X obj 105 276 rr_tone~ 0 1000 2;
#X obj 31 253 rr_tone~ 0 500 2, f 17;
#X obj 31 181 rr_1overF;
#X obj 105 181 rr_1overF;
#X obj 142 388 hip~ 500;
#X msg 132 299 \$1 10;
#X obj 132 322 line~;
#X msg 57 298 \$1 10;
#X obj 57 321 line~;
#X obj 31 205 rr_mappa+ 7 12 0 0;
#X obj 105 228 rr_mappa+ 7 12 -3 0;
#X text 318 80 Biritmia needs a toogle in 1st inlet and a value in
ms in 2nd inlet. It needs 4 arguments \; 1st firts time subdiv \; 2nd
where is accent in first rythm \; 3rd second time subdiv \; 4th where
is accent in second rythm \;;
#X floatatom 68 127 5 0 0 0 - - -;
#X floatatom 142 127 5 0 0 0 - - -;
#X connect 2 0 3 0;
#X connect 2 1 3 1;
#X connect 4 0 3 2;
#X connect 7 0 2 1;
#X connect 8 0 7 1;
#X connect 9 0 24 1;
#X connect 10 0 15 0;
#X connect 11 0 12 0;
#X connect 13 0 2 0;
#X connect 13 0 24 0;
#X connect 14 0 15 1;
#X connect 15 0 16 0;
#X connect 15 1 32 0;
#X connect 15 2 18 0;
#X connect 15 3 33 0;
#X connect 16 0 22 0;
#X connect 16 1 27 0;
#X connect 17 0 13 0;
#X connect 18 0 23 0;
#X connect 18 1 25 0;
#X connect 19 0 13 0;
#X connect 20 0 19 0;
#X connect 21 0 17 0;
#X connect 22 0 29 0;
#X connect 23 0 30 0;
#X connect 24 0 7 0;
#X connect 25 0 26 0;
#X connect 26 0 19 1;
#X connect 27 0 28 0;
#X connect 28 0 17 1;
#X connect 29 0 21 0;
#X connect 30 0 20 0;
