#N canvas 539 116 736 637 10;
#X obj 8 17 cnv 15 680 40 empty empty Generative_series 20 12 0 14
-233017 -66577 0;
#X obj 303 21 cnv 15 380 40 empty empty ABS:rr_pulsa2 20 20 0 24 -128992
-262144 0;
#X obj 29 442 rr_OUTdac~;
#X obj 30 552 rr_record~;
#X msg 193 526 rec01.wav;
#X text 309 460 1st toggle turn ON/OFF your Dsp. 2nd toggle visualize
the wave sound. Slide is for volume.;
#X text 309 550 You can record your performance. Put the name. It show
passing seconds while recording. Bang to reset.;
#X obj 142 412 rev1~;
#X floatatom 181 412 5 0 0 0 - - -;
#X floatatom 200 389 5 0 0 0 - - -;
#X obj 94 320 rr_perc~ 0 1500 90 3 0.2 0.2 1000 10;
#X obj 31 85 tgl 15 0 empty empty empty 17 7 0 10 -262144 -1 -1 0 1
;
#X obj 31 284 rr_perc~ 0 75 150 2 0.5 0.1 1000 10;
#X obj 158 442 bng 15 250 50 0 empty empty empty 17 7 0 10 -262144
-1 -1;
#X obj 158 462 s sync;
#X obj 30 373 *~ 0.25;
#X obj 142 388 hip~ 200;
#X obj 31 126 metro 200;
#X obj 117 181 bng 15 250 50 0 empty empty empty 17 7 0 10 -262144
-1 -1;
#X msg 62 155 1 2 3 5;
#X obj 156 210 rr_trga 16 0 1 1;
#X text 318 180 Pulsa2 needs a regular beat in 1st inlet \, a list
in 2nd inlet \, to change sequence a bang in 3rd inlet and an argument
< of list length. It returns two different pulses splitting list in
argument point.;
#X obj 31 194 rr_pulsa2 3;
#X connect 2 0 3 0;
#X connect 2 1 3 1;
#X connect 4 0 3 2;
#X connect 7 0 2 1;
#X connect 8 0 7 1;
#X connect 9 0 16 1;
#X connect 10 0 15 0;
#X connect 11 0 17 0;
#X connect 12 0 15 0;
#X connect 13 0 14 0;
#X connect 15 0 2 0;
#X connect 15 0 2 1;
#X connect 15 0 16 0;
#X connect 16 0 7 0;
#X connect 17 0 22 0;
#X connect 18 0 22 2;
#X connect 19 0 22 1;
#X connect 20 0 18 0;
#X connect 22 0 12 0;
#X connect 22 1 10 0;
#X connect 22 1 20 0;
