#N canvas 539 116 736 637 10;
#X obj 8 17 cnv 15 680 40 empty empty Generative_series 20 12 0 14
-233017 -66577 0;
#X obj 303 21 cnv 15 380 40 empty empty ABS:rr_seqInt 20 20 0 24 -128992
-262144 0;
#X obj 30 442 rr_OUTdac~;
#X obj 31 552 rr_record~;
#X msg 193 526 rec01.wav;
#X text 309 460 1st toggle turn ON/OFF your Dsp. 2nd toggle visualize
the wave sound. Slide is for volume.;
#X text 309 550 You can record your performance. Put the name. It show
passing seconds while recording. Bang to reset.;
#X obj 30 113 rr_density;
#X text 309 364 Tone~ generate a tone with envelope: Midi value (0-127)
in 1st inlet \, duration in ms 2nd inlet \, power for asc/desc (1-8)
in 3rd inlet.;
#X text 308 94 HOW TO: Use density to define how much times in seconds
you choose bang occures.;
#X text 309 410 Echo~ repeats sound (e1 \, e2 \, ...) every ms you
put as parameter and fade out. You can put multiples in sequence. You
can put 3rd attribute from 0-1 for feedback.;
#X msg 30 323 next \$1;
#X obj 30 400 rr_echo~ e1 500 0.5;
#X obj 30 287 rr_seqInt, f 18;
#X obj 30 346 clone rr_tone~ 8 1000 4;
#X obj 82 194 rr_circle;
#X obj 30 178 t b b;
#X msg 179 271 4 3 5 7;
#X text 309 155 In circle: [div] how many bangs in to have a bang out
(a counter) \; [int] defines interval to next number out \; [oct] in
how many octaves can displaces \; [off] offset number (may be root
of sequence] \; [set] reset. Es: have circle of fifth with 7 in int.
2nd inlet is for [div] and 3rd for [int]., f 59;
#X text 309 274 In seqInt 2nd inlet put root tone (0-127) and in 3rd
inlet a list of intervals you want. It plays intervals in sequence
and begins from everyone.;
#X connect 2 0 3 0;
#X connect 2 1 3 1;
#X connect 4 0 3 2;
#X connect 7 0 16 0;
#X connect 11 0 14 0;
#X connect 12 0 2 0;
#X connect 12 0 2 1;
#X connect 12 1 2 1;
#X connect 13 0 11 0;
#X connect 14 0 12 0;
#X connect 15 0 13 1;
#X connect 16 0 13 0;
#X connect 16 1 15 0;
#X connect 17 0 13 2;
