#N canvas 593 116 712 637 10;
#X obj 8 17 cnv 15 680 40 empty empty Generative_series 20 12 0 14
-233017 -66577 0;
#X obj 303 21 cnv 15 380 40 empty empty ABS:rr_memodal 20 20 0 24 -128992
-262144 0;
#X obj 29 428 rr_OUTdac~;
#X obj 30 538 rr_record~;
#X msg 193 512 rec01.wav;
#X text 309 460 1st toggle turn ON/OFF your Dsp. 2nd toggle visualize
the wave sound. Slide is for volume.;
#X text 309 550 You can record your performance. Put the name. It show
passing seconds while recording. Bang to reset.;
#X obj 30 80 tgl 15 0 empty empty empty 17 7 0 10 -262144 -1 -1 0 1
;
#X obj 85 402 rev1~;
#X floatatom 123 402 5 0 0 0 - - -;
#X msg 30 313 next \$1;
#X obj 158 430 bng 15 250 50 0 empty empty empty 17 7 0 10 -262144
-1 -1;
#X obj 158 450 s sync;
#X obj 30 362 *~ 0.15;
#X obj 85 379 hip~ 500;
#X obj 30 103 rr_pulsa+ 2 3 4;
#X obj 30 171 rr_memodal 0;
#X msg 99 195 0 2 4 5 7 9 11;
#X floatatom 64 145 5 0 0 0 - - -;
#X floatatom 144 88 5 0 0 0 - - -;
#X obj 30 220 rr_allscales;
#X obj 121 159 del 20;
#X obj 30 243 + 60;
#X obj 105 274 rr_allchords 3 2;
#X obj 105 251 rr_every+ 4 0;
#X obj 105 297 + 60;
#X obj 30 337 clone 16 rr_tone~ 2000 3;
#X obj 30 266 rr_inve+ 12;
#X text 308 188 Memodal needs an argument (0-6) as mode \, a bang in
1st inlet and a value as seed in 3rd inlet. It returns a sequence modal
oriented \; 1st outlet is line sequence \; 2nd outlet scale-mode as
list.;
#X connect 2 0 3 0;
#X connect 2 1 3 1;
#X connect 4 0 3 2;
#X connect 7 0 15 0;
#X connect 8 0 2 0;
#X connect 8 0 2 1;
#X connect 9 0 8 1;
#X connect 10 0 26 0;
#X connect 11 0 12 0;
#X connect 13 0 2 0;
#X connect 13 0 8 0;
#X connect 13 0 14 0;
#X connect 14 0 8 0;
#X connect 15 0 16 0;
#X connect 16 0 20 0;
#X connect 16 0 24 0;
#X connect 16 1 17 0;
#X connect 17 0 20 1;
#X connect 17 0 23 1;
#X connect 18 0 16 1;
#X connect 18 0 21 0;
#X connect 19 0 15 1;
#X connect 19 0 16 2;
#X connect 20 0 22 0;
#X connect 21 0 17 0;
#X connect 22 0 27 0;
#X connect 23 0 25 0;
#X connect 24 0 23 0;
#X connect 25 0 10 0;
#X connect 26 0 13 0;
#X connect 27 0 10 0;
