#N canvas 539 116 736 637 10;
#X obj 8 17 cnv 15 680 40 empty empty Generative_series 20 12 0 14
-233017 -66577 0;
#X obj 303 21 cnv 15 380 40 empty empty ABS:rr_polyri 20 20 0 24 -128992
-262144 0;
#X obj 29 442 rr_OUTdac~;
#X obj 30 552 rr_record~;
#X msg 193 526 rec01.wav;
#X text 309 460 1st toggle turn ON/OFF your Dsp. 2nd toggle visualize
the wave sound. Slide is for volume.;
#X text 309 550 You can record your performance. Put the name. It show
passing seconds while recording. Bang to reset.;
#X obj 30 113 rr_density;
#X text 308 94 HOW TO: Use density to define how much times in seconds
you choose bang occures.;
#X text 309 410 Echo~ repeats sound (e1 \, e2 \, ...) every ms you
put as parameter and fade out. You can put multiples in sequence. You
can put 3rd attribute from 0-1 for feedback.;
#X text 309 279 Perc~ needs attributes: 1st for cloning \; 2nd for
tone (in Hz) \; 3rd for release \; 4th for decay type \; 5th amp of
tone (< 0.5) \; 6th amp of noise (< 0.5) \; 7th is lpf \; 8th is hpf.
;
#X obj 30 178 t b b b, f 30;
#X obj 30 221 rr_polyri 3 2;
#X obj 30 400 rr_echo~ e1 15 0.1, f 19;
#X obj 141 421 *~ 0.25;
#X obj 118 221 rr_polyri 4 9;
#X obj 207 221 rr_polyri 2 5;
#X obj 42 334 rr_perc~ 0 120 180 2 0.75 0.05 1000 100;
#X text 308 210 Polyri needs two arguments (better not two odds numbers).
It bangs out results of mix.;
#X obj 30 311 rr_perc~ 0 250 150 6 0.65 0.15 6000 500;
#X obj 53 359 rr_perc~ 0 1000 90 3 0.25 0.5 4000 2000;
#X connect 2 0 3 0;
#X connect 2 1 3 1;
#X connect 4 0 3 2;
#X connect 7 0 11 0;
#X connect 11 0 12 0;
#X connect 11 1 15 0;
#X connect 11 2 16 0;
#X connect 12 0 19 0;
#X connect 13 0 2 0;
#X connect 13 0 2 1;
#X connect 13 1 14 0;
#X connect 14 0 2 1;
#X connect 15 0 17 0;
#X connect 16 0 20 0;
#X connect 17 0 13 0;
#X connect 19 0 13 0;
#X connect 20 0 13 0;
