#N canvas 539 116 736 637 10;
#X obj 8 17 cnv 15 680 40 empty empty Generative_series 20 12 0 14
-233017 -66577 0;
#X obj 303 21 cnv 15 380 40 empty empty ABS:rr_domina 20 20 0 24 -128992
-262144 0;
#X obj 29 448 rr_OUTdac~;
#X obj 30 558 rr_record~;
#X msg 193 532 rec01.wav;
#X text 309 510 1st toggle turn ON/OFF your Dsp. 2nd toggle visualize
the wave sound. Slide is for volume.;
#X text 309 550 You can record your performance. Put the name. It show
passing seconds while recording. Bang to reset., f 56;
#X obj 30 103 rr_density;
#X text 308 94 HOW TO: Use density to define how much times in seconds
you choose bang occures.;
#X text 309 430 Echo~ repeats sound (e1 \, e2 \, ...) every ms you
put as parameter and fade out. You can put multiples in sequence. You
can put 3rd attribute from 0-1 for feedback.;
#X obj 147 424 *~ 0.25;
#X msg 30 330 next \$1;
#X text 309 303 With fm you can generate a frequency modulated sound
\; 1st is carrier (0-127) \; 2nd is ratio for modulator (0-10) \; 3rd
modulation index (0-20) \; 4th timbre (0-1) \; 5th mix (0-1) \; 6th
attack in ms \; 7th release in ms \; 8th decay (1-8)., f 58;
#X obj 30 401 rr_echo~ e1 500 0.25;
#X obj 30 191 rr_domina, f 36;
#X obj 257 207 bng 15 250 50 0 empty empty empty 17 7 0 10 -262144
-1 -1;
#X floatatom 272 153 5 0 0 0 - - -;
#X obj 257 175 i 1;
#X obj 30 168 t b b, f 10;
#X obj 30 306 + 50;
#X obj 30 378 /~ 2;
#X obj 87 290 rr_cycle1 0 16 5 1 50;
#X obj 72 237 active 1;
#X obj 72 260 - 12;
#X obj 30 354 clone 16 rr_fm~ 2 1 0.45 0.9 10 2500 3;
#X obj 113 214 active 2;
#X obj 157 237 active 1;
#X obj 200 214 active 3;
#X obj 30 214 active 2;
#X obj 30 237 + 12;
#X text 308 184 Domina returns a secondary dominants circle to resolve
in target point that is 0 Put in 2nd inlet how many secondary it produces
(1-11) \; 2nd outlet is root \; 3rd outlet is 7th \; 4th outlet is
3rd \; 5th outlet is 5th \; 1st outlet is select from the fourth chord
voices.;
#X connect 2 0 3 0;
#X connect 2 1 3 1;
#X connect 4 0 3 2;
#X connect 7 0 18 0;
#X connect 10 0 2 1;
#X connect 11 0 24 0;
#X connect 13 0 2 0;
#X connect 13 0 2 1;
#X connect 13 1 10 0;
#X connect 14 0 28 0;
#X connect 14 1 22 0;
#X connect 14 2 25 0;
#X connect 14 3 26 0;
#X connect 14 4 27 0;
#X connect 14 5 15 0;
#X connect 15 0 17 0;
#X connect 16 0 17 1;
#X connect 17 0 14 1;
#X connect 18 0 14 0;
#X connect 18 1 21 0;
#X connect 19 0 11 0;
#X connect 20 0 13 0;
#X connect 21 0 19 1;
#X connect 22 0 23 0;
#X connect 23 0 19 0;
#X connect 24 0 20 0;
#X connect 25 0 19 0;
#X connect 26 0 19 0;
#X connect 27 0 19 0;
#X connect 28 0 29 0;
#X connect 29 0 19 0;
