#N canvas 539 116 736 637 10;
#X obj 8 17 cnv 15 680 40 empty empty Generative_series 20 12 0 14
-233017 -66577 0;
#X obj 303 21 cnv 15 380 40 empty empty ABS:rr_strg 20 20 0 24 -128992
-262144 0;
#X obj 29 422 rr_OUTdac~;
#X obj 30 532 rr_record~;
#X msg 193 506 rec01.wav;
#X text 309 460 1st toggle turn ON/OFF your Dsp. 2nd toggle visualize
the wave sound. Slide is for volume.;
#X text 309 550 You can record your performance. Put the name. It show
passing seconds while recording. Bang to reset.;
#X obj 142 392 rev1~;
#X floatatom 181 392 5 0 0 0 - - -;
#X obj 31 298 rr_perc~ 0 1500 90 3 0.2 0.2 1000 10;
#X obj 31 86 tgl 15 0 empty empty empty 17 7 0 10 -262144 -1 -1 0 1
;
#X obj 158 422 bng 15 250 50 0 empty empty empty 17 7 0 10 -262144
-1 -1;
#X obj 158 442 s sync;
#X obj 30 353 *~ 0.25;
#X obj 142 368 hip~ 1000;
#X obj 31 190 bng 15 250 50 0 empty empty empty 17 7 0 10 -262144 -1
-1;
#X floatatom 94 187 5 0 0 0 - - -;
#X floatatom 62 116 5 0 0 0 - - -;
#X floatatom 94 139 5 0 0 0 - - -;
#X obj 31 163 rr_strg 125;
#X text 309 170 Strg needs an argument that is min portion of time
in ms that you can change in 3rd inlet too. 2nd inlet (0-1) is coeff
% to have a change. It returns bang in 1st inlet and durations in 2nd
inlet.;
#X connect 2 0 3 0;
#X connect 2 1 3 1;
#X connect 4 0 3 2;
#X connect 7 0 2 1;
#X connect 8 0 7 1;
#X connect 9 0 13 0;
#X connect 10 0 19 0;
#X connect 11 0 12 0;
#X connect 13 0 2 0;
#X connect 13 0 2 1;
#X connect 13 0 14 0;
#X connect 14 0 7 0;
#X connect 15 0 9 0;
#X connect 17 0 19 1;
#X connect 18 0 19 2;
#X connect 19 0 15 0;
#X connect 19 1 16 0;
