#N canvas 593 116 767 637 10;
#X obj 8 17 cnv 15 680 40 empty empty Generative_series 20 12 0 14
-233017 -66577 0;
#X obj 303 21 cnv 15 380 40 empty empty ABS:rr_contorna 20 20 0 24
-128992 -262144 0;
#X obj 29 418 rr_OUTdac~;
#X obj 30 528 rr_record~;
#X msg 193 502 rec01.wav;
#X text 309 460 1st toggle turn ON/OFF your Dsp. 2nd toggle visualize
the wave sound. Slide is for volume.;
#X text 309 550 You can record your performance. Put the name. It show
passing seconds while recording. Bang to reset.;
#X obj 30 87 tgl 15 0 empty empty empty 17 7 0 10 -262144 -1 -1 0 1
;
#X obj 85 392 rev1~;
#X floatatom 123 392 5 0 0 0 - - -;
#X msg 30 303 next \$1;
#X obj 158 420 bng 15 250 50 0 empty empty empty 17 7 0 10 -262144
-1 -1;
#X obj 158 440 s sync;
#X obj 30 352 *~ 0.15;
#X text 308 288 Mappa+ needs 4 arguments \; 1st are numbers of steps
in scale \; 2nd are numbers of semitones in scale \; 3rd is modal transposition
(scale grade) \; 4th is chromtic transposition.;
#X floatatom 67 175 5 0 0 0 - - -;
#X obj 85 369 hip~ 500;
#X obj 30 327 clone 16 rr_tone~ 2500 3;
#X obj 30 197 rr_contorna 7;
#X floatatom 161 126 5 0 0 0 - - -;
#X obj 30 279 rr_mappa+ 7 12 -1 2;
#X msg 160 213 ascesa-rapida;
#X obj 113 256 rr_circula 2 4 7;
#X obj 30 141 f 0;
#X obj 56 141 + 1;
#X obj 82 141 % 12;
#X obj 113 234 sel 0;
#X obj 67 234 - 7;
#X text 308 191 Contorna need an argument (1-12) \, but you can changes
it in 3rd inlet too \, a value in 2nd inlet (0-10) to choose melodic
contour type and a order sequence of value (es.0-11) in 1st inlet as
lenght of motif. It returns different melodic contours in 1st outlet
\, a bass line in 2nd outlet and a name in 3rd outlet.;
#X obj 30 110 rr_pulsa+ 1 2 11;
#X connect 2 0 3 0;
#X connect 2 1 3 1;
#X connect 4 0 3 2;
#X connect 7 0 29 0;
#X connect 8 0 2 0;
#X connect 8 0 2 1;
#X connect 9 0 8 1;
#X connect 10 0 17 0;
#X connect 11 0 12 0;
#X connect 13 0 2 0;
#X connect 13 0 8 0;
#X connect 13 0 16 0;
#X connect 15 0 18 1;
#X connect 16 0 8 0;
#X connect 17 0 13 0;
#X connect 18 0 20 0;
#X connect 18 1 27 0;
#X connect 18 2 21 0;
#X connect 19 0 25 1;
#X connect 19 0 29 1;
#X connect 20 0 10 0;
#X connect 22 0 20 3;
#X connect 23 0 18 0;
#X connect 23 0 24 0;
#X connect 23 0 26 0;
#X connect 24 0 25 0;
#X connect 25 0 23 1;
#X connect 26 0 22 0;
#X connect 27 0 20 0;
#X connect 29 0 23 0;
