#N canvas 532 116 737 632 10;
#X obj 8 17 cnv 15 680 40 empty empty Generative_series 20 12 0 14
-233017 -66577 0;
#X obj 303 21 cnv 15 380 40 empty empty ABS:rr_trinoixe~ 20 20 0 24
-128992 -262144 0;
#X obj 30 532 rr_record~;
#X msg 193 506 rec01.wav;
#X text 309 485 1st toggle turn ON/OFF your Dsp. 2nd toggle visualize
the wave sound. Slide is for volume.;
#X text 309 550 You can record your performance. Put the name. It show
passing seconds while recording. Bang to reset.;
#X text 308 134 Choose how many elements in your sequence [num] then
[set].You can click [set] again for a new sequence. You can bang in
2nd inlet to [set]. 3rd inlet (2-6) how many repetitions of sequence
to bang out in 2nd outlet.;
#X obj 84 144 rr_play;
#X obj 30 81 tgl 15 0 empty empty empty 17 7 0 10 -262144 -1 -1 0 1
;
#X text 308 94 HOW TO: Use pulsa to define how much times in seconds
you choose bang occures.;
#X obj 141 373 rev1~;
#X floatatom 203 373 5 0 0 0 - - -;
#X floatatom 203 350 5 0 0 0 - - -;
#X obj 30 333 *~ 0.25;
#X obj 141 350 hip~ 1000;
#X obj 30 101 rr_pulsa 4 1;
#X obj 29 422 rr_XOUTdac~;
#X obj 207 202 * 1234;
#X text 308 244 Trinoixe needs 5 arguments: 1st/2nd are range slopes
for pitch and 3rd/4th are range slopes for envelope \; 5th is decay.
A value in 2nd inlet for new sound/efx.;
#X obj 113 117 rr_trga 4 0 1 2;
#X obj 30 226 rr_trinoixe~ 500 100 100 500 3;
#X connect 3 0 2 2;
#X connect 7 0 17 0;
#X connect 8 0 15 0;
#X connect 10 0 16 1;
#X connect 10 0 16 0;
#X connect 11 0 10 1;
#X connect 12 0 14 1;
#X connect 13 0 14 0;
#X connect 13 0 16 0;
#X connect 14 0 10 0;
#X connect 15 0 7 0;
#X connect 15 0 20 0;
#X connect 15 1 19 0;
#X connect 16 0 2 0;
#X connect 16 1 2 1;
#X connect 17 0 20 1;
#X connect 19 0 7 1;
#X connect 20 0 13 0;
