#N canvas 593 116 767 637 10;
#X obj 8 17 cnv 15 680 40 empty empty Generative_series 20 12 0 14
-233017 -66577 0;
#X obj 303 21 cnv 15 380 40 empty empty ABS:rr_lindist/scaling+ 20
20 0 24 -128992 -262144 0;
#X text 309 460 1st toggle turn ON/OFF your Dsp. 2nd toggle visualize
the wave sound. Slide is for volume.;
#X text 309 550 You can record your performance. Put the name. It show
passing seconds while recording. Bang to reset.;
#X text 309 271 In allscales put in 2nd inlet a progressive series
(list) of intervals which represents the elements of the scale to use
(mod 12). [minor scale in example];
#X text 308 94 HOW TO: Use pulsa to define how much times in seconds
you choose bang occures.;
#X obj 29 419 rr_OUTdac~;
#X obj 30 529 rr_record~;
#X msg 193 503 rec01.wav;
#X msg 99 236 0 2 3 5 7 9 10;
#X obj 30 89 tgl 15 0 empty empty empty 17 7 0 10 -262144 -1 -1 0 1
;
#X msg 30 282 next \$1;
#X obj 30 259 rr_allscales;
#X obj 158 421 bng 15 250 50 0 empty empty empty 17 7 0 10 -262144
-1 -1;
#X obj 158 441 s sync;
#X obj 30 110 rr_pulsa 4 1;
#X obj 114 366 rev1~;
#X floatatom 176 366 5 0 0 0 - - -;
#X floatatom 176 343 5 0 0 0 - - -;
#X floatatom 68 358 5 0 1 0 - - -;
#X obj 29 381 mix 0.5;
#X obj 30 326 *~ 0.25;
#X obj 114 343 hip~ 1000;
#X floatatom 129 173 5 0 0 0 - - -;
#X obj 129 126 trga 1 0 1 4;
#X obj 129 149 random 4;
#X obj 30 174 rr_lindist 10 1;
#X obj 30 237 + 0;
#X obj 30 304 clone 8 rr_tone~ 1500 3;
#X obj 30 197 rr_scaling+ 21 30;
#X text 308 164 Lindist needs 2 arguments (you can changes them in
2nd and 3rd inlet too) \; 1st in sequence length and 2nd (0-3) is linear
distribution type). It returns values from 0 to 1;
#X text 308 214 Scaling+ needs 2 arguments: 1st is scaling factor \;
2nd is offset.;
#X connect 6 0 7 0;
#X connect 6 1 7 1;
#X connect 8 0 7 2;
#X connect 9 0 12 1;
#X connect 10 0 15 0;
#X connect 11 0 28 0;
#X connect 12 0 11 0;
#X connect 13 0 14 0;
#X connect 15 0 26 0;
#X connect 15 1 24 0;
#X connect 16 0 20 1;
#X connect 17 0 16 1;
#X connect 18 0 22 1;
#X connect 19 0 20 2;
#X connect 20 0 6 0;
#X connect 20 0 6 1;
#X connect 21 0 20 0;
#X connect 21 0 22 0;
#X connect 22 0 16 0;
#X connect 23 0 26 2;
#X connect 24 0 25 0;
#X connect 25 0 23 0;
#X connect 26 0 29 0;
#X connect 27 0 12 0;
#X connect 28 0 21 0;
#X connect 29 0 27 0;
