#N canvas 539 116 736 637 10;
#X obj 8 17 cnv 15 680 40 empty empty Generative_series 20 12 0 14
-233017 -66577 0;
#X obj 303 21 cnv 15 380 40 empty empty ABS:rr_bal 20 20 0 24 -128992
-262144 0;
#X obj 29 422 rr_OUTdac~;
#X obj 30 532 rr_record~;
#X msg 193 506 rec01.wav;
#X text 309 460 1st toggle turn ON/OFF your Dsp. 2nd toggle visualize
the wave sound. Slide is for volume.;
#X text 309 550 You can record your performance. Put the name. It show
passing seconds while recording. Bang to reset.;
#X obj 142 392 rev1~;
#X floatatom 181 392 5 0 0 0 - - -;
#X obj 31 318 rr_perc~ 0 1500 90 3 0.2 0.2 1000 10;
#X obj 31 86 tgl 15 0 empty empty empty 17 7 0 10 -262144 -1 -1 0 1
;
#X obj 124 287 rr_perc~ 0 75 150 2 0.5 0.1 1000 10;
#X obj 158 422 bng 15 250 50 0 empty empty empty 17 7 0 10 -262144
-1 -1;
#X obj 158 442 s sync;
#X obj 30 353 *~ 0.25;
#X obj 142 368 hip~ 1000;
#X obj 31 106 rr_pulsa 5 1;
#X obj 31 169 rr_bal 0.4, f 16;
#X obj 31 193 bng 15 250 50 0 empty empty empty 17 7 0 10 -262144 -1
-1;
#X obj 124 193 bng 15 250 50 0 empty empty empty 17 7 0 10 -262144
-1 -1;
#X floatatom 124 123 5 0 0 0 - - -;
#X obj 124 145 clip 0 1;
#X text 309 180 Bal needs a bang or a value in 1st inlet and an argument
or value in 2nd inlet (0-1) as %coeff for probabilistic distribution.
It routes in 1st or 2nd outlet bangs/values in 1st inlet.;
#X connect 2 0 3 0;
#X connect 2 1 3 1;
#X connect 4 0 3 2;
#X connect 7 0 2 1;
#X connect 8 0 7 1;
#X connect 9 0 14 0;
#X connect 10 0 16 0;
#X connect 11 0 14 0;
#X connect 12 0 13 0;
#X connect 14 0 2 0;
#X connect 14 0 2 1;
#X connect 14 0 15 0;
#X connect 15 0 7 0;
#X connect 16 0 17 0;
#X connect 17 0 18 0;
#X connect 17 1 19 0;
#X connect 18 0 9 0;
#X connect 19 0 11 0;
#X connect 20 0 21 0;
#X connect 21 0 17 1;
