#N canvas 539 116 736 637 10;
#X obj 8 17 cnv 15 680 40 empty empty Generative_series 20 12 0 14
-233017 -66577 0;
#X obj 303 21 cnv 15 380 40 empty empty ABS:rr_adsr 20 20 0 24 -128992
-262144 0;
#X obj 29 422 rr_OUTdac~;
#X obj 30 532 rr_record~;
#X msg 193 506 rec01.wav;
#X text 309 485 1st toggle turn ON/OFF your Dsp. 2nd toggle visualize
the wave sound. Slide is for volume.;
#X text 309 550 You can record your performance. Put the name. It show
passing seconds while recording. Bang to reset.;
#X text 309 412 Echo~ repeats sound (e1 \, e2 \, ...) every ms you
put as parameter and fade out. You can put multiples in sequence. You
can put 3rd attribute from 0-1 for feedback.;
#X text 308 134 Choose how many elements in your sequence [num] then
[set].You can click [set] again for a new sequence. You can bang in
2nd inlet to [set]. 3rd inlet (2-6) how many repetitions of sequence
to bang out in 2nd outlet.;
#X obj 141 391 *~ 0.25;
#X obj 30 129 rr_play;
#X obj 30 81 tgl 15 0 empty empty empty 17 7 0 10 -262144 -1 -1 0 1
;
#X obj 121 81 bng 15 250 50 0 empty empty empty 17 7 0 10 -262144 -1
-1;
#X obj 121 101 s sync;
#X text 308 94 HOW TO: Use pulsa to define how much times in seconds
you choose bang occures.;
#X obj 30 199 + 60;
#X obj 30 222 t f b, f 10;
#X obj 29 335 *~;
#X obj 30 101 rr_pulsa 3 1;
#X text 308 201 Wshaper needs 7 arguments: 1st for clone \; 2nd is
amplitude of sine wave (0:1) \; 3rd is amplitude of sqrt wave (0:1)
\; 4th is amplitude of saw wave (0:1) \; 5th is amplitude ot tri wave
(0:1) \; 6th is cutoff for high pass filter \; 7th is cutoof for low
pass filter., f 59;
#X obj 30 368 rr_echo~ e1 500 0.5;
#X obj 88 318 rr_adsr~ 1.2 0.8 5 10 200 600 4;
#X obj 99 183 rr_cycle1 0 2 5 1 60;
#X text 308 307 Adsr needs 7 arguments: 1st is peak amp for attack
\; 2nd is amp for decay \; 3rd is attack time in ms \; 4th is decay
time in ms \; 5th is sustain time in ms \; 6th is release time in ms
\; 7th is type of curve.;
#X obj 30 270 rr_wshaper~ 0 0 0 0.2 2 50 2500;
#X connect 2 0 3 0;
#X connect 2 1 3 1;
#X connect 4 0 3 2;
#X connect 9 0 2 1;
#X connect 9 0 2 0;
#X connect 10 0 15 0;
#X connect 11 0 18 0;
#X connect 12 0 13 0;
#X connect 15 0 16 0;
#X connect 16 0 24 0;
#X connect 16 1 21 0;
#X connect 17 0 20 0;
#X connect 18 0 10 0;
#X connect 18 1 22 0;
#X connect 20 0 2 0;
#X connect 20 0 2 1;
#X connect 20 1 9 0;
#X connect 21 0 17 1;
#X connect 22 0 15 1;
#X connect 24 0 17 0;
