#N canvas 593 116 767 637 10;
#X obj 8 17 cnv 15 680 40 empty empty Generative_series 20 12 0 14
-233017 -66577 0;
#X obj 303 21 cnv 15 380 40 empty empty ABS:rr_quantizza 20 20 0 24
-128992 -262144 0;
#X obj 29 418 rr_OUTdac~;
#X obj 30 528 rr_record~;
#X msg 193 502 rec01.wav;
#X text 309 460 1st toggle turn ON/OFF your Dsp. 2nd toggle visualize
the wave sound. Slide is for volume.;
#X text 309 550 You can record your performance. Put the name. It show
passing seconds while recording. Bang to reset.;
#X text 308 94 HOW TO: Use pulsa to define how much times in seconds
you choose bang occures.;
#X obj 30 89 tgl 15 0 empty empty empty 17 7 0 10 -262144 -1 -1 0 1
;
#X obj 85 392 rev1~;
#X floatatom 123 392 5 0 0 0 - - -;
#X obj 158 420 bng 15 250 50 0 empty empty empty 17 7 0 10 -262144
-1 -1;
#X obj 158 440 s sync;
#X obj 30 352 *~ 0.15;
#X msg 30 302 next \$1;
#X obj 85 369 hip~ 500;
#X floatatom 30 234 5 0 0 0 - - -;
#X floatatom 30 168 5 0 0 0 - - -;
#X floatatom 154 208 5 0 0 0 - - -;
#X floatatom 100 258 5 0 0 0 - - -;
#X msg 100 303 all \$1;
#X obj 100 280 abs;
#X obj 100 234 rr_quantizza -100 1500;
#X obj 30 145 random 10;
#X obj 30 110 rr_pulsa+ 1 2 20;
#X obj 30 208 rr_quantizza 1.5 50;
#X obj 30 327 clone 16 rr_tone~ 1000 4;
#X text 308 198 Quantizza needs 2 arguments \; 1st is step length (you
can change in 2nd inlet too). it can be negative or decimal \; 2nd
as offset.;
#X connect 2 0 3 0;
#X connect 2 1 3 1;
#X connect 4 0 3 2;
#X connect 8 0 24 0;
#X connect 9 0 2 0;
#X connect 9 0 2 1;
#X connect 10 0 9 1;
#X connect 11 0 12 0;
#X connect 13 0 2 0;
#X connect 13 0 9 0;
#X connect 13 0 15 0;
#X connect 14 0 26 0;
#X connect 15 0 9 0;
#X connect 16 0 14 0;
#X connect 17 0 22 0;
#X connect 17 0 25 0;
#X connect 18 0 25 1;
#X connect 19 0 21 0;
#X connect 20 0 26 1;
#X connect 21 0 20 0;
#X connect 22 0 19 0;
#X connect 23 0 17 0;
#X connect 24 0 23 0;
#X connect 25 0 16 0;
#X connect 26 0 13 0;
