#N canvas 575 116 767 637 10;
#X obj 8 17 cnv 15 680 40 empty empty Generative_series 20 12 0 14
-233017 -66577 0;
#X obj 303 21 cnv 15 380 40 empty empty ABS:rr_tchrd/TET 20 20 0 24
-128992 -262144 0;
#X obj 29 422 rr_OUTdac~;
#X obj 30 532 rr_record~;
#X msg 193 506 rec01.wav;
#X text 309 490 1st toggle turn ON/OFF your Dsp. 2nd toggle visualize
the wave sound. Slide is for volume.;
#X text 309 550 You can record your performance. Put the name. It show
passing seconds while recording. Bang to reset.;
#X text 309 440 Echo~ repeats sound (e1 \, e2 \, ...) every ms you
put as parameter and fade out. You can put multiples in sequence. You
can put 3rd attribute from 0-1 for feedback.;
#X text 308 94 HOW TO: Use pulsa to define how much times in seconds
you choose bang occures.;
#X obj 30 87 tgl 15 0 empty empty empty 17 7 0 10 -262144 -1 -1 0 1
;
#X obj 30 358 rr_echo~ e1 500 0.5;
#X msg 30 287 next \$1;
#X obj 141 382 lop~ 500;
#X text 309 293 With fm you can generate a frequency modulated sound
\; 1st is carrier (0-127) \; 2nd is ratio for modulator (0-10) \; 3rd
modulation index (0-20) \; 4th timbre (0-1) \; 5th mix (0-1) \; 6th
attack in ms \; 7th release in ms \; 8th decay (1-8)., f 58;
#X obj 30 108 rr_pulsa 3 1;
#X obj 30 184 rr_tchrd;
#X obj 30 131 random 6;
#X obj 30 333 /~ 3;
#X floatatom 87 184 5 0 0 0 - - -;
#X obj 87 161 every+ 24;
#X text 308 184 Tchrd returns tetrachord \; put a value in 2nd inlet
(0-6) to have all distributions of intervals.;
#X obj 30 208 + 60;
#X obj 30 240 rr_TET 19;
#X obj 30 310 clone 8 rr_fm~ 0.5 5 0.5 0.85 5 1500 4;
#X floatatom 92 240 5 0 0 0 - - -;
#X text 308 234 Use TET to change the tones equal distribution \; use
as an argument/2nd inlet how many equal divisions for your octave.
;
#X connect 2 0 3 0;
#X connect 2 1 3 1;
#X connect 4 0 3 2;
#X connect 9 0 14 0;
#X connect 10 0 2 0;
#X connect 10 0 2 1;
#X connect 10 1 12 0;
#X connect 11 0 23 0;
#X connect 12 0 2 1;
#X connect 12 0 2 0;
#X connect 14 0 16 0;
#X connect 15 0 21 0;
#X connect 16 0 15 0;
#X connect 16 0 19 0;
#X connect 17 0 10 0;
#X connect 18 0 15 1;
#X connect 19 0 18 0;
#X connect 21 0 22 0;
#X connect 22 0 11 0;
#X connect 23 0 17 0;
#X connect 24 0 22 1;
