#N canvas 438 116 767 637 10;
#X obj 8 17 cnv 15 680 40 empty empty Generative_series 20 12 0 14
-233017 -66577 0;
#X obj 303 21 cnv 15 380 40 empty empty ABS:rr_mUD 20 20 0 24 -128992
-262144 0;
#X obj 29 422 rr_OUTdac~;
#X obj 30 532 rr_record~;
#X msg 193 506 rec01.wav;
#X text 309 460 1st toggle turn ON/OFF your Dsp. 2nd toggle visualize
the wave sound. Slide is for volume.;
#X text 309 550 You can record your performance. Put the name. It show
passing seconds while recording. Bang to reset.;
#X text 308 94 HOW TO: Use pulsa to define how much times in seconds
you choose bang occures.;
#X obj 30 92 tgl 15 0 empty empty empty 17 7 0 10 -262144 -1 -1 1 1
;
#X obj 79 386 rev1~;
#X floatatom 117 386 5 0 0 0 - - -;
#X msg 30 285 next \$1;
#X obj 30 333 *~ 0.25;
#X obj 30 113 rr_pulsa 6 1;
#X obj 30 221 rr_mUD 35 50;
#X msg 150 175 next \$1;
#X msg 218 246 0 2 3 5 7 9 10;
#X obj 150 129 rr_mUD 25 50;
#X obj 150 198 clone 8 rr_tone~ 2500 3;
#X msg 219 106 3 4;
#X obj 79 363 lop~ 500;
#X msg 99 198 4 3 1;
#X text 308 208 mUD needs 2 arguments: min/max in range \; Put a list
in 2nd inlet as a sequence of intervals.;
#X text 309 287 In allscales put in 2nd inlet a progressive series
(list) of intervals which represents the elements of the scale to use
(mod 12). [minor scale in example];
#X obj 30 262 rr_allscales;
#X obj 150 152 rr_allscales;
#X obj 30 310 clone 8 rr_tone~ 500 4;
#X connect 2 0 3 0;
#X connect 2 1 3 1;
#X connect 4 0 3 2;
#X connect 8 0 13 0;
#X connect 9 0 2 0;
#X connect 9 0 2 1;
#X connect 10 0 9 1;
#X connect 11 0 26 0;
#X connect 12 0 2 0;
#X connect 12 0 20 0;
#X connect 13 0 14 0;
#X connect 13 1 17 0;
#X connect 14 0 24 0;
#X connect 15 0 18 0;
#X connect 16 0 24 1;
#X connect 16 0 25 1;
#X connect 17 0 25 0;
#X connect 18 0 12 0;
#X connect 19 0 17 1;
#X connect 20 0 9 0;
#X connect 21 0 14 1;
#X connect 24 0 11 0;
#X connect 25 0 15 0;
#X connect 26 0 12 0;
