#N canvas 539 116 736 637 10;
#X obj 8 17 cnv 15 680 40 empty empty Generative_series 20 12 0 14
-233017 -66577 0;
#X obj 303 21 cnv 15 380 40 empty empty ABS:rr_overtone 20 20 0 24
-128992 -262144 0;
#X obj 29 442 rr_OUTdac~;
#X obj 30 552 rr_record~;
#X msg 193 526 rec01.wav;
#X text 309 470 1st toggle turn ON/OFF your Dsp. 2nd toggle visualize
the wave sound. Slide is for volume.;
#X text 309 550 You can record your performance. Put the name. It show
passing seconds while recording. Bang to reset.;
#X obj 30 113 rr_density;
#X text 308 94 HOW TO: Use density to define how much times in seconds
you choose bang occures.;
#X obj 30 180 rr_play;
#X obj 30 398 rr_echo~ e1 500 0.5;
#X text 309 420 Echo~ repeats sound (e1 \, e2 \, ...) every ms you
put as parameter and fade out. You can put multiples in sequence. You
can put 3rd attribute from 0-1 for feedback.;
#X obj 88 245 rr_circle;
#X obj 30 303 + 0;
#X text 308 210 In circle: [div] how many bangs in to have a bang out
(a counter) \; [int] defines interval to next number out \; [oct] in
how many octaves can displaces \; [off] offset number (may be root
of sequence] \; [set] reset. Es: have circle of fifth with 7 in int.
2nd inlet is for [div] and 3rd for [int].;
#X text 308 154 Choose how many elements in your sequence [num] then
[set].You can click [set] again for a new sequence. You can bang in
2nd inlet to [set]. 3rd inlet (2-6) how many repetitions of sequence
to bang out in 2nd outlet.;
#X obj 141 420 *~ 0.25;
#X text 309 306 With overtone you can generate harmonics as you want
\; 1st argument is for cloning \; 2nd argument number of harmonic \;
3rd ampitude (0-1) \; 4th attack in ms \; 5th sustain in ms \; 6th
release in ms \; 7th type of curve (1-8).;
#X obj 40 350 rr_overtone~ 0 3 0.35 25 300 50 1;
#X obj 50 373 rr_overtone~ 0 4 0.15 50 400 80 3;
#X obj 30 326 rr_overtone~ 0 1 0.25 10 500 100 2;
#X connect 2 0 3 0;
#X connect 2 1 3 1;
#X connect 4 0 3 2;
#X connect 7 0 9 0;
#X connect 9 0 13 0;
#X connect 9 1 12 0;
#X connect 10 0 2 0;
#X connect 10 0 2 1;
#X connect 10 1 16 0;
#X connect 12 0 13 1;
#X connect 13 0 18 0;
#X connect 13 0 19 0;
#X connect 13 0 20 0;
#X connect 16 0 2 1;
#X connect 18 0 10 0;
#X connect 19 0 10 0;
#X connect 20 0 10 0;
