#N canvas 593 116 767 637 10;
#X obj 8 17 cnv 15 680 40 empty empty Generative_series 20 12 0 14
-233017 -66577 0;
#X obj 303 21 cnv 15 380 40 empty empty ABS:rr_cadenza 20 20 0 24 -128992
-262144 0;
#X obj 29 418 rr_OUTdac~;
#X obj 30 528 rr_record~;
#X msg 193 502 rec01.wav;
#X text 309 460 1st toggle turn ON/OFF your Dsp. 2nd toggle visualize
the wave sound. Slide is for volume.;
#X text 309 550 You can record your performance. Put the name. It show
passing seconds while recording. Bang to reset.;
#X obj 30 87 tgl 15 0 empty empty empty 17 7 0 10 -262144 -1 -1 0 1
;
#X obj 85 392 rev1~;
#X floatatom 123 392 5 0 0 0 - - -;
#X msg 30 303 next \$1;
#X obj 158 420 bng 15 250 50 0 empty empty empty 17 7 0 10 -262144
-1 -1;
#X obj 158 440 s sync;
#X obj 30 352 *~ 0.15;
#X text 308 288 Mappa+ needs 4 arguments \; 1st are numbers of steps
in scale \; 2nd are numbers of semitones in scale \; 3rd is modal transposition
(scale grade) \; 4th is chromtic transposition.;
#X floatatom 123 173 5 0 0 0 - - -;
#X obj 85 369 hip~ 500;
#X obj 30 279 rr_mappa+ 7 12 0 0;
#X obj 30 110 rr_pulsa+ 1 1 11;
#X obj 30 188 rr_cadenza 12;
#X obj 30 327 clone 16 rr_tone~ 2500 3;
#X obj 108 233 bng 15 250 50 0 empty empty empty 17 7 0 10 -262144
-1 -1;
#X text 308 201 Cadenza needs an arguments and a value in 2nd inlet.
It returns an orbit around resolution tone. 1st outlet for cadence
sequence and 2nd outlet is bass line.;
#X obj 108 254 rr_circula 8 4 7;
#X connect 2 0 3 0;
#X connect 2 1 3 1;
#X connect 4 0 3 2;
#X connect 7 0 18 0;
#X connect 8 0 2 0;
#X connect 8 0 2 1;
#X connect 9 0 8 1;
#X connect 10 0 20 0;
#X connect 11 0 12 0;
#X connect 13 0 2 0;
#X connect 13 0 8 0;
#X connect 13 0 16 0;
#X connect 15 0 18 1;
#X connect 15 0 19 1;
#X connect 16 0 8 0;
#X connect 17 0 10 0;
#X connect 18 0 19 0;
#X connect 18 1 21 0;
#X connect 19 0 17 0;
#X connect 19 1 17 0;
#X connect 20 0 13 0;
#X connect 21 0 23 0;
#X connect 23 0 17 3;
