#N canvas 517 125 767 637 10;
#X obj 8 17 cnv 15 680 40 empty empty Generative_series 20 12 0 14
-233017 -66577 0;
#X obj 303 21 cnv 15 380 40 empty empty ABS:rr_mappa 20 20 0 24 -128992
-262144 0;
#X obj 30 552 rr_record~;
#X msg 193 526 rec01.wav;
#X text 309 550 You can record your performance. Put the name. It show
passing seconds while recording. Bang to reset.;
#X obj 30 83 tgl 15 0 empty empty empty 17 7 0 10 -262144 -1 -1 0 1
;
#X obj 142 410 rev1~;
#X floatatom 180 410 5 0 0 0 - - -;
#X floatatom 204 387 5 0 0 0 - - -;
#X text 309 460 1st toggle turn ON/OFF your Dsp. 2nd toggle visualize
the wave sound. Stereo spatialization and volume sliders.;
#X obj 29 442 rr_XOUTdac~;
#X obj 142 387 hip~ 1000;
#X msg 30 278 next \$1;
#X text 308 94 Pulsa needs 2 arguments: 1st how many pulses every 2nd
argument seconds (in 2nd inlet too).;
#X floatatom 30 210 5 0 0 0 - - -;
#X msg 113 278 next \$1;
#X floatatom 113 210 5 0 0 0 - - -;
#X obj 30 233 + 30;
#X obj 30 301 clone 8 rr_tone~ 1000 3;
#X obj 30 185 rr_mappa;
#X msg 126 184 0 1 2 4 5;
#X msg 196 255 0 2 4 5 7 9 11;
#X floatatom 52 162 5 0 0 0 - - -;
#X obj 113 153 rr_cycle1 0 1 7 1 30;
#X obj 113 232 - 7;
#X obj 29 347 rr_mix~ 0.35;
#X obj 29 370 *~ 0.5;
#X obj 30 104 rr_pulsa 5 1;
#X obj 52 130 rr_trga 2 0 1 1;
#X obj 113 324 clone 8 rr_tone~ 2500 2;
#X obj 30 255 rr_allscales;
#X obj 113 255 rr_allscales;
#X text 308 194 Mappa needs a list in 3rd inlet as values accepted
in random sequence and a seed in 2nd inlet to have a new sequence.
;
#X connect 3 0 2 2;
#X connect 5 0 27 0;
#X connect 6 0 10 1;
#X connect 7 0 6 1;
#X connect 8 0 11 1;
#X connect 10 0 2 0;
#X connect 10 1 2 1;
#X connect 11 0 6 0;
#X connect 12 0 18 0;
#X connect 14 0 17 0;
#X connect 15 0 29 0;
#X connect 16 0 24 0;
#X connect 17 0 30 0;
#X connect 18 0 25 0;
#X connect 19 0 14 0;
#X connect 20 0 19 2;
#X connect 21 0 30 1;
#X connect 21 0 31 1;
#X connect 22 0 19 1;
#X connect 23 0 17 1;
#X connect 23 0 16 0;
#X connect 24 0 31 0;
#X connect 25 0 26 0;
#X connect 26 0 11 0;
#X connect 26 0 10 0;
#X connect 26 0 10 1;
#X connect 27 0 19 0;
#X connect 27 1 28 0;
#X connect 28 0 22 0;
#X connect 28 0 23 0;
#X connect 29 0 25 1;
#X connect 30 0 12 0;
#X connect 31 0 15 0;
