#N canvas 6 116 701 637 10;
#X obj 8 17 cnv 15 680 40 empty empty Generative_series 20 12 0 14
-233017 -66577 0;
#X obj 303 21 cnv 15 380 40 empty empty ABS:rr_rmarkova 20 20 0 24
-128992 -262144 0;
#X obj 30 532 rr_record~;
#X msg 193 506 rec01.wav;
#X text 309 550 You can record your performance. Put the name. It show
passing seconds while recording. Bang to reset.;
#X obj 30 92 tgl 15 0 empty empty empty 17 7 0 10 -262144 -1 -1 0 1
;
#X obj 142 373 rev1~;
#X floatatom 180 373 5 0 0 0 - - -;
#X floatatom 141 150 5 0 0 0 - - -;
#X floatatom 204 350 5 0 0 0 - - -;
#X text 309 460 1st toggle turn ON/OFF your Dsp. 2nd toggle visualize
the wave sound. Stereo spatialization and volume sliders.;
#X obj 30 333 *~ 0.25;
#X obj 29 422 rr_XOUTdac~;
#X obj 142 350 hip~ 1000;
#X msg 30 287 next \$1;
#X floatatom 30 197 5 0 0 0 - - -;
#X obj 30 263 allscales;
#X msg 94 263 0 2 4 5 7 9 11;
#X obj 30 239 + 35;
#X obj 30 173 rr_rmarkova 7, f 19;
#X text 309 187 Rmarkova needs an argument as number of elements in
list. A value in 2nd inlet as a seed generates a list of sum of probabilities
% to return a position of element in list.;
#X obj 111 95 + 1;
#X obj 30 117 rr_pulsa 1 1.5;
#X text 308 94 Pulsa needs 2 arguments: 1st how many pulses every 2nd
argument seconds (in 2nd inlet too).;
#X obj 30 310 clone 8 rr_tone~ 2000 4;
#X connect 3 0 2 2;
#X connect 5 0 22 0;
#X connect 6 0 12 1;
#X connect 7 0 6 1;
#X connect 8 0 19 1;
#X connect 9 0 13 1;
#X connect 11 0 12 0;
#X connect 11 0 13 0;
#X connect 11 0 12 1;
#X connect 12 0 2 0;
#X connect 12 1 2 1;
#X connect 13 0 6 0;
#X connect 14 0 24 0;
#X connect 15 0 18 0;
#X connect 15 0 21 0;
#X connect 16 0 14 0;
#X connect 17 0 16 1;
#X connect 18 0 16 0;
#X connect 19 0 15 0;
#X connect 21 0 22 1;
#X connect 22 0 19 0;
#X connect 24 0 11 0;
