#N canvas 511 116 736 637 10;
#X obj 8 17 cnv 15 680 40 empty empty Generative_series 20 12 0 14
-233017 -66577 0;
#X obj 303 21 cnv 15 380 40 empty empty ABS:rr_mapPitch 20 20 0 24
-128992 -262144 0;
#X obj 29 442 rr_OUTdac~;
#X obj 30 552 rr_record~;
#X msg 193 526 rec01.wav;
#X text 309 390 Echo~ repeats sound (e1 \, e2 \, ...) every ms you
put as parameter and fade out. You can put multiples in sequence.;
#X text 309 440 1st toggle turn ON/OFF your Dsp. 2nd toggle visualize
the wave sound. Slide is for volume.;
#X text 309 550 You can record your performance. Put the name. It show
passing seconds while recording. Bang to reset.;
#X obj 30 113 rr_density;
#X text 309 344 Tone~ generate a tone with envelope: Midi value (0-127)
in 1st inlet \, duration in ms 2nd inlet \, power for asc/desc (1-8)
in 3rd inlet.;
#X text 308 94 HOW TO: Use density to define how much times in seconds
you choose bang occures.;
#X text 309 279 Active to generate probability to play a note o to
pause. (0 for no pause -> 6 all pauses);
#X obj 29 367 rr_echo~ e1 50, f 19;
#X obj 30 343 rr_tone~ 0 100 2;
#X obj 30 295 rr_active 1;
#X obj 29 390 rr_echo~ e2 250, f 17;
#X obj 40 414 rr_echo~ e3 750;
#X text 308 157 [tone] defines root and [seed] changes random sequence
\; Choose the only intervals you want to play.;
#X obj 30 185 rr_mapPitch, f 18;
#X connect 2 0 3 0;
#X connect 2 1 3 1;
#X connect 4 0 3 2;
#X connect 8 0 18 0;
#X connect 12 0 15 0;
#X connect 12 1 2 1;
#X connect 12 1 15 1;
#X connect 13 0 12 0;
#X connect 14 0 13 0;
#X connect 15 0 2 0;
#X connect 15 0 16 0;
#X connect 15 1 2 0;
#X connect 15 1 16 1;
#X connect 16 1 2 1;
#X connect 18 0 14 0;
