#N canvas 530 116 737 632 10;
#X obj 8 17 cnv 15 680 40 empty empty Generative_series 20 12 0 14
-233017 -66577 0;
#X obj 303 21 cnv 15 380 40 empty empty ABS:rr_modela 20 20 0 24 -128992
-262144 0;
#X obj 29 426 rr_OUTdac~;
#X obj 30 536 rr_record~;
#X msg 193 510 rec01.wav;
#X text 309 485 1st toggle turn ON/OFF your Dsp. 2nd toggle visualize
the wave sound. Slide is for volume.;
#X text 309 550 You can record your performance. Put the name. It show
passing seconds while recording. Bang to reset.;
#X text 308 134 Choose how many elements in your sequence [num] then
[set].You can click [set] again for a new sequence. You can bang in
2nd inlet to [set]. 3rd inlet (2-6) how many repetitions of sequence
to bang out in 2nd outlet.;
#X obj 30 133 rr_play;
#X obj 30 85 tgl 15 0 empty empty empty 17 7 0 10 -262144 -1 -1 0 1
;
#X obj 121 85 bng 15 250 50 0 empty empty empty 17 7 0 10 -262144 -1
-1;
#X obj 121 105 s sync;
#X text 308 94 HOW TO: Use pulsa to define how much times in seconds
you choose bang occures.;
#X obj 30 199 + 60;
#X obj 81 392 rev1~;
#X floatatom 120 392 5 0 0 0 - - -;
#X msg 30 222 next \$1;
#X obj 30 105 rr_pulsa 1 1;
#X obj 30 245 clone 4 rr_tone~ 1500 3;
#X obj 81 369 lop~ 300;
#X obj 141 310 rr_modela~ m2 0.2 4 0.65;
#X obj 30 280 rr_modela~ m1 0.1 -4 0.65;
#X text 309 265 Modela needs 4 arguments: 1st a single name for madulation
\; 2nd is a carrier freq for delay \; 3rd is modulator freq for delay
\; 4th is feedback (0-1).;
#X connect 2 0 3 0;
#X connect 2 1 3 1;
#X connect 4 0 3 2;
#X connect 8 0 13 0;
#X connect 9 0 17 0;
#X connect 10 0 11 0;
#X connect 13 0 16 0;
#X connect 14 0 2 1;
#X connect 14 0 2 0;
#X connect 15 0 14 1;
#X connect 16 0 18 0;
#X connect 17 0 8 0;
#X connect 18 0 20 0;
#X connect 18 0 21 0;
#X connect 19 0 14 0;
#X connect 20 0 2 1;
#X connect 20 0 19 0;
#X connect 21 0 2 0;
#X connect 21 0 19 0;
