#N canvas 539 116 736 637 10;
#X obj 8 17 cnv 15 680 40 empty empty Generative_series 20 12 0 14
-233017 -66577 0;
#X obj 303 21 cnv 15 380 40 empty empty ABS:rr_rtm 20 20 0 24 -128992
-262144 0;
#X obj 29 442 rr_OUTdac~;
#X obj 30 552 rr_record~;
#X msg 193 526 rec01.wav;
#X text 309 460 1st toggle turn ON/OFF your Dsp. 2nd toggle visualize
the wave sound. Slide is for volume.;
#X text 309 550 You can record your performance. Put the name. It show
passing seconds while recording. Bang to reset.;
#X obj 30 113 rr_density;
#X text 308 94 HOW TO: Use density to define how much times in seconds
you choose bang occures.;
#X text 309 410 Echo~ repeats sound (e1 \, e2 \, ...) every ms you
put as parameter and fade out. You can put multiples in sequence. You
can put 3rd attribute from 0-1 for feedback.;
#X text 309 279 Perc~ needs attributes: 1st for cloning \; 2nd for
tone (in Hz) \; 3rd for release \; 4th for decay type \; 5th amp of
tone (< 0.5) \; 6th amp of noise (< 0.5) \; 7th is lpf \; 8th is hpf.
;
#X obj 40 355 rr_perc~ 0 250 90 6 0.25 0.5 6000 3000;
#X msg 62 221 1 0 1 0 0;
#X obj 30 330 rr_perc~ 0 60 120 4 0.5 0.15 1000 500;
#X obj 30 400 rr_echo~ e1 25 0.1, f 19;
#X obj 30 248 rr_rtm 2;
#X obj 30 178 t b b, f 18;
#X msg 171 224 1 0 1 0 0;
#X obj 135 249 rr_rtm 1;
#X obj 50 305 rr_perc~ 0 450 90 6 0.25 0.5 6000 3000;
#X obj 40 280 rr_perc~ 0 90 120 5 0.5 0.15 2000 1000;
#X msg 180 199 0 1 0 0;
#X msg 75 199 0 1;
#X text 308 210 Rtm needs a list (or more) of 0/1 in 3rd inlet that
is your sequence and an attribute that divides inlet trigger.;
#X connect 2 0 3 0;
#X connect 2 1 3 1;
#X connect 4 0 3 2;
#X connect 7 0 16 0;
#X connect 11 0 14 0;
#X connect 12 0 15 2;
#X connect 13 0 14 0;
#X connect 14 0 2 0;
#X connect 14 0 2 1;
#X connect 14 1 2 1;
#X connect 15 0 13 0;
#X connect 15 1 11 0;
#X connect 16 0 15 0;
#X connect 16 1 18 0;
#X connect 17 0 18 2;
#X connect 18 0 20 0;
#X connect 18 1 19 0;
#X connect 19 0 14 0;
#X connect 20 0 14 0;
#X connect 21 0 18 2;
#X connect 22 0 15 2;
