#N canvas 539 116 736 637 10;
#X obj 8 17 cnv 15 680 40 empty empty Generative_series 20 12 0 14
-233017 -66577 0;
#X obj 303 21 cnv 15 380 40 empty empty ABS:rr_chrd+ 20 20 0 24 -128992
-262144 0;
#X obj 29 436 rr_OUTdac~;
#X obj 30 546 rr_record~;
#X msg 193 520 rec01.wav;
#X text 309 540 1st toggle turn ON/OFF your Dsp. 2nd toggle visualize
the wave sound. Slide is for volume.;
#X text 309 580 You can record your performance. Put the name. It show
passing seconds while recording. Bang to reset., f 56;
#X msg 30 299 next \$1;
#X text 309 358 With fm you can generate a frequency modulated sound
\; 1st is carrier (0-127) \; 2nd is ratio for modulator (0-10) \; 3rd
modulation index (0-20) \; 4th timbre (0-1) \; 5th mix (0-1) \; 6th
attack in ms \; 7th release in ms \; 8th decay (1-8)., f 58;
#X obj 30 277 rr_allscales;
#X text 309 291 In allscales: put in 2nd inlet a progressive series
(list) of intervals which represents the elements of the scale to use
(mod 12).;
#X obj 30 75 tgl 15 0 empty empty empty 17 7 0 10 -262144 -1 -1 0 1
;
#X text 308 76 HOW TO: Use pulsa to define how much times in seconds
you choose bang occures.;
#X obj 84 407 rev1~;
#X floatatom 122 407 5 0 0 0 - - -;
#X obj 30 254 + 30;
#X floatatom 110 134 5 0 0 0 - - -;
#X obj 30 96 rr_pulsa 1 1;
#X obj 148 175 f 0;
#X obj 30 322 clone 16 rr_fm~ 1 0.5 0.15 0.95 20 2500 2;
#X msg 110 277 0 2 3 5 7 9 10;
#X obj 84 385 lop~ 600;
#X obj 84 363 rr_tremo~ 5 0.5;
#X obj 30 346 /~ 3;
#X text 309 171 Chrd+ needs 4 arguments: 1st/2nd/3rd is intervals in
chord elements \; 4th is delay in playing tones \; 2nd inlet is for
chord inversions \; 4th outlet returns a bang ending.;
#X obj 30 134 rr_selecta 5;
#X obj 175 175 rr_chrd+ 8 12 16 250;
#X obj 30 175 rr_chrd+ 0 4 9 200;
#X connect 2 0 3 0;
#X connect 2 1 3 1;
#X connect 4 0 3 2;
#X connect 7 0 19 0;
#X connect 9 0 7 0;
#X connect 11 0 17 0;
#X connect 13 0 2 0;
#X connect 13 0 2 1;
#X connect 14 0 13 1;
#X connect 15 0 9 0;
#X connect 16 0 25 1;
#X connect 17 0 25 0;
#X connect 18 0 26 0;
#X connect 19 0 23 0;
#X connect 20 0 9 1;
#X connect 21 0 13 0;
#X connect 22 0 21 0;
#X connect 23 0 2 0;
#X connect 23 0 22 0;
#X connect 25 0 18 1;
#X connect 25 0 27 0;
#X connect 26 0 15 0;
#X connect 26 1 15 0;
#X connect 26 2 15 0;
#X connect 27 0 15 0;
#X connect 27 1 15 0;
#X connect 27 2 15 0;
#X connect 27 3 18 0;
