#N canvas 539 116 736 637 10;
#X obj 8 17 cnv 15 680 40 empty empty Generative_series 20 12 0 14
-233017 -66577 0;
#X obj 303 21 cnv 15 380 40 empty empty ABS:rr_rndruma~ 20 20 0 24
-128992 -262144 0;
#X obj 29 442 rr_OUTdac~;
#X obj 30 552 rr_record~;
#X msg 193 526 rec01.wav;
#X text 309 460 1st toggle turn ON/OFF your Dsp. 2nd toggle visualize
the wave sound. Slide is for volume.;
#X text 309 550 You can record your performance. Put the name. It show
passing seconds while recording. Bang to reset.;
#X obj 142 412 rev1~;
#X floatatom 181 412 5 0 0 0 - - -;
#X floatatom 200 389 5 0 0 0 - - -;
#X obj 30 372 expr~ tanh($v1);
#X obj 142 389 lop~ 200;
#X obj 30 349 *~ 1;
#X obj 30 86 tgl 15 0 empty empty empty 17 7 0 10 -262144 -1 -1 0 1
;
#X text 308 94 HOW TO: Use pulsa to define how much times in seconds
you choose bang occures.;
#X obj 30 107 rr_pulsa 5 1;
#X obj 158 442 bng 15 250 50 0 empty empty empty 17 7 0 10 -262144
-1 -1;
#X obj 158 462 s sync;
#X obj 30 221 rr_rndruma~ 6;
#X floatatom 119 221 5 0 0 0 - - -;
#X text 308 194 Rndruma needs an argument as number of elements in
sequence and a value in 2nd inlet as seed. It returns a kick/snare/hihat
sequence.;
#X connect 2 0 3 0;
#X connect 2 1 3 1;
#X connect 4 0 3 2;
#X connect 7 0 2 1;
#X connect 7 0 2 0;
#X connect 8 0 7 1;
#X connect 9 0 11 1;
#X connect 10 0 11 0;
#X connect 10 0 2 0;
#X connect 10 0 2 1;
#X connect 11 0 7 0;
#X connect 12 0 10 0;
#X connect 13 0 15 0;
#X connect 15 0 18 0;
#X connect 16 0 17 0;
#X connect 18 0 12 0;
#X connect 18 1 12 0;
#X connect 18 2 12 0;
#X connect 19 0 18 1;
