#N canvas 6 116 702 637 10;
#X obj 8 17 cnv 15 680 40 empty empty Generative_series 20 12 0 14
-233017 -66577 0;
#X obj 303 21 cnv 15 380 40 empty empty ABS:rr_rearmo+/rearmo- 20 20
0 24 -128992 -262144 0;
#X obj 29 407 rr_OUTdac~;
#X obj 30 517 rr_record~;
#X msg 193 491 rec01.wav;
#X text 309 460 1st toggle turn ON/OFF your Dsp. 2nd toggle visualize
the wave sound. Slide is for volume.;
#X text 309 550 You can record your performance. Put the name. It show
passing seconds while recording. Bang to reset.;
#X text 308 94 HOW TO: Use pulsa to define how much times in seconds
you choose bang occures.;
#X obj 30 97 tgl 15 0 empty empty empty 17 7 0 10 -262144 -1 -1 1 1
;
#X obj 85 371 rev1~;
#X floatatom 123 371 5 0 0 0 - - -;
#X msg 30 282 next \$1;
#X obj 158 409 bng 15 250 50 0 empty empty empty 17 7 0 10 -262144
-1 -1;
#X obj 158 429 s sync;
#X obj 30 331 *~ 0.15;
#X obj 85 348 hip~ 300;
#X obj 30 118 rr_pulsa+ 1 1 10;
#X obj 30 141 rr_rmarkova 9;
#X floatatom 105 94 5 0 0 0 - - -;
#X floatatom 30 164 5 0 0 0 - - -;
#X floatatom 100 194 5 0 0 0 - - -;
#X floatatom 171 194 5 0 0 0 - - -;
#X text 308 184 Rearmo+ needs 5 arguments: 1st is grade in scale to
reharmonize 2nd is offset grade of new scale \; 3rd how many note to
have new chord reharmonized \; 4th delay in ms from single note to
chords \; 5th delay between note chords.;
#X obj 312 294 rr_rearmo- 0 0 3 0 0;
#X text 309 320 You have a rr_rearmo- version for minor scale reharmonization
;
#X obj 30 217 rr_rearmo+ 2 3 4 500 250;
#X obj 30 305 clone 16 rr_tone~ 2000 3;
#X obj 30 194 + 40;
#X connect 2 0 3 0;
#X connect 2 1 3 1;
#X connect 4 0 3 2;
#X connect 8 0 16 0;
#X connect 9 0 2 0;
#X connect 9 0 2 1;
#X connect 10 0 9 1;
#X connect 11 0 26 0;
#X connect 12 0 13 0;
#X connect 14 0 2 0;
#X connect 14 0 9 0;
#X connect 14 0 15 0;
#X connect 15 0 9 0;
#X connect 16 0 17 0;
#X connect 17 0 19 0;
#X connect 18 0 17 1;
#X connect 18 0 16 1;
#X connect 19 0 27 0;
#X connect 20 0 25 1;
#X connect 21 0 25 2;
#X connect 25 0 11 0;
#X connect 25 1 11 0;
#X connect 25 2 11 0;
#X connect 25 3 11 0;
#X connect 25 4 11 0;
#X connect 26 0 14 0;
#X connect 27 0 25 0;
