#N canvas 453 130 737 632 10;
#X obj 8 17 cnv 15 680 40 empty empty Generative_series 20 12 0 14
-233017 -66577 0;
#X obj 303 21 cnv 15 380 40 empty empty ABS:rr_note6~ 20 20 0 24 -128992
-262144 0;
#X obj 29 432 rr_OUTdac~;
#X obj 30 542 rr_record~;
#X msg 193 516 rec01.wav;
#X text 309 485 1st toggle turn ON/OFF your Dsp. 2nd toggle visualize
the wave sound. Slide is for volume.;
#X text 309 550 You can record your performance. Put the name. It show
passing seconds while recording. Bang to reset.;
#X text 308 134 Choose how many elements in your sequence [num] then
[set].You can click [set] again for a new sequence. You can bang in
2nd inlet to [set]. 3rd inlet (2-6) how many repetitions of sequence
to bang out in 2nd outlet.;
#X obj 30 161 rr_play;
#X obj 30 91 tgl 15 0 empty empty empty 17 7 0 10 -262144 -1 -1 0 1
;
#X text 308 94 HOW TO: Use pulsa to define how much times in seconds
you choose bang occures.;
#X obj 30 111 rr_pulsa 3 1;
#X obj 30 233 + 50;
#X obj 99 135 rr_trga 8 0 1 1;
#X obj 115 383 rev1~;
#X floatatom 177 383 5 0 0 0 - - -;
#X floatatom 177 360 5 0 0 0 - - -;
#X floatatom 68 376 5 0 1 0 - - -;
#X obj 30 343 *~ 0.25;
#X obj 115 360 hip~ 1000;
#X msg 30 257 next \$1;
#X obj 30 290 clone 8 rr_note6~ 20 0.499 0.5 1 0.35 3.01 0.15 4 0.25
5 0.1 6.99 0.2, f 41;
#X floatatom 125 235 5 0 0 0 - - -;
#X obj 125 257 s por;
#X floatatom 165 235 5 0 0 0 - - -;
#X floatatom 205 235 5 0 0 0 - - -;
#X obj 165 257 s dur;
#X obj 205 257 s dec;
#X text 308 268 Note6 needs 4 arguments but accepts untill 14 1st is
clone number \; 2nd is portamento in ms \; 3rd is 1st harmonic and
4th its amplitude \; You can put 5 harmonics more. Every pairs are
first value for harmonic num and second its amplitude. You can send
it a value for portamento \, for duration and decay.;
#X obj 29 398 mix 0.5;
#X connect 2 0 3 0;
#X connect 2 1 3 1;
#X connect 4 0 3 2;
#X connect 8 0 12 0;
#X connect 9 0 11 0;
#X connect 11 0 8 0;
#X connect 11 1 13 0;
#X connect 12 0 20 0;
#X connect 13 0 8 1;
#X connect 14 0 29 1;
#X connect 15 0 14 1;
#X connect 16 0 19 1;
#X connect 17 0 29 2;
#X connect 18 0 19 0;
#X connect 18 0 29 0;
#X connect 19 0 14 0;
#X connect 20 0 21 0;
#X connect 21 0 18 0;
#X connect 22 0 23 0;
#X connect 24 0 26 0;
#X connect 25 0 27 0;
#X connect 29 0 2 0;
#X connect 29 0 2 1;
