#N canvas 539 116 736 637 10;
#X obj 8 17 cnv 15 680 40 empty empty Generative_series 20 12 0 14
-233017 -66577 0;
#X obj 303 21 cnv 15 380 40 empty empty ABS:rr_fhmo~_fhmp~ 20 20 0
24 -128992 -262144 0;
#X obj 29 432 rr_OUTdac~;
#X obj 30 542 rr_record~;
#X msg 193 516 rec01.wav;
#X text 309 485 1st toggle turn ON/OFF your Dsp. 2nd toggle visualize
the wave sound. Slide is for volume.;
#X text 309 550 You can record your performance. Put the name. It show
passing seconds while recording. Bang to reset.;
#X obj 30 153 rr_play;
#X obj 30 91 tgl 15 0 empty empty empty 17 7 0 10 -262144 -1 -1 0 1
;
#X text 308 94 HOW TO: Use pulsa to define how much times in seconds
you choose bang occures.;
#X obj 135 137 rr_trga 12 0 1 1;
#X obj 143 379 hip~ 150;
#X obj 143 402 rev1~;
#X floatatom 182 402 5 0 0 0 - - -;
#X obj 30 219 + 50;
#X obj 30 362 *~ 0.25;
#X obj 30 281 rr_fhmo~ 7 2 500;
#X obj 30 337 *~;
#X obj 125 322 rr_curva~ 500 0.5 2;
#X obj 30 111 rr_pulsa 1 1, f 18;
#X floatatom 61 259 5 0 0 0 - - -;
#X floatatom 99 259 5 0 0 0 - - -;
#X floatatom 136 282 5 0 0 0 - - -;
#X text 309 313 Curva needs 3 arguments and a bang in 1st inlet \;
1st envelope duration \; 2nd peak position (0.1 - 0.9) \; 3rd curve
exp.;
#X floatatom 183 213 5 0 0 0 - - -;
#X floatatom 221 213 5 0 0 0 - - -;
#X floatatom 258 236 5 0 0 0 - - -;
#X obj 152 235 rr_fhmp~ 7 2 500;
#X text 309 233 Fhmo/fhmp need a midi value in 1st inlet and 3 arguments
\; 1st/2nd to have harmonic ratio [1st>2nd] (1 - 16) \; 3rd richness/brigthness
(1 - 2000).;
#X connect 2 0 3 0;
#X connect 2 1 3 1;
#X connect 4 0 3 2;
#X connect 7 0 14 0;
#X connect 8 0 19 0;
#X connect 10 0 7 1;
#X connect 11 0 12 0;
#X connect 12 0 2 1;
#X connect 12 0 2 0;
#X connect 13 0 12 1;
#X connect 14 0 16 0;
#X connect 14 0 18 0;
#X connect 14 0 27 0;
#X connect 15 0 2 0;
#X connect 15 0 11 0;
#X connect 17 0 15 0;
#X connect 18 0 17 1;
#X connect 19 0 7 0;
#X connect 19 1 10 0;
#X connect 20 0 16 1;
#X connect 21 0 16 2;
#X connect 22 0 16 3;
#X connect 24 0 27 1;
#X connect 25 0 27 2;
#X connect 26 0 27 3;
#X connect 27 0 17 0;
