#N canvas 539 116 736 637 10;
#X obj 8 17 cnv 15 680 40 empty empty Generative_series 20 12 0 14
-233017 -66577 0;
#X obj 303 21 cnv 15 380 40 empty empty ABS:rr_randela~ 20 20 0 24
-128992 -262144 0;
#X obj 29 444 rr_OUTdac~;
#X obj 30 554 rr_record~;
#X msg 193 528 rec01.wav;
#X text 309 485 1st toggle turn ON/OFF your Dsp. 2nd toggle visualize
the wave sound. Slide is for volume.;
#X text 309 550 You can record your performance. Put the name. It show
passing seconds while recording. Bang to reset.;
#X obj 30 90 tgl 15 0 empty empty empty 17 7 0 10 -262144 -1 -1 0 1
;
#X obj 159 444 bng 15 250 50 0 empty empty empty 17 7 0 10 -262144
-1 -1;
#X obj 159 464 s sync;
#X text 308 94 HOW TO: Use pulsa to define how much times in seconds
you choose bang occures.;
#X obj 105 133 rr_trga 12 0 1 1;
#X obj 142 375 hip~ 1500;
#X obj 142 398 rev1~;
#X floatatom 181 398 5 0 0 0 - - -;
#X obj 30 358 *~ 0.25;
#X obj 30 110 rr_pulsa 3 1, f 13;
#X obj 30 181 rr_replay 7 3;
#X obj 105 156 random 100;
#X obj 30 311 rr_mix~ 0.5;
#X obj 30 204 + 72;
#X obj 215 126 rr_trga 6 0 1 1;
#X obj 60 254 rr_randela~ 1000 0.85;
#X floatatom 142 231 5 0 0 0 - - -;
#X text 309 275 Randela needs 2 arguments \; 1st is max time delay
in ms (< 4000) \; 2nd is feedback (< 0.99) - or in 3rd inlet \; a bang
in 2nd inlet for a new delay time and a value in last inlet as a seed
for a new delay time sequence.;
#X obj 30 227 rr_tone~ 0 200 3;
#X obj 80 282 rr_randela~ 2500 0.75;
#X floatatom 219 282 5 0 0 0 - - -;
#X connect 2 0 3 0;
#X connect 2 1 3 1;
#X connect 4 0 3 2;
#X connect 7 0 16 0;
#X connect 8 0 9 0;
#X connect 11 0 18 0;
#X connect 11 0 26 1;
#X connect 12 0 13 0;
#X connect 13 0 2 1;
#X connect 13 0 2 0;
#X connect 14 0 13 1;
#X connect 15 0 2 0;
#X connect 15 0 12 0;
#X connect 15 0 2 1;
#X connect 16 0 17 0;
#X connect 16 1 11 0;
#X connect 16 1 21 0;
#X connect 17 0 20 0;
#X connect 18 0 17 3;
#X connect 18 0 22 3;
#X connect 19 0 15 0;
#X connect 20 0 25 0;
#X connect 21 0 22 1;
#X connect 22 0 19 1;
#X connect 22 0 26 0;
#X connect 23 0 22 2;
#X connect 25 0 19 0;
#X connect 25 0 22 0;
#X connect 26 0 19 1;
#X connect 27 0 26 3;
