#N canvas 593 116 767 637 10;
#X obj 8 17 cnv 15 680 40 empty empty Generative_series 20 12 0 14
-233017 -66577 0;
#X obj 303 21 cnv 15 380 40 empty empty ABS:rr_tile/trillo~ 20 20 0
24 -128992 -262144 0;
#X obj 29 422 rr_OUTdac~;
#X obj 30 532 rr_record~;
#X msg 193 506 rec01.wav;
#X text 309 460 1st toggle turn ON/OFF your Dsp. 2nd toggle visualize
the wave sound. Slide is for volume.;
#X text 309 550 You can record your performance. Put the name. It show
passing seconds while recording. Bang to reset.;
#X msg 112 244 0 2 3 5 7 9 10;
#X text 309 251 In allscales put in 2nd inlet a progressive series
(list) of intervals which represents the elements of the scale to use
(mod 12). [minor scale in example];
#X text 308 94 HOW TO: Use pulsa to define how much times in seconds
you choose bang occures.;
#X obj 30 92 tgl 15 0 empty empty empty 17 7 0 10 -262144 -1 -1 1 1
;
#X obj 85 386 rev1~;
#X floatatom 123 386 5 0 0 0 - - -;
#X msg 30 267 next \$1;
#X obj 30 346 *~ 0.25;
#X obj 30 244 rr_allscales;
#X obj 158 424 bng 15 250 50 0 empty empty empty 17 7 0 10 -262144
-1 -1;
#X obj 158 444 s sync;
#X obj 30 222 + 40;
#X msg 87 177 0 2 4 1 3 4 6;
#X msg 52 154 1 2 4 3;
#X text 308 174 Tile needs 2 lists in inlets: 1st inlet is durations
sequence \, how many bangs in to return next value in list of 2nd inlet.
;
#X obj 30 177 rr_tile, f 8;
#X obj 85 363 lop~ 900;
#X obj 30 113 rr_pulsa 2 1;
#X obj 51 317 rr_trillo~ 250 0.75 750;
#X obj 30 290 clone 8 rr_tone~ 500 2;
#X text 308 314 Trillo needs 3 arguments and a bang in 2nd inlet to
return it: 1st is delay for every single repetition \; 2nd is feedback
delay \; 3rd is duration.;
#X connect 2 0 3 0;
#X connect 2 1 3 1;
#X connect 4 0 3 2;
#X connect 7 0 15 1;
#X connect 10 0 24 0;
#X connect 11 0 2 0;
#X connect 11 0 2 1;
#X connect 12 0 11 1;
#X connect 13 0 26 0;
#X connect 14 0 2 0;
#X connect 14 0 11 0;
#X connect 14 0 23 0;
#X connect 15 0 13 0;
#X connect 16 0 17 0;
#X connect 18 0 15 0;
#X connect 19 0 22 2;
#X connect 20 0 22 1;
#X connect 22 0 18 0;
#X connect 23 0 11 0;
#X connect 24 0 22 0;
#X connect 24 1 25 1;
#X connect 25 0 14 0;
#X connect 26 0 14 0;
#X connect 26 0 25 0;
