#N canvas 593 116 767 637 10;
#X obj 8 17 cnv 15 680 40 empty empty Generative_series 20 12 0 14
-233017 -66577 0;
#X obj 303 21 cnv 15 380 40 empty empty ABS:rr_zipf 20 20 0 24 -128992
-262144 0;
#X obj 29 422 rr_OUTdac~;
#X obj 30 532 rr_record~;
#X msg 193 506 rec01.wav;
#X text 309 460 1st toggle turn ON/OFF your Dsp. 2nd toggle visualize
the wave sound. Slide is for volume.;
#X text 309 550 You can record your performance. Put the name. It show
passing seconds while recording. Bang to reset.;
#X msg 117 246 0 2 3 5 7 9 10;
#X text 309 279 In allscales put in 2nd inlet a progressive series
(list) of intervals which represents the elements of the scale to use
(mod 12). [minor scale in example];
#X text 308 94 HOW TO: Use pulsa to define how much times in seconds
you choose bang occures.;
#X obj 30 92 tgl 15 0 empty empty empty 17 7 0 10 -262144 -1 -1 0 1
;
#X floatatom 120 161 5 0 0 0 - - -;
#X obj 79 363 lop~ 600;
#X obj 79 386 rev1~;
#X floatatom 117 386 5 0 0 0 - - -;
#X msg 30 285 next \$1;
#X obj 30 333 *~ 0.25;
#X text 308 208 Ziptf needs an argument that is range of probability.
A value for seed in 2nd inlet changes sequence. It returns a very common
probability distribution.;
#X obj 30 262 rr_allscales;
#X obj 30 138 f 0;
#X obj 56 138 + 1;
#X obj 82 138 % 2;
#X obj 30 161 sel 0;
#X obj 30 184 t b b;
#X obj 30 209 rr_zipf 20;
#X obj 30 240 + 30;
#X obj 30 113 rr_pulsa 6 1;
#X obj 69 185 rr_zipf 6;
#X obj 30 310 clone 8 rr_tone~ 1000 3;
#X connect 2 0 3 0;
#X connect 2 1 3 1;
#X connect 4 0 3 2;
#X connect 7 0 18 1;
#X connect 10 0 26 0;
#X connect 11 0 24 1;
#X connect 11 0 27 1;
#X connect 12 0 13 0;
#X connect 13 0 2 0;
#X connect 13 0 2 1;
#X connect 14 0 13 1;
#X connect 15 0 28 0;
#X connect 16 0 2 0;
#X connect 16 0 12 0;
#X connect 18 0 15 0;
#X connect 19 0 20 0;
#X connect 19 0 22 0;
#X connect 20 0 21 0;
#X connect 21 0 19 1;
#X connect 22 0 23 0;
#X connect 23 0 24 0;
#X connect 23 1 27 0;
#X connect 24 0 25 0;
#X connect 25 0 18 0;
#X connect 26 0 19 0;
#X connect 27 0 21 1;
#X connect 28 0 16 0;
