#N canvas 539 116 736 637 10;
#X obj 8 17 cnv 15 680 40 empty empty Generative_series 20 12 0 14
-233017 -66577 0;
#X obj 303 21 cnv 15 380 40 empty empty ABS:rr_wtab~ 20 20 0 24 -128992
-262144 0;
#X obj 29 436 rr_OUTdac~;
#X obj 30 546 rr_record~;
#X msg 193 520 rec01.wav;
#X text 309 485 1st toggle turn ON/OFF your Dsp. 2nd toggle visualize
the wave sound. Slide is for volume.;
#X text 309 550 You can record your performance. Put the name. It show
passing seconds while recording. Bang to reset.;
#X text 308 134 Choose how many elements in your sequence [num] then
[set].You can click [set] again for a new sequence. You can bang in
2nd inlet to [set]. 3rd inlet (2-6) how many repetitions of sequence
to bang out in 2nd outlet.;
#X obj 30 140 rr_play;
#X obj 30 82 tgl 15 0 empty empty empty 17 7 0 10 -262144 -1 -1 1 1
;
#X obj 159 436 bng 15 250 50 0 empty empty empty 17 7 0 10 -262144
-1 -1;
#X obj 159 456 s sync;
#X text 308 94 HOW TO: Use pulsa to define how much times in seconds
you choose bang occures.;
#X obj 153 124 rr_trga 12 0 1 1;
#X obj 142 387 hip~ 1500;
#X obj 142 410 rev1~;
#X floatatom 181 410 5 0 0 0 - - -;
#X obj 30 370 *~ 0.25;
#X obj 30 345 *~;
#X floatatom 217 330 5 0 0 0 - - -;
#X obj 30 205 t f b, f 17;
#X obj 30 263 rr_wtab~ 1 25;
#X obj 129 330 rr_envr 1 500;
#X floatatom 71 240 5 0 0 0 - - -;
#X obj 153 250 bng 15 250 50 0 empty empty empty 17 7 0 10 -262144
-1 -1;
#X obj 30 102 rr_pulsa 2 1, f 21;
#X text 309 279 Wtab needs 2 arguments \; 1st is clone instance \;
2nd is carrier in Hz (or 2nd inlet) \; A bang in 3rd inlet to have
new wave.;
#X obj 30 228 + 50;
#X connect 2 0 3 0;
#X connect 2 1 3 1;
#X connect 4 0 3 2;
#X connect 8 0 20 0;
#X connect 9 0 25 0;
#X connect 10 0 11 0;
#X connect 13 0 8 1;
#X connect 13 0 24 0;
#X connect 14 0 15 0;
#X connect 15 0 2 1;
#X connect 15 0 2 0;
#X connect 16 0 15 1;
#X connect 17 0 2 0;
#X connect 17 0 14 0;
#X connect 17 0 2 1;
#X connect 18 0 17 0;
#X connect 19 0 22 1;
#X connect 20 0 27 0;
#X connect 20 1 22 0;
#X connect 21 0 18 0;
#X connect 22 0 18 1;
#X connect 23 0 21 1;
#X connect 24 0 21 2;
#X connect 25 0 8 0;
#X connect 25 1 13 0;
#X connect 27 0 21 0;
