#N canvas 593 116 767 637 10;
#X obj 8 17 cnv 15 680 40 empty empty Generative_series 20 12 0 14
-233017 -66577 0;
#X obj 303 21 cnv 15 380 40 empty empty ABS:rr_qa+ 20 20 0 24 -128992
-262144 0;
#X obj 29 418 rr_OUTdac~;
#X obj 30 528 rr_record~;
#X msg 193 502 rec01.wav;
#X text 309 460 1st toggle turn ON/OFF your Dsp. 2nd toggle visualize
the wave sound. Slide is for volume.;
#X text 309 550 You can record your performance. Put the name. It show
passing seconds while recording. Bang to reset.;
#X obj 30 87 tgl 15 0 empty empty empty 17 7 0 10 -262144 -1 -1 0 1
;
#X obj 85 392 rev1~;
#X floatatom 123 392 5 0 0 0 - - -;
#X msg 30 303 next \$1;
#X obj 158 420 bng 15 250 50 0 empty empty empty 17 7 0 10 -262144
-1 -1;
#X obj 158 440 s sync;
#X obj 30 352 *~ 0.15;
#X text 308 94 Pulsa+ needs 3 arguments: 1st how many sec for pulse
duration \; 2nd how many subdivision in pulse \; 3rd how many beats
to repeat durations sequence. Put a value in 2nd inlet to generate
new sequence. 1st outlet for bangs series and 2nd outlet for duration
of every beat.;
#X floatatom 171 95 5 0 0 0 - - -;
#X obj 30 327 clone 16 rr_tone~ 2500 3;
#X msg 151 230 0 2 4 5 7 9 11;
#X obj 85 369 hip~ 500;
#X floatatom 82 181 5 0 0 0 - - -;
#X obj 30 155 rr_qa+, f 18;
#X obj 30 273 + 0, f 18;
#X obj 30 246 rr_allscales;
#X obj 135 180 sel 0;
#X obj 135 203 rr_circula 8 7 12;
#X obj 30 110 rr_pulsa+ 1 2 5;
#X obj 30 211 + 36;
#X text 308 188 Qa+ needs bangs in 1st inlet and a value as seed in
2nd inlet. In returns questions and answers segments in 1st outlet
\, a bass line in 2nd outlet and 0 or 1 as q/a part in 3 outlet.;
#X connect 2 0 3 0;
#X connect 2 1 3 1;
#X connect 4 0 3 2;
#X connect 7 0 25 0;
#X connect 8 0 2 0;
#X connect 8 0 2 1;
#X connect 9 0 8 1;
#X connect 10 0 16 0;
#X connect 11 0 12 0;
#X connect 13 0 2 0;
#X connect 13 0 8 0;
#X connect 13 0 18 0;
#X connect 15 0 20 1;
#X connect 15 0 25 1;
#X connect 16 0 13 0;
#X connect 17 0 22 1;
#X connect 18 0 8 0;
#X connect 19 0 26 0;
#X connect 20 0 26 0;
#X connect 20 1 19 0;
#X connect 20 2 23 0;
#X connect 21 0 10 0;
#X connect 22 0 21 0;
#X connect 23 0 24 0;
#X connect 24 0 21 1;
#X connect 24 0 15 0;
#X connect 25 0 20 0;
#X connect 26 0 22 0;
