#N canvas 593 116 767 637 10;
#X obj 8 17 cnv 15 680 40 empty empty Generative_series 20 12 0 14
-233017 -66577 0;
#X obj 303 21 cnv 15 380 40 empty empty ABS:rr_mud+ 20 20 0 24 -128992
-262144 0;
#X text 309 460 1st toggle turn ON/OFF your Dsp. 2nd toggle visualize
the wave sound. Slide is for volume.;
#X text 309 550 You can record your performance. Put the name. It show
passing seconds while recording. Bang to reset.;
#X text 309 271 In allscales put in 2nd inlet a progressive series
(list) of intervals which represents the elements of the scale to use
(mod 12). [minor scale in example];
#X text 308 94 HOW TO: Use pulsa to define how much times in seconds
you choose bang occures.;
#X obj 29 416 rr_OUTdac~;
#X obj 30 526 rr_record~;
#X msg 193 500 rec01.wav;
#X msg 99 219 0 2 3 5 7 9 10;
#X obj 30 86 tgl 15 0 empty empty empty 17 7 0 10 -262144 -1 -1 0 1
;
#X obj 85 357 lop~ 600;
#X obj 85 380 rev1~;
#X floatatom 123 380 5 0 0 0 - - -;
#X msg 30 291 next \$1;
#X obj 30 340 *~ 0.25;
#X obj 30 268 rr_allscales;
#X obj 158 418 bng 15 250 50 0 empty empty empty 17 7 0 10 -262144
-1 -1;
#X obj 158 438 s sync;
#X obj 30 246 + 40;
#X msg 177 290 next \$1;
#X obj 177 340 *~ 0.25;
#X obj 30 107 rr_pulsa 4 1, f 25;
#X obj 177 314 clone 8 rr_tone~ 3000 3;
#X obj 177 268 rr_allscales;
#X obj 30 158 mud+;
#X obj 177 158 mud+;
#X obj 30 314 clone 8 rr_tone~ 500 3;
#X text 308 174 Mud+ return random sequences up and down of different
length.;
#X obj 177 246 + 33;
#X connect 6 0 7 0;
#X connect 6 1 7 1;
#X connect 8 0 7 2;
#X connect 9 0 16 1;
#X connect 9 0 24 1;
#X connect 10 0 22 0;
#X connect 11 0 12 0;
#X connect 12 0 6 0;
#X connect 12 0 6 1;
#X connect 13 0 12 1;
#X connect 14 0 27 0;
#X connect 15 0 11 0;
#X connect 15 0 6 0;
#X connect 15 0 12 0;
#X connect 16 0 14 0;
#X connect 17 0 18 0;
#X connect 19 0 16 0;
#X connect 20 0 23 0;
#X connect 21 0 6 1;
#X connect 21 0 11 0;
#X connect 22 0 25 0;
#X connect 22 1 26 0;
#X connect 23 0 21 0;
#X connect 24 0 20 0;
#X connect 25 0 19 0;
#X connect 26 0 29 0;
#X connect 27 0 15 0;
#X connect 29 0 24 0;
