#N canvas 593 116 767 637 10;
#X obj 8 17 cnv 15 680 40 empty empty Generative_series 20 12 0 14
-233017 -66577 0;
#X obj 303 21 cnv 15 380 40 empty empty ABS:rr_triada 20 20 0 24 -128992
-262144 0;
#X obj 29 418 rr_OUTdac~;
#X obj 30 528 rr_record~;
#X msg 193 502 rec01.wav;
#X text 309 460 1st toggle turn ON/OFF your Dsp. 2nd toggle visualize
the wave sound. Slide is for volume.;
#X text 309 550 You can record your performance. Put the name. It show
passing seconds while recording. Bang to reset.;
#X text 308 94 HOW TO: Use pulsa to define how much times in seconds
you choose bang occures.;
#X obj 30 89 tgl 15 0 empty empty empty 17 7 0 10 -262144 -1 -1 0 1
;
#X obj 85 392 rev1~;
#X floatatom 123 392 5 0 0 0 - - -;
#X obj 158 420 bng 15 250 50 0 empty empty empty 17 7 0 10 -262144
-1 -1;
#X obj 158 440 s sync;
#X obj 30 352 *~ 0.15;
#X msg 30 302 next \$1;
#X obj 85 369 hip~ 1000;
#X obj 30 166 rr_triada;
#X obj 30 203 + 0;
#X floatatom 160 151 5 0 0 0 - - -;
#X obj 30 226 + 60;
#X obj 135 126 change -1;
#X obj 30 327 clone 16 rr_tone~ 2500 3;
#X obj 30 110 rr_pulsa+ 2 1 5;
#X obj 135 187 rr_circula 4 5 12;
#X text 308 208 Triada needs a value as seed in 2nd inlet. It random
moves element of major triad untill it generates another triad (M \,
m \, dim or aug).;
#X connect 2 0 3 0;
#X connect 2 1 3 1;
#X connect 4 0 3 2;
#X connect 8 0 22 0;
#X connect 9 0 2 0;
#X connect 9 0 2 1;
#X connect 10 0 9 1;
#X connect 11 0 12 0;
#X connect 13 0 2 0;
#X connect 13 0 9 0;
#X connect 13 0 15 0;
#X connect 14 0 21 0;
#X connect 15 0 9 0;
#X connect 16 0 17 0;
#X connect 17 0 19 0;
#X connect 18 0 16 1;
#X connect 18 0 22 1;
#X connect 19 0 14 0;
#X connect 20 0 23 0;
#X connect 21 0 13 0;
#X connect 22 0 16 0;
#X connect 22 1 20 0;
#X connect 23 0 17 1;
#X connect 23 0 18 0;
