#N canvas 593 116 767 637 10;
#X obj 8 17 cnv 15 680 40 empty empty Generative_series 20 12 0 14
-233017 -66577 0;
#X obj 303 21 cnv 15 380 40 empty empty ABS:rr_vossa 20 20 0 24 -128992
-262144 0;
#X obj 30 532 rr_record~;
#X msg 193 506 rec01.wav;
#X text 309 550 You can record your performance. Put the name. It show
passing seconds while recording. Bang to reset.;
#X msg 112 283 0 2 3 5 7 9 10;
#X text 309 299 In allscales put in 2nd inlet a progressive series
(list) of intervals which represents the elements of the scale to use
(mod 12). [minor scale in example];
#X obj 30 92 tgl 15 0 empty empty empty 17 7 0 10 -262144 -1 -1 1 1
;
#X obj 142 394 rev1~;
#X floatatom 180 394 5 0 0 0 - - -;
#X msg 30 306 next \$1;
#X obj 30 283 rr_allscales;
#X floatatom 204 371 5 0 0 0 - - -;
#X text 309 460 1st toggle turn ON/OFF your Dsp. 2nd toggle visualize
the wave sound. Stereo spatialization and volume sliders.;
#X obj 30 354 *~ 0.25;
#X obj 29 422 rr_XOUTdac~;
#X obj 142 371 hip~ 1000;
#X obj 30 331 clone 8 rr_tone~ 500 2;
#X obj 30 112 rr_pulsa 1 1;
#X obj 30 156 rr_vossa 7;
#X obj 101 157 bng 15 250 50 0 empty empty empty 17 7 0 10 -262144
-1 -1;
#X obj 47 230 s dur;
#X obj 30 259 rr_scaling+ 14 35;
#X obj 101 135 rr_trga 7 0 1 4;
#X obj 194 421 bng 15 250 50 0 empty empty empty 17 7 0 10 -262144
-1 -1;
#X obj 194 441 s sync;
#X text 308 252 Scaling+ needs 2 arguments: 1st is scaling factor \;
2nd is offset.;
#X text 308 182 Vossa needs an argument as number of elements in sequence
\; a bang in 2nd inlet to have new sequence. It returns values from
0 to 1 (1/f distribution).;
#X text 308 104 HOW TO: Use pulsa to define how much times in seconds
you choose bang occures. You can put in 2nd inlet number of subdivisions
too.;
#X obj 47 184 rr_scaling+ 4 2;
#X obj 47 207 * 250;
#X connect 3 0 2 2;
#X connect 5 0 11 1;
#X connect 7 0 18 0;
#X connect 8 0 15 1;
#X connect 9 0 8 1;
#X connect 10 0 17 0;
#X connect 11 0 10 0;
#X connect 12 0 16 1;
#X connect 14 0 15 0;
#X connect 14 0 16 0;
#X connect 14 0 15 1;
#X connect 15 0 2 0;
#X connect 15 1 2 1;
#X connect 16 0 8 0;
#X connect 17 0 14 0;
#X connect 18 0 19 0;
#X connect 18 1 23 0;
#X connect 19 0 22 0;
#X connect 19 0 29 0;
#X connect 20 0 19 1;
#X connect 22 0 11 0;
#X connect 23 0 20 0;
#X connect 24 0 25 0;
#X connect 29 0 18 1;
#X connect 29 0 30 0;
#X connect 30 0 21 0;
