#N canvas 593 116 767 637 10;
#X obj 8 17 cnv 15 680 40 empty empty Generative_series 20 12 0 14
-233017 -66577 0;
#X obj 303 21 cnv 15 380 40 empty empty ABS:rr_m-voice/t-voice 20 20
0 24 -128992 -262144 0;
#X obj 29 408 rr_OUTdac~;
#X obj 30 518 rr_record~;
#X msg 193 492 rec01.wav;
#X text 309 460 1st toggle turn ON/OFF your Dsp. 2nd toggle visualize
the wave sound. Slide is for volume.;
#X text 309 550 You can record your performance. Put the name. It show
passing seconds while recording. Bang to reset.;
#X text 308 94 HOW TO: Use pulsa to define how much times in seconds
you choose bang occures.;
#X obj 30 92 tgl 15 0 empty empty empty 17 7 0 10 -262144 -1 -1 0 1
;
#X obj 85 382 rev1~;
#X floatatom 123 382 5 0 0 0 - - -;
#X msg 30 293 next \$1;
#X obj 158 410 bng 15 250 50 0 empty empty empty 17 7 0 10 -262144
-1 -1;
#X obj 158 430 s sync;
#X obj 30 342 *~ 0.15;
#X obj 85 359 hip~ 300;
#X floatatom 132 96 5 0 0 0 - - -;
#X obj 30 113 rr_pulsa+ 1 1 8;
#X obj 30 136 t b b;
#X obj 30 191 rr_m-voice 2;
#X obj 117 152 rr_trga 16 0 1 1;
#X obj 117 175 i 0;
#X floatatom 30 214 5 0 0 0 - - -;
#X msg 113 269 0 2 3 5 7 9 10;
#X obj 30 317 clone 16 rr_tone~ 2000 2;
#X obj 117 230 - 7;
#X obj 208 207 rr_t-voice 3;
#X obj 208 252 change -1;
#X obj 208 230 + 7;
#X obj 117 207 rr_t-voice 1;
#X obj 30 246 + 40;
#X text 308 224 M-voice/t-voice referres to tintinnabuli method (m-voice
needs an argument as grade scale base (0-2-4) and a seed in 2nd inlet.
;
#X obj 30 269 rr_allscales;
#X connect 2 0 3 0;
#X connect 2 1 3 1;
#X connect 4 0 3 2;
#X connect 8 0 17 0;
#X connect 9 0 2 0;
#X connect 9 0 2 1;
#X connect 10 0 9 1;
#X connect 11 0 24 0;
#X connect 12 0 13 0;
#X connect 14 0 2 0;
#X connect 14 0 9 0;
#X connect 14 0 15 0;
#X connect 15 0 9 0;
#X connect 16 0 17 1;
#X connect 16 0 21 1;
#X connect 17 0 18 0;
#X connect 18 0 19 0;
#X connect 18 1 20 0;
#X connect 19 0 22 0;
#X connect 19 0 26 0;
#X connect 19 0 29 0;
#X connect 20 0 21 0;
#X connect 21 0 19 1;
#X connect 22 0 30 0;
#X connect 23 0 32 1;
#X connect 24 0 14 0;
#X connect 25 0 30 0;
#X connect 26 0 28 0;
#X connect 27 0 30 0;
#X connect 28 0 27 0;
#X connect 29 0 25 0;
#X connect 30 0 32 0;
#X connect 32 0 11 0;
