#N canvas 593 116 767 637 10;
#X obj 8 17 cnv 15 680 40 empty empty Generative_series 20 12 0 14
-233017 -66577 0;
#X obj 303 21 cnv 15 380 40 empty empty ABS:rr_dalia 20 20 0 24 -128992
-262144 0;
#X obj 29 421 rr_OUTdac~;
#X obj 30 531 rr_record~;
#X msg 193 505 rec01.wav;
#X text 309 460 1st toggle turn ON/OFF your Dsp. 2nd toggle visualize
the wave sound. Slide is for volume.;
#X text 309 550 You can record your performance. Put the name. It show
passing seconds while recording. Bang to reset.;
#X text 308 94 HOW TO: Use pulsa to define how much times in seconds
you choose bang occures.;
#X obj 30 92 tgl 15 0 empty empty empty 17 7 0 10 -262144 -1 -1 0 1
;
#X obj 85 395 rev1~;
#X floatatom 123 395 5 0 0 0 - - -;
#X obj 158 423 bng 15 250 50 0 empty empty empty 17 7 0 10 -262144
-1 -1;
#X obj 158 443 s sync;
#X obj 30 355 *~ 0.15;
#X msg 30 305 next \$1;
#X obj 30 330 clone 16 rr_tone~ 1000 2;
#X obj 30 113 rr_pulsa 4 1;
#X obj 85 372 hip~ 1000;
#X obj 30 175 rr_dalia -4 1 0 1;
#X obj 99 253 rr_show+;
#X msg 144 277;
#X msg 99 277;
#X obj 30 214 + 0;
#X obj 30 237 + 60;
#X obj 129 153 f 0;
#X floatatom 157 153 5 0 0 0 - - -;
#X obj 129 129 trga 1 0 1 8;
#X obj 99 198 rr_circula 8 5 12;
#X text 308 208 Dalia needs 3 arguments. It returns random notes from
a scale build between Dark/Light sides of circle of fifths \; 1st Dark
side (-6:0) \; 2nd Light side (0:6) \; 3th Octaves \; Put a value as
seed in 2nd inlet to repeat the sequence.;
#X connect 2 0 3 0;
#X connect 2 1 3 1;
#X connect 4 0 3 2;
#X connect 8 0 16 0;
#X connect 9 0 2 0;
#X connect 9 0 2 1;
#X connect 10 0 9 1;
#X connect 11 0 12 0;
#X connect 13 0 2 0;
#X connect 13 0 9 0;
#X connect 13 0 17 0;
#X connect 14 0 15 0;
#X connect 15 0 13 0;
#X connect 16 0 18 0;
#X connect 16 1 26 0;
#X connect 16 1 27 0;
#X connect 17 0 9 0;
#X connect 18 0 22 0;
#X connect 19 0 21 0;
#X connect 19 1 20 0;
#X connect 22 0 23 0;
#X connect 23 0 14 0;
#X connect 23 0 19 0;
#X connect 24 0 18 1;
#X connect 25 0 24 1;
#X connect 26 0 24 0;
#X connect 27 0 22 1;
