#N canvas 597 125 704 637 10;
#X obj 8 17 cnv 15 680 40 empty empty Generative_series 20 12 0 14
-233017 -66577 0;
#X obj 303 21 cnv 15 380 40 empty empty ABS:rr_icv 20 20 0 24 -128992
-262144 0;
#X obj 30 518 rr_record~;
#X msg 193 492 rec01.wav;
#X text 309 550 You can record your performance. Put the name. It show
passing seconds while recording. Bang to reset.;
#X obj 30 96 tgl 15 0 empty empty empty 17 7 0 10 -262144 -1 -1 0 1
;
#X obj 142 383 rev1~;
#X floatatom 180 383 5 0 0 0 - - -;
#X msg 30 295 next \$1;
#X floatatom 135 102 5 0 0 0 - - -;
#X floatatom 204 360 5 0 0 0 - - -;
#X text 309 460 1st toggle turn ON/OFF your Dsp. 2nd toggle visualize
the wave sound. Stereo spatialization and volume sliders.;
#X obj 30 343 *~ 0.25;
#X obj 29 408 rr_XOUTdac~;
#X obj 142 360 hip~ 1000;
#X text 308 94 Pulsa+ needs 3 arguments: 1st how many sec for pulse
duration \; 2nd how many subdivision in pulse \; 3rd how many beats
to repeat durations sequence. Put a value in 2nd inlet to generate
new sequence. 1st outlet for bangs series and 2nd outlet for duration
of every beat.;
#X obj 30 117 rr_pulsa+ 1 2 11;
#X obj 30 320 clone 12 rr_tone~ 2500 3;
#X obj 30 269 + 60;
#X obj 30 176 rr_icv, f 18;
#X obj 57 204 rr_icv, f 18;
#X obj 57 227 - 12;
#X text 308 189 Icv (interval class vector) needs a bang in 1st inlet
and a value as seed in 3nd inlet. A list in 2nd inlet as class DNA
with 6 weights: IC 1 = halftone - IC 2 = whole tone - IC 3 = minor
third - IC 4 = mayor third - IC 5 = perfect fourth - IC 6 = tritone.
(from set-theory).;
#X msg 82 149 0 0 2 0 1 0;
#X connect 3 0 2 2;
#X connect 5 0 16 0;
#X connect 6 0 13 1;
#X connect 7 0 6 1;
#X connect 8 0 17 0;
#X connect 9 0 16 1;
#X connect 9 0 19 2;
#X connect 9 0 20 2;
#X connect 10 0 14 1;
#X connect 12 0 13 0;
#X connect 12 0 14 0;
#X connect 12 0 13 1;
#X connect 13 0 2 0;
#X connect 13 1 2 1;
#X connect 14 0 6 0;
#X connect 16 0 19 0;
#X connect 16 1 20 0;
#X connect 17 0 12 0;
#X connect 18 0 8 0;
#X connect 19 0 18 0;
#X connect 20 0 21 0;
#X connect 21 0 18 0;
#X connect 23 0 19 1;
#X connect 23 0 20 1;
