#N canvas 593 116 767 637 10;
#X obj 8 17 cnv 15 680 40 empty empty Generative_series 20 12 0 14
-233017 -66577 0;
#X obj 303 21 cnv 15 380 40 empty empty ABS:rr_learning 20 20 0 24
-128992 -262144 0;
#X obj 30 532 rr_record~;
#X msg 193 506 rec01.wav;
#X text 309 460 1st toggle turn ON/OFF your Dsp. 2nd toggle visualize
the wave sound. Slide is for volume.;
#X text 309 550 You can record your performance. Put the name. It show
passing seconds while recording. Bang to reset.;
#X text 308 94 HOW TO: Use pulsa to define how much times in seconds
you choose bang occures.;
#X obj 30 92 tgl 15 0 empty empty empty 17 7 0 10 -262144 -1 -1 0 1
;
#X obj 79 386 rev1~;
#X floatatom 117 386 5 0 0 0 - - -;
#X msg 30 285 next \$1;
#X obj 30 333 *~ 0.25;
#X obj 30 262 rr_allscales;
#X obj 30 310 clone 8 rr_tone~ 1000 3;
#X obj 30 240 + 35;
#X obj 30 113 rr_pulsa 4 1;
#X obj 30 182 rr_learning;
#X obj 29 422 rr_XOUTdac~;
#X msg 117 246 0 2 4 5 7 9 11;
#X text 309 279 In allscales put in 2nd inlet a progressive series
(list) of intervals which represents the elements of the scale to use
(mod 12). [major scale in example];
#X obj 79 363 hip~ 250;
#X msg 93 159 0 1 4 0 3 4 7 0 2;
#X text 308 184 Learning needs a list/sequence with repeated values
in 2nd inlet \; it returns probabilistic variations of original list.
;
#X connect 3 0 2 2;
#X connect 7 0 15 0;
#X connect 8 0 17 0;
#X connect 8 0 17 1;
#X connect 9 0 8 1;
#X connect 10 0 13 0;
#X connect 11 0 17 0;
#X connect 11 0 20 0;
#X connect 12 0 10 0;
#X connect 13 0 11 0;
#X connect 14 0 12 0;
#X connect 15 0 16 0;
#X connect 16 0 14 0;
#X connect 17 0 2 0;
#X connect 17 1 2 1;
#X connect 18 0 12 1;
#X connect 20 0 8 0;
#X connect 21 0 16 1;
