#N canvas 530 116 737 632 10;
#X obj 8 17 cnv 15 680 40 empty empty Generative_series 20 12 0 14
-233017 -66577 0;
#X obj 303 21 cnv 15 380 40 empty empty ABS:rr_synthbrass/tremo 20
20 0 24 -128992 -262144 0;
#X text 309 485 1st toggle turn ON/OFF your Dsp. 2nd toggle visualize
the wave sound. Slide is for volume.;
#X text 309 550 You can record your performance. Put the name. It show
passing seconds while recording. Bang to reset.;
#X text 308 94 HOW TO: Use pulsa to define how much times in seconds
you choose bang occures.;
#X text 308 134 Synthbrass needs 8 arguments: 1st for cloning \; 2nd
is ratio for single harmonic (and detuning) \; 3rd is amplitude of
harmonic \; 4th is cutoff freq \; 5th is attack \; 6th is sustain \;
7th is release \; 8th is curve type.;
#X text 308 364 Tremo needs 2 arguments: 1st is freq of tremolo \;
2nd is amplitude.;
#X obj 29 428 rr_OUTdac~;
#X obj 30 538 rr_record~;
#X msg 193 512 rec01.wav;
#X obj 30 87 tgl 15 0 empty empty empty 17 7 0 10 -262144 -1 -1 0 1
;
#X obj 141 401 rev1~;
#X floatatom 180 401 5 0 0 0 - - -;
#X obj 30 363 *~ 0.5;
#X obj 30 299 *~ 0.5;
#X obj 127 324 *~ 0.5;
#X msg 30 228 next \$1;
#X obj 226 346 *~ 0.5;
#X obj 141 378 lop~ 900;
#X obj 30 206 rr_allscales;
#X obj 30 254 clone 4 rr_synthbrass~ 0.249 0.75 600 150 200 500 1;
#X obj 128 300 rr_tremo~ 8 0.5;
#X obj 30 277 rr_tremo~ 3 0.5;
#X obj 30 107 rr_pulsa 1 1;
#X msg 114 206 0 2 4 7 9;
#X obj 30 160 random 8;
#X obj 226 323 rr_tremo~ 5 0.5;
#X obj 128 277 clone 4 rr_synthbrass~ 3.005 0.45 3000 100 200 400 1
;
#X obj 30 183 + 20;
#X obj 226 300 clone 4 rr_synthbrass~ 5.01 0.15 4500 50 200 300 2;
#X connect 7 0 8 0;
#X connect 7 1 8 1;
#X connect 9 0 8 2;
#X connect 10 0 23 0;
#X connect 11 0 7 1;
#X connect 11 0 7 0;
#X connect 12 0 11 1;
#X connect 13 0 7 0;
#X connect 13 0 7 1;
#X connect 13 0 18 0;
#X connect 14 0 13 0;
#X connect 15 0 13 0;
#X connect 16 0 20 0;
#X connect 16 0 27 0;
#X connect 16 0 29 0;
#X connect 17 0 13 0;
#X connect 18 0 11 0;
#X connect 19 0 16 0;
#X connect 20 0 22 0;
#X connect 21 0 15 0;
#X connect 22 0 14 0;
#X connect 23 0 25 0;
#X connect 24 0 19 1;
#X connect 25 0 28 0;
#X connect 26 0 17 0;
#X connect 27 0 21 0;
#X connect 28 0 19 0;
#X connect 29 0 26 0;
