#N canvas 532 116 737 632 10;
#X obj 8 17 cnv 15 680 40 empty empty Generative_series 20 12 0 14
-233017 -66577 0;
#X obj 303 21 cnv 15 380 40 empty empty ABS:rr_stira~ 20 20 0 24 -128992
-262144 0;
#X obj 29 452 rr_OUTdac~;
#X obj 30 562 rr_record~;
#X msg 193 536 rec01.wav;
#X text 309 485 1st toggle turn ON/OFF your Dsp. 2nd toggle visualize
the wave sound. Slide is for volume.;
#X text 309 550 You can record your performance. Put the name. It show
passing seconds while recording. Bang to reset.;
#X text 308 174 Choose how many elements in your sequence [num] then
[set].You can click [set] again for a new sequence. You can bang in
2nd inlet to [set]. 3rd inlet (2-6) how many repetitions of sequence
to bang out in 2nd outlet.;
#X obj 30 176 rr_play;
#X obj 30 91 tgl 15 0 empty empty empty 17 7 0 10 -262144 -1 -1 0 1
;
#X text 308 94 HOW TO: Use pulsa to define how much times in seconds
you choose bang occures.;
#X obj 30 111 rr_pulsa 3 1;
#X obj 115 403 rev1~;
#X floatatom 177 403 5 0 0 0 - - -;
#X floatatom 177 380 5 0 0 0 - - -;
#X msg 30 266 next \$1;
#X obj 99 144 rr_trga 8 0 1 1;
#X obj 29 418 rr_mix~ 0.5;
#X obj 60 338 rr_stira~, f 17;
#X floatatom 208 275 5 0 0 0 - - -;
#X floatatom 209 299 5 0 0 0 - - -;
#X floatatom 209 323 5 0 0 0 - - -;
#X obj 30 243 + 60;
#X obj 115 380 hip~ 100;
#X obj 30 363 rr_mix~ 0.5;
#X text 308 276 Stira needs 3 inlet values \; 1st inlet is cut freq
in midi (0-127) \; 2nd inlet is resonance Q (5-200) \; 3rd inlet is
stretching width (0-10) 0.01 max stretch 9.99 min stretch.;
#X obj 30 289 clone 1 rr_tone~ 500 3;
#X connect 2 0 3 0;
#X connect 2 1 3 1;
#X connect 4 0 3 2;
#X connect 8 0 22 0;
#X connect 9 0 11 0;
#X connect 11 0 8 0;
#X connect 11 1 16 0;
#X connect 12 0 17 1;
#X connect 13 0 12 1;
#X connect 14 0 23 1;
#X connect 15 0 26 0;
#X connect 16 0 8 1;
#X connect 17 0 2 0;
#X connect 17 0 2 1;
#X connect 18 0 24 1;
#X connect 19 0 18 1;
#X connect 20 0 18 2;
#X connect 21 0 18 3;
#X connect 22 0 15 0;
#X connect 23 0 12 0;
#X connect 24 0 17 0;
#X connect 24 0 23 0;
#X connect 26 0 18 0;
#X connect 26 0 24 0;
