#N canvas 593 116 767 637 10;
#X obj 8 17 cnv 15 680 40 empty empty Generative_series 20 12 0 14
-233017 -66577 0;
#X obj 303 21 cnv 15 380 40 empty empty ABS:rr_opentra 20 20 0 24 -128992
-262144 0;
#X obj 29 428 rr_OUTdac~;
#X obj 30 538 rr_record~;
#X msg 193 512 rec01.wav;
#X text 309 460 1st toggle turn ON/OFF your Dsp. 2nd toggle visualize
the wave sound. Slide is for volume.;
#X text 309 550 You can record your performance. Put the name. It show
passing seconds while recording. Bang to reset.;
#X text 308 94 HOW TO: Use pulsa to define how much times in seconds
you choose bang occures.;
#X obj 30 92 tgl 15 0 empty empty empty 17 7 0 10 -262144 -1 -1 1 1
;
#X obj 85 402 rev1~;
#X floatatom 123 402 5 0 0 0 - - -;
#X obj 158 430 bng 15 250 50 0 empty empty empty 17 7 0 10 -262144
-1 -1;
#X obj 158 450 s sync;
#X obj 30 362 *~ 0.15;
#X msg 30 312 next \$1;
#X text 308 288 Mappa+ needs 4 arguments \; 1st are numbers of steps
in scale \; 2nd are numbers of semitones in scale \; 3rd is modal transposition
(scale grade) \; 4th is chromtic transposition.;
#X obj 30 288 rr_mappa+ 7 12 -1 2;
#X obj 30 337 clone 16 rr_tone~ 1000 2;
#X obj 30 120 rr_pulsa 4 1;
#X obj 30 228 rr_opentra 4 0 7;
#X obj 123 193 rr_circula 4 1 4;
#X obj 85 379 hip~ 1000;
#X text 308 198 Opentra needs 3 arguments \; 1st how many voices in
chord \; 2nd which voice in sequence will be altered (3rd inlet) \;
3rd how many grades up. Put a value in 2nd inlet as fundamental.;
#X obj 76 162 rr_circula 2 -5 12;
#X connect 2 0 3 0;
#X connect 2 1 3 1;
#X connect 4 0 3 2;
#X connect 8 0 18 0;
#X connect 9 0 2 0;
#X connect 9 0 2 1;
#X connect 10 0 9 1;
#X connect 11 0 12 0;
#X connect 13 0 2 0;
#X connect 13 0 9 0;
#X connect 13 0 21 0;
#X connect 14 0 17 0;
#X connect 16 0 14 0;
#X connect 17 0 13 0;
#X connect 18 0 19 0;
#X connect 18 1 20 0;
#X connect 18 1 23 0;
#X connect 19 0 16 0;
#X connect 20 0 19 2;
#X connect 21 0 9 0;
#X connect 23 0 19 1;
