#N canvas 539 116 736 644 10;
#X obj 8 17 cnv 15 680 40 empty empty Generative_series 20 12 0 14
-233017 -66577 0;
#X obj 303 21 cnv 15 380 40 empty empty ABS:rr_canon/counterpoint 20
20 0 24 -128992 -262144 0;
#X obj 29 454 rr_OUTdac~;
#X obj 30 564 rr_record~;
#X msg 193 539 rec01.wav;
#X text 309 510 1st toggle turn ON/OFF your Dsp. 2nd toggle visualize
the wave sound. Slide is for volume.;
#X text 309 550 You can record your performance. Put the name. It show
passing seconds while recording. Bang to reset.;
#X obj 30 103 rr_density;
#X text 308 94 HOW TO: Use density to define how much times in seconds
you choose bang occures.;
#X text 309 460 Echo~ repeats sound (e1 \, e2 \, ...) every ms you
put as parameter and fade out. You can put multiples in sequence. You
can put 3rd attribute from 0-1 for feedback.;
#X text 308 133 In circle: [div] how many bangs in to have a bang out
(a counter) \; [int] defines interval to next number out \; [oct] in
how many octaves can displaces \; [off] offset number (may be root
of sequence] \; [set] reset. Es: have circle of fifth with 7 in int.
2nd inlet is for [div] and 3rd for [int]., f 58;
#X obj 141 429 *~ 0.25;
#X obj 30 257 + 60;
#X obj 135 257 + 60;
#X obj 73 168 rr_circle;
#X obj 30 168 t b b;
#X obj 30 236 rr_canon 0 2 1 2, f 18;
#X text 309 230 Canon needs a list/sequence in 2nd inlet and 4 arguments:
1st for cloning \; 2nd is ratio between first and second voice \; 3rd
is how to jump in sequence on first voice \; 4rt is how to jump in
sequence on second voice \; Every outlet is for single voice.;
#X msg 152 235 0 4 7 2 5 7 4 0;
#X text 309 350 With overtone you can generate harmonics as you want
\; 1st argument fundamental \; 2nd argument number of harmonic \; 3rd
ampitude (0-1) \; 4th attack in ms \; 5th sustain in ms \; 6th release
in ms \; 7th type of curve (1-8)., f 58;
#X obj 195 273 rr_counterpoint;
#X obj 62 303 spigot;
#X obj 95 284 tgl 15 0 empty empty empty 17 7 0 10 -262144 -1 -1 0
1;
#X obj 109 303 spigot;
#X obj 142 284 tgl 15 0 empty empty empty 17 7 0 10 -262144 -1 -1 0
1;
#X obj 30 381 rr_overtone~ 0 2 0.5 100 100 100 3;
#X obj 195 301 active 1;
#X obj 30 405 rr_echo~ e1 25 0.25;
#X obj 42 358 rr_overtone~ 0 1 0.55 100 100 500 3;
#X obj 60 335 rr_overtone~ 0 2 0.45 10 0 500 2;
#X text 308 315 You can control counterpoint scaling inlet tone and
trigger outlel with active abs.;
#X connect 2 0 3 0;
#X connect 2 1 3 1;
#X connect 4 0 3 2;
#X connect 7 0 15 0;
#X connect 11 0 2 1;
#X connect 12 0 25 0;
#X connect 12 0 20 0;
#X connect 13 0 21 0;
#X connect 14 0 12 1;
#X connect 14 0 13 1;
#X connect 15 0 16 0;
#X connect 15 1 14 0;
#X connect 16 0 12 0;
#X connect 16 1 13 0;
#X connect 18 0 16 1;
#X connect 20 0 26 0;
#X connect 21 0 28 0;
#X connect 22 0 21 1;
#X connect 23 0 29 0;
#X connect 24 0 23 1;
#X connect 25 0 27 0;
#X connect 26 0 23 0;
#X connect 27 0 2 0;
#X connect 27 0 2 1;
#X connect 27 1 11 0;
#X connect 28 0 27 0;
#X connect 29 0 27 0;
