#N canvas 370 125 704 637 10;
#X obj 8 17 cnv 15 680 40 empty empty Generative_series 20 12 0 14
-233017 -66577 0;
#X obj 303 21 cnv 15 380 40 empty empty ABS:rr_targetc 20 20 0 24 -128992
-262144 0;
#X obj 30 528 rr_record~;
#X msg 193 502 rec01.wav;
#X text 309 550 You can record your performance. Put the name. It show
passing seconds while recording. Bang to reset.;
#X obj 30 76 tgl 15 0 empty empty empty 17 7 0 10 -262144 -1 -1 0 1
;
#X obj 142 393 rev1~;
#X floatatom 180 393 5 0 0 0 - - -;
#X msg 30 305 next \$1;
#X floatatom 204 370 5 0 0 0 - - -;
#X text 309 460 1st toggle turn ON/OFF your Dsp. 2nd toggle visualize
the wave sound. Stereo spatialization and volume sliders.;
#X obj 30 353 *~ 0.25;
#X obj 29 418 rr_XOUTdac~;
#X obj 142 370 hip~ 1000;
#X obj 30 330 clone 12 rr_tone~ 2500 3;
#X floatatom 174 82 5 0 0 0 - - -;
#X obj 117 176 rr_allchords 3 4;
#X obj 117 153 rr_circula 2 5 7;
#X obj 30 229 rr_allscales, f 34;
#X obj 30 279 + 48;
#X text 309 190 Targetc needs a bang in 1st inlet and a chord in 2nd
inlet. It chooses a chord note as target and goes for it than it accepts
a new chord.;
#X obj 30 155 bng 15 250 50 0 empty empty empty 17 7 0 10 -262144 -1
-1;
#X obj 30 192 rr_targetc;
#X obj 30 97 rr_pulsa+ 3 3 3;
#X msg 231 160 0 2 3 5 7 8 11;
#X connect 3 0 2 2;
#X connect 5 0 23 0;
#X connect 6 0 12 1;
#X connect 7 0 6 1;
#X connect 8 0 14 0;
#X connect 9 0 13 1;
#X connect 11 0 12 0;
#X connect 11 0 13 0;
#X connect 11 0 12 1;
#X connect 12 0 2 0;
#X connect 12 1 2 1;
#X connect 13 0 6 0;
#X connect 14 0 11 0;
#X connect 15 0 23 1;
#X connect 16 0 22 1;
#X connect 16 0 19 0;
#X connect 17 0 16 0;
#X connect 17 0 15 0;
#X connect 18 0 19 0;
#X connect 19 0 8 0;
#X connect 21 0 22 0;
#X connect 22 0 18 0;
#X connect 23 0 21 0;
#X connect 23 1 17 0;
#X connect 24 0 16 1;
#X connect 24 0 18 1;
