#N canvas 539 116 736 637 10;
#X obj 8 17 cnv 15 680 40 empty empty Generative_series 20 12 0 14
-233017 -66577 0;
#X obj 303 21 cnv 15 380 40 empty empty ABS:rr_snappa 20 20 0 24 -128992
-262144 0;
#X obj 29 442 rr_OUTdac~;
#X obj 30 552 rr_record~;
#X msg 193 526 rec01.wav;
#X text 309 460 1st toggle turn ON/OFF your Dsp. 2nd toggle visualize
the wave sound. Slide is for volume.;
#X text 309 550 You can record your performance. Put the name. It show
passing seconds while recording. Bang to reset.;
#X text 309 410 Echo~ repeats sound (e1 \, e2 \, ...) every ms you
put as parameter and fade out. You can put multiples in sequence. You
can put 3rd attribute from 0-1 for feedback.;
#X obj 28 114 tgl 15 0 empty empty empty 17 7 0 10 -262144 -1 -1 0
1;
#X obj 142 412 *~ 0.25;
#X obj 28 180 rr_snappa~ 150 2.33;
#X obj 179 219 / 3;
#X obj 29 387 rr_echo~ e1 25 0.25;
#X text 308 233 Snappa needs 2 arguments (put in 2/3rd inlets too):
1st is milliseconds interval for metro object that bang snapshot obj
\; 2nd is hz for LFO (where snapshot extracts values). Put a toggle
ON/OFF in 1st inlet. 2nd outlet returns bangs.;
#X obj 179 196 rr_cycle1 0 32 3 1 1;
#X obj 68 292 *~ 0.75;
#X obj 68 269 rr_snappa~ 300 2.33;
#X connect 2 0 3 0;
#X connect 2 1 3 1;
#X connect 4 0 3 2;
#X connect 8 0 16 0;
#X connect 8 0 10 0;
#X connect 9 0 2 1;
#X connect 9 0 2 0;
#X connect 10 0 12 0;
#X connect 10 1 14 0;
#X connect 11 0 16 2;
#X connect 11 0 10 2;
#X connect 12 0 2 0;
#X connect 12 0 2 1;
#X connect 12 1 9 0;
#X connect 14 0 11 0;
#X connect 15 0 12 0;
#X connect 15 0 12 1;
#X connect 16 0 15 0;
