#N canvas 539 116 736 637 10;
#X obj 8 17 cnv 15 680 40 empty empty Generative_series 20 12 0 14
-233017 -66577 0;
#X obj 303 21 cnv 15 380 40 empty empty ABS:rr_spettrale~ 20 20 0 24
-128992 -262144 0;
#X obj 29 422 rr_OUTdac~;
#X obj 30 532 rr_record~;
#X msg 193 506 rec01.wav;
#X text 309 485 1st toggle turn ON/OFF your Dsp. 2nd toggle visualize
the wave sound. Slide is for volume.;
#X text 309 550 You can record your performance. Put the name. It show
passing seconds while recording. Bang to reset.;
#X obj 30 117 rr_play;
#X obj 30 72 tgl 15 0 empty empty empty 17 7 0 10 -262144 -1 -1 0 1
;
#X text 308 94 HOW TO: Use pulsa to define how much times in seconds
you choose bang occures.;
#X obj 143 392 rev1~;
#X floatatom 182 392 5 0 0 0 - - -;
#X obj 310 332 rr_analyze;
#X obj 17 266 noise~;
#X obj 17 289 lop~ 150;
#X obj 30 315 rr_spettrale~, f 27;
#X obj 30 92 rr_pulsa 1 4, f 13;
#X floatatom 83 289 5 0 0 0 - - -;
#X obj 83 266 line, f 5;
#X msg 83 208 \$1 3000;
#X msg 136 238 1 1.25 1.5 4;
#X floatatom 189 289 5 0 0 0 - - -;
#X obj 143 369 hip~ 50;
#X obj 30 234 phasor~;
#X obj 83 185 + 60;
#X obj 30 352 *~ 0.5;
#X obj 30 209 mtof;
#X obj 30 185 + 40;
#X text 308 244 Spettrale needs a sig~ (audio or noise) in 1st inlet
\, a value (0-127) as midi in 2nd inlet \, a list of 4 ratios in 3rd
inlet and a value (0-2) as Q in 4th inlet. It filters seleted ratio
freq from audio signal.;
#X connect 2 0 3 0;
#X connect 2 1 3 1;
#X connect 4 0 3 2;
#X connect 7 0 24 0;
#X connect 7 0 27 0;
#X connect 8 0 16 0;
#X connect 10 0 2 1;
#X connect 10 0 2 0;
#X connect 11 0 10 1;
#X connect 13 0 14 0;
#X connect 14 0 15 0;
#X connect 15 0 12 0;
#X connect 15 0 25 0;
#X connect 16 0 7 0;
#X connect 17 0 15 1;
#X connect 18 0 17 0;
#X connect 19 0 18 0;
#X connect 20 0 15 2;
#X connect 21 0 15 3;
#X connect 22 0 10 0;
#X connect 23 0 15 0;
#X connect 24 0 19 0;
#X connect 25 0 2 0;
#X connect 25 0 22 0;
#X connect 26 0 23 0;
#X connect 27 0 26 0;
