#N canvas 539 116 736 637 10;
#X obj 8 17 cnv 15 680 40 empty empty Generative_series 20 12 0 14
-233017 -66577 0;
#X obj 303 21 cnv 15 380 40 empty empty ABS:rr_randarproga 20 20 0
24 -128992 -262144 0;
#X obj 29 444 rr_OUTdac~;
#X obj 30 554 rr_record~;
#X msg 193 528 rec01.wav;
#X text 309 510 1st toggle turn ON/OFF your Dsp. 2nd toggle visualize
the wave sound. Slide is for volume.;
#X text 309 580 You can record your performance. Put the name. It show
passing seconds while recording. Bang to reset., f 56;
#X msg 30 293 next \$1;
#X text 309 328 With fm you can generate a frequency modulated sound
\; 1st is carrier (0-127) \; 2nd is ratio for modulator (0-10) \; 3rd
modulation index (0-20) \; 4th timbre (0-1) \; 5th mix (0-1) \; 6th
attack in ms \; 7th release in ms \; 8th decay (1-8)., f 58;
#X obj 30 263 rr_allscales;
#X text 309 241 In allscales: put in 2nd inlet a progressive series
(list) of intervals which represents the elements of the scale to use
(mod 12).;
#X obj 30 83 tgl 15 0 empty empty empty 17 7 0 10 -262144 -1 -1 0 1
;
#X text 308 76 HOW TO: Use pulsa to define how much times in seconds
you choose bang occures.;
#X obj 30 363 rr_wha~ 3 10;
#X obj 141 401 rev1~;
#X floatatom 179 401 5 0 0 0 - - -;
#X obj 30 240 + 30;
#X obj 30 183 rr_randarproga 4 4;
#X obj 30 339 *~ 0.5;
#X obj 30 316 clone 16 rr_fm~ 1 0.5 0.15 0.95 20 1500 3;
#X obj 30 104 rr_pulsa 3 1;
#X obj 141 379 hip~ 500;
#X obj 135 143 random 50;
#X text 309 151 Randarproga needs 2 arguments: 1st are elements in
every sequence \; 2nd are elements in progression \; Put a seed value
in 2nd inlet to start or to have a new progression.;
#X msg 134 247 0 2 4 5 7 9 10;
#X obj 135 120 rr_trga 4 0 1 4;
#X connect 2 0 3 0;
#X connect 2 1 3 1;
#X connect 4 0 3 2;
#X connect 7 0 19 0;
#X connect 9 0 7 0;
#X connect 11 0 20 0;
#X connect 13 0 2 0;
#X connect 13 0 2 1;
#X connect 13 0 21 0;
#X connect 14 0 2 1;
#X connect 14 0 2 0;
#X connect 15 0 14 1;
#X connect 16 0 9 0;
#X connect 17 0 16 0;
#X connect 18 0 13 0;
#X connect 19 0 18 0;
#X connect 20 0 17 0;
#X connect 20 1 25 0;
#X connect 21 0 14 0;
#X connect 22 0 17 1;
#X connect 24 0 9 1;
#X connect 25 0 22 0;
