#N canvas 531 130 737 632 10;
#X obj 8 17 cnv 15 680 40 empty empty Generative_series 20 12 0 14
-233017 -66577 0;
#X obj 303 21 cnv 15 380 40 empty empty ABS:rr_trop~ 20 20 0 24 -128992
-262144 0;
#X obj 29 422 rr_OUTdac~;
#X obj 30 532 rr_record~;
#X msg 193 506 rec01.wav;
#X text 309 485 1st toggle turn ON/OFF your Dsp. 2nd toggle visualize
the wave sound. Slide is for volume.;
#X text 309 550 You can record your performance. Put the name. It show
passing seconds while recording. Bang to reset.;
#X text 308 134 Choose how many elements in your sequence [num] then
[set].You can click [set] again for a new sequence. You can bang in
2nd inlet to [set]. 3rd inlet (2-6) how many repetitions of sequence
to bang out in 2nd outlet.;
#X obj 30 158 rr_play;
#X obj 30 81 tgl 15 0 empty empty empty 17 7 0 10 -262144 -1 -1 0 1
;
#X text 308 94 HOW TO: Use pulsa to define how much times in seconds
you choose bang occures.;
#X obj 76 388 rev1~;
#X floatatom 115 388 5 0 0 0 - - -;
#X obj 30 101 rr_pulsa 3 1;
#X obj 30 224 + 50;
#X obj 99 125 rr_trga 8 0 1 1;
#X obj 76 365 lop~ 900;
#X obj 30 348 *~ 0.25;
#X obj 30 306 min~;
#X text 309 264 Trop~ needs 6 arguments: 1st is for cloning \; 2nd
is first harmonic (in 2nd inlet too) \; 3rd is second harmonic (in
3rd inlet too) \; 4th/5th/6th modulations for tropicalization.;
#X floatatom 94 240 5 0 0 0 - - -;
#X floatatom 159 240 5 0 0 0 - - -;
#X obj 30 262 rr_trop~ 1 2 3 1 3 0.5;
#X obj 70 289 rr_trop~ 1 0.25 2.5 1.5 4 5;
#X connect 2 0 3 0;
#X connect 2 1 3 1;
#X connect 4 0 3 2;
#X connect 8 0 14 0;
#X connect 9 0 13 0;
#X connect 11 0 2 1;
#X connect 11 0 2 0;
#X connect 12 0 11 1;
#X connect 13 0 8 0;
#X connect 13 1 15 0;
#X connect 14 0 22 0;
#X connect 14 0 23 0;
#X connect 15 0 8 1;
#X connect 16 0 11 0;
#X connect 17 0 2 0;
#X connect 17 0 16 0;
#X connect 18 0 17 0;
#X connect 20 0 22 1;
#X connect 21 0 22 2;
#X connect 22 0 18 0;
#X connect 23 0 18 1;
