#N canvas 593 116 767 637 10;
#X obj 8 17 cnv 15 680 40 empty empty Generative_series 20 12 0 14
-233017 -66577 0;
#X obj 303 21 cnv 15 380 40 empty empty ABS:rr_lineharm 20 20 0 24
-128992 -262144 0;
#X obj 29 422 rr_OUTdac~;
#X obj 30 532 rr_record~;
#X msg 193 506 rec01.wav;
#X text 309 460 1st toggle turn ON/OFF your Dsp. 2nd toggle visualize
the wave sound. Slide is for volume.;
#X text 309 550 You can record your performance. Put the name. It show
passing seconds while recording. Bang to reset.;
#X msg 112 232 0 2 3 5 7 9 10;
#X text 309 271 In allscales put in 2nd inlet a progressive series
(list) of intervals which represents the elements of the scale to use
(mod 12). [minor scale in example];
#X text 308 94 HOW TO: Use pulsa to define how much times in seconds
you choose bang occures.;
#X obj 30 92 tgl 15 0 empty empty empty 17 7 0 10 -262144 -1 -1 0 1
;
#X obj 85 363 lop~ 600;
#X obj 85 386 rev1~;
#X floatatom 123 386 5 0 0 0 - - -;
#X msg 30 297 next \$1;
#X obj 30 346 *~ 0.25;
#X obj 30 232 rr_allscales;
#X obj 30 320 clone 8 rr_tone~ 150 3;
#X obj 158 424 bng 15 250 50 0 empty empty empty 17 7 0 10 -262144
-1 -1;
#X obj 158 444 s sync;
#X obj 30 210 + 40;
#X msg 177 296 next \$1;
#X obj 177 346 *~ 0.25;
#X obj 30 171 rr_lineharm;
#X obj 30 113 rr_pulsa 4 1;
#X msg 61 144 3 6 2 5 1 4 0 0;
#X obj 177 320 clone 8 rr_tone~ 3000 3;
#X text 308 174 Lineharm needs a list/sequence in 2nd inlet and a value
as a seed in 3rd inlet. It returns an harmonic line.;
#X obj 176 155 random 20;
#X obj 176 129 rr_trga 16 0 1 1;
#X obj 177 274 rr_allscales;
#X obj 176 187 + 33;
#X connect 2 0 3 0;
#X connect 2 1 3 1;
#X connect 4 0 3 2;
#X connect 7 0 16 1;
#X connect 7 0 30 1;
#X connect 10 0 24 0;
#X connect 11 0 12 0;
#X connect 12 0 2 0;
#X connect 12 0 2 1;
#X connect 13 0 12 1;
#X connect 14 0 17 0;
#X connect 15 0 11 0;
#X connect 15 0 2 0;
#X connect 15 0 12 0;
#X connect 16 0 14 0;
#X connect 17 0 15 0;
#X connect 18 0 19 0;
#X connect 20 0 16 0;
#X connect 21 0 26 0;
#X connect 22 0 2 1;
#X connect 22 0 11 0;
#X connect 23 0 20 0;
#X connect 23 1 31 0;
#X connect 24 0 23 0;
#X connect 24 1 29 0;
#X connect 25 0 23 1;
#X connect 26 0 22 0;
#X connect 28 0 23 2;
#X connect 29 0 28 0;
#X connect 30 0 21 0;
#X connect 31 0 30 0;
