#N canvas 593 116 767 637 10;
#X obj 8 17 cnv 15 680 40 empty empty Generative_series 20 12 0 14
-233017 -66577 0;
#X obj 303 21 cnv 15 380 40 empty empty ABS:rr_tools 20 20 0 24 -128992
-262144 0;
#X obj 29 416 rr_OUTdac~;
#X obj 30 526 rr_record~;
#X msg 193 500 rec01.wav;
#X msg 30 279 next \$1;
#X obj 30 256 rr_allscales;
#X obj 114 363 rev1~;
#X floatatom 176 363 5 0 0 0 - - -;
#X floatatom 176 340 5 0 0 0 - - -;
#X obj 114 340 hip~ 1000;
#X msg 99 233 0 2 3 5 7 8 10;
#X obj 303 95 rr_board;
#X msg 303 295 DO;
#X obj 303 318 rr_analyze;
#X text 504 93 Board returns note position on grid \;, f 29;
#X text 534 313 Analyze returns waveform and spectrum \;, f 23;
#X obj 303 272 rr_show+;
#X msg 348 295 2;
#X floatatom 361 257 5 0 0 0 - - -;
#X text 474 263 Show returns note name and grade \;;
#X obj 166 444 rr_pkbdp;
#X floatatom 643 419 5 0 0 0 - - -;
#X text 437 502 Piano keyboard with time decay for keys;
#X obj 30 81 tgl 15 0 empty empty empty 17 7 0 10 -262144 -1 -1 0 1
;
#X floatatom 30 150 5 0 0 0 - - -;
#X msg 30 104 all \$1;
#X obj 29 378 mix 0.35;
#X obj 81 166 sel 5;
#X obj 81 189 circula 4 5 12;
#X obj 30 205 + 0;
#X obj 30 323 *~ 0.15;
#X obj 30 173 + 30;
#X obj 30 127 clone 10 rr_eva 3000 -150;
#X obj 30 301 clone 20 rr_tone~ 2000 3;
#X connect 2 0 3 0;
#X connect 2 1 3 1;
#X connect 4 0 3 2;
#X connect 5 0 34 0;
#X connect 6 0 5 0;
#X connect 6 0 12 0;
#X connect 6 0 17 0;
#X connect 6 0 21 0;
#X connect 7 0 27 1;
#X connect 8 0 7 1;
#X connect 9 0 10 1;
#X connect 10 0 7 0;
#X connect 11 0 6 1;
#X connect 17 0 13 0;
#X connect 17 1 18 0;
#X connect 19 0 17 1;
#X connect 22 0 21 1;
#X connect 24 0 26 0;
#X connect 25 0 28 0;
#X connect 25 0 32 0;
#X connect 26 0 33 0;
#X connect 27 0 2 0;
#X connect 27 0 2 1;
#X connect 28 0 29 0;
#X connect 29 0 30 1;
#X connect 29 0 19 0;
#X connect 30 0 6 0;
#X connect 31 0 10 0;
#X connect 31 0 27 0;
#X connect 32 0 30 0;
#X connect 33 0 25 0;
#X connect 34 0 14 0;
#X connect 34 0 31 0;
