#N canvas 597 125 704 637 10;
#X obj 8 17 cnv 15 680 40 empty empty Generative_series 20 12 0 14
-233017 -66577 0;
#X obj 303 21 cnv 15 380 40 empty empty ABS:rr_summa_diff 20 20 0 24
-128992 -262144 0;
#X obj 30 528 rr_record~;
#X msg 193 502 rec01.wav;
#X text 309 550 You can record your performance. Put the name. It show
passing seconds while recording. Bang to reset.;
#X obj 30 96 tgl 15 0 empty empty empty 17 7 0 10 -262144 -1 -1 0 1
;
#X obj 142 393 rev1~;
#X floatatom 180 393 5 0 0 0 - - -;
#X msg 30 305 next \$1;
#X floatatom 135 102 5 0 0 0 - - -;
#X floatatom 204 370 5 0 0 0 - - -;
#X text 309 460 1st toggle turn ON/OFF your Dsp. 2nd toggle visualize
the wave sound. Stereo spatialization and volume sliders.;
#X obj 30 353 *~ 0.25;
#X obj 29 418 rr_XOUTdac~;
#X obj 142 370 hip~ 1000;
#X text 308 94 Pulsa+ needs 3 arguments: 1st how many sec for pulse
duration \; 2nd how many subdivision in pulse \; 3rd how many beats
to repeat durations sequence. Put a value in 2nd inlet to generate
new sequence. 1st outlet for bangs series and 2nd outlet for duration
of every beat.;
#X obj 30 330 clone 12 rr_tone~ 2500 3;
#X obj 30 117 rr_pulsa+ 4 4 4;
#X obj 30 278 rr_mappa+ 7 12 0 0;
#X obj 30 192 rr_summa 2 3, f 13;
#X obj 117 217 rr_diff 3 2;
#X text 308 198 Summa and diff needs a bang in 1st inlet ad 2 arguments.
They return recursive sum or difference about the argumments.;
#X connect 3 0 2 2;
#X connect 5 0 17 0;
#X connect 6 0 13 1;
#X connect 7 0 6 1;
#X connect 8 0 16 0;
#X connect 9 0 17 1;
#X connect 10 0 14 1;
#X connect 12 0 13 0;
#X connect 12 0 14 0;
#X connect 12 0 13 1;
#X connect 13 0 2 0;
#X connect 13 1 2 1;
#X connect 14 0 6 0;
#X connect 16 0 12 0;
#X connect 17 0 19 0;
#X connect 17 1 20 0;
#X connect 18 0 8 0;
#X connect 19 0 18 0;
#X connect 20 0 18 0;
