#N canvas 539 116 736 637 10;
#X obj 8 17 cnv 15 680 40 empty empty Generative_series 20 12 0 14
-233017 -66577 0;
#X obj 303 21 cnv 15 380 40 empty empty ABS:rr_pulsa-del 20 20 0 24
-128992 -262144 0;
#X obj 29 442 rr_OUTdac~;
#X obj 30 552 rr_record~;
#X msg 193 526 rec01.wav;
#X text 309 460 1st toggle turn ON/OFF your Dsp. 2nd toggle visualize
the wave sound. Slide is for volume.;
#X text 309 550 You can record your performance. Put the name. It show
passing seconds while recording. Bang to reset.;
#X obj 142 412 rev1~;
#X floatatom 181 412 5 0 0 0 - - -;
#X obj 31 318 rr_perc~ 0 1500 90 3 0.2 0.2 1000 10;
#X obj 31 96 tgl 15 0 empty empty empty 17 7 0 10 -262144 -1 -1 0 1
;
#X obj 82 287 rr_perc~ 0 75 150 2 0.5 0.1 1000 10;
#X obj 158 442 bng 15 250 50 0 empty empty empty 17 7 0 10 -262144
-1 -1;
#X obj 158 462 s sync;
#X obj 30 373 *~ 0.25;
#X obj 31 116 rr_pulsa 3 1;
#X obj 142 388 hip~ 1000;
#X floatatom 95 157 5 0 0 0 - - -;
#X floatatom 160 157 5 0 0 0 - - -;
#X obj 31 182 rr_pulsa-del 32 16 250;
#X text 309 170 Pulsa-del needs a bang in 1st inlet and 3 arguments
\; 1st (< 32) in length of sequence than it repeats \; 2nd (4-32) subdivisions
\; 3rd (0-1000) delays ms.;
#X connect 2 0 3 0;
#X connect 2 1 3 1;
#X connect 4 0 3 2;
#X connect 7 0 2 1;
#X connect 8 0 7 1;
#X connect 9 0 14 0;
#X connect 10 0 15 0;
#X connect 11 0 14 0;
#X connect 12 0 13 0;
#X connect 14 0 2 0;
#X connect 14 0 2 1;
#X connect 14 0 16 0;
#X connect 15 0 11 0;
#X connect 15 0 19 0;
#X connect 16 0 7 0;
#X connect 17 0 19 1;
#X connect 18 0 19 2;
#X connect 19 0 9 0;
