#N canvas 539 116 736 637 10;
#X obj 8 17 cnv 15 680 40 empty empty Generative_series 20 12 0 14
-233017 -66577 0;
#X obj 303 21 cnv 15 380 40 empty empty ABS:rr_atempo 20 20 0 24 -128992
-262144 0;
#X obj 29 422 rr_OUTdac~;
#X obj 30 532 rr_record~;
#X msg 193 506 rec01.wav;
#X text 309 460 1st toggle turn ON/OFF your Dsp. 2nd toggle visualize
the wave sound. Slide is for volume.;
#X text 309 550 You can record your performance. Put the name. It show
passing seconds while recording. Bang to reset.;
#X obj 142 392 rev1~;
#X floatatom 181 392 5 0 0 0 - - -;
#X floatatom 200 369 5 0 0 0 - - -;
#X obj 181 312 rr_perc~ 0 1500 90 3 0.2 0.2 1000 10;
#X obj 31 86 tgl 15 0 empty empty empty 17 7 0 10 -262144 -1 -1 0 1
;
#X obj 154 287 rr_perc~ 0 75 150 2 0.5 0.1 1000 10;
#X obj 158 422 bng 15 250 50 0 empty empty empty 17 7 0 10 -262144
-1 -1;
#X obj 158 442 s sync;
#X obj 30 353 *~ 0.25;
#X obj 142 368 hip~ 200;
#X obj 154 132 sel 1;
#X floatatom 154 86 5 0 0 0 - - -;
#X obj 31 206 random 12;
#X obj 31 229 + 50;
#X floatatom 92 133 5 0 0 0 - - -;
#X text 318 130 Atempo needs 5 arguments: 1st are BPM (beats per minute)
\; 2nd/3rd is time signature for subdiv (ex: 4/4 \, 7/8 \, 3/2) \;
4th how many pulses pattern repeats itself \; 5th % note/pause (0-100)
\; A value in 2nd inlet a seed for new random pattern \; 2nd outlet
returns beats durations \; 3nd outlet returns 1 on strong beat 0 on
weaks ones.;
#X obj 31 253 rr_tone~ 0 500 2, f 21;
#X obj 31 107 rr_atempo 90 5 8 16 65;
#X connect 2 0 3 0;
#X connect 2 1 3 1;
#X connect 4 0 3 2;
#X connect 7 0 2 1;
#X connect 8 0 7 1;
#X connect 9 0 16 1;
#X connect 10 0 15 0;
#X connect 11 0 24 0;
#X connect 12 0 15 0;
#X connect 13 0 14 0;
#X connect 15 0 2 0;
#X connect 15 0 2 1;
#X connect 15 0 16 0;
#X connect 16 0 7 0;
#X connect 17 0 12 0;
#X connect 17 1 10 0;
#X connect 18 0 24 1;
#X connect 19 0 20 0;
#X connect 20 0 23 0;
#X connect 21 0 23 1;
#X connect 23 0 15 0;
#X connect 24 0 19 0;
#X connect 24 1 21 0;
#X connect 24 2 17 0;
