#N canvas 539 116 736 637 10;
#X obj 8 17 cnv 15 680 40 empty empty Generative_series 20 12 0 14
-233017 -66577 0;
#X obj 303 21 cnv 15 380 40 empty empty ABS:rr_brownian 20 20 0 24
-128992 -262144 0;
#X obj 29 442 rr_OUTdac~;
#X floatatom 187 167 5 0 0 1 init - -;
#X obj 30 301 rr_allscales;
#X msg 99 277 0 2 4 5 7 9 11;
#X obj 30 552 rr_record~;
#X msg 193 526 rec01.wav;
#X text 309 390 Echo~ repeats sound (e1 \, e2 \, ...) every ms you
put as parameter and fade out. You can put multiples in sequence.;
#X text 309 440 1st toggle turn ON/OFF your Dsp. 2nd toggle visualize
the wave sound. Slide is for volume.;
#X text 309 550 You can record your performance. Put the name. It show
passing seconds while recording. Bang to reset.;
#X obj 30 113 rr_density;
#X text 309 279 Put in 2nd inlet a progressive series (list) of intervals
which represents the elements of the scale to use (mod 12). [major
scale in example];
#X text 309 344 Tone~ generate a tone with envelope: Midi value (0-127)
in 1st inlet \, duration in ms 2nd inlet \, power for asc/desc (1-8)
in 3rd inlet.;
#X obj 30 182 rr_brownian, f 18;
#X obj 29 387 rr_echo~ e1 50, f 19;
#X msg 30 324 next \$1;
#X obj 30 347 clone 8 rr_tone~ 4000 4;
#X obj 29 410 rr_echo~ e2 1000, f 17;
#X text 308 94 HOW TO: Use density to define how much times in seconds
you choose bang occures.;
#X text 308 157 You can put the init note in 2nd inlet (midi value
0-127). Slide for how much can move the next number from previous.
;
#X connect 2 0 6 0;
#X connect 2 1 6 1;
#X connect 3 0 14 1;
#X connect 4 0 16 0;
#X connect 5 0 4 1;
#X connect 7 0 6 2;
#X connect 11 0 14 0;
#X connect 14 0 4 0;
#X connect 15 0 18 0;
#X connect 15 1 2 1;
#X connect 15 1 18 1;
#X connect 16 0 17 0;
#X connect 17 0 15 0;
#X connect 18 0 2 0;
#X connect 18 1 2 0;
#X connect 18 1 2 1;
