#N canvas 539 116 736 637 10;
#X obj 8 17 cnv 15 680 40 empty empty Generative_series 20 12 0 14
-233017 -66577 0;
#X obj 303 21 cnv 15 380 40 empty empty ABS:rr_intonation 20 20 0 24
-128992 -262144 0;
#X obj 29 442 rr_OUTdac~;
#X obj 30 552 rr_record~;
#X msg 193 526 rec01.wav;
#X text 309 460 1st toggle turn ON/OFF your Dsp. 2nd toggle visualize
the wave sound. Slide is for volume.;
#X text 309 550 You can record your performance. Put the name. It show
passing seconds while recording. Bang to reset.;
#X obj 30 113 rr_density;
#X text 309 364 Tone~ generate a tone with envelope: Midi value (0-127)
in 1st inlet \, duration in ms 2nd inlet \, power for asc/desc (1-8)
in 3rd inlet.;
#X text 308 94 HOW TO: Use density to define how much times in seconds
you choose bang occures.;
#X obj 30 180 rr_play;
#X text 309 410 Echo~ repeats sound (e1 \, e2 \, ...) every ms you
put as parameter and fade out. You can put multiples in sequence. You
can put 3rd attribute from 0-1 for feedback.;
#X text 308 154 Choose how many elements in your sequence [num] then
[set].You can click [set] again for a new sequence. You can bang in
2nd inlet to [set]. 3rd inlet (2-6) how many repetitions of sequence
to bang out in 2nd outlet.;
#X obj 30 245 + 1;
#X msg 30 323 next \$1;
#X obj 30 400 rr_echo~ e1 500 0.5;
#X obj 30 300 rr_intonation 1 25;
#X msg 152 284 next \$1;
#X obj 152 261 rr_intonation 1 50;
#X obj 152 307 clone rr_tone~ 8 500 3;
#X text 308 254 In intonation you can define in 2nd argument ratio
intonation that is how many Hz between two tones., f 59;
#X obj 30 346 clone rr_tone~ 8 1000 2;
#X connect 2 0 3 0;
#X connect 2 1 3 1;
#X connect 4 0 3 2;
#X connect 7 0 10 0;
#X connect 10 0 13 0;
#X connect 13 0 18 0;
#X connect 13 0 16 0;
#X connect 14 0 21 0;
#X connect 15 0 2 0;
#X connect 15 1 2 1;
#X connect 16 0 14 0;
#X connect 17 0 19 0;
#X connect 18 0 17 0;
#X connect 19 0 15 0;
#X connect 21 0 15 0;
