#N canvas 539 116 736 637 10;
#X obj 8 17 cnv 15 680 40 empty empty Generative_series 20 12 0 14
-233017 -66577 0;
#X obj 303 21 cnv 15 380 40 empty empty ABS:rr_clave 20 20 0 24 -128992
-262144 0;
#X obj 29 422 rr_OUTdac~;
#X obj 30 532 rr_record~;
#X msg 193 506 rec01.wav;
#X text 309 460 1st toggle turn ON/OFF your Dsp. 2nd toggle visualize
the wave sound. Slide is for volume.;
#X text 309 550 You can record your performance. Put the name. It show
passing seconds while recording. Bang to reset.;
#X obj 142 392 rev1~;
#X floatatom 181 392 5 0 0 0 - - -;
#X obj 31 298 rr_perc~ 0 1500 90 3 0.2 0.2 1000 10;
#X obj 31 86 tgl 15 0 empty empty empty 17 7 0 10 -262144 -1 -1 0 1
;
#X obj 158 422 bng 15 250 50 0 empty empty empty 17 7 0 10 -262144
-1 -1;
#X obj 158 442 s sync;
#X obj 30 353 *~ 0.25;
#X obj 142 368 hip~ 1000;
#X floatatom 72 159 5 0 0 0 - - -;
#X floatatom 113 159 5 0 0 0 - - -;
#X obj 31 106 rr_pulsa 5 1;
#X floatatom 154 159 5 0 0 0 - - -;
#X floatatom 196 159 5 0 0 0 - - -;
#X obj 31 182 rr_clave 7 1 3 2, f 28;
#X text 309 170 Clave needs a bang in 1st inlet an 4 arguments or values
in 2-4 inlets (better use prime numbers) \; 2nd/4th range (3-32) \;
3rd/5th range (1-15) \; It returns different clave combinations.;
#X connect 2 0 3 0;
#X connect 2 1 3 1;
#X connect 4 0 3 2;
#X connect 7 0 2 1;
#X connect 8 0 7 1;
#X connect 9 0 13 0;
#X connect 10 0 17 0;
#X connect 11 0 12 0;
#X connect 13 0 2 0;
#X connect 13 0 2 1;
#X connect 13 0 14 0;
#X connect 14 0 7 0;
#X connect 15 0 20 1;
#X connect 16 0 20 2;
#X connect 17 0 20 0;
#X connect 18 0 20 3;
#X connect 19 0 20 4;
#X connect 20 0 9 0;
