#N canvas 554 116 721 637 10;
#X obj 8 17 cnv 15 680 40 empty empty Generative_series 20 12 0 14
-233017 -66577 0;
#X obj 303 21 cnv 15 380 40 empty empty ABS:rr_dura2/mirdura2 20 20
0 24 -128992 -262144 0;
#X obj 29 432 rr_OUTdac~;
#X obj 30 542 rr_record~;
#X msg 193 516 rec01.wav;
#X text 309 460 1st toggle turn ON/OFF your Dsp. 2nd toggle visualize
the wave sound. Slide is for volume.;
#X text 309 550 You can record your performance. Put the name. It show
passing seconds while recording. Bang to reset.;
#X obj 30 103 rr_density;
#X text 308 94 HOW TO: Use density to define how much times in seconds
you choose bang occures.;
#X obj 30 196 rr_dura2 7, f 14;
#X floatatom 228 181 5 0 0 0 - - -;
#X msg 222 292 0 2 3 5 7 9 10;
#X obj 30 295 + 30;
#X obj 30 341 rr_tone~ 0 1000 3;
#X text 309 334 In allscales put in 2nd inlet a progressive series
(list) of intervals which represents the elements of the scale to use
(mod 12). [minor scale in example];
#X text 309 387 Tone~ generate a tone with envelope: Midi value (0-127)
in 1st inlet \, duration in ms 2nd inlet \, power for asc/desc (1-8)
in 3rd inlet.;
#X text 308 132 Dura2 returns bangs at different multiple times of
inlet triggered bangs. It needs a argument: is how many bangs to repeat
sequence \; 2nd inlet is for change random seed \; 2nd outlet returns
time selected.;
#X obj 142 404 rev1~;
#X floatatom 181 404 5 0 0 0 - - -;
#X obj 30 168 t b b, f 21;
#X obj 111 319 * 250;
#X obj 163 432 bng 15 250 50 0 empty empty empty 17 7 0 10 -262144
-1 -1;
#X msg 163 452 s sync;
#X text 308 203 Mirdura2 needs an argument and connected with dura2
returns a mirror sequence of durations of number of elements in argument.
;
#X text 347 274 Replay needs 2 arguments: 1st is how many bangs waits
to start next sequence \; 2nd is how many elents in sequence. A seed
number in 2nd inlet to have new sequence., f 52;
#X obj 30 270 rr_replay 1 6;
#X obj 153 270 rr_replay 1 6;
#X obj 30 317 rr_allscales;
#X obj 153 315 rr_allscales;
#X obj 153 246 rr_mirdura2 7, f 14;
#X obj 153 293 + 37;
#X obj 234 321 * 250;
#X obj 153 347 rr_tone~ 0 1000 3;
#X obj 30 364 rr_mix~ 0.5;
#X obj 142 381 hip~ 1500;
#X connect 2 0 3 0;
#X connect 2 1 3 1;
#X connect 4 0 3 2;
#X connect 7 0 19 0;
#X connect 9 0 25 0;
#X connect 9 1 20 0;
#X connect 9 1 29 1;
#X connect 10 0 9 1;
#X connect 10 0 25 3;
#X connect 10 0 26 3;
#X connect 11 0 27 1;
#X connect 11 0 28 1;
#X connect 12 0 27 0;
#X connect 13 0 33 0;
#X connect 17 0 2 1;
#X connect 17 0 2 0;
#X connect 18 0 17 1;
#X connect 19 0 9 0;
#X connect 19 1 29 0;
#X connect 20 0 13 1;
#X connect 21 0 22 0;
#X connect 25 0 12 0;
#X connect 26 0 30 0;
#X connect 27 0 13 0;
#X connect 28 0 32 0;
#X connect 29 0 26 0;
#X connect 29 1 31 0;
#X connect 30 0 28 0;
#X connect 31 0 32 1;
#X connect 32 0 33 1;
#X connect 33 0 34 0;
#X connect 33 0 2 0;
#X connect 33 0 2 1;
#X connect 34 0 17 0;
