#N canvas 597 125 704 637 10;
#X obj 8 17 cnv 15 680 40 empty empty Generative_series 20 12 0 14
-233017 -66577 0;
#X obj 303 21 cnv 15 380 40 empty empty ABS:rr_base 20 20 0 24 -128992
-262144 0;
#X obj 30 528 rr_record~;
#X msg 193 502 rec01.wav;
#X text 309 550 You can record your performance. Put the name. It show
passing seconds while recording. Bang to reset.;
#X text 309 279 In allscales put in 2nd inlet a progressive series
(list) of intervals which represents the elements of the scale to use
(mod 12). [minor scale in example];
#X obj 30 102 tgl 15 0 empty empty empty 17 7 0 10 -262144 -1 -1 0
1;
#X obj 142 393 rev1~;
#X floatatom 180 393 5 0 0 0 - - -;
#X msg 30 305 next \$1;
#X obj 30 282 rr_allscales;
#X floatatom 117 100 5 0 0 0 - - -;
#X floatatom 204 370 5 0 0 0 - - -;
#X text 309 460 1st toggle turn ON/OFF your Dsp. 2nd toggle visualize
the wave sound. Stereo spatialization and volume sliders.;
#X obj 30 353 *~ 0.25;
#X obj 29 418 rr_XOUTdac~;
#X obj 142 370 hip~ 1000;
#X text 308 94 Pulsa+ needs 3 arguments: 1st how many sec for pulse
duration \; 2nd how many subdivision in pulse \; 3rd how many beats
to repeat durations sequence. Put a value in 2nd inlet to generate
new sequence. 1st outlet for bangs series and 2nd outlet for duration
of every beat.;
#X obj 30 330 clone 8 rr_tone~ 1500 3;
#X obj 30 123 rr_pulsa+ 1 2 7;
#X msg 117 266 0 2 3 5 7 9 10;
#X obj 30 181 rr_base 11;
#X floatatom 169 166 10 0 0 0 - - -;
#X obj 30 236 + 35;
#X obj 117 190 change -1;
#X obj 117 213 rr_base 7;
#X obj 117 236 + 48;
#X obj 169 123 + 10000;
#X obj 169 100 rr_circula 4 2 8;
#X text 308 198 Base needs an arguments and a value in 2nd inlet \,
it returns that value in different base (argument value);
#X connect 3 0 2 2;
#X connect 6 0 19 0;
#X connect 7 0 15 1;
#X connect 8 0 7 1;
#X connect 9 0 18 0;
#X connect 10 0 9 0;
#X connect 11 0 19 1;
#X connect 12 0 16 1;
#X connect 14 0 15 0;
#X connect 14 0 16 0;
#X connect 14 0 15 1;
#X connect 15 0 2 0;
#X connect 15 1 2 1;
#X connect 16 0 7 0;
#X connect 18 0 14 0;
#X connect 19 0 21 0;
#X connect 19 1 24 0;
#X connect 20 0 10 1;
#X connect 21 0 23 0;
#X connect 22 0 21 1;
#X connect 22 0 25 1;
#X connect 23 0 10 0;
#X connect 24 0 25 0;
#X connect 24 0 28 0;
#X connect 25 0 26 0;
#X connect 26 0 10 0;
#X connect 27 0 22 0;
#X connect 28 0 27 0;
