#N canvas 593 116 767 637 10;
#X obj 8 17 cnv 15 680 40 empty empty Generative_series 20 12 0 14
-233017 -66577 0;
#X obj 303 21 cnv 15 380 40 empty empty ABS:rr_arpa 20 20 0 24 -128992
-262144 0;
#X obj 29 428 rr_OUTdac~;
#X obj 30 538 rr_record~;
#X msg 193 512 rec01.wav;
#X text 309 460 1st toggle turn ON/OFF your Dsp. 2nd toggle visualize
the wave sound. Slide is for volume.;
#X text 309 550 You can record your performance. Put the name. It show
passing seconds while recording. Bang to reset.;
#X text 308 94 HOW TO: Use pulsa to define how much times in seconds
you choose bang occures.;
#X obj 30 89 tgl 15 0 empty empty empty 17 7 0 10 -262144 -1 -1 0 1
;
#X obj 85 402 rev1~;
#X floatatom 123 402 5 0 0 0 - - -;
#X msg 30 313 next \$1;
#X obj 158 430 bng 15 250 50 0 empty empty empty 17 7 0 10 -262144
-1 -1;
#X obj 158 450 s sync;
#X obj 30 362 *~ 0.15;
#X obj 85 379 hip~ 300;
#X obj 30 289 rr_allscales;
#X obj 30 267 + 35;
#X msg 113 289 0 2 3 5 7 8 10;
#X obj 30 337 clone 16 rr_tone~ 500 4;
#X obj 30 110 rr_pulsa 6 1;
#X floatatom 167 205 5 0 0 0 - - -;
#X floatatom 47 156 5 0 0 0 - - -;
#X floatatom 65 177 5 0 0 0 - - -;
#X floatatom 82 156 5 0 0 0 - - -;
#X floatatom 100 177 5 0 0 0 - - -;
#X floatatom 117 156 5 0 0 0 - - -;
#X floatatom 135 178 5 0 0 0 - - -;
#X text 308 198 Arpa needs 6 arguments and a value in last inlet as
seed for new sequence \; 1st is how many pulse in to have an output
\; 2nd are elements in rythm sequence \; 3rd is probability to have
an output (0-100) \; 4th are elements in tones sequence \; 5th is interval
in tones elements \; 6th is max amplitude of sequence \;;
#X obj 30 205 rr_arpa 1 8 65 8 7 12;
#X connect 2 0 3 0;
#X connect 2 1 3 1;
#X connect 4 0 3 2;
#X connect 8 0 20 0;
#X connect 9 0 2 0;
#X connect 9 0 2 1;
#X connect 10 0 9 1;
#X connect 11 0 19 0;
#X connect 12 0 13 0;
#X connect 14 0 2 0;
#X connect 14 0 9 0;
#X connect 14 0 15 0;
#X connect 15 0 9 0;
#X connect 16 0 11 0;
#X connect 17 0 16 0;
#X connect 18 0 16 1;
#X connect 19 0 14 0;
#X connect 20 0 29 0;
#X connect 21 0 29 7;
#X connect 22 0 29 1;
#X connect 23 0 29 2;
#X connect 24 0 29 3;
#X connect 25 0 29 4;
#X connect 26 0 29 5;
#X connect 27 0 29 6;
#X connect 29 0 17 0;
