#N canvas 539 116 736 637 10;
#X obj 8 17 cnv 15 680 40 empty empty Generative_series 20 12 0 14
-233017 -66577 0;
#X obj 303 21 cnv 15 380 40 empty empty ABS:rr_interval 20 20 0 24
-128992 -262144 0;
#X obj 29 448 rr_OUTdac~;
#X obj 30 558 rr_record~;
#X msg 193 532 rec01.wav;
#X text 309 510 1st toggle turn ON/OFF your Dsp. 2nd toggle visualize
the wave sound. Slide is for volume.;
#X text 309 550 You can record your performance. Put the name. It show
passing seconds while recording. Bang to reset., f 56;
#X obj 30 103 rr_density;
#X text 308 94 HOW TO: Use density to define how much times in seconds
you choose bang occures.;
#X text 309 460 Echo~ repeats sound (e1 \, e2 \, ...) every ms you
put as parameter and fade out. You can put multiples in sequence. You
can put 3rd attribute from 0-1 for feedback.;
#X obj 141 424 *~ 0.25;
#X obj 30 401 rr_echo~ e1 50 0.15;
#X text 309 364 Tone~ generate a tone with envelope: Midi value (0-127)
in 1st inlet \, duration in ms 2nd inlet \, power for asc/desc (1-8)
in 3rd inlet.;
#X obj 30 168 t b b b, f 18;
#X obj 30 198 rr_interval 1 7;
#X obj 82 278 + 40;
#X obj 82 255 rr_interval 20 4;
#X obj 30 378 /~ 2;
#X obj 30 280 + 52;
#X obj 192 278 + 40;
#X obj 192 255 rr_interval 5 5;
#X obj 192 300 rr_tone~ 0 1000 3;
#X obj 30 221 t f f f, f 41;
#X obj 82 300 rr_tone~ 0 3000 2;
#X text 309 194 Interval needs 2 arguments: 1st: how many bangs in
to have an output \; 2nd: interval in semitones to move around \; You
can pass arguments in inlets too. 4th inlet is for offset (root tone)
and 5th is for seed (so you can repeat same sequence every same seed
in).;
#X obj 30 336 rr_tone~ 0 250 4;
#X connect 2 0 3 0;
#X connect 2 1 3 1;
#X connect 4 0 3 2;
#X connect 7 0 13 0;
#X connect 10 0 2 1;
#X connect 11 0 2 0;
#X connect 11 0 2 1;
#X connect 11 1 10 0;
#X connect 13 0 14 0;
#X connect 13 1 16 0;
#X connect 13 2 20 0;
#X connect 14 0 22 0;
#X connect 15 0 23 0;
#X connect 16 0 15 0;
#X connect 17 0 11 0;
#X connect 18 0 25 0;
#X connect 19 0 21 0;
#X connect 20 0 19 0;
#X connect 21 0 17 0;
#X connect 22 0 18 0;
#X connect 22 1 16 3;
#X connect 22 2 20 3;
#X connect 23 0 17 0;
#X connect 25 0 17 0;
