#N canvas 539 116 736 637 10;
#X obj 8 17 cnv 15 680 40 empty empty Generative_series 20 12 0 14
-233017 -66577 0;
#X obj 303 21 cnv 15 380 40 empty empty ABS:rr_noixe 20 20 0 24 -128992
-262144 0;
#X obj 29 412 rr_OUTdac~;
#X obj 30 522 rr_record~;
#X msg 193 496 rec01.wav;
#X text 309 470 1st toggle turn ON/OFF your Dsp. 2nd toggle visualize
the wave sound. Slide is for volume.;
#X text 309 550 You can record your performance. Put the name. It show
passing seconds while recording. Bang to reset.;
#X text 309 397 Echo~ repeats sound (e1 \, e2 \, ...) every ms you
put as parameter and fade out. You can put multiples in sequence. You
can put 3rd attribute from 0-1 for feedback.;
#X obj 141 380 *~ 0.25;
#X obj 30 101 tgl 15 0 empty empty empty 17 7 0 10 -262144 -1 -1 0
1;
#X text 308 94 HOW TO: Use pulsa to define how much times in seconds
you choose bang occures.;
#X obj 183 137 f 0;
#X floatatom 198 101 5 0 0 0 - - -;
#X obj 30 147 active 1;
#X obj 30 358 rr_echo~ e1 25 0.5;
#X text 309 216 Noixe~ needs 4 arguments: 1st is range freq for 1st
modulator \; 2nd is range slope for 1st modulator \; 3rd is range freq
for 2nd modulator \; 4th is range slope for 2nd modulator \; (2nd+4th
range for envelope release \; Bang a seed number in 2nd inlet for repeat
sequence.;
#X obj 30 121 rr_pulsa 8 2;
#X obj 30 276 rr_noixe~ 500 100 1000 500;
#X obj 99 221 trga 4 0 1 1;
#X obj 99 246 rr_noixe~ 50 100 2000 5000;
#X connect 2 0 3 0;
#X connect 2 1 3 1;
#X connect 4 0 3 2;
#X connect 8 0 2 1;
#X connect 8 0 2 0;
#X connect 9 0 16 0;
#X connect 11 0 17 1;
#X connect 11 0 19 1;
#X connect 12 0 11 1;
#X connect 13 0 17 0;
#X connect 14 0 2 0;
#X connect 14 0 2 1;
#X connect 14 1 8 0;
#X connect 16 0 13 0;
#X connect 16 1 11 0;
#X connect 16 1 18 0;
#X connect 17 0 14 0;
#X connect 18 0 19 0;
#X connect 19 0 14 0;
