#N canvas 6 116 704 637 10;
#X obj 8 17 cnv 15 680 40 empty empty Generative_series 20 12 0 14
-233017 -66577 0;
#X obj 303 21 cnv 15 380 40 empty empty ABS:rr_listree 20 20 0 24 -128992
-262144 0;
#X obj 30 528 rr_record~;
#X msg 193 502 rec01.wav;
#X text 309 550 You can record your performance. Put the name. It show
passing seconds while recording. Bang to reset.;
#X obj 30 83 tgl 15 0 empty empty empty 17 7 0 10 -262144 -1 -1 1 1
;
#X obj 142 393 rev1~;
#X floatatom 180 393 5 0 0 0 - - -;
#X msg 30 305 next \$1;
#X floatatom 204 370 5 0 0 0 - - -;
#X text 309 460 1st toggle turn ON/OFF your Dsp. 2nd toggle visualize
the wave sound. Stereo spatialization and volume sliders.;
#X obj 30 353 *~ 0.25;
#X obj 29 418 rr_XOUTdac~;
#X obj 142 370 hip~ 1000;
#X obj 30 330 clone 12 rr_tone~ 2500 3;
#X obj 30 282 rr_mappa+ 7 12 0 0;
#X floatatom 177 89 5 0 0 0 - - -;
#X obj 30 104 rr_pulsa+ 3 3 8;
#X obj 30 219 rr_listree, f 15;
#X msg 59 154 0 1 2;
#X msg 88 184 0 1 2 3 4;
#X msg 136 219 0 1 2 3 4 5 6;
#X obj 73 243 - 7;
#X obj 117 244 + 7;
#X text 309 170 Listree needs a bang in 1st inlet and 3 lists in 2nd/3rd/4th
inlets. Every bang it sums an element from 1st and 2nd list and subtract
an element from 3rd list and repeats. When 1st list completes a cycle
a current element from 2nd list goes out from 2nd outlet. When 2nd
list completes a cycle a current element from 3rd list goes out from
3nd outlet.;
#X connect 3 0 2 2;
#X connect 5 0 17 0;
#X connect 6 0 12 1;
#X connect 7 0 6 1;
#X connect 8 0 14 0;
#X connect 9 0 13 1;
#X connect 11 0 12 0;
#X connect 11 0 13 0;
#X connect 11 0 12 1;
#X connect 12 0 2 0;
#X connect 12 1 2 1;
#X connect 13 0 6 0;
#X connect 14 0 11 0;
#X connect 15 0 8 0;
#X connect 16 0 17 1;
#X connect 17 0 18 0;
#X connect 18 0 15 0;
#X connect 18 1 22 0;
#X connect 18 2 23 0;
#X connect 19 0 18 1;
#X connect 20 0 18 2;
#X connect 21 0 18 3;
#X connect 22 0 15 0;
#X connect 23 0 15 0;
