#N canvas 539 116 736 637 10;
#X obj 8 17 cnv 15 680 40 empty empty Generative_series 20 12 0 14
-233017 -66577 0;
#X obj 303 21 cnv 15 380 40 empty empty ABS:rr_contour 20 20 0 24 -128992
-262144 0;
#X obj 29 442 rr_OUTdac~;
#X obj 30 552 rr_record~;
#X msg 193 526 rec01.wav;
#X text 309 460 1st toggle turn ON/OFF your Dsp. 2nd toggle visualize
the wave sound. Slide is for volume.;
#X text 309 550 You can record your performance. Put the name. It show
passing seconds while recording. Bang to reset.;
#X obj 30 113 rr_density;
#X text 308 94 HOW TO: Use density to define how much times in seconds
you choose bang occures.;
#X text 309 410 Echo~ repeats sound (e1 \, e2 \, ...) every ms you
put as parameter and fade out. You can put multiples in sequence. You
can put 3rd attribute from 0-1 for feedback.;
#X msg 30 343 next \$1;
#X obj 30 320 allscales;
#X obj 30 207 rr_dura;
#X text 308 161 Dura returns bangs at different multiple times of inlet
triggered bangs. 2nd inlet is for random seed.;
#X msg 115 304 0 2 3 5 7 9 10;
#X msg 111 229 U d r D u r;
#X obj 30 367 clone rr_tone~ 6 1000 2;
#X obj 30 297 + 25;
#X obj 30 391 rr_echo~ e1 250 0.5;
#X obj 30 252 rr_contour 2.5;
#X floatatom 69 185 5 0 0 0 - - -;
#X text 309 304 In allscales: put in 2nd inlet a progressive series
(list) of intervals which represents the elements of the scale to use
(mod 12). [minor scale in example];
#X text 308 202 Contour needs an argument (1-4) that defines range
of interval in U and D cases. Put a list in 2nd inlet made: u = up
single (+1) U = up big jump (+range) d = down single (-1) D = D big
jump (-range) r = repeat (+0);
#X text 309 364 Tone~ generate a tone with envelope: Midi value (0-127)
in 1st inlet \, duration in ms 2nd inlet \, power for asc/desc (1-8)
in 3rd inlet.;
#X obj 142 413 *~ 0.15;
#X connect 2 0 3 0;
#X connect 2 1 3 1;
#X connect 4 0 3 2;
#X connect 7 0 12 0;
#X connect 10 0 16 0;
#X connect 11 0 10 0;
#X connect 12 0 19 0;
#X connect 14 0 11 1;
#X connect 15 0 19 1;
#X connect 16 0 18 0;
#X connect 17 0 11 0;
#X connect 18 0 2 0;
#X connect 18 0 2 1;
#X connect 18 1 24 0;
#X connect 19 0 17 0;
#X connect 20 0 12 1;
#X connect 24 0 2 1;
#X connect 24 0 2 0;
