#N canvas 539 116 736 637 10;
#X obj 8 17 cnv 15 680 40 empty empty Generative_series 20 12 0 14
-233017 -66577 0;
#X obj 303 21 cnv 15 380 40 empty empty ABS:rr_tintinnabuli 20 20 0
24 -128992 -262144 0;
#X obj 29 459 rr_OUTdac~;
#X obj 30 569 rr_record~;
#X msg 193 543 rec01.wav;
#X text 309 460 1st toggle turn ON/OFF your Dsp. 2nd toggle visualize
the wave sound. Slide is for volume.;
#X text 309 564 You can record your performance. Put the name. It show
passing seconds while recording. Bang to reset.;
#X obj 30 103 rr_density;
#X text 309 364 Tone~ generate a tone with envelope: Midi value (0-127)
in 1st inlet \, duration in ms 2nd inlet \, power for asc/desc (1-8)
in 3rd inlet.;
#X text 308 94 HOW TO: Use density to define how much times in seconds
you choose bang occures.;
#X text 309 410 Echo~ repeats sound (e1 \, e2 \, ...) every ms you
put as parameter and fade out. You can put multiples in sequence. You
can put 3rd attribute from 0-1 for feedback.;
#X text 346 140 In circle: [div] how many bangs in to have a bang out
(a counter) \; [int] defines interval to next number out \; [oct] in
how many octaves can displaces \; [off] offset number (may be root
of sequence] \; [set] reset. Es: have circle of fifth with 7 in int.
2nd inlet is for [div] and 3rd for [int]., f 53;
#X obj 141 436 *~ 0.25;
#X obj 30 194 rr_rjumps;
#X obj 30 289 rr_tintinnabuli;
#X obj 30 392 /~ 2;
#X obj 30 267 rr_active 2;
#X obj 137 184 rr_circle;
#X obj 30 168 t b b;
#X msg 146 145 0 2 4 7;
#X obj 30 364 rr_tone~ 0 500 4;
#X obj 183 376 rr_tone~ 0 2000 2;
#X obj 30 414 rr_echo~ e1 200 0.5;
#X text 309 250 In rjumps: put in 2nd inlet a list (your scale/sequence)
\; [oct] select how many octaves can displaces \; [off] offset number
(may be root of sequence] \;, f 59;
#X text 309 295 In tintinnabuli: 2nd inlet is root tone. It produces
tintinnabuli relative inlet sequence \; [root] is root tone \; [Max/min]
major/minor \; Select same octave \, 1 up or 1 down.;
#X connect 2 0 3 0;
#X connect 2 1 3 1;
#X connect 4 0 3 2;
#X connect 7 0 18 0;
#X connect 12 0 2 1;
#X connect 13 0 16 0;
#X connect 14 0 20 0;
#X connect 14 1 21 0;
#X connect 15 0 22 0;
#X connect 16 0 14 0;
#X connect 17 0 13 1;
#X connect 17 0 14 1;
#X connect 18 0 13 0;
#X connect 18 1 17 0;
#X connect 19 0 13 2;
#X connect 20 0 15 0;
#X connect 21 0 15 0;
#X connect 22 0 2 0;
#X connect 22 0 2 1;
#X connect 22 1 12 0;
