#N canvas 539 116 736 637 10;
#X obj 8 17 cnv 15 680 40 empty empty Generative_series 20 12 0 14
-233017 -66577 0;
#X obj 303 21 cnv 15 380 40 empty empty ABS:rr_dura 20 20 0 24 -128992
-262144 0;
#X obj 29 442 rr_OUTdac~;
#X obj 30 552 rr_record~;
#X msg 193 526 rec01.wav;
#X text 309 460 1st toggle turn ON/OFF your Dsp. 2nd toggle visualize
the wave sound. Slide is for volume.;
#X text 309 550 You can record your performance. Put the name. It show
passing seconds while recording. Bang to reset.;
#X obj 30 113 rr_density;
#X text 308 94 HOW TO: Use density to define how much times in seconds
you choose bang occures.;
#X text 309 410 Echo~ repeats sound (e1 \, e2 \, ...) every ms you
put as parameter and fade out. You can put multiples in sequence. You
can put 3rd attribute from 0-1 for feedback.;
#X msg 30 343 next \$1;
#X obj 142 413 *~ 0.25;
#X obj 30 320 allscales;
#X text 308 202 Combine needs 2 arguments: 1st is entire group of numbers
to divide \; 2nd in how many subgroups \; It returns some combinations.
;
#X obj 30 206 rr_dura;
#X msg 115 304 0 1 5 7 10;
#X obj 30 391 rr_echo~ e1 25 0.15;
#X text 309 265 Put in 2nd inlet a progressive series (list) of intervals
which represents the elements of the scale to use (mod 12). [minor
scale in example];
#X text 308 172 Dura returns bangs at different multiple times of inlet
triggered bangs. 2nd inlet is for random seed.;
#X text 309 316 With synthstring you can simulate as strings as you
want \; 1st argument fundamental \; 2nd rnd range for detune (1-100)
\; 3rd rnd range for FM (1-10) \; 4th rnd range for timbre (1-100)
\; 5th attack in ms \; 6th release in ms.;
#X obj 30 297 + 20;
#X obj 30 239 rr_combine 10 3;
#X obj 30 367 clone rr_synthstring~ 6 50 5 15 50 2500;
#X connect 2 0 3 0;
#X connect 2 1 3 1;
#X connect 4 0 3 2;
#X connect 7 0 14 0;
#X connect 10 0 22 0;
#X connect 11 0 2 1;
#X connect 11 0 2 0;
#X connect 12 0 10 0;
#X connect 14 0 21 0;
#X connect 15 0 12 1;
#X connect 16 0 2 0;
#X connect 16 0 2 1;
#X connect 16 1 11 0;
#X connect 20 0 12 0;
#X connect 21 0 20 0;
#X connect 22 0 16 0;
