#N canvas 539 116 736 637 10;
#X obj 8 17 cnv 15 680 40 empty empty Generative_series 20 12 0 14
-233017 -66577 0;
#X obj 303 21 cnv 15 380 40 empty empty ABS:rr_efx 20 20 0 24 -128992
-262144 0;
#X obj 29 432 rr_OUTdac~;
#X obj 30 542 rr_record~;
#X msg 193 516 rec01.wav;
#X text 309 485 1st toggle turn ON/OFF your Dsp. 2nd toggle visualize
the wave sound. Slide is for volume.;
#X text 309 550 You can record your performance. Put the name. It show
passing seconds while recording. Bang to reset.;
#X text 309 424 Echo~ repeats sound (e1 \, e2 \, ...) every ms you
put as parameter and fade out. You can put multiples in sequence. You
can put 3rd attribute from 0-1 for feedback.;
#X text 308 134 Choose how many elements in your sequence [num] then
[set].You can click [set] again for a new sequence. You can bang in
2nd inlet to [set]. 3rd inlet (2-6) how many repetitions of sequence
to bang out in 2nd outlet.;
#X obj 141 401 *~ 0.25;
#X obj 30 139 rr_play;
#X obj 30 91 tgl 15 0 empty empty empty 17 7 0 10 -262144 -1 -1 0 1
;
#X obj 121 91 bng 15 250 50 0 empty empty empty 17 7 0 10 -262144 -1
-1;
#X obj 121 111 s sync;
#X text 308 94 HOW TO: Use pulsa to define how much times in seconds
you choose bang occures.;
#X obj 30 228 t f b, f 6;
#X text 403 229 Wshaper needs 7 arguments: 1st for clone \; 2nd is
amplitude of sine wave (0:1) \; 3rd is amplitude of sqrt wave (0:1)
\; 4th is amplitude of saw wave (0:1) \; 5th is amplitude ot tri wave
(0:1) \; 6th is cutoff for high pass filter \; 7th is cutoof for low
pass filter., f 55;
#X obj 63 297 vline~;
#X obj 31 312 *~;
#X obj 105 139 rr_play;
#X obj 105 228 t f b, f 7;
#X obj 158 228 rr_wshaper~ 0 0.25 0 0.75 0 50 2000;
#X obj 191 297 vline~;
#X obj 157 312 *~;
#X msg 191 274 1 1000 \, 0 2500 1000;
#X obj 157 345 rr_efx~ 10 2 7.5 95;
#X text 308 344 Efx needs 4 arguments (or 4 inlets values) [0-100]:
1st is index of modulation or timbre \; 2nd is frequency of cycles
\; 3rd is depth of cycles \; 4th is delay feedback \;;
#X obj 30 111 rr_pulsa 1 4, f 13;
#X obj 30 379 rr_echo~ e1 1000 0.5;
#X msg 63 274 1 50 \, 0 50 500;
#X obj 105 205 + 36;
#X obj 30 251 rr_wshaper~ 0 0.05 0.1 0.25 0 50 3000;
#X obj 30 205 + 60;
#X obj 30 345 rr_efx~ 25 1.5 20 85;
#X connect 2 0 3 0;
#X connect 2 1 3 1;
#X connect 4 0 3 2;
#X connect 9 0 2 1;
#X connect 9 0 2 0;
#X connect 10 0 32 0;
#X connect 11 0 27 0;
#X connect 12 0 13 0;
#X connect 15 0 31 0;
#X connect 15 1 29 0;
#X connect 17 0 18 1;
#X connect 18 0 33 0;
#X connect 19 0 30 0;
#X connect 20 0 21 0;
#X connect 20 1 24 0;
#X connect 21 0 23 0;
#X connect 22 0 23 1;
#X connect 23 0 25 0;
#X connect 24 0 22 0;
#X connect 25 0 28 0;
#X connect 27 0 10 0;
#X connect 27 1 19 0;
#X connect 28 0 2 0;
#X connect 28 0 2 1;
#X connect 28 1 9 0;
#X connect 29 0 17 0;
#X connect 30 0 20 0;
#X connect 31 0 18 0;
#X connect 32 0 15 0;
#X connect 33 0 28 0;
