#N canvas 517 125 767 637 10;
#X obj 8 17 cnv 15 680 40 empty empty Generative_series 20 12 0 14
-233017 -66577 0;
#X obj 303 21 cnv 15 380 40 empty empty ABS:rr_patternd 20 20 0 24
-128992 -262144 0;
#X obj 30 532 rr_record~;
#X msg 193 506 rec01.wav;
#X text 309 550 You can record your performance. Put the name. It show
passing seconds while recording. Bang to reset.;
#X obj 30 92 tgl 15 0 empty empty empty 17 7 0 10 -262144 -1 -1 0 1
;
#X obj 142 390 rev1~;
#X floatatom 180 390 5 0 0 0 - - -;
#X floatatom 204 367 5 0 0 0 - - -;
#X text 309 460 1st toggle turn ON/OFF your Dsp. 2nd toggle visualize
the wave sound. Stereo spatialization and volume sliders.;
#X obj 29 422 rr_XOUTdac~;
#X obj 142 367 hip~ 1000;
#X msg 30 257 next \$1;
#X text 308 94 Pulsa needs 2 arguments: 1st how many pulses every 2nd
argument seconds (in 2nd inlet too).;
#X floatatom 30 211 5 0 0 0 - - -;
#X obj 30 163 rr_patternd 2 8 65 36;
#X obj 30 117 rr_pulsa 6 1;
#X floatatom 165 163 5 0 0 0 - - -;
#X obj 30 140 t b b, f 11;
#X msg 93 257 next \$1;
#X floatatom 93 211 5 0 0 0 - - -;
#X floatatom 228 187 5 0 0 0 - - -;
#X obj 30 303 *~ 0.5;
#X obj 93 333 *~ 0.5;
#X obj 93 303 clone 8 rr_tone~ 150 4;
#X obj 93 234 + 30;
#X obj 93 187 rr_patternd 1 4 65 96;
#X obj 30 234 + 30;
#X obj 30 280 clone 8 rr_tone~ 1000 3;
#X obj 30 350 mix 0.25;
#X text 309 187 Patternd needs 4 arguments: 1st is bangs in divider
(how many bangs in to have a bang out) \; 2nd is sequence repeater
\; 3rd is probability (1-100) to return a value \; 4th is range of
returned values. A value as seed in 2nd inlet to have new sequence.
You can use it in melodic or rythmic mode.;
#X connect 3 0 2 2;
#X connect 5 0 16 0;
#X connect 6 0 10 1;
#X connect 7 0 6 1;
#X connect 8 0 11 1;
#X connect 10 0 2 0;
#X connect 10 1 2 1;
#X connect 11 0 6 0;
#X connect 12 0 28 0;
#X connect 14 0 27 0;
#X connect 15 0 14 0;
#X connect 16 0 18 0;
#X connect 17 0 15 1;
#X connect 18 0 15 0;
#X connect 18 1 26 0;
#X connect 19 0 24 0;
#X connect 20 0 25 0;
#X connect 21 0 26 1;
#X connect 22 0 29 0;
#X connect 23 0 29 1;
#X connect 24 0 23 0;
#X connect 25 0 19 0;
#X connect 26 0 20 0;
#X connect 27 0 12 0;
#X connect 28 0 22 0;
#X connect 29 0 10 0;
#X connect 29 0 11 0;
#X connect 29 0 10 1;
