#N canvas 539 116 736 637 10;
#X obj 8 17 cnv 15 680 40 empty empty Generative_series 20 12 0 14
-233017 -66577 0;
#X obj 303 21 cnv 15 380 40 empty empty ABS:rr_blwd~ 20 20 0 24 -128992
-262144 0;
#X obj 29 432 rr_OUTdac~;
#X obj 30 542 rr_record~;
#X msg 193 516 rec01.wav;
#X text 309 485 1st toggle turn ON/OFF your Dsp. 2nd toggle visualize
the wave sound. Slide is for volume.;
#X text 309 550 You can record your performance. Put the name. It show
passing seconds while recording. Bang to reset.;
#X obj 30 153 rr_play;
#X obj 30 91 tgl 15 0 empty empty empty 17 7 0 10 -262144 -1 -1 0 1
;
#X obj 188 91 bng 15 250 50 0 empty empty empty 17 7 0 10 -262144 -1
-1;
#X obj 188 111 s sync;
#X text 308 94 HOW TO: Use pulsa to define how much times in seconds
you choose bang occures.;
#X obj 30 111 rr_pulsa 3 1, f 18;
#X obj 135 137 rr_trga 12 0 1 1;
#X obj 143 379 hip~ 150;
#X obj 143 402 rev1~;
#X floatatom 182 402 5 0 0 0 - - -;
#X msg 88 266 all \$1;
#X obj 135 162 random 4;
#X msg 30 266 all \$1;
#X obj 30 226 + 50;
#X msg 147 266 all \$1;
#X obj 147 196 * 2;
#X obj 30 362 *~ 0.25;
#X obj 30 292 clone 4 rr_blwd~ 0 5;
#X text 308 274 Blwd needs 3 arguments and returns a band limited sound
with detuning \; 1st is clone instance \; 2nd is band limited wave
type (sine/sqr/saw/tri) \; 3rd is max detuning freq.;
#X connect 2 0 3 0;
#X connect 2 1 3 1;
#X connect 4 0 3 2;
#X connect 7 0 20 0;
#X connect 8 0 12 0;
#X connect 9 0 10 0;
#X connect 12 0 7 0;
#X connect 12 1 13 0;
#X connect 13 0 7 1;
#X connect 13 0 18 0;
#X connect 14 0 15 0;
#X connect 15 0 2 1;
#X connect 15 0 2 0;
#X connect 16 0 15 1;
#X connect 17 0 24 1;
#X connect 18 0 17 0;
#X connect 18 0 22 0;
#X connect 19 0 24 0;
#X connect 20 0 19 0;
#X connect 21 0 24 2;
#X connect 22 0 21 0;
#X connect 23 0 2 0;
#X connect 23 0 14 0;
#X connect 24 0 23 0;
