#N canvas 539 116 736 637 10;
#X obj 8 17 cnv 15 680 40 empty empty Generative_series 20 12 0 14
-233017 -66577 0;
#X obj 303 21 cnv 15 380 40 empty empty ABS:rr_rovers~/rr_runders~
20 20 0 24 -128992 -262144 0;
#X obj 29 432 rr_OUTdac~;
#X obj 30 542 rr_record~;
#X msg 193 516 rec01.wav;
#X text 309 485 1st toggle turn ON/OFF your Dsp. 2nd toggle visualize
the wave sound. Slide is for volume.;
#X text 309 550 You can record your performance. Put the name. It show
passing seconds while recording. Bang to reset.;
#X text 308 134 Choose how many elements in your sequence [num] then
[set].You can click [set] again for a new sequence. You can bang in
2nd inlet to [set]. 3rd inlet (2-6) how many repetitions of sequence
to bang out in 2nd outlet.;
#X obj 30 153 rr_play;
#X obj 30 91 tgl 15 0 empty empty empty 17 7 0 10 -262144 -1 -1 0 1
;
#X obj 159 432 bng 15 250 50 0 empty empty empty 17 7 0 10 -262144
-1 -1;
#X obj 159 452 s sync;
#X text 308 94 HOW TO: Use pulsa to define how much times in seconds
you choose bang occures.;
#X obj 153 137 rr_trga 12 0 1 1;
#X obj 142 391 rev1~;
#X floatatom 181 391 5 0 0 0 - - -;
#X msg 30 264 all \$1;
#X obj 30 218 t f b, f 6;
#X obj 30 311 *~;
#X obj 142 368 hip~ 500;
#X obj 153 288 s new;
#X obj 30 351 *~ 0.25;
#X obj 30 241 + 50;
#X obj 30 111 rr_pulsa 1 1, f 21;
#X obj 63 311 rr_adsr~ 1 0.75 15 30 500 500 3;
#X obj 30 288 clone 3 rr_rovers~;
#X obj 92 335 *~ 0.25;
#X msg 93 242 next \$1;
#X obj 93 264 clone 4 rr_runders~;
#X text 309 295 Rovers/runders need an argument: how many overtones
in sound. It returns a random amplitude and detuning for single overtone/undertone.
You can send an argument called [new] to have a new sound.;
#X connect 2 0 3 0;
#X connect 2 1 3 1;
#X connect 4 0 3 2;
#X connect 8 0 17 0;
#X connect 9 0 23 0;
#X connect 10 0 11 0;
#X connect 13 0 8 1;
#X connect 13 0 20 0;
#X connect 14 0 2 1;
#X connect 14 0 2 0;
#X connect 15 0 14 1;
#X connect 16 0 25 0;
#X connect 17 0 22 0;
#X connect 17 1 24 0;
#X connect 18 0 21 0;
#X connect 19 0 14 0;
#X connect 21 0 2 0;
#X connect 21 0 2 1;
#X connect 21 0 19 0;
#X connect 22 0 16 0;
#X connect 22 0 27 0;
#X connect 23 0 8 0;
#X connect 23 1 13 0;
#X connect 24 0 18 1;
#X connect 25 0 18 0;
#X connect 26 0 21 0;
#X connect 27 0 28 0;
#X connect 28 0 26 0;
