#N canvas 20 116 706 637 10;
#X obj 8 17 cnv 15 680 40 empty empty Generative_series 20 12 0 14
-233017 -66577 0;
#X obj 303 21 cnv 15 380 40 empty empty ABS:rr_sefra+ 20 20 0 24 -128992
-262144 0;
#X obj 29 428 rr_OUTdac~;
#X obj 30 538 rr_record~;
#X msg 193 512 rec01.wav;
#X text 309 460 1st toggle turn ON/OFF your Dsp. 2nd toggle visualize
the wave sound. Slide is for volume.;
#X text 309 550 You can record your performance. Put the name. It show
passing seconds while recording. Bang to reset.;
#X obj 62 82 tgl 15 0 empty empty empty 17 7 0 10 -262144 -1 -1 0 1
;
#X obj 85 402 rev1~;
#X floatatom 123 402 5 0 0 0 - - -;
#X msg 30 313 next \$1;
#X obj 158 430 bng 15 250 50 0 empty empty empty 17 7 0 10 -262144
-1 -1;
#X obj 158 450 s sync;
#X obj 30 362 *~ 0.15;
#X obj 85 379 hip~ 500;
#X obj 30 288 rr_mappa+ 7 12 0 0;
#X msg 225 95 0 2 4 2;
#X text 173 141 double time;
#X text 197 182 phase shift;
#X obj 30 337 clone 16 rr_tone~ 500 4;
#X text 308 128 Sefra+ needs a toggle or 0-1 msg to start \, a list
as sequence to repeat and 4 arguments \; 1st is time multiple (or 2nd
inlet) \; 2nd is time duration in ms (or 3rd inlet) \; 3rd is increase/decrease
time in percent \; 4th is offset. \; 1st outlet returns sequence \;
2nd outlet returns a bang for every repetition.;
#X obj 30 111 rr_sefra+ 1 250 0 0;
#X obj 44 142 rr_sefra+ 2 250 0 -7;
#X obj 62 181 rr_sefra+ 1 250 10 7;
#X obj 108 229 rr_sefra+ 4 1000 0 0;
#X floatatom 90 82 5 0 0 0 - - -;
#X connect 2 0 3 0;
#X connect 2 1 3 1;
#X connect 4 0 3 2;
#X connect 7 0 21 0;
#X connect 7 0 22 0;
#X connect 7 0 23 0;
#X connect 7 0 24 0;
#X connect 8 0 2 0;
#X connect 8 0 2 1;
#X connect 9 0 8 1;
#X connect 10 0 19 0;
#X connect 11 0 12 0;
#X connect 13 0 2 0;
#X connect 13 0 8 0;
#X connect 13 0 14 0;
#X connect 14 0 8 0;
#X connect 15 0 10 0;
#X connect 16 0 21 3;
#X connect 16 0 22 3;
#X connect 16 0 23 3;
#X connect 16 0 24 3;
#X connect 19 0 13 0;
#X connect 21 0 15 0;
#X connect 22 0 15 0;
#X connect 23 0 15 0;
#X connect 24 0 15 3;
#X connect 25 0 23 0;
