#N canvas 539 116 736 637 10;
#X obj 8 17 cnv 15 680 40 empty empty Generative_series 20 12 0 14
-233017 -66577 0;
#X obj 303 21 cnv 15 380 40 empty empty ABS:rr_ratio 20 20 0 24 -128992
-262144 0;
#X obj 29 459 rr_OUTdac~;
#X obj 30 569 rr_record~;
#X msg 193 543 rec01.wav;
#X text 309 460 1st toggle turn ON/OFF your Dsp. 2nd toggle visualize
the wave sound. Slide is for volume.;
#X text 309 564 You can record your performance. Put the name. It show
passing seconds while recording. Bang to reset.;
#X obj 30 103 rr_density;
#X text 309 364 Tone~ generate a tone with envelope: Midi value (0-127)
in 1st inlet \, duration in ms 2nd inlet \, power for asc/desc (1-8)
in 3rd inlet.;
#X text 308 94 HOW TO: Use density to define how much times in seconds
you choose bang occures.;
#X text 309 410 Echo~ repeats sound (e1 \, e2 \, ...) every ms you
put as parameter and fade out. You can put multiples in sequence. You
can put 3rd attribute from 0-1 for feedback.;
#X msg 30 344 next \$1;
#X obj 30 168 t b b;
#X obj 63 389 lop~ 600;
#X obj 30 389 /~ 4;
#X obj 30 207 rr_ratio;
#X obj 117 184 rr_rjumps;
#X obj 30 366 clone 6 rr_tone~ 2000 2;
#X obj 30 414 rr_echo~ e1 1500 0.5;
#X obj 143 436 *~ 0.5;
#X msg 210 156 0 2 4 5 9;
#X text 309 254 In ratio: 2nd inlet is root tone. It produces three
tones using ratio you select (metal ratios);
#X text 309 150 In rjumps: put in 3nd inlet a list (your scale/sequence)
\; [oct] select how many octaves can displaces \; [off] offset number
(may be root of sequence] \;;
#X connect 2 0 3 0;
#X connect 2 1 3 1;
#X connect 4 0 3 2;
#X connect 7 0 12 0;
#X connect 11 0 17 0;
#X connect 12 0 15 0;
#X connect 12 1 16 0;
#X connect 13 0 18 0;
#X connect 14 0 13 0;
#X connect 15 0 11 0;
#X connect 15 1 11 0;
#X connect 15 2 11 0;
#X connect 16 0 15 1;
#X connect 17 0 14 0;
#X connect 18 0 2 0;
#X connect 18 0 2 1;
#X connect 18 1 19 0;
#X connect 19 0 2 1;
#X connect 19 0 2 0;
#X connect 20 0 16 2;
