#N canvas 539 116 736 637 10;
#X obj 8 17 cnv 15 680 40 empty empty Generative_series 20 12 0 14
-233017 -66577 0;
#X obj 303 21 cnv 15 380 40 empty empty ABS:rr_choratio 20 20 0 24
-128992 -262144 0;
#X obj 29 436 rr_OUTdac~;
#X obj 30 546 rr_record~;
#X msg 193 520 rec01.wav;
#X text 309 540 1st toggle turn ON/OFF your Dsp. 2nd toggle visualize
the wave sound. Slide is for volume.;
#X text 309 580 You can record your performance. Put the name. It show
passing seconds while recording. Bang to reset., f 56;
#X text 309 485 Echo~ repeats sound (e1 \, e2 \, ...) every ms you
put as parameter and fade out. You can put multiples in sequence. You
can put 3rd attribute from 0-1 for feedback.;
#X msg 30 299 next \$1;
#X text 309 358 With fm you can generate a frequency modulated sound
\; 1st is carrier (0-127) \; 2nd is ratio for modulator (0-10) \; 3rd
modulation index (0-20) \; 4th timbre (0-1) \; 5th mix (0-1) \; 6th
attack in ms \; 7th release in ms \; 8th decay (1-8)., f 58;
#X obj 30 255 rr_allscales;
#X text 309 241 In allscales: put in 2nd inlet a progressive series
(list) of intervals which represents the elements of the scale to use
(mod 12).;
#X obj 30 75 tgl 15 0 empty empty empty 17 7 0 10 -262144 -1 -1 0 1
;
#X obj 30 232 + 35;
#X obj 141 413 *~ 0.5;
#X obj 30 346 /~ 2;
#X text 308 76 HOW TO: Use pulsa to define how much times in seconds
you choose bang occures.;
#X msg 134 239 0 2 3 5 7 9 10;
#X obj 30 164 rr_choratio 0 1.5 1;
#X floatatom 104 138 5 0 0 0 - - -;
#X obj 141 391 lop~ 500;
#X obj 30 369 rr_echo~ e1 500 0.5;
#X obj 30 96 rr_pulsa 2 3;
#X obj 30 322 clone 16 rr_fm~ 1 0.5 0.15 0.95 20 2500 3;
#X obj 49 401 rr_wha~ 3 10;
#X text 309 151 Choratio needs 3 arguments/inlets: 1st is init values
of sequence \; 2nd is ration of intervals in seq \; 3rd is portion
of scale.;
#X connect 2 0 3 0;
#X connect 2 1 3 1;
#X connect 4 0 3 2;
#X connect 8 0 23 0;
#X connect 10 0 8 0;
#X connect 12 0 22 0;
#X connect 13 0 10 0;
#X connect 14 0 2 1;
#X connect 15 0 21 0;
#X connect 17 0 10 1;
#X connect 18 0 13 0;
#X connect 19 0 18 2;
#X connect 20 0 14 0;
#X connect 21 0 2 0;
#X connect 21 0 24 0;
#X connect 21 1 20 0;
#X connect 22 0 18 0;
#X connect 23 0 15 0;
#X connect 24 0 2 1;
#X connect 24 0 2 0;
