#N canvas 539 116 736 637 10;
#X obj 8 17 cnv 15 680 40 empty empty Generative_series 20 12 0 14
-233017 -66577 0;
#X obj 303 21 cnv 15 380 40 empty empty ABS:rr_res 20 20 0 24 -128992
-262144 0;
#X obj 29 422 rr_OUTdac~;
#X obj 30 532 rr_record~;
#X msg 193 506 rec01.wav;
#X text 309 470 1st toggle turn ON/OFF your Dsp. 2nd toggle visualize
the wave sound. Slide is for volume.;
#X text 309 550 You can record your performance. Put the name. It show
passing seconds while recording. Bang to reset.;
#X text 309 397 Echo~ repeats sound (e1 \, e2 \, ...) every ms you
put as parameter and fade out. You can put multiples in sequence. You
can put 3rd attribute from 0-1 for feedback.;
#X text 308 154 Choose how many elements in your sequence [num] then
[set].You can click [set] again for a new sequence. You can bang in
2nd inlet to [set]. 3rd inlet (2-6) how many repetitions of sequence
to bang out in 2nd outlet.;
#X obj 141 390 *~ 0.25;
#X obj 30 159 rr_play;
#X obj 30 368 rr_echo~ e1 500 0.5;
#X obj 30 111 tgl 15 0 empty empty empty 17 7 0 10 -262144 -1 -1 0
1;
#X obj 30 252 t b f;
#X obj 76 268 mtof;
#X obj 123 187 rr_trga 16 0 1 1;
#X obj 121 111 bng 15 250 50 0 empty empty empty 17 7 0 10 -262144
-1 -1;
#X obj 121 131 s sync;
#X text 308 94 HOW TO: Use pulsa to define how much times in seconds
you choose bang occures.;
#X text 308 218 Cycle1 (as circle) needs five arguments: 1st for clone
\; 2nd is for how many bangs in to have a bang out (a counter) \; 3rd
is for interval to repeat on every cycle \; 4rt in how many octaves
\; 5th is root tone to begin.;
#X obj 30 229 + 60;
#X obj 99 213 rr_cycle1 0 4 7 2 60;
#X obj 30 131 rr_pulsa 7 1;
#X obj 30 318 rr_res~ 1000 300;
#X text 309 336 Res~ need 2 arguments (2nd/3rd inlets is the same):
1st for resonating frequence \; 2nd for Q value.;
#X connect 2 0 3 0;
#X connect 2 1 3 1;
#X connect 4 0 3 2;
#X connect 9 0 2 1;
#X connect 9 0 2 0;
#X connect 10 0 20 0;
#X connect 11 0 2 0;
#X connect 11 0 2 1;
#X connect 11 1 9 0;
#X connect 12 0 22 0;
#X connect 13 0 23 0;
#X connect 13 1 14 0;
#X connect 14 0 23 1;
#X connect 15 0 10 1;
#X connect 16 0 17 0;
#X connect 20 0 13 0;
#X connect 21 0 20 1;
#X connect 22 0 10 0;
#X connect 22 1 15 0;
#X connect 22 1 21 0;
#X connect 23 0 11 0;
