#N canvas 539 116 736 637 10;
#X obj 8 17 cnv 15 680 40 empty empty Generative_series 20 12 0 14
-233017 -66577 0;
#X obj 303 21 cnv 15 380 40 empty empty ABS:rr_speculum 20 20 0 24
-128992 -262144 0;
#X obj 29 442 rr_OUTdac~;
#X obj 30 552 rr_record~;
#X msg 193 526 rec01.wav;
#X text 309 460 1st toggle turn ON/OFF your Dsp. 2nd toggle visualize
the wave sound. Slide is for volume.;
#X text 309 550 You can record your performance. Put the name. It show
passing seconds while recording. Bang to reset.;
#X obj 30 103 rr_density;
#X text 309 364 Tone~ generate a tone with envelope: Midi value (0-127)
in 1st inlet \, duration in ms 2nd inlet \, power for asc/desc (1-8)
in 3rd inlet.;
#X obj 30 392 rr_echo~ e1 500 0.5;
#X text 309 410 Echo~ repeats sound (e1 \, e2 \, ...) every ms you
put as parameter and fade out. You can put multiples in sequence. You
can put 3rd attribute from 0-1 for feedback.;
#X obj 30 367 rr_tone~ 0 1000 3;
#X obj 141 417 *~ 0.25;
#X obj 30 266 rr_speculum;
#X obj 30 168 t b b;
#X obj 57 213 + 0.5;
#X obj 57 190 random 3;
#X obj 130 184 rr_circle;
#X text 308 94 HOW TO: Use density to define how much times (2nd inlet)
in seconds you choose bang occures.;
#X text 362 143 In circle: [div] how many bangs in to have a bang out
(a counter) \; [int] defines interval to next number out \; [oct] in
how many octaves can displaces \; [off] offset number (may be root
of sequence] \; [set] reset. Es: have circle of fifth with 7 in int.
2nd inlet is for [div] and 3rd for [int]., f 50;
#X text 309 284 In speculum put root tone in 2nd inlet and a seed in
3rd. You can have a sequence probabilistic distribute on 12 tones.
Same seed makes same sequence.;
#X connect 2 0 3 0;
#X connect 2 1 3 1;
#X connect 4 0 3 2;
#X connect 7 0 14 0;
#X connect 9 0 2 0;
#X connect 9 0 2 1;
#X connect 9 1 12 0;
#X connect 11 0 9 0;
#X connect 12 0 2 1;
#X connect 13 0 11 0;
#X connect 14 0 13 0;
#X connect 14 1 16 0;
#X connect 14 1 17 0;
#X connect 15 0 7 1;
#X connect 16 0 15 0;
#X connect 17 0 13 1;
