#N canvas 539 116 736 637 10;
#X obj 8 17 cnv 15 680 40 empty empty Generative_series 20 12 0 14
-233017 -66577 0;
#X obj 303 21 cnv 15 380 40 empty empty ABS:rr_wtab4+~ 20 20 0 24 -128992
-262144 0;
#X obj 29 442 rr_OUTdac~;
#X obj 30 552 rr_record~;
#X msg 193 526 rec01.wav;
#X text 309 485 1st toggle turn ON/OFF your Dsp. 2nd toggle visualize
the wave sound. Slide is for volume.;
#X text 309 550 You can record your performance. Put the name. It show
passing seconds while recording. Bang to reset.;
#X obj 31 140 rr_play;
#X obj 31 81 tgl 15 0 empty empty empty 17 7 0 10 -262144 -1 -1 0 1
;
#X obj 189 81 bng 15 250 50 0 empty empty empty 17 7 0 10 -262144 -1
-1;
#X obj 189 101 s sync;
#X text 308 94 HOW TO: Use pulsa to define how much times in seconds
you choose bang occures.;
#X obj 136 124 rr_trga 12 0 1 1;
#X obj 143 412 rev1~;
#X floatatom 182 412 5 0 0 0 - - -;
#X obj 31 205 + 50;
#X obj 30 372 *~ 0.25;
#X obj 31 101 rr_pulsa 1 1, f 18;
#X obj 31 229 t f b, f 10;
#X obj 30 348 *~, f 18;
#X floatatom 174 246 5 0 0 0 - - -;
#X obj 139 195 bng 15 250 50 0 empty empty empty 17 7 0 10 -262144
-1 -1;
#X floatatom 139 169 5 0 0 0 - - -;
#X floatatom 139 219 5 0 0 0 - - -;
#X obj 143 389 hip~ 300;
#X text 308 274 Wtab4+ needs 3 arguments \; 1st instance for cloning
\; 2nd are Hz of basic wave-table (better 20:50) or 2nd inlet too \;
3rd to change type of wave (0-sin \, 1-sqr \, 2-saw \, 3-tri) or in
4rd inlet too \; A bang in 3rd inlet to have new wave \; 1st outlet
returns wave-table of pitch in 1st inlet while a bang with value in
ms in 2nd inlet return wave-table as an envelope ms long.;
#X obj 31 266 rr_wtab4+~ 0 25 0;
#X obj 134 245 f 900;
#X connect 2 0 3 0;
#X connect 2 1 3 1;
#X connect 4 0 3 2;
#X connect 7 0 15 0;
#X connect 8 0 17 0;
#X connect 9 0 10 0;
#X connect 12 0 7 1;
#X connect 13 0 2 1;
#X connect 13 0 2 0;
#X connect 14 0 13 1;
#X connect 15 0 18 0;
#X connect 16 0 2 0;
#X connect 16 0 24 0;
#X connect 17 0 7 0;
#X connect 17 1 12 0;
#X connect 18 0 26 0;
#X connect 18 1 27 0;
#X connect 19 0 16 0;
#X connect 20 0 27 1;
#X connect 21 0 26 2;
#X connect 22 0 26 1;
#X connect 23 0 26 3;
#X connect 24 0 13 0;
#X connect 26 0 19 0;
#X connect 26 1 19 1;
#X connect 27 0 26 4;
