#N canvas 308 125 767 637 10;
#X obj 8 17 cnv 15 680 40 empty empty Generative_series 20 12 0 14
-233017 -66577 0;
#X obj 303 21 cnv 15 380 40 empty empty ABS:rr_trint 20 20 0 24 -128992
-262144 0;
#X obj 29 422 rr_OUTdac~;
#X obj 30 532 rr_record~;
#X msg 193 506 rec01.wav;
#X text 309 490 1st toggle turn ON/OFF your Dsp. 2nd toggle visualize
the wave sound. Slide is for volume.;
#X text 309 550 You can record your performance. Put the name. It show
passing seconds while recording. Bang to reset.;
#X text 309 440 Echo~ repeats sound (e1 \, e2 \, ...) every ms you
put as parameter and fade out. You can put multiples in sequence. You
can put 3rd attribute from 0-1 for feedback.;
#X text 308 94 HOW TO: Use pulsa to define how much times in seconds
you choose bang occures.;
#X obj 30 87 tgl 15 0 empty empty empty 17 7 0 10 -262144 -1 -1 0 1
;
#X obj 30 351 rr_echo~ e1 500 0.5;
#X msg 30 302 next \$1;
#X msg 99 256 0 2 4 5 7 9 11;
#X obj 30 279 rr_allscales;
#X obj 141 375 lop~ 500;
#X text 309 313 With fm you can generate a frequency modulated sound
\; 1st is carrier (0-127) \; 2nd is ratio for modulator (0-10) \; 3rd
modulation index (0-20) \; 4th timbre (0-1) \; 5th mix (0-1) \; 6th
attack in ms \; 7th release in ms \; 8th decay (1-8)., f 58;
#X obj 30 108 rr_pulsa 3 1;
#X obj 30 151 rr_trint 40;
#X obj 99 187 rr_trint 44;
#X text 308 184 Trint needs an argument (or value in 2nd inlet) as
an offset \; It returns larger intervals on longer delay (closer tones
more rapidly than farest ones).;
#X obj 30 325 clone 8 rr_fm~ 0.5 2.25 0.75 0.85 15 2000 3;
#X connect 2 0 3 0;
#X connect 2 1 3 1;
#X connect 4 0 3 2;
#X connect 9 0 16 0;
#X connect 10 0 2 0;
#X connect 10 0 2 1;
#X connect 10 1 14 0;
#X connect 11 0 20 0;
#X connect 12 0 13 1;
#X connect 13 0 11 0;
#X connect 14 0 2 1;
#X connect 14 0 2 0;
#X connect 16 0 17 0;
#X connect 16 1 18 0;
#X connect 17 0 13 0;
#X connect 18 0 13 0;
#X connect 20 0 10 0;
