#N canvas 593 116 767 637 10;
#X obj 8 17 cnv 15 680 40 empty empty Generative_series 20 12 0 14
-233017 -66577 0;
#X obj 303 21 cnv 15 380 40 empty empty ABS:rr_fragments 20 20 0 24
-128992 -262144 0;
#X obj 29 418 rr_OUTdac~;
#X obj 30 528 rr_record~;
#X msg 193 502 rec01.wav;
#X text 309 460 1st toggle turn ON/OFF your Dsp. 2nd toggle visualize
the wave sound. Slide is for volume.;
#X text 309 550 You can record your performance. Put the name. It show
passing seconds while recording. Bang to reset.;
#X text 308 94 HOW TO: Use pulsa to define how much times in seconds
you choose bang occures.;
#X obj 30 86 tgl 15 0 empty empty empty 17 7 0 10 -262144 -1 -1 0 1
;
#X obj 85 392 rev1~;
#X floatatom 123 392 5 0 0 0 - - -;
#X obj 158 420 bng 15 250 50 0 empty empty empty 17 7 0 10 -262144
-1 -1;
#X obj 158 440 s sync;
#X obj 30 352 *~ 0.15;
#X msg 30 302 next \$1;
#X obj 85 369 hip~ 1000;
#X floatatom 141 197 5 0 0 0 - - -;
#X floatatom 70 189 5 0 0 0 - - -;
#X floatatom 30 189 5 0 0 0 - - -;
#X obj 30 327 clone 16 rr_tone~ 1000 2;
#X floatatom 30 255 5 0 0 0 - - -;
#X obj 30 110 rr_pulsa 1 4, f 19;
#X obj 30 212 rr_fragments 2;
#X text 308 208 Fragments needs an argument (2-8) \; 1st is scale grade
(0-11) \; 2nd on-off (1-0) \; 3rd a value as seed to have new pattern.
;
#X obj 30 278 rr_mappa+ 7 12 0 0;
#X obj 30 146 rr_circula 1 5 6;
#X obj 141 146 rr_circula 4 2 5;
#X connect 2 0 3 0;
#X connect 2 1 3 1;
#X connect 4 0 3 2;
#X connect 8 0 21 0;
#X connect 9 0 2 0;
#X connect 9 0 2 1;
#X connect 10 0 9 1;
#X connect 11 0 12 0;
#X connect 13 0 2 0;
#X connect 13 0 9 0;
#X connect 13 0 15 0;
#X connect 14 0 19 0;
#X connect 15 0 9 0;
#X connect 16 0 22 2;
#X connect 17 0 22 1;
#X connect 18 0 22 0;
#X connect 19 0 13 0;
#X connect 20 0 24 0;
#X connect 21 0 25 0;
#X connect 21 1 26 0;
#X connect 22 0 20 0;
#X connect 22 1 20 0;
#X connect 22 2 20 0;
#X connect 22 3 20 0;
#X connect 24 0 14 0;
#X connect 25 0 18 0;
#X connect 26 0 16 0;
