#N canvas 624 125 736 637 10;
#X obj 8 17 cnv 15 680 40 empty empty Generative_series 20 12 0 14
-233017 -66577 0;
#X obj 303 21 cnv 15 380 40 empty empty ABS:rr_mediant 20 20 0 24 -128992
-262144 0;
#X obj 29 459 rr_OUTdac~;
#X obj 30 569 rr_record~;
#X msg 193 543 rec01.wav;
#X text 309 460 1st toggle turn ON/OFF your Dsp. 2nd toggle visualize
the wave sound. Slide is for volume.;
#X text 309 564 You can record your performance. Put the name. It show
passing seconds while recording. Bang to reset.;
#X obj 30 103 rr_density;
#X text 309 364 Tone~ generate a tone with envelope: Midi value (0-127)
in 1st inlet \, duration in ms 2nd inlet \, power for asc/desc (1-8)
in 3rd inlet.;
#X text 308 94 HOW TO: Use density to define how much times in seconds
you choose bang occures.;
#X text 309 410 Echo~ repeats sound (e1 \, e2 \, ...) every ms you
put as parameter and fade out. You can put multiples in sequence. You
can put 3rd attribute from 0-1 for feedback.;
#X msg 30 344 next \$1;
#X obj 30 389 /~ 4;
#X text 309 150 In rjumps: put in 2nd inlet a list (your scale/sequence)
\; [oct] select how many octaves can displaces \; [off] offset number
(may be root of sequence] \;;
#X obj 30 185 rr_mediant;
#X obj 135 186 rr_rjumps;
#X msg 181 155 0 3 6 9 12;
#X obj 30 414 rr_echo~ e1 500 0.2;
#X obj 143 436 *~ 0.2;
#X obj 30 366 clone 6 rr_tone~ 2000 2;
#X obj 63 389 lop~ 1000;
#X text 309 234 In mediant: 1st inlet is form root tone 2nd other changes
parameters in order: 1st select makes from inlet tone major chord up/down
inversion or minor chord up/down inversion \; [d] define how many seconds
delay for mediant chord reply \; The others mixs thirds mayor or minor
\, up or down movements from previous chord and move a octave up. It
produces so called mediant chords.;
#X connect 2 0 3 0;
#X connect 2 1 3 1;
#X connect 4 0 3 2;
#X connect 7 0 15 0;
#X connect 11 0 19 0;
#X connect 12 0 20 0;
#X connect 14 0 11 0;
#X connect 14 1 11 0;
#X connect 14 2 11 0;
#X connect 14 3 11 0;
#X connect 15 0 14 0;
#X connect 16 0 15 1;
#X connect 17 0 2 0;
#X connect 17 0 2 1;
#X connect 17 1 18 0;
#X connect 18 0 2 1;
#X connect 19 0 12 0;
#X connect 20 0 17 0;
