#N canvas 539 116 736 637 10;
#X obj 8 17 cnv 15 680 40 empty empty Generative_series 20 12 0 14
-233017 -66577 0;
#X obj 303 21 cnv 15 380 40 empty empty ABS:rr_fmr~ 20 20 0 24 -128992
-262144 0;
#X obj 29 432 rr_OUTdac~;
#X obj 30 542 rr_record~;
#X msg 193 516 rec01.wav;
#X text 309 485 1st toggle turn ON/OFF your Dsp. 2nd toggle visualize
the wave sound. Slide is for volume.;
#X text 309 550 You can record your performance. Put the name. It show
passing seconds while recording. Bang to reset.;
#X text 309 412 Echo~ repeats sound (e1 \, e2 \, ...) every ms you
put as parameter and fade out. You can put multiples in sequence. You
can put 3rd attribute from 0-1 for feedback.;
#X text 308 134 Choose how many elements in your sequence [num] then
[set].You can click [set] again for a new sequence. You can bang in
2nd inlet to [set]. 3rd inlet (2-6) how many repetitions of sequence
to bang out in 2nd outlet.;
#X obj 141 401 *~ 0.25;
#X obj 30 153 rr_play;
#X obj 30 91 tgl 15 0 empty empty empty 17 7 0 10 -262144 -1 -1 0 1
;
#X obj 188 91 bng 15 250 50 0 empty empty empty 17 7 0 10 -262144 -1
-1;
#X obj 188 111 s sync;
#X text 308 94 HOW TO: Use pulsa to define how much times in seconds
you choose bang occures.;
#X obj 30 111 rr_pulsa 3 1, f 18;
#X obj 30 378 rr_echo~ e1 500 0.5;
#X obj 135 137 rr_trga 12 0 1 1;
#X msg 30 258 next \$1;
#X obj 135 174 random 1000;
#X obj 30 281 clone 8 rr_fmr~;
#X obj 135 197 s seed;
#X text 308 274 Fmr returns a random fm sound with envelop. New seed
value in 2nd inlet \, or by send message \, for new sound (same seed
same sound).;
#X obj 30 235 + 50;
#X connect 2 0 3 0;
#X connect 2 1 3 1;
#X connect 4 0 3 2;
#X connect 9 0 2 1;
#X connect 9 0 2 0;
#X connect 10 0 23 0;
#X connect 11 0 15 0;
#X connect 12 0 13 0;
#X connect 15 0 10 0;
#X connect 15 1 17 0;
#X connect 16 0 2 0;
#X connect 16 0 2 1;
#X connect 16 1 9 0;
#X connect 17 0 10 1;
#X connect 17 0 19 0;
#X connect 18 0 20 0;
#X connect 19 0 21 0;
#X connect 20 0 16 0;
#X connect 23 0 18 0;
