#N canvas 593 116 767 637 10;
#X obj 8 17 cnv 15 680 40 empty empty Generative_series 20 12 0 14
-233017 -66577 0;
#X obj 303 21 cnv 15 380 40 empty empty ABS:rr_dirt 20 20 0 24 -128992
-262144 0;
#X obj 29 422 rr_OUTdac~;
#X obj 30 532 rr_record~;
#X msg 193 506 rec01.wav;
#X text 309 460 1st toggle turn ON/OFF your Dsp. 2nd toggle visualize
the wave sound. Slide is for volume.;
#X text 309 550 You can record your performance. Put the name. It show
passing seconds while recording. Bang to reset.;
#X msg 112 274 0 2 3 5 7 9 10;
#X text 309 271 In allscales put in 2nd inlet a progressive series
(list) of intervals which represents the elements of the scale to use
(mod 12). [minor scale in example];
#X text 308 94 HOW TO: Use pulsa to define how much times in seconds
you choose bang occures.;
#X obj 30 92 tgl 15 0 empty empty empty 17 7 0 10 -262144 -1 -1 1 1
;
#X msg 30 297 next \$1;
#X obj 30 274 rr_allscales;
#X obj 158 424 bng 15 250 50 0 empty empty empty 17 7 0 10 -262144
-1 -1;
#X obj 158 444 s sync;
#X obj 30 252 + 40;
#X obj 30 113 rr_pulsa 4 1;
#X obj 30 320 clone 8 rr_tone~ 1500 3;
#X obj 30 344 *~ 0.15;
#X obj 30 136 random 10;
#X obj 30 367 rr_dirt~ 0.5;
#X text 308 354 Dirt needs an argument (0-1). It returns a dirty sound
with distortions \, clippings \, interruptions and clicks. Stereo output.
;
#X connect 2 0 3 0;
#X connect 2 1 3 1;
#X connect 4 0 3 2;
#X connect 7 0 12 1;
#X connect 10 0 16 0;
#X connect 11 0 17 0;
#X connect 12 0 11 0;
#X connect 13 0 14 0;
#X connect 15 0 12 0;
#X connect 16 0 19 0;
#X connect 17 0 18 0;
#X connect 18 0 20 0;
#X connect 19 0 15 0;
#X connect 20 0 2 0;
#X connect 20 1 2 1;
