#N canvas 593 116 767 637 10;
#X obj 8 17 cnv 15 680 40 empty empty Generative_series 20 12 0 14
-233017 -66577 0;
#X obj 303 21 cnv 15 380 40 empty empty ABS:rr_motifs 20 20 0 24 -128992
-262144 0;
#X obj 30 532 rr_record~;
#X msg 193 506 rec01.wav;
#X text 309 550 You can record your performance. Put the name. It show
passing seconds while recording. Bang to reset.;
#X msg 117 246 0 2 3 5 7 9 10;
#X text 309 279 In allscales put in 2nd inlet a progressive series
(list) of intervals which represents the elements of the scale to use
(mod 12). [minor scale in example];
#X text 308 94 HOW TO: Use pulsa to define how much times in seconds
you choose bang occures.;
#X obj 30 92 tgl 15 0 empty empty empty 17 7 0 10 -262144 -1 -1 0 1
;
#X obj 142 373 rev1~;
#X floatatom 180 373 5 0 0 0 - - -;
#X msg 30 285 next \$1;
#X obj 30 262 rr_allscales;
#X obj 30 113 rr_pulsa 1 1;
#X obj 30 194 rr_motifs;
#X floatatom 55 149 5 0 0 0 - - -;
#X obj 55 171 t b f;
#X obj 99 195 * 1;
#X floatatom 126 195 5 0 0 0 - - -;
#X floatatom 204 350 5 0 0 0 - - -;
#X text 309 460 1st toggle turn ON/OFF your Dsp. 2nd toggle visualize
the wave sound. Stereo spatialization and volume sliders.;
#X text 308 178 Motifs needs a value in 3rd inlet as seed \; a bang
in 2nd inlet generates different motifs. 1st outlet returns motif and
2nd outlet returns original motif idea that generated entire motif
(You can use it for time duration for example).;
#X obj 30 310 clone 8 rr_tone~ 500 3;
#X obj 30 333 *~ 0.25;
#X obj 29 422 rr_XOUTdac~;
#X obj 81 223 - 7;
#X obj 30 239 + 40;
#X obj 142 350 hip~ 1000;
#X connect 3 0 2 2;
#X connect 5 0 12 1;
#X connect 8 0 13 0;
#X connect 9 0 24 1;
#X connect 9 0 24 0;
#X connect 10 0 9 1;
#X connect 11 0 22 0;
#X connect 12 0 11 0;
#X connect 13 0 14 0;
#X connect 14 0 26 0;
#X connect 14 1 17 0;
#X connect 14 1 25 0;
#X connect 15 0 16 0;
#X connect 16 0 14 1;
#X connect 16 1 14 2;
#X connect 17 0 13 1;
#X connect 18 0 17 1;
#X connect 19 0 27 1;
#X connect 22 0 23 0;
#X connect 23 0 24 0;
#X connect 23 0 27 0;
#X connect 24 0 2 0;
#X connect 24 1 2 1;
#X connect 25 0 26 0;
#X connect 26 0 12 0;
#X connect 27 0 9 0;
