#N canvas 530 116 737 632 10;
#X obj 8 17 cnv 15 680 40 empty empty Generative_series 20 12 0 14
-233017 -66577 0;
#X obj 303 21 cnv 15 380 40 empty empty ABS:rr_tremo/sweep 20 20 0
24 -128992 -262144 0;
#X obj 29 422 rr_OUTdac~;
#X obj 30 532 rr_record~;
#X msg 193 506 rec01.wav;
#X text 309 485 1st toggle turn ON/OFF your Dsp. 2nd toggle visualize
the wave sound. Slide is for volume.;
#X text 309 550 You can record your performance. Put the name. It show
passing seconds while recording. Bang to reset.;
#X text 308 134 Choose how many elements in your sequence [num] then
[set].You can click [set] again for a new sequence. You can bang in
2nd inlet to [set]. 3rd inlet (2-6) how many repetitions of sequence
to bang out in 2nd outlet.;
#X obj 30 129 rr_play;
#X obj 30 81 tgl 15 0 empty empty empty 17 7 0 10 -262144 -1 -1 0 1
;
#X obj 121 81 bng 15 250 50 0 empty empty empty 17 7 0 10 -262144 -1
-1;
#X obj 121 101 s sync;
#X text 308 94 HOW TO: Use pulsa to define how much times in seconds
you choose bang occures.;
#X obj 30 195 + 60;
#X obj 81 388 rev1~;
#X floatatom 120 388 5 0 0 0 - - -;
#X msg 30 218 next \$1;
#X obj 30 101 rr_pulsa 1 1;
#X obj 141 293 rr_sweep~ 5 15 65 50;
#X obj 30 293 rr_tremo~ 7 0.25;
#X obj 81 365 lop~ 600;
#X obj 30 241 clone 4 rr_tone~ 1500 3;
#X text 309 265 Tremo needs 2 arguments: 1st is freq tremolo (max 20)
and 2nd is panning (0-1).;
#X text 309 315 Sweep needs 4 arguments: 1st is freq of sweeping \;
2nd is index/deepth of sweep \; 3rd is offset freq \; 4th is resonance
(Q).;
#X connect 2 0 3 0;
#X connect 2 1 3 1;
#X connect 4 0 3 2;
#X connect 8 0 13 0;
#X connect 9 0 17 0;
#X connect 10 0 11 0;
#X connect 13 0 16 0;
#X connect 14 0 2 1;
#X connect 14 0 2 0;
#X connect 15 0 14 1;
#X connect 16 0 21 0;
#X connect 17 0 8 0;
#X connect 18 0 2 1;
#X connect 18 0 20 0;
#X connect 19 0 2 0;
#X connect 19 0 20 0;
#X connect 20 0 14 0;
#X connect 21 0 19 0;
#X connect 21 0 18 0;
