#N canvas 539 116 736 637 10;
#X obj 8 17 cnv 15 680 40 empty empty Generative_series 20 12 0 14
-233017 -66577 0;
#X obj 303 21 cnv 15 380 40 empty empty ABS:rr_trasforma 20 20 0 24
-128992 -262144 0;
#X obj 29 448 rr_OUTdac~;
#X obj 30 558 rr_record~;
#X msg 193 532 rec01.wav;
#X text 309 510 1st toggle turn ON/OFF your Dsp. 2nd toggle visualize
the wave sound. Slide is for volume.;
#X text 309 550 You can record your performance. Put the name. It show
passing seconds while recording. Bang to reset., f 56;
#X obj 30 103 rr_density;
#X text 308 94 HOW TO: Use density to define how much times in seconds
you choose bang occures.;
#X text 309 430 Echo~ repeats sound (e1 \, e2 \, ...) every ms you
put as parameter and fade out. You can put multiples in sequence. You
can put 3rd attribute from 0-1 for feedback.;
#X obj 141 424 *~ 0.25;
#X obj 30 378 /~ 3;
#X msg 30 330 next \$1;
#X obj 30 307 rr_allscales;
#X msg 99 284 0 2 3 5 7 8 10;
#X obj 50 228 rr_trasforma 4 2 3 2 1;
#X text 309 248 In allscales: put in 2nd inlet a progressive series
(list) of intervals which represents the elements of the scale to use
(mod 12).;
#X text 309 158 Trasforma needs 5 argument: (they transforms inlet
tone \; 1st translates it \; 2nd reverses it \; 3rd reverses it on
specific interval \; 4th rotates it \; 5th repets it with delay in
sec.;
#X obj 30 283 + 35;
#X obj 30 401 rr_echo~ e1 500 0.15;
#X text 309 303 With fm you can generate a frequency modulated sound
\; 1st is carrier (0-127) \; 2nd is ratio for modulator (0-10) \; 3rd
modulation index (0-20) \; 4th timbre (0-1) \; 5th mix (0-1) \; 6th
attack in ms \; 7th release in ms \; 8th decay (1-8)., f 58;
#X obj 30 354 clone 16 rr_fm~ 2 1 0.45 0.85 10 4000 3;
#X obj 30 185 random 10;
#X connect 2 0 3 0;
#X connect 2 1 3 1;
#X connect 4 0 3 2;
#X connect 7 0 22 0;
#X connect 10 0 2 1;
#X connect 11 0 19 0;
#X connect 12 0 21 0;
#X connect 13 0 12 0;
#X connect 14 0 13 1;
#X connect 15 0 18 0;
#X connect 15 1 18 0;
#X connect 15 2 18 0;
#X connect 15 3 18 0;
#X connect 15 4 18 0;
#X connect 18 0 13 0;
#X connect 19 0 2 0;
#X connect 19 0 2 1;
#X connect 19 1 10 0;
#X connect 21 0 11 0;
#X connect 22 0 15 0;
#X connect 22 0 18 0;
