#N canvas 539 116 736 637 10;
#X obj 8 17 cnv 15 680 40 empty empty Generative_series 20 12 0 14
-233017 -66577 0;
#X obj 303 21 cnv 15 380 40 empty empty ABS:rr_polychord 20 20 0 24
-128992 -262144 0;
#X obj 29 448 rr_OUTdac~;
#X obj 30 558 rr_record~;
#X msg 193 532 rec01.wav;
#X text 309 510 1st toggle turn ON/OFF your Dsp. 2nd toggle visualize
the wave sound. Slide is for volume.;
#X text 309 550 You can record your performance. Put the name. It show
passing seconds while recording. Bang to reset., f 56;
#X obj 30 103 rr_density;
#X text 308 94 HOW TO: Use density to define how much times in seconds
you choose bang occures.;
#X text 309 430 Echo~ repeats sound (e1 \, e2 \, ...) every ms you
put as parameter and fade out. You can put multiples in sequence. You
can put 3rd attribute from 0-1 for feedback.;
#X obj 141 424 *~ 0.25;
#X obj 30 378 /~ 3;
#X msg 30 330 next \$1;
#X text 309 303 With fm you can generate a frequency modulated sound
\; 1st is carrier (0-127) \; 2nd is ratio for modulator (0-10) \; 3rd
modulation index (0-20) \; 4th timbre (0-1) \; 5th mix (0-1) \; 6th
attack in ms \; 7th release in ms \; 8th decay (1-8)., f 58;
#X obj 30 306 + 40;
#X obj 30 263 rr_polychord 3 7 1 4;
#X floatatom 59 181 5 0 0 1 chord_notes(2:6) - -;
#X floatatom 88 201 5 0 0 1 interval(1:12) - -;
#X floatatom 117 221 5 0 0 1 increment(-2:6) - -;
#X floatatom 147 241 5 0 0 1 octaves(1:5) - -;
#X obj 30 401 rr_echo~ e1 500 0.25;
#X text 309 189 Polychord needs 4 argument (may use inlet too) \; 1st
how many tones in chord \; 2nd static interval between tones \; 3rd
how many semitones moves after every chord \; 4th how many octaves.
;
#X obj 30 354 clone 16 rr_fm~ 2 1 0.5 0.9 10 3500 3;
#X connect 2 0 3 0;
#X connect 2 1 3 1;
#X connect 4 0 3 2;
#X connect 7 0 15 0;
#X connect 10 0 2 1;
#X connect 11 0 20 0;
#X connect 12 0 22 0;
#X connect 14 0 12 0;
#X connect 15 0 14 0;
#X connect 16 0 15 1;
#X connect 17 0 15 2;
#X connect 18 0 15 3;
#X connect 19 0 15 4;
#X connect 20 0 2 0;
#X connect 20 0 2 1;
#X connect 20 1 10 0;
#X connect 22 0 11 0;
