#N canvas 539 116 736 637 10;
#X obj 8 17 cnv 15 680 40 empty empty Generative_series 20 12 0 14
-233017 -66577 0;
#X obj 303 21 cnv 15 380 40 empty empty ABS:rr_pattern 20 20 0 24 -128992
-262144 0;
#X obj 29 445 rr_OUTdac~;
#X obj 30 552 rr_record~;
#X msg 193 526 rec01.wav;
#X text 309 481 1st toggle turn ON/OFF your Dsp. 2nd toggle visualize
the wave sound. Slide is for volume.;
#X text 309 550 You can record your performance. Put the name. It show
passing seconds while recording. Bang to reset.;
#X text 309 375 Tone~ generate a tone with envelope: Midi value (0-127)
in 1st inlet \, duration in ms 2nd inlet \, power for asc/desc (1-8)
in 3rd inlet.;
#X text 308 94 HOW TO: Use density to define how much times in seconds
you choose bang occures.;
#X obj 30 102 rr_density;
#X obj 29 419 rr_echo~ e1 50 0.05, f 20;
#X text 309 421 Echo~ repeats sound (e1 \, e2 \, ...) every ms you
put as parameter and fade out. You can put multiples in sequence.Duration
< 50ms may be a simple reverber. You can put 3rd attribute from 0-1
for feedback.;
#X obj 30 184 rr_pattern;
#X obj 30 337 rr_tone~ 0 180 2;
#X msg 30 314 35;
#X msg 129 284 55;
#X obj 129 307 rr_tone~ 0 120 4;
#X obj 128 382 rr_tone~ 0 90 6;
#X msg 128 359 75;
#X text 308 169 Using pattern: [div] how many bangs in to have a bang
out (a counter) \; [seq] how many elements in your sequence \; [%pr]
probability to play (0-100) \; [seed] modify random. With toogle ON
repeat same random order every [seq].;
#X connect 2 0 3 0;
#X connect 2 1 3 1;
#X connect 4 0 3 2;
#X connect 9 0 12 0;
#X connect 10 0 2 0;
#X connect 10 1 2 1;
#X connect 12 0 14 0;
#X connect 12 1 15 0;
#X connect 12 2 18 0;
#X connect 13 0 10 0;
#X connect 14 0 13 0;
#X connect 15 0 16 0;
#X connect 16 0 10 0;
#X connect 17 0 10 0;
#X connect 18 0 17 0;
