#N canvas 539 116 736 637 10;
#X obj 8 17 cnv 15 680 40 empty empty Generative_series 20 12 0 14
-233017 -66577 0;
#X obj 303 21 cnv 15 380 40 empty empty ABS:rr_phrases 20 20 0 24 -128992
-262144 0;
#X obj 29 454 rr_OUTdac~;
#X obj 30 564 rr_record~;
#X msg 193 539 rec01.wav;
#X text 309 460 1st toggle turn ON/OFF your Dsp. 2nd toggle visualize
the wave sound. Slide is for volume.;
#X text 309 550 You can record your performance. Put the name. It show
passing seconds while recording. Bang to reset.;
#X obj 30 113 rr_density;
#X text 309 364 Tone~ generate a tone with envelope: Midi value (0-127)
in 1st inlet \, duration in ms 2nd inlet \, power for asc/desc (1-8)
in 3rd inlet.;
#X text 308 94 HOW TO: Use density to define how much times in seconds
you choose bang occures.;
#X text 309 410 Echo~ repeats sound (e1 \, e2 \, ...) every ms you
put as parameter and fade out. You can put multiples in sequence. You
can put 3rd attribute from 0-1 for feedback.;
#X obj 87 277 rr_circle;
#X obj 30 335 + 0;
#X text 308 263 In circle: [div] how many bangs in to have a bang out
(a counter) \; [int] defines interval to next number out \; [oct] in
how many octaves can displaces \; [off] offset number (may be root
of sequence] \; [set] reset. Es: have circle of fifth with 7 in int.
2nd inlet is for [div] and 3rd for [int]., f 58;
#X obj 30 182 rr_phrases;
#X obj 141 429 *~ 0.25;
#X obj 124 198 rr_seeds;
#X obj 30 405 rr_echo~ e1 500 0.2;
#X msg 30 358 next \$1;
#X obj 30 382 clone rr_tone~ 4 1500 2;
#X text 309 135 In phrases: put a seed in 2nd inlet. It produces phrases
that stops on funcionals notes and it continues when rnd generates
a note with the same harmonic function.;
#X text 309 195 In seeds: [every] define how many bangs in to have
a bang out in 1st outlet or a number seed on 2nd outlet. You can choose
seed to go out or rnd generate with [rnd] on.;
#X connect 2 0 3 0;
#X connect 2 1 3 1;
#X connect 4 0 3 2;
#X connect 7 0 14 0;
#X connect 11 0 12 1;
#X connect 12 0 18 0;
#X connect 14 0 12 0;
#X connect 14 1 11 0;
#X connect 14 1 16 0;
#X connect 15 0 2 1;
#X connect 16 1 14 1;
#X connect 17 0 2 0;
#X connect 17 0 2 1;
#X connect 17 1 15 0;
#X connect 18 0 19 0;
#X connect 19 0 17 0;
