#N canvas 593 116 712 637 10;
#X obj 8 17 cnv 15 680 40 empty empty Generative_series 20 12 0 14
-233017 -66577 0;
#X obj 303 21 cnv 15 380 40 empty empty ABS:rr_inve+_inve- 20 20 0
24 -128992 -262144 0;
#X obj 29 418 rr_OUTdac~;
#X obj 30 528 rr_record~;
#X msg 193 502 rec01.wav;
#X text 309 460 1st toggle turn ON/OFF your Dsp. 2nd toggle visualize
the wave sound. Slide is for volume.;
#X text 309 550 You can record your performance. Put the name. It show
passing seconds while recording. Bang to reset.;
#X obj 30 87 tgl 15 0 empty empty empty 17 7 0 10 -262144 -1 -1 0 1
;
#X obj 85 392 rev1~;
#X floatatom 123 392 5 0 0 0 - - -;
#X msg 30 303 next \$1;
#X obj 158 420 bng 15 250 50 0 empty empty empty 17 7 0 10 -262144
-1 -1;
#X obj 158 440 s sync;
#X obj 30 352 *~ 0.15;
#X obj 30 110 rr_pulsa 1 2;
#X obj 30 214 rr_grade, f 13;
#X obj 30 327 clone 16 rr_tone~ 3000 3;
#X msg 30 184 I;
#X msg 63 184 IV;
#X obj 30 250 rr_inve+ 12;
#X obj 30 278 + 48;
#X obj 120 214 rr_grade, f 13;
#X obj 120 250 rr_inve- 12;
#X obj 120 286 + 60;
#X obj 30 158 sel 0 1 2 3, f 23;
#X obj 30 135 random 4;
#X msg 120 184 ii;
#X msg 153 184 V7;
#X obj 85 369 hip~ 1000;
#X text 308 252 Inve+ and inve- needs a chords values in 1st inlet
and a offset value for moving a voice as argument. It returns an inversion
of input chord where a voice moves up /inve+) or down (inve-).;
#X connect 2 0 3 0;
#X connect 2 1 3 1;
#X connect 4 0 3 2;
#X connect 7 0 14 0;
#X connect 8 0 2 0;
#X connect 8 0 2 1;
#X connect 9 0 8 1;
#X connect 10 0 16 0;
#X connect 11 0 12 0;
#X connect 13 0 2 0;
#X connect 13 0 8 0;
#X connect 13 0 28 0;
#X connect 14 0 25 0;
#X connect 15 0 19 0;
#X connect 15 1 19 0;
#X connect 15 2 19 0;
#X connect 15 3 19 0;
#X connect 16 0 13 0;
#X connect 17 0 15 0;
#X connect 18 0 15 0;
#X connect 19 0 20 0;
#X connect 20 0 10 0;
#X connect 21 0 22 0;
#X connect 21 1 22 0;
#X connect 21 2 22 0;
#X connect 21 3 22 0;
#X connect 22 0 23 0;
#X connect 23 0 10 0;
#X connect 24 0 17 0;
#X connect 24 1 18 0;
#X connect 24 2 26 0;
#X connect 24 3 27 0;
#X connect 25 0 24 0;
#X connect 26 0 21 0;
#X connect 27 0 21 0;
#X connect 28 0 8 0;
