#N canvas 532 116 737 632 10;
#X obj 8 17 cnv 15 680 40 empty empty Generative_series 20 12 0 14
-233017 -66577 0;
#X obj 303 21 cnv 15 380 40 empty empty ABS:rr_timbra~/rr_tremo~ 20
20 0 24 -128992 -262144 0;
#X obj 29 432 rr_OUTdac~;
#X obj 30 542 rr_record~;
#X msg 193 516 rec01.wav;
#X text 309 485 1st toggle turn ON/OFF your Dsp. 2nd toggle visualize
the wave sound. Slide is for volume.;
#X text 309 550 You can record your performance. Put the name. It show
passing seconds while recording. Bang to reset.;
#X text 308 134 Choose how many elements in your sequence [num] then
[set].You can click [set] again for a new sequence. You can bang in
2nd inlet to [set]. 3rd inlet (2-6) how many repetitions of sequence
to bang out in 2nd outlet.;
#X obj 30 156 rr_play;
#X obj 30 91 tgl 15 0 empty empty empty 17 7 0 10 -262144 -1 -1 0 1
;
#X text 308 94 HOW TO: Use pulsa to define how much times in seconds
you choose bang occures.;
#X obj 30 111 rr_pulsa 3 1;
#X obj 30 223 + 50;
#X obj 115 383 rev1~;
#X floatatom 177 383 5 0 0 0 - - -;
#X floatatom 177 360 5 0 0 0 - - -;
#X floatatom 68 376 5 0 1 0 - - -;
#X obj 30 343 *~ 0.25;
#X obj 115 360 hip~ 1000;
#X msg 30 246 next \$1;
#X floatatom 128 293 5 0 0 0 - - -;
#X obj 30 293 rr_timbra~ 0.25;
#X obj 30 269 clone 1 rr_tone~ 3000 2;
#X obj 30 318 rr_tremo~ 7 0.25;
#X text 308 309 Timbra needs an argument (0-1) as timbre modulation.
;
#X text 309 338 Tremo needs 2 arguments: 1st is tremolo frequency in
Hz (0-20) \; 2nd is dry/wet (0-1).;
#X obj 59 134 rr_trga 8 0 1 1;
#X obj 29 398 rr_mix~ 0.5;
#X connect 2 0 3 0;
#X connect 2 1 3 1;
#X connect 4 0 3 2;
#X connect 8 0 12 0;
#X connect 9 0 11 0;
#X connect 11 0 8 0;
#X connect 11 1 26 0;
#X connect 12 0 19 0;
#X connect 13 0 27 1;
#X connect 14 0 13 1;
#X connect 15 0 18 1;
#X connect 16 0 27 2;
#X connect 17 0 18 0;
#X connect 17 0 27 0;
#X connect 18 0 13 0;
#X connect 19 0 22 0;
#X connect 20 0 21 1;
#X connect 21 0 23 0;
#X connect 22 0 21 0;
#X connect 23 0 17 0;
#X connect 26 0 8 1;
#X connect 27 0 2 0;
#X connect 27 0 2 1;
