#N canvas 539 116 736 637 10;
#X obj 8 17 cnv 15 680 40 empty empty Generative_series 20 12 0 14
-233017 -66577 0;
#X obj 303 21 cnv 15 380 40 empty empty ABS:rr_motif+ 20 20 0 24 -128992
-262144 0;
#X obj 29 462 rr_OUTdac~;
#X obj 30 569 rr_record~;
#X msg 193 543 rec01.wav;
#X text 309 500 1st toggle turn ON/OFF your Dsp. 2nd toggle visualize
the wave sound. Slide is for volume.;
#X text 309 565 You can record your performance. Put the name. It show
passing seconds while recording. Bang to reset.;
#X obj 30 103 rr_density;
#X text 309 404 Tone~ generate a tone with envelope: Midi value (0-127)
in 1st inlet \, duration in ms 2nd inlet \, power for asc/desc (1-8)
in 3rd inlet.;
#X text 308 94 HOW TO: Use density to define how much times in seconds
you choose bang occures.;
#X text 309 450 Echo~ repeats sound (e1 \, e2 \, ...) every ms you
put as parameter and fade out. You can put multiples in sequence. You
can put 3rd attribute from 0-1 for feedback.;
#X text 339 183 In circle: [div] how many bangs in to have a bang out
(a counter) \; [int] defines interval to next number out \; [oct] in
how many octaves can displaces \; [off] offset number (may be root
of sequence] \; [set] reset. Es: have circle of fifth with 7 in int.
2nd inlet is for [div] and 3rd for [int]., f 53;
#X obj 141 439 *~ 0.25;
#X msg 177 370 next \$1;
#X obj 30 260 rr_motif+;
#X obj 30 395 /~ 5;
#X obj 106 190 rr_circle;
#X obj 145 114 rr_seeds;
#X obj 30 168 t b b;
#X obj 30 417 rr_echo~ e1 500 0.25;
#X obj 30 371 clone 8 rr_tone~ 1000 2;
#X text 338 125 Seeds simply produce a rnd number after some bangs
in you define in [every]. Toogle ON to go out in 2nd outlet the seed
it produces \; 1st outlet bang when seed be produced., f 54;
#X text 309 286 In motif+: 2nd inlet is root tone and 3rd for seed.
It produces a motif with harmony \; [div] how many bangs in to have
one out \; [off] root note \; [seq] How many elements in your sequence
\; [%prn] probabiliy (0-100) to play for every outlet (1=root \, 2=3rd
\, 3=5th \, 4=7th \, 5=13th \; Select scale Major/harmonic minor/whole
tone/Half diminish.;
#X connect 2 0 3 0;
#X connect 2 1 3 1;
#X connect 4 0 3 2;
#X connect 7 0 18 0;
#X connect 12 0 2 1;
#X connect 13 0 20 0;
#X connect 14 0 13 0;
#X connect 14 1 13 0;
#X connect 14 2 13 0;
#X connect 14 3 13 0;
#X connect 14 4 13 0;
#X connect 15 0 19 0;
#X connect 16 0 14 1;
#X connect 17 0 16 0;
#X connect 17 1 14 2;
#X connect 18 0 14 0;
#X connect 18 1 17 0;
#X connect 19 0 2 0;
#X connect 19 0 2 1;
#X connect 19 1 12 0;
#X connect 20 0 15 0;
