#N canvas 601 116 736 637 10;
#X obj 8 17 cnv 15 680 40 empty empty Generative_series 20 12 0 14
-233017 -66577 0;
#X obj 303 21 cnv 15 380 40 empty empty ABS:rr_counterpoint 20 20 0
24 -128992 -262144 0;
#X obj 29 442 rr_OUTdac~;
#X obj 30 552 rr_record~;
#X msg 193 526 rec01.wav;
#X text 309 400 Echo~ repeats sound (e1 \, e2 \, ...) every ms you
put as parameter and fade out. You can put multiples in sequence.;
#X text 309 450 1st toggle turn ON/OFF your Dsp. 2nd toggle visualize
the wave sound. Slide is for volume.;
#X text 309 550 You can record your performance. Put the name. It show
passing seconds while recording. Bang to reset.;
#X obj 30 113 rr_density;
#X text 309 354 Tone~ generate a tone with envelope: Midi value (0-127)
in 1st inlet \, duration in ms 2nd inlet \, power for asc/desc (1-8)
in 3rd inlet.;
#X text 308 94 HOW TO: Use density to define how much times in seconds
you choose bang occures.;
#X obj 141 414 *~ 0.25;
#X obj 174 284 rr_counterpoint;
#X obj 174 354 *~ 0.5;
#X obj 30 244 rr_tiles;
#X obj 29 387 rr_echo~ e1 35 0.25;
#X obj 174 307 active 1;
#X obj 30 328 t f f;
#X obj 71 178 rr_circle;
#X obj 30 178 t b b;
#X msg 177 150 0 4 7 2 9 7 4 0;
#X obj 174 262 - 12;
#X msg 176 125 1 2;
#X obj 174 330 rr_tone~ 0 1000 1;
#X obj 30 350 rr_tone~ 0 750 2;
#X text 308 126 In circle: [div] how many bangs in to have a bang out
(a counter) \; [int] defines interval to next number out \; [oct] in
how many octaves can displaces \; [off] offset number (may be root
of sequence] \; [set] reset. Es: have circle of fifth with 7 in int.
2nd inlet is for [div] and 3rd for [int].;
#X text 309 222 In tiles: 2nd inlet is root tone [off] \; 3rd inlet
is a list for rhythmic pattern \; 4rt inlet is a list for melodic pattern
\; 5th inlet is a bang to variate patterns \; 6th to reset.;
#X text 309 308 You can control counterpoint scaling inlet tone and
trigger outlel with active abs.;
#X connect 2 0 3 0;
#X connect 2 1 3 1;
#X connect 4 0 3 2;
#X connect 8 0 19 0;
#X connect 11 0 2 1;
#X connect 12 0 16 0;
#X connect 13 0 15 0;
#X connect 14 0 17 0;
#X connect 15 0 2 0;
#X connect 15 0 2 1;
#X connect 15 1 11 0;
#X connect 16 0 23 0;
#X connect 17 0 24 0;
#X connect 17 1 21 0;
#X connect 18 0 14 1;
#X connect 19 0 14 0;
#X connect 19 1 18 0;
#X connect 20 0 14 3;
#X connect 21 0 12 0;
#X connect 22 0 14 2;
#X connect 23 0 13 0;
#X connect 24 0 15 0;
