#N canvas 539 116 736 637 10;
#X obj 8 17 cnv 15 680 40 empty empty Generative_series 20 12 0 14
-233017 -66577 0;
#X obj 303 21 cnv 15 380 40 empty empty ABS:rr_shifter 20 20 0 24 -128992
-262144 0;
#X obj 29 442 rr_OUTdac~;
#X obj 30 552 rr_record~;
#X msg 193 526 rec01.wav;
#X text 309 460 1st toggle turn ON/OFF your Dsp. 2nd toggle visualize
the wave sound. Slide is for volume.;
#X text 309 550 You can record your performance. Put the name. It show
passing seconds while recording. Bang to reset.;
#X obj 30 113 rr_density;
#X text 309 344 Tone~ generate a tone with envelope: Midi value (0-127)
in 1st inlet \, duration in ms 2nd inlet \, power for asc/desc (1-8)
in 3rd inlet.;
#X text 308 104 HOW TO: Use density to define how much times in seconds
you choose bang occures.;
#X text 309 410 Echo~ repeats sound (e1 \, e2 \, ...) every ms you
put as parameter and fade out. You can put multiples in sequence. You
can put 3rd attribute from 0-1 for feedback.;
#X obj 141 418 *~ 0.25;
#X obj 30 261 rr_seqInt;
#X obj 30 345 clone 8 rr_tone~ 250 3;
#X obj 30 368 /~ 2;
#X obj 123 261 rr_seqInt;
#X obj 30 286 + 60;
#X obj 123 286 + 64;
#X obj 30 191 rr_shifter 5 500;
#X msg 30 323 next \$1;
#X obj 30 391 rr_echo~ e1 25 0.15;
#X msg 174 225 3 4;
#X text 309 261 In seqInt 2nd inlet put root tone (0-127) and in 3rd
inlet a list of intervals you want. It plays intervals in sequence
and begins from everyone.;
#X text 309 184 Shifter needs two arguments: 1st is delay ms every
bang and 2nd is total delay then it returns.;
#X connect 2 0 3 0;
#X connect 2 1 3 1;
#X connect 4 0 3 2;
#X connect 7 0 18 0;
#X connect 11 0 2 1;
#X connect 12 0 16 0;
#X connect 13 0 14 0;
#X connect 14 0 20 0;
#X connect 15 0 17 0;
#X connect 16 0 19 0;
#X connect 17 0 19 0;
#X connect 18 0 12 0;
#X connect 18 1 15 0;
#X connect 19 0 13 0;
#X connect 20 0 2 0;
#X connect 20 0 2 1;
#X connect 20 1 11 0;
#X connect 21 0 12 2;
#X connect 21 0 15 2;
