#N canvas 539 116 736 637 10;
#X obj 8 17 cnv 15 680 40 empty empty Generative_series 20 12 0 14
-233017 -66577 0;
#X obj 303 21 cnv 15 380 40 empty empty ABS:rr_moli 20 20 0 24 -128992
-262144 0;
#X obj 29 448 rr_OUTdac~;
#X obj 30 558 rr_record~;
#X msg 193 532 rec01.wav;
#X text 309 510 1st toggle turn ON/OFF your Dsp. 2nd toggle visualize
the wave sound. Slide is for volume.;
#X text 309 550 You can record your performance. Put the name. It show
passing seconds while recording. Bang to reset., f 56;
#X obj 30 103 rr_density;
#X text 308 94 HOW TO: Use density to define how much times in seconds
you choose bang occures.;
#X text 309 400 Echo~ repeats sound (e1 \, e2 \, ...) every ms you
put as parameter and fade out. You can put multiples in sequence. You
can put 3rd attribute from 0-1 for feedback.;
#X obj 141 424 *~ 0.25;
#X obj 30 378 /~ 3;
#X msg 30 330 next \$1;
#X msg 99 284 0 2 4 5 7 9 11;
#X obj 30 283 + 35;
#X obj 30 307 rr_allscales;
#X text 309 284 In allscales: put in 2nd inlet a progressive series
(list) of intervals which represents the elements of the scale to use
(mod 12). [major scale in example];
#X obj 30 249 rr_moli, f 17;
#X msg 79 225 1 3 1 2;
#X msg 146 233 0 2 -3 7 -5;
#X obj 51 192 rr_cycle1 0 21 4 1 35;
#X obj 30 168 t b b;
#X text 309 163 Cycle1 needs 5 arguments: 1st for cloning \; 2nd is
a counter \, how many bangs in to return an outlet \; 3rd is interval
to move \; 4th in how many octaves \; 5th root tone.;
#X obj 30 353 clone 8 rr_clamp~ 200 300;
#X text 309 344 Clamp needs 3 arguments: 1st is for cloning \; 2nd
is time in ms attack clamping duration \; 3rd is time in ms release
clamping duration.;
#X obj 30 401 rr_echo~ e1 500 0.15;
#X text 308 231 Moli needs two lists in: 1st inlet is sequence of intervals
to move in list \; 2nd inlet is a list where to move in.;
#X connect 2 0 3 0;
#X connect 2 1 3 1;
#X connect 4 0 3 2;
#X connect 7 0 21 0;
#X connect 10 0 2 1;
#X connect 11 0 25 0;
#X connect 12 0 23 0;
#X connect 13 0 15 1;
#X connect 14 0 15 0;
#X connect 15 0 12 0;
#X connect 17 0 14 0;
#X connect 18 0 17 1;
#X connect 19 0 17 2;
#X connect 20 0 14 1;
#X connect 21 0 17 0;
#X connect 21 1 20 0;
#X connect 23 0 11 0;
#X connect 25 0 2 0;
#X connect 25 0 2 1;
#X connect 25 1 10 0;
