#N canvas 539 116 736 637 10;
#X obj 8 17 cnv 15 680 40 empty empty Generative_series 20 12 0 14
-233017 -66577 0;
#X obj 303 21 cnv 15 380 40 empty empty ABS:rr_cross-mod 20 20 0 24
-128992 -262144 0;
#X obj 29 436 rr_OUTdac~;
#X obj 30 546 rr_record~;
#X msg 193 520 rec01.wav;
#X text 309 485 1st toggle turn ON/OFF your Dsp. 2nd toggle visualize
the wave sound. Slide is for volume.;
#X text 309 550 You can record your performance. Put the name. It show
passing seconds while recording. Bang to reset.;
#X obj 30 82 tgl 15 0 empty empty empty 17 7 0 10 -262144 -1 -1 0 1
;
#X obj 159 436 bng 15 250 50 0 empty empty empty 17 7 0 10 -262144
-1 -1;
#X obj 159 456 s sync;
#X text 308 94 HOW TO: Use pulsa to define how much times in seconds
you choose bang occures.;
#X obj 142 410 rev1~;
#X floatatom 181 410 5 0 0 0 - - -;
#X obj 30 102 rr_pulsa 1 2;
#X obj 30 143 random 12;
#X obj 30 207 + 48;
#X msg 30 231 next \$1;
#X obj 142 387 hip~ 500;
#X floatatom 236 184 5 0 0 0 - - -;
#X msg 120 230 next \$1;
#X floatatom 181 224 5 0 0 0 - - -;
#X obj 120 185 i;
#X floatatom 83 337 5 0 0 0 - - -;
#X obj 236 321 line;
#X msg 236 229 \$1 500;
#X obj 30 370 *~ 0.5;
#X obj 120 207 * 3000;
#X obj 30 272 clone 10 rr_fmra~ 500 0;
#X obj 30 336 vcf~ 5;
#X obj 120 143 rr_cross-mod -0.5 0.1 1 1 8;
#X obj 181 201 * 5;
#X obj 236 206 * 500;
#X text 308 184 Cross-mod analyzes pitch \, extension and density of
your sequence and returns a normalized value of total tension/dissonance
You can use to modulate differents arguments of your patch \; It nedds
5 arguments \; 1st Dissonance Weight (Range -1 to 1.0) \; 2nd Octave
Weight (Range 0 to 1.0) \; 3rd Density Weight (Range 0 to 1.0) \; 4th/5th
Min / Max range for output values.;
#X msg 181 256 all \$1;
#X connect 2 0 3 0;
#X connect 2 1 3 1;
#X connect 4 0 3 2;
#X connect 7 0 13 0;
#X connect 8 0 9 0;
#X connect 11 0 2 1;
#X connect 11 0 2 0;
#X connect 12 0 11 1;
#X connect 13 0 14 0;
#X connect 14 0 15 0;
#X connect 15 0 16 0;
#X connect 15 0 29 0;
#X connect 16 0 27 0;
#X connect 17 0 11 0;
#X connect 18 0 13 1;
#X connect 18 0 31 0;
#X connect 19 0 27 2;
#X connect 20 0 14 1;
#X connect 20 0 33 0;
#X connect 21 0 26 0;
#X connect 21 0 30 0;
#X connect 22 0 28 1;
#X connect 23 0 22 0;
#X connect 24 0 23 0;
#X connect 25 0 2 0;
#X connect 25 0 17 0;
#X connect 26 0 19 0;
#X connect 27 0 28 0;
#X connect 28 0 25 0;
#X connect 29 0 21 0;
#X connect 29 1 18 0;
#X connect 30 0 20 0;
#X connect 31 0 24 0;
#X connect 33 0 27 3;
