#N canvas 543 116 736 637 10;
#X obj 8 17 cnv 15 680 40 empty empty Generative_series 20 12 0 14
-233017 -66577 0;
#X obj 303 21 cnv 15 380 40 empty empty ABS:rr_acce~ 20 20 0 24 -128992
-262144 0;
#X obj 29 455 rr_OUTdac~;
#X obj 30 565 rr_record~;
#X msg 193 539 rec01.wav;
#X text 309 481 1st toggle turn ON/OFF your Dsp. 2nd toggle visualize
the wave sound. Slide is for volume.;
#X text 309 550 You can record your performance. Put the name. It show
passing seconds while recording. Bang to reset., f 58;
#X obj 30 101 rr_density;
#X text 308 94 HOW TO: Use density to define how much times in seconds
you choose bang occures.;
#X text 309 431 Echo~ repeats sound (e1 \, e2 \, ...) every ms you
put as parameter and fade out. You can put multiples in sequence. You
can put 3rd attribute from 0-1 for feedback.;
#X obj 30 166 t b b b b b, f 32;
#X obj 30 191 f 0;
#X obj 55 191 + 1;
#X obj 80 191 % 2;
#X obj 30 214 * 2;
#X msg 30 303 next \$1;
#X obj 30 236 + 4;
#X obj 30 281 rr_allscales;
#X obj 45 348 rr_acce~ 3;
#X obj 30 371 *~;
#X obj 124 191 f 0;
#X obj 149 191 + 1;
#X msg 124 303 next \$1;
#X obj 124 281 rr_allscales;
#X obj 120 371 *~;
#X obj 124 236 + 0;
#X msg 219 280 0 2 3 5 7 9 10;
#X msg 292 214 0 7 9 5;
#X msg 256 214 1;
#X obj 219 259 + 30;
#X text 369 319 Tone~ generate a tone with envelope: Midi value (0-127)
in 1st inlet \, duration in ms 2nd inlet \, power for asc/desc (1-8)
in 3rd inlet., f 48;
#X text 319 134 Trga (trg arguments version) needs four arguments:
1st is division of inlet bangs \; 2nd is offset \; 3rd how many hits
\; 4rt is total length of sequence to divide in hits.;
#X text 368 212 Moli needs two lists in: 1st inlet is sequence of intervals
to move in list \; 2nd inlet is a list where to move in., f 48;
#X text 309 377 Acce needs an argument that is in how many beats return
an accent (Pass it in multiply~ object to change signal amplitude).
;
#X obj 30 258 + 30;
#X obj 124 258 + 30;
#X obj 141 431 *~ 0.15;
#X obj 29 407 rr_echo~ e1 500 0.1;
#X obj 30 326 clone 8 rr_tone~ 1000 4;
#X obj 178 319 clone 8 rr_tone~ 1000 3;
#X obj 135 348 rr_acce~ 8;
#X obj 219 190 rr_trga 12 0 1 1;
#X obj 219 237 rr_moli, f 13;
#X obj 174 191 % 3;
#X obj 124 214 * 4;
#X text 369 259 In allscales: put in 2nd inlet a progressive series
(list) of intervals which represents the elements of the scale to use
(mod 12). [minor scale in example], f 49;
#X connect 2 0 3 0;
#X connect 2 1 3 1;
#X connect 4 0 3 2;
#X connect 7 0 10 0;
#X connect 10 0 11 0;
#X connect 10 1 18 0;
#X connect 10 2 20 0;
#X connect 10 3 40 0;
#X connect 10 4 41 0;
#X connect 11 0 12 0;
#X connect 11 0 14 0;
#X connect 12 0 13 0;
#X connect 13 0 11 1;
#X connect 14 0 16 0;
#X connect 15 0 38 0;
#X connect 16 0 34 0;
#X connect 17 0 15 0;
#X connect 18 0 19 1;
#X connect 19 0 37 0;
#X connect 20 0 21 0;
#X connect 20 0 44 0;
#X connect 21 0 43 0;
#X connect 22 0 39 0;
#X connect 23 0 22 0;
#X connect 24 0 37 0;
#X connect 25 0 35 0;
#X connect 26 0 17 1;
#X connect 26 0 23 1;
#X connect 27 0 42 2;
#X connect 28 0 42 1;
#X connect 29 0 34 1;
#X connect 29 0 35 1;
#X connect 34 0 17 0;
#X connect 35 0 23 0;
#X connect 36 0 2 1;
#X connect 37 0 2 0;
#X connect 37 0 2 1;
#X connect 37 1 36 0;
#X connect 38 0 19 0;
#X connect 39 0 24 0;
#X connect 40 0 24 1;
#X connect 41 0 42 0;
#X connect 42 0 29 0;
#X connect 43 0 20 1;
#X connect 44 0 25 0;
