#N canvas 539 116 736 637 10;
#X obj 8 17 cnv 15 680 40 empty empty Generative_series 20 12 0 14
-233017 -66577 0;
#X obj 303 21 cnv 15 380 40 empty empty ABS:rr_repeater 20 20 0 24
-128992 -262144 0;
#X obj 29 442 rr_OUTdac~;
#X obj 30 552 rr_record~;
#X msg 193 526 rec01.wav;
#X text 309 460 1st toggle turn ON/OFF your Dsp. 2nd toggle visualize
the wave sound. Slide is for volume.;
#X text 309 550 You can record your performance. Put the name. It show
passing seconds while recording. Bang to reset.;
#X obj 30 113 rr_density;
#X text 309 344 Tone~ generate a tone with envelope: Midi value (0-127)
in 1st inlet \, duration in ms 2nd inlet \, power for asc/desc (1-8)
in 3rd inlet.;
#X text 308 104 HOW TO: Use density to define how much times in seconds
you choose bang occures.;
#X text 309 410 Echo~ repeats sound (e1 \, e2 \, ...) every ms you
put as parameter and fade out. You can put multiples in sequence. You
can put 3rd attribute from 0-1 for feedback.;
#X obj 141 418 *~ 0.25;
#X obj 30 224 + 35;
#X msg 99 223 0 2 4 5 7 9 11;
#X obj 30 247 rr_allscales;
#X obj 30 368 rr_tone~ 0 150 3;
#X obj 134 261 f 0;
#X obj 159 261 + 1;
#X obj 184 261 % 36;
#X obj 134 284 sel 0;
#X obj 30 178 t b b, f 18;
#X obj 30 395 rr_echo~ e1 500 0.15;
#X obj 30 300 rr_repeater 4 4;
#X obj 30 201 random 20;
#X obj 117 343 rr_tone~ 0 250 2;
#X text 309 205 In allscales put in 2nd inlet a progressive series
(list) of intervals which represents the elements of the scale to use
(mod 12). [minor scale in example];
#X text 309 255 Repeater needs 2 arguments: 1st is how many input tones
it stores and 2nd is how many times it repeates stored tones. 1st outlet
returns the same inlet while 2nd outlet returns repetitions when occures.
A bang in 2nd inlet to start.;
#X connect 2 0 3 0;
#X connect 2 1 3 1;
#X connect 4 0 3 2;
#X connect 7 0 20 0;
#X connect 11 0 2 1;
#X connect 12 0 14 0;
#X connect 13 0 14 1;
#X connect 14 0 22 0;
#X connect 15 0 21 0;
#X connect 16 0 17 0;
#X connect 16 0 19 0;
#X connect 17 0 18 0;
#X connect 18 0 16 1;
#X connect 19 0 22 1;
#X connect 20 0 23 0;
#X connect 20 1 16 0;
#X connect 21 0 2 0;
#X connect 21 0 2 1;
#X connect 21 1 11 0;
#X connect 22 0 15 0;
#X connect 22 1 24 0;
#X connect 23 0 12 0;
#X connect 24 0 21 0;
