#N canvas 539 116 736 637 10;
#X obj 8 17 cnv 15 680 40 empty empty Generative_series 20 12 0 14
-233017 -66577 0;
#X obj 303 21 cnv 15 380 40 empty empty ABS:rr_seqtrg 20 20 0 24 -128992
-262144 0;
#X obj 29 442 rr_OUTdac~;
#X obj 30 552 rr_record~;
#X msg 193 526 rec01.wav;
#X text 309 460 1st toggle turn ON/OFF your Dsp. 2nd toggle visualize
the wave sound. Slide is for volume.;
#X text 309 550 You can record your performance. Put the name. It show
passing seconds while recording. Bang to reset.;
#X obj 30 113 rr_density;
#X text 308 94 HOW TO: Use density to define how much times in seconds
you choose bang occures.;
#X text 309 410 Echo~ repeats sound (e1 \, e2 \, ...) every ms you
put as parameter and fade out. You can put multiples in sequence. You
can put 3rd attribute from 0-1 for feedback.;
#X obj 30 400 rr_echo~ e1 5 0.1, f 19;
#X obj 30 227 rr_seqtrg;
#X msg 103 203 1 1 3 2;
#X msg 128 232 1 4 2;
#X text 308 210 In seqtrg: put in 2nd inlet a list for make rhythm
with inlet pulses.;
#X text 309 279 Perc~ needs attributes: 1st for cloning \; 2nd for
tone (in Hz) \; 3rd for release \; 4th for decay type \; 5th amp of
tone (< 0.5) \; 6th amp of noise (< 0.5) \; 7th is lpf \; 8th is hpf.
;
#X obj 30 282 random 2;
#X obj 30 305 sel 0;
#X obj 30 330 rr_perc~ 0 60 180 4 0.5 0.15 1000 500;
#X obj 40 355 rr_perc~ 0 250 90 6 0.25 0.5 6000 3000;
#X msg 73 184 1 2;
#X connect 2 0 3 0;
#X connect 2 1 3 1;
#X connect 4 0 3 2;
#X connect 7 0 11 0;
#X connect 10 0 2 0;
#X connect 10 0 2 1;
#X connect 10 1 2 1;
#X connect 11 0 16 0;
#X connect 12 0 11 1;
#X connect 13 0 11 1;
#X connect 16 0 17 0;
#X connect 17 0 18 0;
#X connect 17 1 19 0;
#X connect 18 0 10 0;
#X connect 19 0 10 0;
#X connect 20 0 11 1;
