#N canvas 539 116 736 637 10;
#X obj 8 17 cnv 15 680 40 empty empty Generative_series 20 12 0 14
-233017 -66577 0;
#X obj 303 21 cnv 15 380 40 empty empty ABS:rr_muta 20 20 0 24 -128992
-262144 0;
#X obj 29 448 rr_OUTdac~;
#X obj 30 558 rr_record~;
#X msg 193 532 rec01.wav;
#X text 309 510 1st toggle turn ON/OFF your Dsp. 2nd toggle visualize
the wave sound. Slide is for volume.;
#X text 309 550 You can record your performance. Put the name. It show
passing seconds while recording. Bang to reset., f 56;
#X obj 30 93 rr_density;
#X text 308 94 HOW TO: Use density to define how much times in seconds
you choose bang occures.;
#X text 309 455 Echo~ repeats sound (e1 \, e2 \, ...) every ms you
put as parameter and fade out. You can put multiples in sequence. You
can put 3rd attribute from 0-1 for feedback.;
#X obj 141 424 *~ 0.25;
#X obj 30 378 /~ 3;
#X msg 30 330 next \$1;
#X text 309 328 With fm you can generate a frequency modulated sound
\; 1st is carrier (0-127) \; 2nd is ratio for modulator (0-10) \; 3rd
modulation index (0-20) \; 4th timbre (0-1) \; 5th mix (0-1) \; 6th
attack in ms \; 7th release in ms \; 8th decay (1-8)., f 58;
#X obj 30 158 t b b, f 18;
#X obj 30 181 rr_trga 1 0 1 1;
#X obj 30 307 rr_allscales;
#X obj 152 94 bng 15 250 50 0 empty empty empty 17 7 0 10 -262144 -1
-1;
#X obj 152 114 s sync;
#X obj 135 181 rr_trga 2 0 1 1;
#X obj 30 204 rr_muta 8;
#X floatatom 30 227 5 0 0 0 - - -;
#X obj 135 205 rr_muta 4;
#X obj 30 401 rr_echo~ e1 50 0.5;
#X floatatom 135 228 5 0 0 0 - - -;
#X obj 135 251 - 7;
#X msg 99 284 0 2 4 5 7 9 10;
#X text 309 212 Muta needs an argument = number of elements in sequences
\; It generates a random sequence (-6/+6) and change a random element
with random value every time that repeats it.;
#X text 309 267 In allscales: put in 2nd inlet a progressive series
(list) of intervals which represents the elements of the scale to use
(mod 12). [dorian mode in example];
#X text 308 134 Trga (trg arguments version) needs four arguments:
1st is division of inlet bangs \; 2nd is offset \; 3rd how many hits
\; 4rt is total length of sequence to divide in hits.;
#X obj 30 354 clone 16 rr_fm~ 3 0.5 0.5 0.95 5 1500 3;
#X obj 30 284 + 40;
#X connect 2 0 3 0;
#X connect 2 1 3 1;
#X connect 4 0 3 2;
#X connect 7 0 14 0;
#X connect 10 0 2 1;
#X connect 11 0 23 0;
#X connect 12 0 30 0;
#X connect 14 0 15 0;
#X connect 14 1 19 0;
#X connect 15 0 20 0;
#X connect 16 0 12 0;
#X connect 17 0 18 0;
#X connect 19 0 22 0;
#X connect 20 0 21 0;
#X connect 21 0 31 0;
#X connect 22 0 24 0;
#X connect 23 0 2 0;
#X connect 23 0 2 1;
#X connect 23 1 10 0;
#X connect 24 0 25 0;
#X connect 25 0 31 0;
#X connect 26 0 16 1;
#X connect 30 0 11 0;
#X connect 31 0 16 0;
