#N canvas 593 116 767 637 10;
#X obj 8 17 cnv 15 680 40 empty empty Generative_series 20 12 0 14
-233017 -66577 0;
#X obj 303 21 cnv 15 380 40 empty empty ABS:rr_jumpli 20 20 0 24 -128992
-262144 0;
#X obj 29 422 rr_OUTdac~;
#X obj 30 532 rr_record~;
#X msg 193 506 rec01.wav;
#X text 309 460 1st toggle turn ON/OFF your Dsp. 2nd toggle visualize
the wave sound. Slide is for volume.;
#X text 309 550 You can record your performance. Put the name. It show
passing seconds while recording. Bang to reset.;
#X text 309 410 Echo~ repeats sound (e1 \, e2 \, ...) every ms you
put as parameter and fade out. You can put multiples in sequence. You
can put 3rd attribute from 0-1 for feedback.;
#X text 308 94 HOW TO: Use pulsa to define how much times in seconds
you choose bang occures.;
#X obj 30 87 tgl 15 0 empty empty empty 17 7 0 10 -262144 -1 -1 0 1
;
#X obj 142 393 *~ 0.15;
#X msg 30 303 next \$1;
#X text 309 344 Tone~ generate a tone with envelope: Midi value (0-127)
in 1st inlet \, duration in ms 2nd inlet \, power for asc/desc (1-8)
in 3rd inlet.;
#X obj 30 108 rr_pulsa 5 2;
#X msg 81 163 60 63 64 66 67 72;
#X obj 30 205 rr_jumpli;
#X obj 99 233 rr_jumpli;
#X msg 99 303 next \$1;
#X obj 30 348 clone 8 rr_tone~ 2000 3;
#X text 308 204 Jumpli needs a list/sequence in 2nd inlet \; it jumps
inside list and up/down an octave.;
#X obj 30 371 rr_echo~ e1 250 0.15;
#X obj 99 256 - 12;
#X obj 99 325 clone 8 rr_tone~ 2500 2;
#X connect 2 0 3 0;
#X connect 2 1 3 1;
#X connect 4 0 3 2;
#X connect 9 0 13 0;
#X connect 10 0 2 1;
#X connect 10 0 2 0;
#X connect 11 0 18 0;
#X connect 13 0 15 0;
#X connect 13 1 16 0;
#X connect 14 0 15 1;
#X connect 14 0 16 1;
#X connect 15 0 11 0;
#X connect 16 0 21 0;
#X connect 17 0 22 0;
#X connect 18 0 20 0;
#X connect 20 0 2 0;
#X connect 20 0 2 1;
#X connect 20 1 10 0;
#X connect 21 0 17 0;
#X connect 22 0 20 0;
