#N canvas 539 116 736 637 10;
#X obj 8 17 cnv 15 680 40 empty empty Generative_series 20 12 0 14
-233017 -66577 0;
#X obj 303 21 cnv 15 380 40 empty empty ABS:rr_gravity 20 20 0 24 -128992
-262144 0;
#X obj 29 455 rr_OUTdac~;
#X obj 30 565 rr_record~;
#X msg 193 539 rec01.wav;
#X text 309 510 1st toggle turn ON/OFF your Dsp. 2nd toggle visualize
the wave sound. Slide is for volume.;
#X text 309 550 You can record your performance. Put the name. It show
passing seconds while recording. Bang to reset., f 56;
#X obj 30 93 rr_density;
#X text 308 94 HOW TO: Use density to define how much times in seconds
you choose bang occures.;
#X text 309 455 Echo~ repeats sound (e1 \, e2 \, ...) every ms you
put as parameter and fade out. You can put multiples in sequence. You
can put 3rd attribute from 0-1 for feedback.;
#X obj 140 430 *~ 0.25;
#X obj 30 385 /~ 3;
#X msg 30 337 next \$1;
#X text 309 328 With fm you can generate a frequency modulated sound
\; 1st is carrier (0-127) \; 2nd is ratio for modulator (0-10) \; 3rd
modulation index (0-20) \; 4th timbre (0-1) \; 5th mix (0-1) \; 6th
attack in ms \; 7th release in ms \; 8th decay (1-8)., f 58;
#X obj 162 94 bng 15 250 50 0 empty empty empty 17 7 0 10 -262144 -1
-1;
#X obj 162 114 s sync;
#X obj 30 268 rr_gravity;
#X obj 180 204 random 12;
#X floatatom 87 238 5 0 0 0 - - -;
#X obj 30 291 change -1;
#X obj 30 314 + 72;
#X obj 30 158 t b b b, f 18;
#X obj 30 408 rr_echo~ e1 500 0.5;
#X obj 152 268 rr_gravity;
#X floatatom 209 238 5 0 0 0 - - -;
#X obj 152 291 change -1;
#X obj 180 174 rr_trga 10 0 1 1;
#X obj 81 204 rr_trga 1 0 2 3;
#X obj 30 181 rr_trga 1 2 1 1;
#X obj 30 360 clone 8 rr_fm~ 1 1 0.45 0.85 10 2000 3;
#X obj 152 321 + 48;
#X text 308 160 Trga (trg arguments version) needs four arguments:
1st is division of inlet bangs \; 2nd is offset \; 3rd how many hits
\; 4rt is total length of sequence to divide in hits.;
#X text 308 270 Gravity resolves to 0 the value puts in 2nd inlet (0:12)
\; Ways of resolution depends by the value in 3rd inlet (0:6).;
#X connect 2 0 3 0;
#X connect 2 1 3 1;
#X connect 4 0 3 2;
#X connect 7 0 21 0;
#X connect 10 0 2 1;
#X connect 11 0 22 0;
#X connect 12 0 29 0;
#X connect 14 0 15 0;
#X connect 16 0 19 0;
#X connect 17 0 16 1;
#X connect 17 0 23 1;
#X connect 18 0 16 2;
#X connect 19 0 20 0;
#X connect 20 0 12 0;
#X connect 21 0 28 0;
#X connect 21 1 27 0;
#X connect 21 2 26 0;
#X connect 22 0 2 0;
#X connect 22 0 2 1;
#X connect 22 1 10 0;
#X connect 23 0 25 0;
#X connect 24 0 23 2;
#X connect 25 0 30 0;
#X connect 26 0 17 0;
#X connect 27 0 23 0;
#X connect 28 0 16 0;
#X connect 29 0 11 0;
#X connect 30 0 12 0;
