#N canvas 539 116 736 637 10;
#X obj 8 17 cnv 15 680 40 empty empty Generative_series 20 12 0 14
-233017 -66577 0;
#X obj 303 21 cnv 15 380 40 empty empty ABS:rr_parametrizer 20 20 0
24 -128992 -262144 0;
#X obj 29 442 rr_OUTdac~;
#X obj 30 552 rr_record~;
#X msg 193 526 rec01.wav;
#X text 309 481 1st toggle turn ON/OFF your Dsp. 2nd toggle visualize
the wave sound. Slide is for volume.;
#X text 309 550 You can record your performance. Put the name. It show
passing seconds while recording. Bang to reset.;
#X text 309 375 Tone~ generate a tone with envelope: Midi value (0-127)
in 1st inlet \, duration in ms 2nd inlet \, power for asc/desc (1-8)
in 3rd inlet.;
#X text 308 94 HOW TO: Use density to define how much times in seconds
you choose bang occures.;
#X msg 187 260 0 2 3 5 7 9 10;
#X obj 76 188 rr_circle;
#X obj 30 113 rr_density;
#X obj 30 286 rr_parametrizer;
#X obj 273 351 bng 15 250 50 0 empty empty empty 17 7 0 10 -262144
-1 -1;
#X obj 30 415 rr_echo~ e2 500 0.2;
#X obj 30 393 rr_echo~ e1 50 0.05, f 21;
#X text 309 421 Echo~ repeats sound (e1 \, e2 \, ...) every ms you
put as parameter and fade out. You can put multiples in sequence.Duration
< 50ms may be a simple reverber. You can put 3rd attribute from 0-1
for feedback.;
#X text 308 130 In circle: [div] how many bangs in to have a bang out
(a counter) \; [int] defines interval to next number out \; [oct] in
how many octaves can displaces \; [off] offset number (may be root
of sequence] \; [set] reset. Es: have circle of fifth with 7 in int.
2nd inlet is for [div] and 3rd for [int].;
#X text 309 229 In parametrizer: put in 2nd inlet a progressive series
(list) of intervals which represents the elements of the scale to use
(mod 12) [minor scale in example]. [div] how many bangs in to have
a bang out (a counter) \; [num] how many elements in your sequence
\; [oct] in which octave \; [pr%] probability to play (0-100) \; [off]
your root \; [seed] change sequence. 2nd outlet bangs when sequence
ends.;
#X obj 30 371 rr_tone~ 0 450 3;
#X connect 2 0 3 0;
#X connect 2 1 3 1;
#X connect 4 0 3 2;
#X connect 9 0 12 2;
#X connect 10 0 12 1;
#X connect 11 0 12 0;
#X connect 12 0 19 0;
#X connect 12 1 13 0;
#X connect 13 0 10 0;
#X connect 14 0 2 0;
#X connect 14 1 2 1;
#X connect 15 0 14 0;
#X connect 15 1 2 1;
#X connect 19 0 15 0;
