#N canvas 593 116 767 637 10;
#X obj 8 17 cnv 15 680 40 empty empty Generative_series 20 12 0 14
-233017 -66577 0;
#X obj 303 21 cnv 15 380 40 empty empty ABS:rr_logistica 20 20 0 24
-128992 -262144 0;
#X obj 30 532 rr_record~;
#X msg 193 506 rec01.wav;
#X text 309 550 You can record your performance. Put the name. It show
passing seconds while recording. Bang to reset.;
#X obj 30 92 tgl 15 0 empty empty empty 17 7 0 10 -262144 -1 -1 0 1
;
#X obj 142 394 rev1~;
#X floatatom 180 394 5 0 0 0 - - -;
#X floatatom 204 371 5 0 0 0 - - -;
#X text 309 460 1st toggle turn ON/OFF your Dsp. 2nd toggle visualize
the wave sound. Stereo spatialization and volume sliders.;
#X obj 30 354 *~ 0.25;
#X obj 29 422 rr_XOUTdac~;
#X obj 142 371 hip~ 1000;
#X obj 105 256 s dur;
#X msg 30 308 next \$1;
#X obj 30 331 clone 8 rr_fmr~;
#X floatatom 130 308 5 0 0 0 - - -;
#X obj 130 330 s seed;
#X obj 30 118 rr_pulsa+ 1 1;
#X floatatom 82 148 5 0 0 0 - - -;
#X floatatom 135 148 5 0 0 0 - - -;
#X obj 30 194 t f f;
#X obj 105 233 * 1000;
#X obj 105 210 rr_scaling+ 8 1;
#X obj 30 283 rr_scaling+ 50 40;
#X text 309 167 Logistica needs 3 arguments \; 1st is width of step
sequence \; 2nd are num of elements in sequence (2nd inlet) \; 3rd
(0-4) is caotic level (3rd inlet).;
#X obj 30 171 rr_logistica 2 5 1;
#X connect 3 0 2 2;
#X connect 5 0 18 0;
#X connect 6 0 11 1;
#X connect 7 0 6 1;
#X connect 8 0 12 1;
#X connect 10 0 11 0;
#X connect 10 0 12 0;
#X connect 10 0 11 1;
#X connect 11 0 2 0;
#X connect 11 1 2 1;
#X connect 12 0 6 0;
#X connect 14 0 15 0;
#X connect 15 0 10 0;
#X connect 16 0 17 0;
#X connect 18 0 26 0;
#X connect 19 0 26 1;
#X connect 20 0 26 2;
#X connect 21 0 24 0;
#X connect 21 1 23 0;
#X connect 22 0 13 0;
#X connect 23 0 18 1;
#X connect 23 0 22 0;
#X connect 24 0 14 0;
#X connect 26 0 21 0;
