#N canvas 6 116 699 637 10;
#X obj 8 17 cnv 15 680 40 empty empty Generative_series 20 12 0 14
-233017 -66577 0;
#X obj 303 21 cnv 15 380 40 empty empty ABS:rr_allchords 20 20 0 24
-128992 -262144 0;
#X obj 29 428 rr_OUTdac~;
#X obj 30 538 rr_record~;
#X msg 193 512 rec01.wav;
#X text 309 460 1st toggle turn ON/OFF your Dsp. 2nd toggle visualize
the wave sound. Slide is for volume.;
#X text 309 550 You can record your performance. Put the name. It show
passing seconds while recording. Bang to reset.;
#X text 308 94 HOW TO: Use pulsa to define how much times in seconds
you choose bang occures.;
#X obj 30 89 tgl 15 0 empty empty empty 17 7 0 10 -262144 -1 -1 0 1
;
#X obj 85 402 rev1~;
#X floatatom 123 402 5 0 0 0 - - -;
#X obj 158 430 bng 15 250 50 0 empty empty empty 17 7 0 10 -262144
-1 -1;
#X obj 158 450 s sync;
#X obj 30 362 *~ 0.15;
#X msg 30 312 next \$1;
#X obj 85 379 hip~ 1000;
#X obj 30 253 + 0;
#X floatatom 160 151 5 0 0 0 - - -;
#X obj 135 126 change -1;
#X obj 30 337 clone 16 rr_tone~ 2500 3;
#X obj 30 110 rr_pulsa+ 2 1 5;
#X obj 135 237 rr_circula 4 5 12;
#X obj 30 137 random 5;
#X msg 143 201 0 2 3 5 7 9 10;
#X obj 30 203 rr_allchords 4 2;
#X obj 30 276 + 50;
#X text 308 208 Allchords needs 2 arguments and a list/scale in 2nd
inlet \; 1st how many voices in chord (2-5) \; 2nd voice interval in
scale (1-10).;
#X connect 2 0 3 0;
#X connect 2 1 3 1;
#X connect 4 0 3 2;
#X connect 8 0 20 0;
#X connect 9 0 2 0;
#X connect 9 0 2 1;
#X connect 10 0 9 1;
#X connect 11 0 12 0;
#X connect 13 0 2 0;
#X connect 13 0 9 0;
#X connect 13 0 15 0;
#X connect 14 0 19 0;
#X connect 15 0 9 0;
#X connect 16 0 25 0;
#X connect 17 0 20 1;
#X connect 18 0 21 0;
#X connect 19 0 13 0;
#X connect 20 0 22 0;
#X connect 20 1 18 0;
#X connect 21 0 16 1;
#X connect 21 0 17 0;
#X connect 22 0 24 0;
#X connect 23 0 24 1;
#X connect 24 0 16 0;
#X connect 25 0 14 0;
