#N canvas 539 116 736 637 10;
#X obj 8 17 cnv 15 680 40 empty empty Generative_series 20 12 0 14
-233017 -66577 0;
#X obj 303 21 cnv 15 380 40 empty empty ABS:rr_wsha4~/rr_wsha4 20 20
0 24 -128992 -262144 0;
#X obj 29 435 rr_OUTdac~;
#X obj 30 545 rr_record~;
#X msg 193 519 rec01.wav;
#X text 309 485 1st toggle turn ON/OFF your Dsp. 2nd toggle visualize
the wave sound. Slide is for volume.;
#X text 309 550 You can record your performance. Put the name. It show
passing seconds while recording. Bang to reset.;
#X text 308 134 Choose how many elements in your sequence [num] then
[set].You can click [set] again for a new sequence. You can bang in
2nd inlet to [set]. 3rd inlet (2-6) how many repetitions of sequence
to bang out in 2nd outlet.;
#X obj 30 139 rr_play;
#X obj 30 81 tgl 15 0 empty empty empty 17 7 0 10 -262144 -1 -1 1 1
;
#X obj 159 435 bng 15 250 50 0 empty empty empty 17 7 0 10 -262144
-1 -1;
#X obj 159 455 s sync;
#X text 308 94 HOW TO: Use pulsa to define how much times in seconds
you choose bang occures.;
#X obj 153 123 rr_trga 12 0 1 1;
#X obj 142 386 hip~ 1500;
#X obj 142 409 rev1~;
#X floatatom 181 409 5 0 0 0 - - -;
#X obj 30 369 *~ 0.25;
#X obj 30 344 *~;
#X floatatom 161 344 5 0 0 0 - - -;
#X obj 30 204 t f b, f 7;
#X obj 30 273 sig~;
#X obj 30 250 mtof;
#X obj 30 227 + 35;
#X obj 30 296 +~;
#X obj 98 256 *~;
#X floatatom 217 256 5 0 0 0 - - -;
#X obj 98 279 *~;
#X floatatom 127 279 5 0 0 0 - - -;
#X obj 98 233 rr_wsha4 1 0 1 1;
#X floatatom 129 190 5 0 0 0 - - -;
#X floatatom 160 211 5 0 0 0 - - -;
#X floatatom 208 218 5 0 0 0 - - -;
#X obj 30 101 rr_pulsa 1 2, f 21;
#X obj 69 344 rr_envr 1 2000;
#X obj 125 256 rr_envr 1 1800;
#X obj 30 320 rr_wsha4~ 0 3 1 1;
#X text 309 225 Wsha4 needs 4 arguments \; 1st clone instances \; 2nd
is wave shape (sine/saw/sqr/tri) or (1st inlet) \; 3rd is amplitude
(0-2) or (2nd inlet) \; 4th is ratio or (3rd inlet).;
#X text 309 325 Wsha4~ needs 4 arguments. audio sig in 1st inlet \;
1st clone instances \; 2nd is wave shape (sine/saw/sqr/tri) \; 3rd
is amplitude (0-2) \; 4th is ratio.;
#X connect 2 0 3 0;
#X connect 2 1 3 1;
#X connect 4 0 3 2;
#X connect 8 0 20 0;
#X connect 9 0 33 0;
#X connect 10 0 11 0;
#X connect 13 0 8 1;
#X connect 14 0 15 0;
#X connect 15 0 2 1;
#X connect 15 0 2 0;
#X connect 16 0 15 1;
#X connect 17 0 2 0;
#X connect 17 0 14 0;
#X connect 17 0 2 1;
#X connect 18 0 17 0;
#X connect 19 0 34 1;
#X connect 20 0 23 0;
#X connect 20 1 34 0;
#X connect 20 1 35 0;
#X connect 21 0 24 0;
#X connect 22 0 21 0;
#X connect 22 0 29 0;
#X connect 23 0 22 0;
#X connect 24 0 36 0;
#X connect 25 0 27 0;
#X connect 26 0 35 1;
#X connect 27 0 24 1;
#X connect 28 0 27 1;
#X connect 29 0 25 0;
#X connect 30 0 29 1;
#X connect 31 0 29 2;
#X connect 32 0 29 3;
#X connect 33 0 8 0;
#X connect 33 1 13 0;
#X connect 34 0 18 1;
#X connect 35 0 25 1;
#X connect 36 0 18 0;
