#N canvas 593 116 767 637 10;
#X obj 8 17 cnv 15 680 40 empty empty Generative_series 20 12 0 14
-233017 -66577 0;
#X obj 303 21 cnv 15 380 40 empty empty ABS:rr_matrix 20 20 0 24 -128992
-262144 0;
#X obj 29 445 rr_OUTdac~;
#X obj 30 555 rr_record~;
#X msg 193 529 rec01.wav;
#X text 309 460 1st toggle turn ON/OFF your Dsp. 2nd toggle visualize
the wave sound. Slide is for volume.;
#X text 309 550 You can record your performance. Put the name. It show
passing seconds while recording. Bang to reset.;
#X msg 112 297 0 2 3 5 7 9 10;
#X text 309 295 In allscales put in 2nd inlet a progressive series
(list) of intervals which represents the elements of the scale to use
(mod 12). [minor scale in example];
#X text 308 94 HOW TO: Use pulsa to define how much times in seconds
you choose bang occures.;
#X obj 30 87 tgl 15 0 empty empty empty 17 7 0 10 -262144 -1 -1 0 1
;
#X obj 85 386 lop~ 600;
#X obj 85 409 rev1~;
#X floatatom 123 409 5 0 0 0 - - -;
#X msg 30 320 next \$1;
#X obj 30 297 rr_allscales;
#X obj 158 447 bng 15 250 50 0 empty empty empty 17 7 0 10 -262144
-1 -1;
#X obj 158 467 s sync;
#X obj 30 108 rr_pulsa 4 1;
#X obj 30 369 *~ 0.15;
#X obj 47 155 bng 15 250 50 0 empty empty empty 17 7 0 10 -262144 -1
-1;
#X msg 81 154 1 2 3;
#X obj 30 208 + 0;
#X obj 30 231 + 0;
#X msg 148 170 1 2 3;
#X msg 206 193 1 2 3;
#X obj 114 171 bng 15 250 50 0 empty empty empty 17 7 0 10 -262144
-1 -1;
#X obj 174 194 bng 15 250 50 0 empty empty empty 17 7 0 10 -262144
-1 -1;
#X msg 131 148 1 -2;
#X msg 191 171 2 -1;
#X msg 64 134 1 -1;
#X obj 30 253 + 40;
#X floatatom 30 276 5 0 0 0 - - -;
#X obj 30 343 clone 8 rr_tone~ 500 3;
#X obj 30 176 rr_matrix;
#X obj 97 192 rr_matrix;
#X obj 157 215 rr_matrix;
#X text 308 164 Matrix needs 2 lists in 3rd/4th inlets. A bang in 2nd
inlet to generate the matrix. A bang in 1st inlet to get the every
single element of matrix. 2nd outlet returns the whole matrix as a
list and 3rd outlet returns a bang at the end of sequence.;
#X connect 2 0 3 0;
#X connect 2 1 3 1;
#X connect 4 0 3 2;
#X connect 7 0 15 1;
#X connect 10 0 18 0;
#X connect 11 0 12 0;
#X connect 12 0 2 0;
#X connect 12 0 2 1;
#X connect 13 0 12 1;
#X connect 14 0 33 0;
#X connect 15 0 14 0;
#X connect 16 0 17 0;
#X connect 18 0 34 0;
#X connect 19 0 11 0;
#X connect 19 0 2 0;
#X connect 19 0 12 0;
#X connect 20 0 34 1;
#X connect 21 0 34 3;
#X connect 22 0 23 0;
#X connect 23 0 31 0;
#X connect 24 0 35 3;
#X connect 25 0 36 3;
#X connect 26 0 35 1;
#X connect 27 0 36 1;
#X connect 28 0 35 2;
#X connect 29 0 36 2;
#X connect 30 0 34 2;
#X connect 31 0 32 0;
#X connect 32 0 15 0;
#X connect 33 0 19 0;
#X connect 34 0 22 0;
#X connect 34 2 35 0;
#X connect 35 0 22 1;
#X connect 35 2 36 0;
#X connect 36 0 23 1;
