#N canvas 539 116 736 637 10;
#X obj 8 17 cnv 15 680 40 empty empty Generative_series 20 12 0 14
-233017 -66577 0;
#X obj 303 21 cnv 15 380 40 empty empty ABS:rr_rndchords 20 20 0 24
-128992 -262144 0;
#X obj 29 442 rr_OUTdac~;
#X obj 30 552 rr_record~;
#X msg 193 526 rec01.wav;
#X text 309 460 1st toggle turn ON/OFF your Dsp. 2nd toggle visualize
the wave sound. Slide is for volume.;
#X text 309 550 You can record your performance. Put the name. It show
passing seconds while recording. Bang to reset.;
#X obj 30 113 rr_density;
#X text 309 364 Tone~ generate a tone with envelope: Midi value (0-127)
in 1st inlet \, duration in ms 2nd inlet \, power for asc/desc (1-8)
in 3rd inlet.;
#X text 308 94 HOW TO: Use density to define how much times in seconds
you choose bang occures.;
#X text 309 410 Echo~ repeats sound (e1 \, e2 \, ...) every ms you
put as parameter and fade out. You can put multiples in sequence. You
can put 3rd attribute from 0-1 for feedback.;
#X msg 30 323 next \$1;
#X obj 30 242 rr_rndchords;
#X obj 30 178 rr_t-rand;
#X obj 30 345 clone 6 rr_tone~ 500 1;
#X obj 30 391 rr_echo~ e1 500 0.2;
#X obj 141 416 *~ 0.25;
#X obj 30 368 /~ 6;
#X obj 144 103 rr_seeds;
#X text 309 123 Seeds produces rnd numbers [every] bangs in you define
pushing out an 2nd outlet if toogle is ON.;
#X text 308 174 Using t-rand: [div] how many bangs in to have a bang
out (a counter) \; [step] how many step in sequence \; [prob] probability
to bang out (0-100) \; [seed] for new random.;
#X text 309 248 In rndchords: [div] how many bangs in to have a bang
out (a counter) \; [chrd] how many grades in your chord (2-6) \; [seq]
how many chords in your sequence \; [off] root chord \;;
#X connect 2 0 3 0;
#X connect 2 1 3 1;
#X connect 4 0 3 2;
#X connect 7 0 13 0;
#X connect 7 0 18 0;
#X connect 11 0 14 0;
#X connect 12 0 11 0;
#X connect 12 1 11 0;
#X connect 12 2 11 0;
#X connect 12 3 11 0;
#X connect 12 4 11 0;
#X connect 12 5 11 0;
#X connect 12 6 11 0;
#X connect 13 0 12 0;
#X connect 14 0 17 0;
#X connect 15 0 2 0;
#X connect 15 0 2 1;
#X connect 15 1 16 0;
#X connect 16 0 2 1;
#X connect 17 0 15 0;
#X connect 18 1 12 2;
#X connect 18 1 13 1;
