#N canvas 539 116 736 637 10;
#X obj 8 17 cnv 15 680 40 empty empty Generative_series 20 12 0 14
-233017 -66577 0;
#X obj 303 21 cnv 15 380 40 empty empty ABS:rr_accumula 20 20 0 24
-128992 -262144 0;
#X obj 29 442 rr_OUTdac~;
#X obj 30 552 rr_record~;
#X msg 193 526 rec01.wav;
#X text 309 460 1st toggle turn ON/OFF your Dsp. 2nd toggle visualize
the wave sound. Slide is for volume.;
#X text 309 550 You can record your performance. Put the name. It show
passing seconds while recording. Bang to reset.;
#X obj 142 412 rev1~;
#X floatatom 181 412 5 0 0 0 - - -;
#X obj 31 338 rr_perc~ 0 1500 90 3 0.2 0.2 1000 10;
#X obj 31 86 tgl 15 0 empty empty empty 17 7 0 10 -262144 -1 -1 0 1
;
#X obj 124 307 rr_perc~ 0 75 150 2 0.5 0.1 1000 10;
#X obj 158 442 bng 15 250 50 0 empty empty empty 17 7 0 10 -262144
-1 -1;
#X obj 158 462 s sync;
#X obj 30 373 *~ 0.25;
#X obj 142 388 hip~ 1000;
#X obj 31 106 rr_pulsa 5 1;
#X obj 31 194 rr_accumula 0.35;
#X obj 124 221 bng 15 250 50 0 empty empty empty 17 7 0 10 -262144
-1 -1;
#X floatatom 184 133 5 0 0 0 - - -;
#X obj 184 155 / 100;
#X obj 184 178 clip 0 1;
#X text 309 180 Accumula need a bang in 1st inlet and an argument (0-1)
as accumulation value every bang \, it returns a bang when 1;
#X obj 73 251 rr_accumula+ 10 0.3;
#X obj 184 277 bng 15 250 50 0 empty empty empty 17 7 0 10 -262144
-1 -1;
#X text 309 240 In accumula+ version you can choose sequence length
too.;
#X connect 2 0 3 0;
#X connect 2 1 3 1;
#X connect 4 0 3 2;
#X connect 7 0 2 1;
#X connect 8 0 7 1;
#X connect 9 0 14 0;
#X connect 10 0 16 0;
#X connect 11 0 14 0;
#X connect 12 0 13 0;
#X connect 14 0 2 0;
#X connect 14 0 2 1;
#X connect 14 0 15 0;
#X connect 15 0 7 0;
#X connect 16 0 17 0;
#X connect 16 0 23 0;
#X connect 17 0 9 0;
#X connect 17 1 18 0;
#X connect 18 0 11 0;
#X connect 19 0 20 0;
#X connect 20 0 21 0;
#X connect 21 0 17 1;
#X connect 21 0 23 2;
#X connect 23 1 24 0;
