#N canvas 597 125 704 637 10;
#X obj 8 17 cnv 15 680 40 empty empty Generative_series 20 12 0 14
-233017 -66577 0;
#X obj 303 21 cnv 15 380 40 empty empty ABS:rr_selecta+ 20 20 0 24
-128992 -262144 0;
#X obj 30 508 rr_record~;
#X msg 193 482 rec01.wav;
#X text 309 550 You can record your performance. Put the name. It show
passing seconds while recording. Bang to reset.;
#X text 309 288 In allscales put in 2nd inlet a progressive series
(list) of intervals which represents the elements of the scale to use
(mod 12). [minor scale in example];
#X obj 30 86 tgl 15 0 empty empty empty 17 7 0 10 -262144 -1 -1 0 1
;
#X obj 142 373 rev1~;
#X floatatom 180 373 5 0 0 0 - - -;
#X msg 30 285 next \$1;
#X obj 30 262 rr_allscales;
#X floatatom 138 92 5 0 0 0 - - -;
#X floatatom 204 350 5 0 0 0 - - -;
#X text 309 460 1st toggle turn ON/OFF your Dsp. 2nd toggle visualize
the wave sound. Stereo spatialization and volume sliders.;
#X obj 30 333 *~ 0.25;
#X obj 29 398 rr_XOUTdac~;
#X text 308 94 Pulsa+ needs 3 arguments: 1st how many sec for pulse
duration \; 2nd how many subdivision in pulse \; 3rd how many beats
to repeat durations sequence. Put a value in 2nd inlet to generate
new sequence. 1st outlet for bangs series and 2nd outlet for duration
of every beat.;
#X msg 117 246 0 2 3 5 7 9 10;
#X obj 30 107 rr_pulsa+ 1 2 11;
#X obj 30 238 + 40;
#X obj 30 310 clone 12 rr_tone~ 2500 3;
#X obj 120 199 - 12;
#X obj 30 159 rr_selecta+ 5;
#X obj 120 158 rr_selecta+ 8;
#X text 308 198 Selecta+ needs an argument as range for sequence (you
can change it in 2nd inlet) and a bang in 1st inlet \; It returns a
sequence where change pitch \, time and duration.;
#X obj 142 350 hip~ 500;
#X connect 3 0 2 2;
#X connect 6 0 18 0;
#X connect 7 0 15 1;
#X connect 8 0 7 1;
#X connect 9 0 20 0;
#X connect 10 0 9 0;
#X connect 11 0 18 1;
#X connect 11 0 23 1;
#X connect 12 0 25 1;
#X connect 14 0 15 0;
#X connect 14 0 15 1;
#X connect 14 0 25 0;
#X connect 15 0 2 0;
#X connect 15 1 2 1;
#X connect 17 0 10 1;
#X connect 18 0 22 0;
#X connect 18 0 23 0;
#X connect 19 0 10 0;
#X connect 20 0 14 0;
#X connect 21 0 19 0;
#X connect 22 0 19 0;
#X connect 23 0 21 0;
#X connect 25 0 7 0;
