#N canvas 539 116 736 637 10;
#X obj 8 17 cnv 15 680 40 empty empty Generative_series 20 12 0 14
-233017 -66577 0;
#X obj 303 21 cnv 15 380 40 empty empty ABS:rr_beep/boop 20 20 0 24
-128992 -262144 0;
#X obj 29 442 rr_OUTdac~;
#X obj 30 552 rr_record~;
#X msg 193 526 rec01.wav;
#X text 309 460 1st toggle turn ON/OFF your Dsp. 2nd toggle visualize
the wave sound. Slide is for volume.;
#X text 309 550 You can record your performance. Put the name. It show
passing seconds while recording. Bang to reset.;
#X obj 30 113 rr_density;
#X text 308 94 HOW TO: Use density to define how much times in seconds
you choose bang occures.;
#X obj 30 180 rr_play;
#X obj 29 393 rr_echo~ e1 500 0.5;
#X text 309 410 Echo~ repeats sound (e1 \, e2 \, ...) every ms you
put as parameter and fade out. You can put multiples in sequence. You
can put 3rd attribute from 0-1 for feedback.;
#X obj 103 180 rr_circle;
#X obj 88 261 + 0;
#X text 308 210 In circle: [div] how many bangs in to have a bang out
(a counter) \; [int] defines interval to next number out \; [oct] in
how many octaves can displaces \; [off] offset number (may be root
of sequence] \; [set] reset. Es: have circle of fifth with 7 in int.
2nd inlet is for [div] and 3rd for [int].;
#X text 308 154 Choose how many elements in your sequence [num] then
[set].You can click [set] again for a new sequence. You can bang in
2nd inlet to [set]. 3rd inlet (2-6) how many repetitions of sequence
to bang out in 2nd outlet.;
#X obj 30 337 t b f, f 14;
#X obj 130 337 t b f, f 9;
#X obj 141 416 *~ 0.25;
#X obj 30 268 random 2;
#X obj 30 313 route 0 1, f 34;
#X obj 30 245 t b f;
#X obj 30 291 pack f f;
#X obj 30 360 rr_beep~ 250 0;
#X obj 130 366 rr_boop~ 0.95 0 1000;
#X text 309 306 In beep: 1st argument (2nd inlet) is duration \; 2nd
argument (3rd inlet) is tone.;
#X text 309 356 In boop: 1st argument (2nd inlet) is ratio (0-2) \;
2nd argument (3rd inlet) is duration.;
#X connect 2 0 3 0;
#X connect 2 1 3 1;
#X connect 4 0 3 2;
#X connect 7 0 9 0;
#X connect 9 0 21 0;
#X connect 9 1 12 0;
#X connect 10 0 2 0;
#X connect 10 0 2 1;
#X connect 10 1 18 0;
#X connect 12 0 13 1;
#X connect 13 0 22 1;
#X connect 16 0 23 0;
#X connect 16 1 23 2;
#X connect 17 0 24 0;
#X connect 17 1 24 1;
#X connect 18 0 2 1;
#X connect 19 0 22 0;
#X connect 20 0 16 0;
#X connect 20 1 17 0;
#X connect 21 0 19 0;
#X connect 21 1 13 0;
#X connect 22 0 20 0;
#X connect 23 0 10 0;
#X connect 24 0 10 0;
