#N canvas 593 116 767 637 10;
#X obj 8 17 cnv 15 680 40 empty empty Generative_series 20 12 0 14
-233017 -66577 0;
#X obj 303 21 cnv 15 380 40 empty empty ABS:rr_stretch 20 20 0 24 -128992
-262144 0;
#X obj 29 422 rr_OUTdac~;
#X obj 30 532 rr_record~;
#X msg 193 506 rec01.wav;
#X text 309 460 1st toggle turn ON/OFF your Dsp. 2nd toggle visualize
the wave sound. Slide is for volume.;
#X text 309 550 You can record your performance. Put the name. It show
passing seconds while recording. Bang to reset.;
#X text 309 410 Echo~ repeats sound (e1 \, e2 \, ...) every ms you
put as parameter and fade out. You can put multiples in sequence. You
can put 3rd attribute from 0-1 for feedback.;
#X text 308 94 HOW TO: Use pulsa to define how much times in seconds
you choose bang occures.;
#X obj 30 87 tgl 15 0 empty empty empty 17 7 0 10 -262144 -1 -1 0 1
;
#X obj 142 393 *~ 0.15;
#X text 309 294 Tone~ generate a tone with envelope: Midi value (0-127)
in 1st inlet \, duration in ms 2nd inlet \, power for asc/desc (1-8)
in 3rd inlet.;
#X obj 30 371 rr_echo~ e1 1000 0.15;
#X obj 30 108 rr_pulsa 4 1;
#X obj 30 184 rr_stretch 3 8 20, f 28;
#X obj 30 207 + 60;
#X obj 30 345 /~ 4;
#X msg 71 136 0 4 7 2 5;
#X obj 187 87 bng 15 250 50 0 empty empty empty 17 7 0 10 -262144 -1
-1;
#X obj 187 106 s sync;
#X obj 30 230 rr_tone~ 0 250 3;
#X obj 85 255 + 72;
#X obj 85 278 rr_tone~ 0 500 3;
#X obj 140 229 rr_tone~ 0 1500 2;
#X obj 195 278 rr_tone~ 0 4000 2;
#X obj 195 255 + 48;
#X floatatom 112 162 5 0 0 0 - - -;
#X floatatom 153 162 5 0 0 0 - - -;
#X floatatom 195 162 5 0 0 0 - - -;
#X text 308 184 Stretch needs 3 arguments (or inlet values): 2nd inlet
is for list/sequence to repeat \; The three arguments values are how
many bangs needs to put an output in the respective outlet. Every outlet
returns same sequence at time you stretch as argument.;
#X obj 140 206 + 67;
#X connect 2 0 3 0;
#X connect 2 1 3 1;
#X connect 4 0 3 2;
#X connect 9 0 13 0;
#X connect 10 0 2 1;
#X connect 10 0 2 0;
#X connect 12 0 2 0;
#X connect 12 0 2 1;
#X connect 12 1 10 0;
#X connect 13 0 14 0;
#X connect 14 0 15 0;
#X connect 14 1 21 0;
#X connect 14 2 30 0;
#X connect 14 3 25 0;
#X connect 15 0 20 0;
#X connect 16 0 12 0;
#X connect 17 0 14 1;
#X connect 18 0 19 0;
#X connect 20 0 16 0;
#X connect 21 0 22 0;
#X connect 22 0 16 0;
#X connect 23 0 16 0;
#X connect 24 0 16 0;
#X connect 25 0 24 0;
#X connect 26 0 14 2;
#X connect 27 0 14 3;
#X connect 28 0 14 4;
#X connect 30 0 23 0;
