#N canvas 539 116 736 637 10;
#X obj 8 17 cnv 15 680 40 empty empty Generative_series 20 12 0 14
-233017 -66577 0;
#X obj 303 21 cnv 15 380 40 empty empty ABS:rr_dura2 20 20 0 24 -128992
-262144 0;
#X obj 29 442 rr_OUTdac~;
#X obj 30 552 rr_record~;
#X msg 193 526 rec01.wav;
#X text 309 460 1st toggle turn ON/OFF your Dsp. 2nd toggle visualize
the wave sound. Slide is for volume.;
#X text 309 550 You can record your performance. Put the name. It show
passing seconds while recording. Bang to reset.;
#X obj 30 113 rr_density;
#X text 308 94 HOW TO: Use density to define how much times in seconds
you choose bang occures.;
#X text 309 410 Echo~ repeats sound (e1 \, e2 \, ...) every ms you
put as parameter and fade out. You can put multiples in sequence. You
can put 3rd attribute from 0-1 for feedback.;
#X obj 142 413 *~ 0.25;
#X obj 30 342 allscales;
#X obj 30 206 rr_dura2 7, f 14;
#X floatatom 111 184 5 0 0 0 - - -;
#X obj 30 229 rr_play;
#X msg 115 326 0 2 3 5 7 9 10;
#X obj 30 320 + 30;
#X obj 30 366 rr_tone~ 0 1000 3;
#X floatatom 111 253 5 0 0 0 - - -;
#X obj 111 230 * 300;
#X obj 30 391 rr_echo~ e1 250 0.15;
#X text 309 303 In allscales put in 2nd inlet a progressive series
(list) of intervals which represents the elements of the scale to use
(mod 12). [minor scale in example];
#X text 308 224 In play choose how many elements in your sequence [num]
then [set].You can click [set] again for a new sequence. You can bang
in 2nd inlet to [set]. 3rd inlet (2-6) how many repetitions of sequence
to bang out in 2nd outlet.;
#X text 309 356 Tone~ generate a tone with envelope: Midi value (0-127)
in 1st inlet \, duration in ms 2nd inlet \, power for asc/desc (1-8)
in 3rd inlet.;
#X text 308 152 Dura2 returns bangs at different multiple times of
inlet triggered bangs. It needs a argument: is how many bangs to repeat
sequence \; 2nd inlet is for change random seed \; 2nd outlet returns
time selected.;
#X connect 2 0 3 0;
#X connect 2 1 3 1;
#X connect 4 0 3 2;
#X connect 7 0 12 0;
#X connect 10 0 2 1;
#X connect 10 0 2 0;
#X connect 11 0 17 0;
#X connect 12 0 14 0;
#X connect 12 1 19 0;
#X connect 13 0 12 1;
#X connect 14 0 16 0;
#X connect 15 0 11 1;
#X connect 16 0 11 0;
#X connect 17 0 20 0;
#X connect 18 0 17 1;
#X connect 19 0 18 0;
#X connect 20 0 2 0;
#X connect 20 0 2 1;
#X connect 20 1 10 0;
