#N canvas 573 116 736 637 10;
#X obj 8 17 cnv 15 680 40 empty empty Generative_series 20 12 0 14
-233017 -66577 0;
#X obj 303 21 cnv 15 380 40 empty empty ABS:rr_quanta 20 20 0 24 -128992
-262144 0;
#X obj 29 442 rr_OUTdac~;
#X obj 30 552 rr_record~;
#X msg 193 526 rec01.wav;
#X text 309 440 1st toggle turn ON/OFF your Dsp. 2nd toggle visualize
the wave sound. Slide is for volume.;
#X text 309 550 You can record your performance. Put the name. It show
passing seconds while recording. Bang to reset.;
#X obj 30 113 rr_density;
#X text 309 344 Tone~ generate a tone with envelope: Midi value (0-127)
in 1st inlet \, duration in ms 2nd inlet \, power for asc/desc (1-8)
in 3rd inlet.;
#X text 308 94 HOW TO: Use density to define how much times in seconds
you choose bang occures.;
#X obj 30 362 rr_tone~ 0 100 2;
#X text 308 301 [tone] defines root and [seed] changes random sequence
\; Choose the only intervals you want to play.;
#X text 309 390 Echo~ repeats sound (e1 \, e2 \, ...) every ms you
put as parameter and fade out. You can put multiples in sequence. Ms
< 50 can have a simple reverber.;
#X msg 30 339 60;
#X obj 30 178 t b b b, f 18;
#X obj 29 394 rr_echo~ e1 50, f 19;
#X obj 135 361 rr_tone~ 0 100 4;
#X obj 82 315 rr_tone~ 0 200 3;
#X text 308 202 Quanta needs 3 attributes or a list in 2nd inlet \;
1st is how long is sequence to repeat \, 2nd the beat that have fist
bang out \, 3rd the interval from next bang out. The 2nd number must
be < the first.;
#X msg 187 187 15 4 4;
#X msg 240 232 6 2 2;
#X msg 135 338 80;
#X msg 82 292 70;
#X obj 135 255 rr_quanta 4 2 1, f 18;
#X obj 30 232 rr_quanta 6 3 2, f 18;
#X obj 82 210 rr_quanta 8 4 3, f 18;
#X connect 2 0 3 0;
#X connect 2 1 3 1;
#X connect 4 0 3 2;
#X connect 7 0 14 0;
#X connect 10 0 15 0;
#X connect 13 0 10 0;
#X connect 14 0 24 0;
#X connect 14 1 25 0;
#X connect 14 2 23 0;
#X connect 15 0 2 0;
#X connect 15 1 2 1;
#X connect 15 1 2 0;
#X connect 16 0 15 0;
#X connect 17 0 15 0;
#X connect 19 0 25 1;
#X connect 20 0 23 1;
#X connect 21 0 16 0;
#X connect 22 0 17 0;
#X connect 23 0 21 0;
#X connect 24 0 13 0;
#X connect 25 0 22 0;
