#N canvas 539 116 736 637 10;
#X obj 8 17 cnv 15 680 40 empty empty Generative_series 20 12 0 14
-233017 -66577 0;
#X obj 303 21 cnv 15 380 40 empty empty ABS:rr_synthr~ 20 20 0 24 -128992
-262144 0;
#X obj 29 432 rr_OUTdac~;
#X obj 30 542 rr_record~;
#X msg 193 516 rec01.wav;
#X text 309 485 1st toggle turn ON/OFF your Dsp. 2nd toggle visualize
the wave sound. Slide is for volume.;
#X text 309 550 You can record your performance. Put the name. It show
passing seconds while recording. Bang to reset.;
#X text 308 134 Choose how many elements in your sequence [num] then
[set].You can click [set] again for a new sequence. You can bang in
2nd inlet to [set]. 3rd inlet (2-6) how many repetitions of sequence
to bang out in 2nd outlet.;
#X obj 30 153 rr_play;
#X obj 30 91 tgl 15 0 empty empty empty 17 7 0 10 -262144 -1 -1 0 1
;
#X obj 159 432 bng 15 250 50 0 empty empty empty 17 7 0 10 -262144
-1 -1;
#X obj 159 452 s sync;
#X text 308 94 HOW TO: Use pulsa to define how much times in seconds
you choose bang occures.;
#X obj 30 111 rr_pulsa 3 1, f 21;
#X obj 153 137 rr_trga 12 0 1 1;
#X msg 30 304 next \$1;
#X floatatom 107 280 5 0 0 0 - - -;
#X obj 107 302 s seed;
#X obj 142 368 hip~ 1500;
#X obj 142 391 rev1~;
#X floatatom 181 391 5 0 0 0 - - -;
#X obj 153 302 s tseed;
#X obj 30 328 clone 4 rr_synthr~ 2000;
#X floatatom 165 255 5 0 0 0 - - -;
#X obj 165 277 s dur;
#X obj 30 278 + 50;
#X text 309 335 Synthr needs an argument as duration. It returns random
synth sounds. A value in 2nd inlet (or send seed) to have a new sound.
;
#X obj 30 351 *~ 0.25;
#X connect 2 0 3 0;
#X connect 2 1 3 1;
#X connect 4 0 3 2;
#X connect 8 0 25 0;
#X connect 9 0 13 0;
#X connect 10 0 11 0;
#X connect 13 0 8 0;
#X connect 13 1 14 0;
#X connect 14 0 8 1;
#X connect 14 0 21 0;
#X connect 15 0 22 0;
#X connect 16 0 17 0;
#X connect 18 0 19 0;
#X connect 19 0 2 1;
#X connect 19 0 2 0;
#X connect 20 0 19 1;
#X connect 22 0 27 0;
#X connect 23 0 24 0;
#X connect 25 0 15 0;
#X connect 27 0 2 0;
#X connect 27 0 18 0;
#X connect 27 0 2 1;
