#N canvas 593 116 767 637 10;
#X obj 8 17 cnv 15 680 40 empty empty Generative_series 20 12 0 14
-233017 -66577 0;
#X obj 303 21 cnv 15 380 40 empty empty ABS:rr_choose 20 20 0 24 -128992
-262144 0;
#X obj 29 422 rr_OUTdac~;
#X obj 30 532 rr_record~;
#X msg 193 506 rec01.wav;
#X text 309 460 1st toggle turn ON/OFF your Dsp. 2nd toggle visualize
the wave sound. Slide is for volume.;
#X text 309 550 You can record your performance. Put the name. It show
passing seconds while recording. Bang to reset.;
#X text 309 410 Echo~ repeats sound (e1 \, e2 \, ...) every ms you
put as parameter and fade out. You can put multiples in sequence. You
can put 3rd attribute from 0-1 for feedback.;
#X text 308 94 HOW TO: Use pulsa to define how much times in seconds
you choose bang occures.;
#X obj 30 87 tgl 15 0 empty empty empty 17 7 0 10 -262144 -1 -1 0 1
;
#X obj 30 371 rr_echo~ e1 500 0.5;
#X obj 30 108 rr_pulsa 3 1;
#X text 309 300 With plucked you can simulated plucked string sound
\; 1st 0 o number when use clone \; 2nd resonance (< 0.99) \; 3rd cutoff
freq for low in tone (< 6000) \; 4th cutoff freq for high in tone (<
5000) \; 5th cutoff freq for low in noise (< 6000) \; 6th cutoff freq
for high in noise (< 5000) \; 7th type of curve (1-8).;
#X msg 30 322 next \$1;
#X obj 30 255 rr_choose;
#X floatatom 93 255 5 0 0 0 - - -;
#X msg 30 228 0 0 0 4 6 6 7 11 12;
#X obj 158 124 t b b;
#X obj 158 255 rr_choose;
#X floatatom 221 255 5 0 0 0 - - -;
#X obj 93 168 trga 8 0 1 1;
#X obj 93 191 random 100;
#X obj 221 191 random 100;
#X obj 220 90 bng 15 250 50 0 empty empty empty 17 7 0 10 -262144 -1
-1;
#X obj 220 110 s sync;
#X obj 221 168 trga 8 0 1 2;
#X obj 30 278 + 60;
#X obj 158 278 + 48;
#X obj 142 393 *~ 0.25;
#X msg 158 228 0 4 6 7 11;
#X obj 30 346 clone rr_plucked~ 8 0.99 4500 50 6000 50;
#X text 309 240 Choose needs a list in input \; it random selects an
element from list. Put a seed in 2nd inlet to repeats the same selections.
;
#X text 308 144 Trga (trg arguments version) needs four arguments:
1st is division of inlet bangs \; 2nd is offset \; 3rd how many hits
\; 4rt is total length of sequence to divide in hits.;
#X connect 2 0 3 0;
#X connect 2 1 3 1;
#X connect 4 0 3 2;
#X connect 9 0 11 0;
#X connect 10 0 2 0;
#X connect 10 0 2 1;
#X connect 10 1 28 0;
#X connect 11 0 16 0;
#X connect 11 1 17 0;
#X connect 13 0 30 0;
#X connect 14 0 26 0;
#X connect 15 0 14 1;
#X connect 16 0 14 0;
#X connect 17 0 29 0;
#X connect 17 1 20 0;
#X connect 17 1 25 0;
#X connect 18 0 27 0;
#X connect 19 0 18 1;
#X connect 20 0 21 0;
#X connect 21 0 15 0;
#X connect 22 0 19 0;
#X connect 23 0 24 0;
#X connect 25 0 22 0;
#X connect 26 0 13 0;
#X connect 27 0 13 0;
#X connect 28 0 2 1;
#X connect 28 0 2 0;
#X connect 29 0 18 0;
#X connect 30 0 10 0;
