#N canvas 593 125 767 637 10;
#X obj 8 17 cnv 15 680 40 empty empty Generative_series 20 12 0 14
-233017 -66577 0;
#X obj 303 21 cnv 15 380 40 empty empty ABS:rr_toya~ 20 20 0 24 -128992
-262144 0;
#X obj 30 532 rr_record~;
#X msg 193 506 rec01.wav;
#X text 309 550 You can record your performance. Put the name. It show
passing seconds while recording. Bang to reset.;
#X msg 99 209 0 2 3 5 7 9 10;
#X text 308 229 In allscales put in 2nd inlet a progressive series
(list) of intervals which represents the elements of the scale to use
(mod 12). [minor scale in example];
#X obj 30 92 tgl 15 0 empty empty empty 17 7 0 10 -262144 -1 -1 0 1
;
#X obj 142 394 rev1~;
#X floatatom 180 394 5 0 0 0 - - -;
#X msg 30 308 next \$1;
#X obj 30 232 rr_allscales;
#X obj 30 160 rr_motifs;
#X floatatom 124 122 5 0 0 0 - - -;
#X obj 55 137 t b f;
#X floatatom 204 371 5 0 0 0 - - -;
#X text 309 460 1st toggle turn ON/OFF your Dsp. 2nd toggle visualize
the wave sound. Stereo spatialization and volume sliders.;
#X text 308 138 Motifs needs a value in 3rd inlet as seed \; a bang
in 2nd inlet generates different motifs. 1st outlet returns motif and
2nd outlet returns original motif idea that generated entire motif
(You can use it for time duration for example).;
#X obj 30 354 *~ 0.25;
#X obj 29 422 rr_XOUTdac~;
#X obj 30 209 + 40;
#X obj 142 371 hip~ 1000;
#X obj 30 331 clone 8 rr_toya~ 4 1000 2 500 16;
#X obj 30 115 rr_pulsa 3 1;
#X floatatom 30 188 5 0 0 0 - - -;
#X msg 90 285 next \$1;
#X obj 90 308 clone 4 rr_toya~ 2 3000 4 250 4;
#X text 307 94 HOW TO: Use pulsa to define how much times in seconds
you choose bang occures.;
#X text 308 304 Toya needs 6 arguments: 1st is clone instance \; 2nd
(1-10) from high to low tone \; 3rd is duration \; 4th (1-10) \, 5th
(1-1000) \, 6th (1-20) to generate low freq curve.;
#X obj 90 263 rr_every+ 6;
#X connect 3 0 2 2;
#X connect 5 0 11 1;
#X connect 7 0 23 0;
#X connect 8 0 19 1;
#X connect 9 0 8 1;
#X connect 10 0 22 0;
#X connect 11 0 10 0;
#X connect 11 0 29 0;
#X connect 12 0 24 0;
#X connect 12 1 24 0;
#X connect 13 0 14 0;
#X connect 14 0 12 1;
#X connect 14 1 12 2;
#X connect 15 0 21 1;
#X connect 18 0 19 0;
#X connect 18 0 21 0;
#X connect 18 0 19 1;
#X connect 19 0 2 0;
#X connect 19 1 2 1;
#X connect 20 0 11 0;
#X connect 21 0 8 0;
#X connect 22 0 18 0;
#X connect 23 0 12 0;
#X connect 24 0 20 0;
#X connect 25 0 26 0;
#X connect 26 0 18 0;
#X connect 29 0 25 0;
