#N canvas 539 116 736 637 10;
#X obj 8 17 cnv 15 680 40 empty empty Generative_series 20 12 0 14
-233017 -66577 0;
#X obj 303 21 cnv 15 380 40 empty empty ABS:rr_tuplet~ 20 20 0 24 -128992
-262144 0;
#X obj 29 422 rr_OUTdac~;
#X obj 30 532 rr_record~;
#X msg 193 506 rec01.wav;
#X text 309 460 1st toggle turn ON/OFF your Dsp. 2nd toggle visualize
the wave sound. Slide is for volume.;
#X text 309 550 You can record your performance. Put the name. It show
passing seconds while recording. Bang to reset.;
#X obj 142 392 rev1~;
#X floatatom 181 392 5 0 0 0 - - -;
#X floatatom 203 369 5 0 0 0 - - -;
#X obj 30 352 expr~ tanh($v1);
#X obj 30 329 *~ 1;
#X obj 30 86 tgl 15 0 empty empty empty 17 7 0 10 -262144 -1 -1 0 1
;
#X text 308 94 HOW TO: Use pulsa to define how much times in seconds
you choose bang occures.;
#X obj 158 422 bng 15 250 50 0 empty empty empty 17 7 0 10 -262144
-1 -1;
#X obj 158 442 s sync;
#X floatatom 124 201 5 0 0 0 - - -;
#X obj 30 201 rr_tuplet~ 8 1;
#X obj 30 107 rr_pulsa 1 1;
#X obj 142 369 hip~ 1500;
#X text 308 194 Tuplet needs 2 arguments: 1st is numbers of beats in
number of seconds in 2nd argument \, then pattern repeats. A value
as a seed in 2nd inlet to have a new pattern.;
#X connect 2 0 3 0;
#X connect 2 1 3 1;
#X connect 4 0 3 2;
#X connect 7 0 2 1;
#X connect 7 0 2 0;
#X connect 8 0 7 1;
#X connect 9 0 19 1;
#X connect 10 0 2 0;
#X connect 10 0 2 1;
#X connect 10 0 19 0;
#X connect 11 0 10 0;
#X connect 12 0 18 0;
#X connect 14 0 15 0;
#X connect 16 0 17 1;
#X connect 17 0 11 0;
#X connect 17 1 11 0;
#X connect 17 2 11 0;
#X connect 18 1 17 0;
#X connect 19 0 7 0;
