#N canvas 17 116 712 637 10;
#X obj 8 17 cnv 15 680 40 empty empty Generative_series 20 12 0 14
-233017 -66577 0;
#X obj 303 21 cnv 15 380 40 empty empty ABS:rr_arpeggia 20 20 0 24
-128992 -262144 0;
#X obj 29 418 rr_OUTdac~;
#X obj 30 528 rr_record~;
#X msg 193 502 rec01.wav;
#X text 309 460 1st toggle turn ON/OFF your Dsp. 2nd toggle visualize
the wave sound. Slide is for volume.;
#X text 309 550 You can record your performance. Put the name. It show
passing seconds while recording. Bang to reset.;
#X obj 30 87 tgl 15 0 empty empty empty 17 7 0 10 -262144 -1 -1 0 1
;
#X obj 85 392 rev1~;
#X floatatom 123 392 5 0 0 0 - - -;
#X msg 30 303 next \$1;
#X obj 158 420 bng 15 250 50 0 empty empty empty 17 7 0 10 -262144
-1 -1;
#X obj 158 440 s sync;
#X obj 30 352 *~ 0.15;
#X obj 85 369 hip~ 500;
#X obj 30 256 rr_mappa+ 7 12 0 0;
#X floatatom 108 200 5 0 0 0 - - -;
#X obj 30 110 rr_pulsa 4 1;
#X obj 30 215 rr_arpeggia;
#X obj 30 327 clone 16 rr_tone~ 1500 3;
#X obj 135 231 rr_circula 8 3 12;
#X obj 30 133 t b b;
#X obj 178 149 rr_trga 1 0 2 3;
#X floatatom 252 172 5 0 0 0 - - -;
#X obj 178 173 rr_arpeggia;
#X obj 178 196 - 7;
#X text 308 188 Arpeggia a bang in 1st inlet and a value (-10/+10)
in 2nd inlet to have new sequence/order. It returns an arpeggio moving
every 16 beats. 2nd outlet returns a bang every 16 beats.;
#X connect 2 0 3 0;
#X connect 2 1 3 1;
#X connect 4 0 3 2;
#X connect 7 0 17 0;
#X connect 8 0 2 0;
#X connect 8 0 2 1;
#X connect 9 0 8 1;
#X connect 10 0 19 0;
#X connect 11 0 12 0;
#X connect 13 0 2 0;
#X connect 13 0 8 0;
#X connect 13 0 14 0;
#X connect 14 0 8 0;
#X connect 15 0 10 0;
#X connect 16 0 18 1;
#X connect 17 0 21 0;
#X connect 18 0 15 0;
#X connect 18 1 20 0;
#X connect 19 0 13 0;
#X connect 20 0 15 4;
#X connect 21 0 18 0;
#X connect 21 1 22 0;
#X connect 22 0 24 0;
#X connect 23 0 24 1;
#X connect 24 0 25 0;
#X connect 25 0 15 0;
