#N canvas 539 116 736 637 10;
#X obj 8 17 cnv 15 680 40 empty empty Generative_series 20 12 0 14
-233017 -66577 0;
#X obj 303 21 cnv 15 380 40 empty empty ABS:rr_ringer~ 20 20 0 24 -128992
-262144 0;
#X obj 29 452 rr_OUTdac~;
#X obj 30 562 rr_record~;
#X msg 193 536 rec01.wav;
#X text 309 485 1st toggle turn ON/OFF your Dsp. 2nd toggle visualize
the wave sound. Slide is for volume.;
#X text 309 550 You can record your performance. Put the name. It show
passing seconds while recording. Bang to reset.;
#X obj 159 452 bng 15 250 50 0 empty empty empty 17 7 0 10 -262144
-1 -1;
#X obj 159 472 s sync;
#X obj 30 389 rr_stereospatial~ 100 200 65 500 1000 35 0.05 85 25,
f 19;
#X text 309 109 Ringer needs 2 arguments: 1st clone number and 2nd
is fundamental tone.;
#X obj 31 113 clone 8 rr_ringer~ 35;
#X obj 140 162 clone 4 rr_ringer~ 40;
#X connect 2 0 3 0;
#X connect 2 1 3 1;
#X connect 4 0 3 2;
#X connect 7 0 8 0;
#X connect 9 0 2 0;
#X connect 9 1 2 1;
#X connect 11 0 9 0;
#X connect 12 0 9 1;
