#N canvas 539 116 736 637 10;
#X obj 8 17 cnv 15 680 40 empty empty Generative_series 20 12 0 14
-233017 -66577 0;
#X obj 303 21 cnv 15 380 40 empty empty ABS:rr_subdivs 20 20 0 24 -128992
-262144 0;
#X obj 29 422 rr_OUTdac~;
#X obj 30 532 rr_record~;
#X msg 193 506 rec01.wav;
#X text 309 460 1st toggle turn ON/OFF your Dsp. 2nd toggle visualize
the wave sound. Slide is for volume.;
#X text 309 550 You can record your performance. Put the name. It show
passing seconds while recording. Bang to reset.;
#X obj 142 392 rev1~;
#X floatatom 181 392 5 0 0 0 - - -;
#X floatatom 200 369 5 0 0 0 - - -;
#X obj 31 298 rr_perc~ 0 1500 90 3 0.2 0.2 1000 10;
#X obj 31 86 tgl 15 0 empty empty empty 17 7 0 10 -262144 -1 -1 0 1
;
#X obj 82 274 rr_perc~ 0 75 150 2 0.5 0.1 1000 10;
#X obj 158 422 bng 15 250 50 0 empty empty empty 17 7 0 10 -262144
-1 -1;
#X obj 158 442 s sync;
#X obj 30 353 *~ 0.25;
#X obj 142 368 hip~ 200;
#X obj 31 186 rr_subdiv;
#X floatatom 82 163 5 0 0 0 - - -;
#X obj 31 106 rr_pulsa 20 4;
#X text 318 180 Subdiv needs regular pulse in 1st inlet \, a bang in
2nd inlet to change pattern and a value as seed in 3rd inlet. It subdivedes
inlet pulse in 1st outlet or 2nd.;
#X obj 150 186 rr_subdiv+, f 13;
#X obj 150 85 tgl 15 0 empty empty empty 17 7 0 10 -262144 -1 -1 0
1;
#X obj 150 105 rr_pulsa 20 4;
#X text 318 230 Subdiv+ needs regular pulse in 1st inlet \, a bang
in 2nd inlet to change pattern. It subdivedes inlet pulse in 1st outlet
or 2nd.;
#X connect 2 0 3 0;
#X connect 2 1 3 1;
#X connect 4 0 3 2;
#X connect 7 0 2 1;
#X connect 8 0 7 1;
#X connect 9 0 16 1;
#X connect 10 0 15 0;
#X connect 11 0 19 0;
#X connect 12 0 15 0;
#X connect 13 0 14 0;
#X connect 15 0 2 0;
#X connect 15 0 2 1;
#X connect 15 0 16 0;
#X connect 16 0 7 0;
#X connect 17 0 10 0;
#X connect 17 1 12 0;
#X connect 18 0 17 2;
#X connect 19 0 17 0;
#X connect 19 1 17 1;
#X connect 21 0 10 0;
#X connect 21 1 12 0;
#X connect 22 0 23 0;
#X connect 23 0 21 0;
#X connect 23 1 21 1;
