#N canvas 370 125 704 637 10;
#X obj 8 17 cnv 15 680 40 empty empty Generative_series 20 12 0 14
-233017 -66577 0;
#X obj 303 21 cnv 15 380 40 empty empty ABS:rr_cellule 20 20 0 24 -128992
-262144 0;
#X obj 30 528 rr_record~;
#X msg 193 502 rec01.wav;
#X text 309 550 You can record your performance. Put the name. It show
passing seconds while recording. Bang to reset.;
#X obj 30 86 tgl 15 0 empty empty empty 17 7 0 10 -262144 -1 -1 0 1
;
#X obj 142 393 rev1~;
#X floatatom 180 393 5 0 0 0 - - -;
#X msg 30 305 next \$1;
#X floatatom 204 370 5 0 0 0 - - -;
#X text 309 460 1st toggle turn ON/OFF your Dsp. 2nd toggle visualize
the wave sound. Stereo spatialization and volume sliders.;
#X obj 30 353 *~ 0.25;
#X obj 29 418 rr_XOUTdac~;
#X obj 142 370 hip~ 1000;
#X obj 30 330 clone 12 rr_tone~ 2500 3;
#X obj 30 278 rr_mappa+ 7 12 0 0;
#X obj 30 179 rr_cellule, f 12;
#X obj 99 153 rr_cellule;
#X floatatom 141 92 5 0 0 0 - - -;
#X obj 115 179 abs;
#X obj 142 179 + 1;
#X obj 30 107 rr_pulsa 1 1;
#X obj 99 130 rr_trga 1 0 1 4;
#X text 309 170 Cellule needs a bang in 1st inlet and a value as offset
in 2nd. It moves a sequence in 12 differents really common transition
movements. You can use it in series modulating pitchs and pulses.;
#X connect 3 0 2 2;
#X connect 5 0 21 0;
#X connect 6 0 12 1;
#X connect 7 0 6 1;
#X connect 8 0 14 0;
#X connect 9 0 13 1;
#X connect 11 0 12 0;
#X connect 11 0 13 0;
#X connect 11 0 12 1;
#X connect 12 0 2 0;
#X connect 12 1 2 1;
#X connect 13 0 6 0;
#X connect 14 0 11 0;
#X connect 15 0 8 0;
#X connect 16 0 15 0;
#X connect 17 0 16 1;
#X connect 17 0 19 0;
#X connect 18 0 21 1;
#X connect 19 0 20 0;
#X connect 20 0 18 0;
#X connect 21 0 16 0;
#X connect 21 1 22 0;
#X connect 22 0 17 0;
