#N canvas 543 116 736 637 10;
#X obj 8 17 cnv 15 680 40 empty empty Generative_series 20 12 0 14
-233017 -66577 0;
#X obj 303 21 cnv 15 380 40 empty empty ABS:rr_accenta/rInt 20 20 0
24 -128992 -262144 0;
#X obj 29 442 rr_OUTdac~;
#X obj 30 552 rr_record~;
#X msg 193 526 rec01.wav;
#X text 309 481 1st toggle turn ON/OFF your Dsp. 2nd toggle visualize
the wave sound. Slide is for volume.;
#X text 309 550 You can record your performance. Put the name. It show
passing seconds while recording. Bang to reset., f 58;
#X obj 30 113 rr_density;
#X text 308 94 HOW TO: Use density to define how much times in seconds
you choose bang occures.;
#X text 309 431 Echo~ repeats sound (e1 \, e2 \, ...) every ms you
put as parameter and fade out. You can put multiples in sequence. You
can put 3rd attribute from 0-1 for feedback.;
#X obj 30 413 rr_echo~ e1 25 0.1, f 19;
#X obj 30 206 rr_dura;
#X obj 86 245 rr_seeda 5;
#X floatatom 117 222 5 0 0 0 - - -;
#X obj 30 261 rr_rInt;
#X obj 30 229 t b b b;
#X obj 30 361 *~;
#X obj 165 194 rr_dura;
#X floatatom 253 224 5 0 0 0 - - -;
#X obj 165 261 rr_rInt;
#X obj 165 229 t b b b;
#X obj 165 361 *~;
#X obj 185 338 rr_accenta 3;
#X obj 30 178 t b b, f 18;
#X obj 221 245 rr_seeda 4;
#X obj 50 338 rr_accenta 4;
#X obj 30 284 + 50;
#X obj 165 284 + 74;
#X text 309 312 Tone~ generate a tone with envelope: Midi value (0-127)
in 1st inlet \, duration in ms 2nd inlet \, power for asc/desc (1-8)
in 3rd inlet.;
#X text 309 364 Accenta needs an argument for every how many beats
accent occurs.;
#X text 308 152 Dura returns bangs at different multiple times of inlet
triggered bangs. 2nd inlet is for random seed.;
#X text 308 217 Seeda needs an argument for every how many bangs/beats
send as output the number stored in 2nd inlet.;
#X text 308 262 rInt returns a random interval (-6/+6) every bang in
1st inlet. 2nd inlet is for seed (you can have a repeated sequence
sending same seed every ...);
#X obj 30 310 rr_tone~ 0 300 2;
#X obj 165 310 rr_tone~ 0 150 3;
#X connect 2 0 3 0;
#X connect 2 1 3 1;
#X connect 4 0 3 2;
#X connect 7 0 23 0;
#X connect 10 0 2 0;
#X connect 10 0 2 1;
#X connect 10 1 2 1;
#X connect 11 0 15 0;
#X connect 12 0 11 1;
#X connect 12 0 14 1;
#X connect 13 0 12 1;
#X connect 14 0 26 0;
#X connect 15 0 14 0;
#X connect 15 1 25 0;
#X connect 15 2 12 0;
#X connect 16 0 10 0;
#X connect 17 0 20 0;
#X connect 18 0 24 1;
#X connect 19 0 27 0;
#X connect 20 0 19 0;
#X connect 20 1 22 0;
#X connect 20 2 24 0;
#X connect 21 0 10 0;
#X connect 22 0 21 1;
#X connect 23 0 11 0;
#X connect 23 1 17 0;
#X connect 24 0 17 1;
#X connect 24 0 19 1;
#X connect 25 0 16 1;
#X connect 26 0 33 0;
#X connect 27 0 34 0;
#X connect 33 0 16 0;
#X connect 34 0 21 0;
