#N canvas 593 116 767 637 10;
#X obj 8 17 cnv 15 680 40 empty empty Generative_series 20 12 0 14
-233017 -66577 0;
#X obj 303 21 cnv 15 380 40 empty empty ABS:rr_dalira 20 20 0 24 -128992
-262144 0;
#X obj 29 418 rr_OUTdac~;
#X obj 30 528 rr_record~;
#X msg 193 502 rec01.wav;
#X text 309 460 1st toggle turn ON/OFF your Dsp. 2nd toggle visualize
the wave sound. Slide is for volume.;
#X text 309 550 You can record your performance. Put the name. It show
passing seconds while recording. Bang to reset.;
#X obj 30 87 tgl 15 0 empty empty empty 17 7 0 10 -262144 -1 -1 0 1
;
#X obj 85 392 rev1~;
#X floatatom 123 392 5 0 0 0 - - -;
#X msg 30 303 next \$1;
#X obj 158 420 bng 15 250 50 0 empty empty empty 17 7 0 10 -262144
-1 -1;
#X obj 158 440 s sync;
#X obj 30 352 *~ 0.15;
#X obj 85 369 hip~ 500;
#X obj 30 327 clone 16 rr_tone~ 2500 3;
#X obj 30 190 rr_dalira -2 4 0;
#X obj 30 110 rr_pulsa+ 1 1 11;
#X floatatom 136 95 5 0 0 0 - - -;
#X obj 87 216 rr_dalira -2 4 5;
#X obj 30 140 rr_subdiv+;
#X obj 136 127 bng 15 250 50 0 empty empty empty 17 7 0 10 -262144
-1 -1;
#X obj 30 279 + 60;
#X text 308 201 Dalira needs 3 arguments. It returns random notes from
a scale build between Dark/Light sides of circle of fifths \; 1st Dark
side (-6:0) \; 2nd Light side (0:6) \; 3th Offset \;;
#X connect 2 0 3 0;
#X connect 2 1 3 1;
#X connect 4 0 3 2;
#X connect 7 0 17 0;
#X connect 8 0 2 0;
#X connect 8 0 2 1;
#X connect 9 0 8 1;
#X connect 10 0 15 0;
#X connect 11 0 12 0;
#X connect 13 0 2 0;
#X connect 13 0 8 0;
#X connect 13 0 14 0;
#X connect 14 0 8 0;
#X connect 15 0 13 0;
#X connect 16 0 22 0;
#X connect 17 0 20 0;
#X connect 18 0 17 1;
#X connect 18 0 21 0;
#X connect 19 0 22 0;
#X connect 20 0 16 0;
#X connect 20 1 19 0;
#X connect 21 0 20 1;
#X connect 22 0 10 0;
