#N canvas 532 116 737 632 10;
#X obj 8 17 cnv 15 680 40 empty empty Generative_series 20 12 0 14
-233017 -66577 0;
#X obj 303 21 cnv 15 380 40 empty empty ABS:rr_fefm~ 20 20 0 24 -128992
-262144 0;
#X obj 29 422 rr_OUTdac~;
#X obj 30 532 rr_record~;
#X msg 193 506 rec01.wav;
#X text 309 485 1st toggle turn ON/OFF your Dsp. 2nd toggle visualize
the wave sound. Slide is for volume.;
#X text 309 550 You can record your performance. Put the name. It show
passing seconds while recording. Bang to reset.;
#X text 308 134 Choose how many elements in your sequence [num] then
[set].You can click [set] again for a new sequence. You can bang in
2nd inlet to [set]. 3rd inlet (2-6) how many repetitions of sequence
to bang out in 2nd outlet.;
#X obj 30 141 rr_play;
#X obj 30 81 tgl 15 0 empty empty empty 17 7 0 10 -262144 -1 -1 0 1
;
#X text 308 94 HOW TO: Use pulsa to define how much times in seconds
you choose bang occures.;
#X obj 30 101 rr_pulsa 3 1;
#X obj 30 208 + 50;
#X obj 115 373 rev1~;
#X floatatom 177 373 5 0 0 0 - - -;
#X floatatom 177 350 5 0 0 0 - - -;
#X floatatom 68 366 5 0 1 0 - - -;
#X obj 30 333 *~ 0.25;
#X obj 115 350 hip~ 1000;
#X msg 30 231 next \$1;
#X obj 30 254 clone 1 rr_tone~ 1500 2;
#X floatatom 99 277 5 0 0 0 - - -;
#X floatatom 165 277 5 0 0 0 - - -;
#X obj 30 299 rr_fefm~ 6.28 0.95 2500;
#X text 308 304 Fefm needs 3 arguments: 1st is delay length (0-100
ms) \, in 2nd inlet too \; 2nd is feedback amplitude (0-1) \, in 3rd
inlet too \; 3rd is low pass filter. It returns feedback frequency
modulation.;
#X obj 29 388 rr_mix~ 0.5;
#X connect 2 0 3 0;
#X connect 2 1 3 1;
#X connect 4 0 3 2;
#X connect 8 0 12 0;
#X connect 9 0 11 0;
#X connect 11 0 8 0;
#X connect 12 0 19 0;
#X connect 13 0 25 1;
#X connect 14 0 13 1;
#X connect 15 0 18 1;
#X connect 16 0 25 2;
#X connect 17 0 18 0;
#X connect 17 0 25 0;
#X connect 18 0 13 0;
#X connect 19 0 20 0;
#X connect 20 0 23 0;
#X connect 21 0 23 1;
#X connect 22 0 23 2;
#X connect 23 0 17 0;
#X connect 25 0 2 0;
#X connect 25 0 2 1;
