#N canvas 593 116 767 637 10;
#X obj 8 17 cnv 15 680 40 empty empty Generative_series 20 12 0 14
-233017 -66577 0;
#X obj 303 21 cnv 15 380 40 empty empty ABS:rr_pendula 20 20 0 24 -128992
-262144 0;
#X obj 29 433 rr_OUTdac~;
#X obj 30 543 rr_record~;
#X msg 193 517 rec01.wav;
#X text 309 460 1st toggle turn ON/OFF your Dsp. 2nd toggle visualize
the wave sound. Slide is for volume.;
#X text 309 550 You can record your performance. Put the name. It show
passing seconds while recording. Bang to reset.;
#X text 309 295 In allscales put in 2nd inlet a progressive series
(list) of intervals which represents the elements of the scale to use
(mod 12). [minor scale in example];
#X obj 30 81 tgl 15 0 empty empty empty 17 7 0 10 -262144 -1 -1 0 1
;
#X obj 141 397 rev1~;
#X floatatom 179 397 5 0 0 0 - - -;
#X msg 30 308 next \$1;
#X obj 30 285 rr_allscales;
#X obj 158 435 bng 15 250 50 0 empty empty empty 17 7 0 10 -262144
-1 -1;
#X obj 158 455 s sync;
#X obj 30 357 *~ 0.15;
#X floatatom 30 193 5 0 0 0 - - -;
#X msg 30 107 all \$1;
#X msg 112 285 0 2 3 5 7 9 10;
#X obj 30 262 + 35;
#X obj 30 331 clone 16 rr_tone~ 1500 3;
#X obj 141 374 hip~ 500;
#X obj 30 153 unpack 0 0;
#X text 309 125 Pendula needs 5 arguments: 1st how instances cloning
\; 2nd pulse interval in ms \; 3rd how many pulses for single instance
to have a new output \; 4th increment of output every new instance
\; 5th modulo.;
#X obj 30 130 clone 10 rr_pendula 150 10 2 14;
#X connect 2 0 3 0;
#X connect 2 1 3 1;
#X connect 4 0 3 2;
#X connect 8 0 17 0;
#X connect 9 0 2 0;
#X connect 9 0 2 1;
#X connect 10 0 9 1;
#X connect 11 0 20 0;
#X connect 12 0 11 0;
#X connect 13 0 14 0;
#X connect 15 0 2 0;
#X connect 15 0 2 1;
#X connect 15 0 21 0;
#X connect 16 0 19 0;
#X connect 17 0 24 0;
#X connect 18 0 12 1;
#X connect 19 0 12 0;
#X connect 20 0 15 0;
#X connect 21 0 9 0;
#X connect 22 1 16 0;
#X connect 24 0 22 0;
