#N canvas 539 116 736 637 10;
#X obj 8 17 cnv 15 680 40 empty empty Generative_series 20 12 0 14
-233017 -66577 0;
#X obj 303 21 cnv 15 380 40 empty empty ABS:rr_structura 20 20 0 24
-128992 -262144 0;
#X obj 29 444 rr_OUTdac~;
#X obj 30 554 rr_record~;
#X msg 193 528 rec01.wav;
#X text 309 540 1st toggle turn ON/OFF your Dsp. 2nd toggle visualize
the wave sound. Slide is for volume.;
#X text 309 580 You can record your performance. Put the name. It show
passing seconds while recording. Bang to reset., f 56;
#X text 309 485 Echo~ repeats sound (e1 \, e2 \, ...) every ms you
put as parameter and fade out. You can put multiples in sequence. You
can put 3rd attribute from 0-1 for feedback.;
#X msg 30 307 next \$1;
#X text 309 358 With fm you can generate a frequency modulated sound
\; 1st is carrier (0-127) \; 2nd is ratio for modulator (0-10) \; 3rd
modulation index (0-20) \; 4th timbre (0-1) \; 5th mix (0-1) \; 6th
attack in ms \; 7th release in ms \; 8th decay (1-8)., f 58;
#X obj 30 254 rr_allscales;
#X text 309 241 In allscales: put in 2nd inlet a progressive series
(list) of intervals which represents the elements of the scale to use
(mod 12).;
#X obj 30 83 tgl 15 0 empty empty empty 17 7 0 10 -262144 -1 -1 0 1
;
#X obj 30 231 + 35;
#X obj 143 421 *~ 0.5;
#X obj 30 104 rr_pulsa 3 2;
#X obj 30 354 /~ 2;
#X text 308 76 HOW TO: Use pulsa to define how much times in seconds
you choose bang occures.;
#X obj 30 377 rr_echo~ e1 500 0.5;
#X obj 144 399 lop~ 500;
#X obj 30 330 clone 16 rr_fm~ 1 0.5 0.15 0.95 10 1500 3;
#X obj 30 400 rr_wha~ 1 20;
#X obj 30 164 rr_structura -1 2 5 6;
#X msg 134 238 0 2 3 5 7 9 10;
#X obj 99 215 rr_cycle1 0 4 4 1 35;
#X text 309 171 Structura needs 4 arguments: They define intervals
how moves 4 voices in outlets;
#X connect 2 0 3 0;
#X connect 2 1 3 1;
#X connect 4 0 3 2;
#X connect 8 0 20 0;
#X connect 10 0 8 0;
#X connect 12 0 15 0;
#X connect 13 0 10 0;
#X connect 14 0 2 1;
#X connect 14 0 2 0;
#X connect 15 0 22 0;
#X connect 15 1 24 0;
#X connect 16 0 18 0;
#X connect 18 0 21 0;
#X connect 18 1 19 0;
#X connect 19 0 14 0;
#X connect 20 0 16 0;
#X connect 21 0 2 0;
#X connect 21 0 2 1;
#X connect 22 0 13 0;
#X connect 22 1 13 0;
#X connect 22 2 13 0;
#X connect 22 3 13 0;
#X connect 23 0 10 1;
#X connect 24 0 13 1;
