#N canvas 573 116 736 637 10;
#X obj 8 17 cnv 15 680 40 empty empty Generative_series 20 12 0 14
-233017 -66577 0;
#X obj 303 21 cnv 15 380 40 empty empty ABS:rr_circle 20 20 0 24 -128992
-262144 0;
#X obj 29 442 rr_OUTdac~;
#X obj 30 552 rr_record~;
#X msg 193 526 rec01.wav;
#X text 309 440 1st toggle turn ON/OFF your Dsp. 2nd toggle visualize
the wave sound. Slide is for volume.;
#X text 309 550 You can record your performance. Put the name. It show
passing seconds while recording. Bang to reset.;
#X obj 30 113 rr_density;
#X text 309 344 Tone~ generate a tone with envelope: Midi value (0-127)
in 1st inlet \, duration in ms 2nd inlet \, power for asc/desc (1-8)
in 3rd inlet.;
#X text 308 94 HOW TO: Use density to define how much times in seconds
you choose bang occures.;
#X obj 30 362 rr_tone~ 0 100 2;
#X text 308 277 [tone] defines root and [seed] changes random sequence
\; Choose the only intervals you want to play.;
#X obj 30 262 rr_mapPitch, f 18;
#X obj 78 194 rr_circle;
#X obj 30 178 t b b;
#X text 308 164 [div] how many bangs in to have a bang out (a counter)
\; [int] defines interval to next number out \; [oct] in how many octaves
can displaces \; [off] offset number (may be root of sequence] \; [set]
reset. Es: have circle of fifth with 7 in int. 2nd inlet is for [div]
and 3rd for [int].;
#X text 309 390 Echo~ repeats sound (e1 \, e2 \, ...) every ms you
put as parameter and fade out. You can put multiples in sequence. Ms
< 50 can have a simple reverber.;
#X obj 29 394 rr_echo~ e1 45 0.1, f 19;
#X obj 141 418 *~ 0.25;
#X connect 2 0 3 0;
#X connect 2 1 3 1;
#X connect 4 0 3 2;
#X connect 7 0 14 0;
#X connect 10 0 17 0;
#X connect 12 0 10 0;
#X connect 13 0 12 1;
#X connect 14 0 12 0;
#X connect 14 1 13 0;
#X connect 17 0 2 0;
#X connect 17 0 2 1;
#X connect 17 1 18 0;
#X connect 18 0 2 1;
