#N canvas 593 116 767 637 10;
#X obj 8 17 cnv 15 680 40 empty empty Generative_series 20 12 0 14
-233017 -66577 0;
#X obj 303 21 cnv 15 380 40 empty empty ABS:rr_set-theory 20 20 0 24
-128992 -262144 0;
#X obj 29 428 rr_OUTdac~;
#X obj 30 538 rr_record~;
#X msg 193 512 rec01.wav;
#X text 309 460 1st toggle turn ON/OFF your Dsp. 2nd toggle visualize
the wave sound. Slide is for volume.;
#X text 309 550 You can record your performance. Put the name. It show
passing seconds while recording. Bang to reset.;
#X text 308 94 HOW TO: Use pulsa to define how much times in seconds
you choose bang occures.;
#X obj 30 96 tgl 15 0 empty empty empty 17 7 0 10 -262144 -1 -1 0 1
;
#X obj 85 402 rev1~;
#X floatatom 123 402 5 0 0 0 - - -;
#X obj 158 430 bng 15 250 50 0 empty empty empty 17 7 0 10 -262144
-1 -1;
#X obj 158 450 s sync;
#X obj 30 362 *~ 0.15;
#X msg 30 312 next \$1;
#X obj 85 379 hip~ 1000;
#X floatatom 157 125 5 0 0 0 - - -;
#X obj 135 156 change -1;
#X obj 30 337 clone 16 rr_tone~ 2500 3;
#X obj 30 140 rr_pulsa+ 2 1 5;
#X obj 30 222 rr_set-theory;
#X obj 55 193 random 2;
#X msg 80 110 0 4 7;
#X obj 135 179 bng 15 250 50 0 empty empty empty 17 7 0 10 -262144
-1 -1;
#X obj 30 166 circula 1 3 5;
#X obj 30 279 + 0;
#X obj 157 263 rr_circula 4 3 7;
#X obj 30 256 + 48;
#X text 308 208 Set-theory needs 4 values in inlets \; 1st a grade
for Transposing or Rotating (0-12) \; 2rd 0 = Transposition \, 1 =
Rotation \; 3rd a list as pitch class Prime Form (es. 0 4 7) \; 4th
a value as seed.;
#X connect 2 0 3 0;
#X connect 2 1 3 1;
#X connect 4 0 3 2;
#X connect 8 0 19 0;
#X connect 9 0 2 0;
#X connect 9 0 2 1;
#X connect 10 0 9 1;
#X connect 11 0 12 0;
#X connect 13 0 2 0;
#X connect 13 0 9 0;
#X connect 13 0 15 0;
#X connect 14 0 18 0;
#X connect 15 0 9 0;
#X connect 16 0 19 1;
#X connect 16 0 20 3;
#X connect 17 0 23 0;
#X connect 18 0 13 0;
#X connect 19 0 24 0;
#X connect 19 1 17 0;
#X connect 20 0 27 0;
#X connect 20 1 27 0;
#X connect 20 2 27 0;
#X connect 21 0 20 1;
#X connect 22 0 20 2;
#X connect 23 0 21 0;
#X connect 23 0 26 0;
#X connect 24 0 20 0;
#X connect 25 0 14 0;
#X connect 26 0 16 0;
#X connect 26 0 25 1;
#X connect 27 0 25 0;
