#N canvas 593 116 767 637 10;
#X obj 8 17 cnv 15 680 40 empty empty Generative_series 20 12 0 14
-233017 -66577 0;
#X obj 303 21 cnv 15 380 40 empty empty ABS:rr_fracta+ 20 20 0 24 -128992
-262144 0;
#X obj 29 418 rr_OUTdac~;
#X obj 30 528 rr_record~;
#X msg 193 502 rec01.wav;
#X text 309 460 1st toggle turn ON/OFF your Dsp. 2nd toggle visualize
the wave sound. Slide is for volume.;
#X text 309 550 You can record your performance. Put the name. It show
passing seconds while recording. Bang to reset.;
#X text 308 94 HOW TO: Use pulsa to define how much times in seconds
you choose bang occures.;
#X obj 30 89 tgl 15 0 empty empty empty 17 7 0 10 -262144 -1 -1 0 1
;
#X obj 85 392 rev1~;
#X floatatom 123 392 5 0 0 0 - - -;
#X msg 30 303 next \$1;
#X obj 158 420 bng 15 250 50 0 empty empty empty 17 7 0 10 -262144
-1 -1;
#X obj 158 440 s sync;
#X obj 30 352 *~ 0.15;
#X obj 85 369 hip~ 300;
#X msg 113 279 0 2 3 5 7 9 10;
#X obj 30 279 rr_allscales;
#X obj 30 149 rr_fracta+ 1 2;
#X floatatom 30 234 5 0 0 0 - - -;
#X obj 41 195 + 7;
#X obj 41 172 rr_fracta+ 1 3;
#X obj 30 257 + 35;
#X obj 30 327 clone 16 rr_tone~ 2500 4;
#X obj 71 218 - 7;
#X obj 71 195 rr_fracta+ 2 5;
#X obj 30 110 rr_pulsa 4 1;
#X text 308 224 Fracta+ needs 2 arguments (or 2nd arguments in 2nd
inlet too) - 1st argument < 2nd argument \, (1-10) \;;
#X connect 2 0 3 0;
#X connect 2 1 3 1;
#X connect 4 0 3 2;
#X connect 8 0 26 0;
#X connect 9 0 2 0;
#X connect 9 0 2 1;
#X connect 10 0 9 1;
#X connect 11 0 23 0;
#X connect 12 0 13 0;
#X connect 14 0 2 0;
#X connect 14 0 9 0;
#X connect 14 0 15 0;
#X connect 15 0 9 0;
#X connect 16 0 17 1;
#X connect 17 0 11 0;
#X connect 18 0 19 0;
#X connect 19 0 22 0;
#X connect 20 0 19 0;
#X connect 21 0 20 0;
#X connect 22 0 17 0;
#X connect 23 0 14 0;
#X connect 24 0 19 0;
#X connect 25 0 24 0;
#X connect 26 0 18 0;
#X connect 26 0 21 0;
#X connect 26 0 25 0;
