#N canvas 530 116 737 632 10;
#X obj 8 17 cnv 15 680 40 empty empty Generative_series 20 12 0 14
-233017 -66577 0;
#X obj 303 21 cnv 15 380 40 empty empty ABS:rr_synthstring 20 20 0
24 -128992 -262144 0;
#X text 309 485 1st toggle turn ON/OFF your Dsp. 2nd toggle visualize
the wave sound. Slide is for volume.;
#X text 309 550 You can record your performance. Put the name. It show
passing seconds while recording. Bang to reset.;
#X text 308 94 HOW TO: Use pulsa to define how much times in seconds
you choose bang occures.;
#X text 308 334 Tremo needs 2 arguments: 1st is freq of tremolo \;
2nd is amplitude.;
#X obj 29 429 rr_OUTdac~;
#X obj 30 539 rr_record~;
#X msg 193 513 rec01.wav;
#X obj 30 88 tgl 15 0 empty empty empty 17 7 0 10 -262144 -1 -1 0 1
;
#X obj 141 402 rev1~;
#X floatatom 180 402 5 0 0 0 - - -;
#X msg 30 229 next \$1;
#X obj 30 207 rr_allscales;
#X msg 114 207 0 2 4 7 9;
#X obj 30 161 random 8;
#X obj 92 324 rr_tremo~ 5 0.5;
#X obj 30 184 + 20;
#X text 308 134 Synthstring needs 8 arguments: 1st for cloning \; 2nd
is string resonance (< 0.99) \; 3rd is harmonic \; 4th is low pass
cutoff freq \; 5th is high pass cutoff freq \; 6th is attack \; 7th
is sustain \; 8th is release.;
#X obj 30 364 *~ 1;
#X obj 30 108 rr_pulsa 1 1;
#X obj 30 255 clone 4 rr_synthstring~ 0.95 0.5 500 100 50 350 10;
#X obj 68 278 clone 4 rr_synthstring~ 0.95 1.33 600 50 100 400 50;
#X obj 92 301 clone 4 rr_synthstring~ 0.95 2 900 250 150 200 100;
#X obj 141 379 lop~ 500;
#X connect 6 0 7 0;
#X connect 6 1 7 1;
#X connect 8 0 7 2;
#X connect 9 0 20 0;
#X connect 10 0 6 1;
#X connect 10 0 6 0;
#X connect 11 0 10 1;
#X connect 12 0 21 0;
#X connect 12 0 22 0;
#X connect 12 0 23 0;
#X connect 13 0 12 0;
#X connect 14 0 13 1;
#X connect 15 0 17 0;
#X connect 16 0 19 0;
#X connect 17 0 13 0;
#X connect 19 0 6 0;
#X connect 19 0 6 1;
#X connect 19 0 24 0;
#X connect 20 0 15 0;
#X connect 21 0 19 0;
#X connect 22 0 19 0;
#X connect 23 0 16 0;
#X connect 23 0 19 0;
#X connect 24 0 10 0;
