#N canvas 593 116 767 637 10;
#X obj 8 17 cnv 15 680 40 empty empty Generative_series 20 12 0 14
-233017 -66577 0;
#X obj 303 21 cnv 15 380 40 empty empty ABS:rr_profiler 20 20 0 24
-128992 -262144 0;
#X text 309 550 You can record your performance. Put the name. It show
passing seconds while recording. Bang to reset.;
#X obj 29 436 rr_OUTdac~;
#X obj 30 546 rr_record~;
#X msg 193 520 rec01.wav;
#X msg 30 299 next \$1;
#X obj 158 438 bng 15 250 50 0 empty empty empty 17 7 0 10 -262144
-1 -1;
#X obj 158 458 s sync;
#X obj 114 383 rev1~;
#X floatatom 176 383 5 0 0 0 - - -;
#X floatatom 176 360 5 0 0 0 - - -;
#X floatatom 68 375 5 0 1 0 - - -;
#X obj 30 343 *~ 0.25;
#X obj 114 360 hip~ 1000;
#X obj 30 71 tgl 15 0 empty empty empty 17 7 0 10 -262144 -1 -1 0 1
;
#X floatatom 30 276 5 0 0 0 - - -;
#X obj 30 321 clone 12 rr_tone~ 1000 3;
#X obj 30 253 + 60;
#X obj 308 117 rr_profiler;
#X floatatom 308 465 5 0 0 0 - - -;
#X floatatom 333 489 5 0 0 0 - - -;
#X floatatom 359 465 5 0 0 0 - - -;
#X floatatom 385 489 5 0 0 0 - - -;
#X floatatom 411 464 5 0 0 0 - - -;
#X floatatom 359 89 5 0 0 0 - - -;
#X text 398 91 tonic/fundamental;
#X obj 429 117 bng 15 250 50 0 empty empty empty 17 7 0 10 -262144
-1 -1;
#X text 452 116 reset;
#X obj 30 129 rr_1overF, f 12;
#X obj 65 167 abs;
#X floatatom 121 76 5 0 0 0 - - -;
#X obj 30 91 rr_pulsa 1 1;
#X obj 65 190 rr_every+ 4 1;
#X text 467 163 Profiler analyzes your melody sequence: contour \,
standard deviation in pitch domain and in time domain \, dissonance
and range. It returns normalized values every 16 beats., f 34;
#X obj 29 398 rr_mix~ 0.5;
#X connect 3 0 4 0;
#X connect 3 1 4 1;
#X connect 5 0 4 2;
#X connect 6 0 17 0;
#X connect 7 0 8 0;
#X connect 9 0 35 1;
#X connect 10 0 9 1;
#X connect 11 0 14 1;
#X connect 12 0 35 2;
#X connect 13 0 14 0;
#X connect 13 0 35 0;
#X connect 14 0 9 0;
#X connect 15 0 32 0;
#X connect 16 0 6 0;
#X connect 17 0 13 0;
#X connect 18 0 16 0;
#X connect 19 0 20 0;
#X connect 19 1 21 0;
#X connect 19 2 22 0;
#X connect 19 3 23 0;
#X connect 19 4 24 0;
#X connect 25 0 19 1;
#X connect 27 0 19 2;
#X connect 29 0 18 0;
#X connect 29 0 19 0;
#X connect 29 0 30 0;
#X connect 30 0 33 0;
#X connect 31 0 32 1;
#X connect 32 0 29 0;
#X connect 33 0 31 0;
#X connect 35 0 3 0;
#X connect 35 0 3 1;
