#N canvas 308 125 767 637 10;
#X obj 8 17 cnv 15 680 40 empty empty Generative_series 20 12 0 14
-233017 -66577 0;
#X obj 303 21 cnv 15 380 40 empty empty ABS:rr_rosti 20 20 0 24 -128992
-262144 0;
#X obj 29 421 rr_OUTdac~;
#X obj 30 531 rr_record~;
#X msg 193 505 rec01.wav;
#X text 309 490 1st toggle turn ON/OFF your Dsp. 2nd toggle visualize
the wave sound. Slide is for volume.;
#X text 309 550 You can record your performance. Put the name. It show
passing seconds while recording. Bang to reset.;
#X text 309 440 Echo~ repeats sound (e1 \, e2 \, ...) every ms you
put as parameter and fade out. You can put multiples in sequence. You
can put 3rd attribute from 0-1 for feedback.;
#X text 308 94 HOW TO: Use pulsa to define how much times in seconds
you choose bang occures.;
#X obj 30 86 tgl 15 0 empty empty empty 17 7 0 10 -262144 -1 -1 0 1
;
#X obj 30 350 rr_echo~ e1 500 0.5;
#X msg 30 301 next \$1;
#X obj 220 89 bng 15 250 50 0 empty empty empty 17 7 0 10 -262144 -1
-1;
#X obj 220 109 s sync;
#X obj 142 372 *~ 0.25;
#X msg 99 255 0 2 4 5 7 9 11;
#X obj 30 278 rr_allscales;
#X msg 106 169 5 4 3;
#X floatatom 144 145 5 0 0 0 - - -;
#X obj 183 171 bng 15 250 50 0 empty empty empty 17 7 0 10 -262144
-1 -1;
#X floatatom 106 228 5 0 0 0 - - -;
#X obj 183 228 bng 15 250 50 0 empty empty empty 17 7 0 10 -262144
-1 -1;
#X obj 141 395 lop~ 500;
#X obj 30 107 rr_pulsa 3 1;
#X text 309 313 With fm you can generate a frequency modulated sound
\; 1st is carrier (0-127) \; 2nd is ratio for modulator (0-10) \; 3rd
modulation index (0-20) \; 4th timbre (0-1) \; 5th mix (0-1) \; 6th
attack in ms \; 7th release in ms \; 8th decay (1-8)., f 58;
#X text 308 154 Rosti (random ostinato) needs an argument that is sequence
length \; 2nd inlet: a values list of repetitions for every cycle \;
3nd inlet: a values list of offsets for every cycle \; 4th inlet: a
seed for random generation of sequence \; 5th inlet: a bang for generate
the sequence \; 1st outlet returns sequence \; 2nd outlet returns changing
offset \; 3rd outlet returns a bang when the whole sequece ends.;
#X obj 30 199 rr_rosti 6, f 26;
#X obj 30 255 + 45;
#X msg 68 144 1 1 2;
#X obj 30 324 clone 8 rr_fm~ 0.5 2.25 0.5 0.85 5 1500 2;
#X connect 2 0 3 0;
#X connect 2 1 3 1;
#X connect 4 0 3 2;
#X connect 9 0 23 0;
#X connect 10 0 2 0;
#X connect 10 0 2 1;
#X connect 10 1 14 0;
#X connect 11 0 29 0;
#X connect 12 0 13 0;
#X connect 14 0 22 0;
#X connect 15 0 16 1;
#X connect 16 0 11 0;
#X connect 17 0 26 2;
#X connect 18 0 26 3;
#X connect 19 0 26 4;
#X connect 22 0 2 1;
#X connect 22 0 2 0;
#X connect 23 0 26 0;
#X connect 26 0 27 0;
#X connect 26 1 20 0;
#X connect 26 2 21 0;
#X connect 27 0 16 0;
#X connect 28 0 26 1;
#X connect 29 0 10 0;
