#N canvas 539 116 736 637 10;
#X obj 8 17 cnv 15 680 40 empty empty Generative_series 20 12 0 14
-233017 -66577 0;
#X obj 303 21 cnv 15 380 40 empty empty ABS:rr_t-rand 20 20 0 24 -128992
-262144 0;
#X obj 29 445 rr_OUTdac~;
#X obj 30 552 rr_record~;
#X msg 193 526 rec01.wav;
#X text 309 481 1st toggle turn ON/OFF your Dsp. 2nd toggle visualize
the wave sound. Slide is for volume.;
#X text 309 550 You can record your performance. Put the name. It show
passing seconds while recording. Bang to reset.;
#X text 309 375 Tone~ generate a tone with envelope: Midi value (0-127)
in 1st inlet \, duration in ms 2nd inlet \, power for asc/desc (1-8)
in 3rd inlet.;
#X text 308 94 HOW TO: Use density to define how much times in seconds
you choose bang occures.;
#X text 309 421 Echo~ repeats sound (e1 \, e2 \, ...) every ms you
put as parameter and fade out. You can put multiples in sequence.Duration
< 50ms may be a simple reverber. You can put 3rd attribute from 0-1
for feedback.;
#X obj 30 184 rr_t-rand;
#X obj 30 267 rr_disSeq;
#X msg 30 362 next \$1;
#X text 308 169 Using t-rand: [div] how many bangs in to have a bang
out (a counter) \; [step] how many step in sequence \; [prob] probability
to bang out (0-100) \; [seed] for new random.;
#X text 308 259 Using disSeq: [num] how many elements in sequence \;
[mul] how many notes in an octave \; [mod] how many semitones in an
octave. [off] root note (midi value 0-127);
#X obj 30 102 rr_density;
#X obj 29 410 rr_echo~ e2 500 0.2;
#X obj 30 384 clone rr_tone~ 8 1000 2;
#X connect 2 0 3 0;
#X connect 2 1 3 1;
#X connect 4 0 3 2;
#X connect 10 0 11 0;
#X connect 11 0 12 0;
#X connect 12 0 17 0;
#X connect 15 0 10 0;
#X connect 16 0 2 0;
#X connect 16 0 2 1;
#X connect 16 1 2 1;
#X connect 17 0 16 0;
