#N canvas 539 116 736 637 10;
#X obj 8 17 cnv 15 680 40 empty empty Generative_series 20 12 0 14
-233017 -66577 0;
#X obj 303 21 cnv 15 380 40 empty empty ABS:rr_replay 20 20 0 24 -128992
-262144 0;
#X obj 29 448 rr_OUTdac~;
#X obj 30 558 rr_record~;
#X msg 193 532 rec01.wav;
#X text 309 510 1st toggle turn ON/OFF your Dsp. 2nd toggle visualize
the wave sound. Slide is for volume.;
#X text 309 550 You can record your performance. Put the name. It show
passing seconds while recording. Bang to reset., f 56;
#X obj 30 93 rr_density;
#X text 308 94 HOW TO: Use density to define how much times in seconds
you choose bang occures.;
#X text 309 455 Echo~ repeats sound (e1 \, e2 \, ...) every ms you
put as parameter and fade out. You can put multiples in sequence. You
can put 3rd attribute from 0-1 for feedback.;
#X obj 141 424 *~ 0.25;
#X obj 30 378 /~ 3;
#X msg 30 330 next \$1;
#X text 309 328 With fm you can generate a frequency modulated sound
\; 1st is carrier (0-127) \; 2nd is ratio for modulator (0-10) \; 3rd
modulation index (0-20) \; 4th timbre (0-1) \; 5th mix (0-1) \; 6th
attack in ms \; 7th release in ms \; 8th decay (1-8)., f 58;
#X obj 30 158 t b b, f 18;
#X obj 30 181 rr_trga 1 0 1 1;
#X obj 30 354 clone 16 rr_fm~ 1 0.5 0.45 0.95 10 3000 3;
#X obj 135 182 rr_trga 8 0 1 1;
#X obj 135 205 rr_replay 1 3;
#X floatatom 210 159 5 0 0 0 - - -;
#X obj 30 244 + 0;
#X obj 30 307 rr_allscales;
#X obj 152 94 bng 15 250 50 0 empty empty empty 17 7 0 10 -262144 -1
-1;
#X obj 152 114 s sync;
#X obj 135 228 + 30;
#X msg 99 283 0 2 3 5 7 10 11;
#X obj 30 221 rr_replay 0 5;
#X obj 30 401 rr_echo~ e1 500 0.5;
#X text 309 137 Replay generates a sequence and repeat it. It needs
2 arguments: 1st how many pulses waits after sequence ends \; 2nd how
many elements in sequence. You need to put a number in the last inlet
as seed for generate sequence \; Same seed = same sequence \, new seed
for new sequence.;
#X text 309 267 In allscales: put in 2nd inlet a progressive series
(list) of intervals which represents the elements of the scale to use
(mod 12). [minor scale in example];
#X connect 2 0 3 0;
#X connect 2 1 3 1;
#X connect 4 0 3 2;
#X connect 7 0 14 0;
#X connect 10 0 2 1;
#X connect 11 0 27 0;
#X connect 12 0 16 0;
#X connect 14 0 15 0;
#X connect 14 1 17 0;
#X connect 15 0 26 0;
#X connect 16 0 11 0;
#X connect 17 0 18 0;
#X connect 18 0 24 0;
#X connect 19 0 18 3;
#X connect 20 0 21 0;
#X connect 21 0 12 0;
#X connect 22 0 23 0;
#X connect 24 0 20 1;
#X connect 24 0 26 3;
#X connect 25 0 21 1;
#X connect 26 0 20 0;
#X connect 27 0 2 0;
#X connect 27 0 2 1;
#X connect 27 1 10 0;
