#N canvas 445 116 767 637 10;
#X obj 8 17 cnv 15 680 40 empty empty Generative_series 20 12 0 14
-233017 -66577 0;
#X obj 303 21 cnv 15 380 40 empty empty melody_abs_selection 20 20
0 24 -128992 -262144 0;
#X obj 28 527 rr_OUTdac~;
#X obj 30 75 tgl 15 0 empty empty empty 17 7 0 10 -262144 -1 -1 0 1
;
#X obj 140 496 rev1~;
#X floatatom 178 496 5 0 0 0 - - -;
#X obj 157 529 bng 15 250 50 0 empty empty empty 17 7 0 10 -262144
-1 -1;
#X obj 157 549 s sync;
#X obj 140 473 hip~ 500;
#X floatatom 123 75 5 0 0 0 - - -;
#X obj 30 120 bng 15 250 50 0 empty empty empty 17 7 0 10 -1 -4034
-1;
#X obj 30 97 rr_pulsa+ 1 1 11;
#X obj 30 193 nbx 3 15 -1e+37 1e+37 0 0 empty empty empty 0 -8 0 12
-1 -4034 -1 0 256;
#X obj 30 298 nbx 3 15 -1e+37 1e+37 0 0 empty empty empty 0 -8 0 12
-1 -4034 -1 0 256;
#X msg 30 346 next \$1;
#X obj 29 456 rr_mix~ 0.35;
#X obj 62 431 rr_ddetune~ 100 10 1000 0.5;
#X obj 30 170 rr_regola 1 1 1;
#X obj 30 273 rr_mappa+ 7 12 0 0;
#X obj 30 369 clone 10 rr_tone~ 1500 3;
#X obj 220 75 tgl 15 0 empty empty empty 17 7 0 10 -262144 -1 -1 0
1;
#X floatatom 343 75 5 0 0 0 - - -;
#X obj 220 120 bng 15 250 50 0 empty empty empty 17 7 0 10 -1 -4034
-1;
#X floatatom 343 120 5 0 0 0 - - -;
#X obj 440 75 tgl 15 0 empty empty empty 17 7 0 10 -262144 -1 -1 0
1;
#X floatatom 509 74 5 0 0 0 - - -;
#X obj 440 120 bng 15 250 50 0 empty empty empty 17 7 0 10 -1 -4034
-1;
#X obj 440 97 rr_pulsa 3 1;
#X obj 220 97 rr_atempo 60 3 4 7 65;
#X obj 220 193 nbx 3 15 -1e+37 1e+37 0 0 empty empty empty 0 -8 0 12
-1 -4034 -1 0 256;
#X obj 220 170 rr_icv;
#X floatatom 266 170 5 0 0 0 - - -;
#X msg 236 147 0 0 2 0 1 0;
#X obj 220 298 nbx 3 15 -1e+37 1e+37 0 0 empty empty empty 0 -8 0 12
-1 -4034 -1 0 256;
#X floatatom 287 250 5 0 0 0 - - -;
#X floatatom 355 250 5 0 0 0 - - -;
#X floatatom 56 229 5 0 0 0 - - -;
#X floatatom 82 250 5 0 0 0 - - -;
#X floatatom 108 229 5 0 0 0 - - -;
#X floatatom 135 250 5 0 0 0 - - -;
#X obj 440 298 nbx 3 15 -1e+37 1e+37 0 0 empty empty empty 0 -8 0 12
-1 -4034 -1 0 256;
#X msg 509 250 0 2 3 5 7 9 10;
#X obj 117 192 - 7;
#X msg 220 346 next \$1;
#X obj 220 273 rr_rescaling 0 12 50 74;
#X obj 509 120 bng 15 250 50 0 empty empty empty 17 7 0 10 -262144
-1 -1;
#X obj 281 120 s dur;
#X obj 440 193 nbx 3 15 -1e+37 1e+37 0 0 empty empty empty 0 -8 0 12
-1 -4034 -1 0 256;
#X obj 440 170 rr_1overF;
#X floatatom 504 169 5 0 0 0 - - -;
#X floatatom 491 192 5 0 0 0 - - -;
#X obj 123 120 s dur;
#X obj 440 273 rr_allscales;
#X obj 440 250 + 35;
#X msg 440 357 next \$1;
#X obj 604 347 bng 15 250 50 0 empty empty empty 17 7 0 10 -262144
-1 -1;
#X obj 531 346 - 5;
#X obj 440 330 t f f;
#X obj 303 461 cnv 15 380 40 empty empty extras 20 20 0 20 -191407
-262144 0;
#X obj 220 369 clone 10 rr_toya~ 2 1500 2 150 16;
#X obj 440 386 clone 20 rr_KSfa~ 2 0.995 3 3 6000 300, f 12;
#X obj 531 368 rr_wtab~ 0 35;
#X obj 304 560 rr_trga 4 0 1 1;
#X obj 304 590 rr_every+ 5 7;
#X obj 304 530 rr_circula 8 7 12;
#X connect 3 0 11 0;
#X connect 4 0 2 0;
#X connect 4 0 2 1;
#X connect 5 0 4 1;
#X connect 6 0 7 0;
#X connect 8 0 4 0;
#X connect 9 0 11 1;
#X connect 11 0 10 0;
#X connect 11 1 51 0;
#X connect 14 0 19 0;
#X connect 15 0 2 0;
#X connect 15 0 8 0;
#X connect 16 0 15 1;
#X connect 17 0 12 0;
#X connect 17 1 42 0;
#X connect 18 0 13 0;
#X connect 20 0 28 0;
#X connect 21 0 28 1;
#X connect 24 0 27 0;
#X connect 25 0 27 1;
#X connect 27 0 26 0;
#X connect 27 1 45 0;
#X connect 28 0 22 0;
#X connect 28 1 46 0;
#X connect 28 2 23 0;
#X connect 30 0 29 0;
#X connect 31 0 30 2;
#X connect 32 0 30 1;
#X connect 34 0 44 1;
#X connect 35 0 44 2;
#X connect 36 0 18 1;
#X connect 37 0 18 2;
#X connect 38 0 18 3;
#X connect 39 0 18 4;
#X connect 41 0 52 1;
#X connect 43 0 59 0;
#X connect 44 0 33 0;
#X connect 48 0 47 0;
#X connect 48 1 50 0;
#X connect 49 0 48 1;
#X connect 52 0 40 0;
#X connect 53 0 52 0;
#X connect 54 0 60 0;
#X connect 55 0 61 2;
#X connect 56 0 61 0;
#X connect 57 0 54 0;
#X connect 57 1 56 0;
#X connect 61 0 60 7;
