#N canvas 555 157 683 572 10;
#X obj 170 150 +;
#X obj 204 151 +;
#X obj 239 151 +;
#X floatatom 170 178 5 0 0 0 - - -;
#X floatatom 204 178 5 0 0 0 - - -;
#X floatatom 239 178 5 0 0 0 - - -;
#X obj 158 79 t f b;
#X floatatom 158 33 5 0 0 0 - - -;
#X msg 211 95 0 4 7;
#X obj 185 122 unpack 0 0 0;
#X obj 155 235 i;
#X obj 189 235 i;
#X obj 224 235 i;
#X obj 155 215 bng 15 250 50 0 empty empty empty 17 7 0 10 -262144
-1 -1;
#X obj 189 215 bng 15 250 50 0 empty empty empty 17 7 0 10 -262144
-1 -1;
#X obj 224 215 bng 15 250 50 0 empty empty empty 17 7 0 10 -262144
-1 -1;
#X obj 301 151 +;
#X obj 335 152 +;
#X obj 370 152 +;
#X floatatom 301 179 5 0 0 0 - - -;
#X floatatom 335 179 5 0 0 0 - - -;
#X floatatom 370 179 5 0 0 0 - - -;
#X obj 289 80 t f b;
#X floatatom 289 34 5 0 0 0 - - -;
#X obj 316 123 unpack 0 0 0;
#X obj 286 236 i;
#X obj 320 236 i;
#X obj 355 236 i;
#X obj 286 216 bng 15 250 50 0 empty empty empty 17 7 0 10 -262144
-1 -1;
#X obj 320 216 bng 15 250 50 0 empty empty empty 17 7 0 10 -262144
-1 -1;
#X obj 355 216 bng 15 250 50 0 empty empty empty 17 7 0 10 -262144
-1 -1;
#X msg 342 96 0 3 7;
#X obj 199 367 bng 15 250 50 0 empty empty empty 17 7 0 10 -262144
-1 -1;
#X obj 43 77 sel 0 1 2 3 4 5;
#X obj 43 54 random 6;
#X obj 199 391 nbx 2 16 -1e+37 1e+37 0 0 empty empty empty 0 -8 0 10
-1 -262144 -1 62 256;
#X obj 199 287 +;
#X obj 235 391 nbx 2 16 -1e+37 1e+37 0 0 empty empty empty 0 -8 0 10
-1 -262144 -1 65 256;
#X obj 235 287 +;
#X obj 270 391 nbx 2 16 -1e+37 1e+37 0 0 empty empty empty 0 -8 0 10
-1 -262144 -1 69 256;
#X obj 270 287 +;
#X floatatom 268 367 5 0 0 0 tone - -;
#X obj 158 55 % 12;
#X obj 289 56 % 12;
#X obj 85 351 inlet;
#X obj 408 351 inlet;
#X obj 199 468 outlet;
#X obj 235 445 outlet;
#X obj 270 469 outlet;
#X connect 0 0 3 0;
#X connect 1 0 4 0;
#X connect 2 0 5 0;
#X connect 3 0 10 1;
#X connect 3 0 36 0;
#X connect 4 0 11 1;
#X connect 4 0 38 0;
#X connect 5 0 12 1;
#X connect 5 0 40 0;
#X connect 6 0 0 0;
#X connect 6 0 1 0;
#X connect 6 0 2 0;
#X connect 6 1 8 0;
#X connect 7 0 42 0;
#X connect 8 0 9 0;
#X connect 9 0 0 1;
#X connect 9 1 1 1;
#X connect 9 2 2 1;
#X connect 10 0 23 0;
#X connect 11 0 23 0;
#X connect 12 0 23 0;
#X connect 13 0 10 0;
#X connect 14 0 11 0;
#X connect 15 0 12 0;
#X connect 16 0 19 0;
#X connect 17 0 20 0;
#X connect 18 0 21 0;
#X connect 19 0 25 1;
#X connect 19 0 36 0;
#X connect 20 0 26 1;
#X connect 20 0 38 0;
#X connect 21 0 27 1;
#X connect 21 0 40 0;
#X connect 22 0 16 0;
#X connect 22 0 17 0;
#X connect 22 0 18 0;
#X connect 22 1 31 0;
#X connect 23 0 43 0;
#X connect 24 0 16 1;
#X connect 24 1 17 1;
#X connect 24 2 18 1;
#X connect 25 0 7 0;
#X connect 26 0 7 0;
#X connect 27 0 7 0;
#X connect 28 0 25 0;
#X connect 29 0 26 0;
#X connect 30 0 27 0;
#X connect 31 0 24 0;
#X connect 32 0 34 0;
#X connect 33 0 13 0;
#X connect 33 1 14 0;
#X connect 33 2 15 0;
#X connect 33 3 28 0;
#X connect 33 4 29 0;
#X connect 33 5 30 0;
#X connect 34 0 33 0;
#X connect 35 0 46 0;
#X connect 36 0 35 0;
#X connect 37 0 47 0;
#X connect 38 0 37 0;
#X connect 39 0 48 0;
#X connect 40 0 39 0;
#X connect 41 0 40 1;
#X connect 41 0 38 1;
#X connect 41 0 36 1;
#X connect 42 0 6 0;
#X connect 43 0 22 0;
#X connect 44 0 32 0;
#X connect 45 0 41 0;
#X coords 0 -1 1 1 115 75 1 192 340;
